<svg xmlns="http://www.w3.org/2000/svg" xmlns:xlink="http://www.w3.org/1999/xlink" width="500" zoomAndPan="magnify" viewBox="0 0 375 374.999991" height="500" preserveAspectRatio="xMidYMid meet" version="1.0"><defs><clipPath id="id1"><path d="M 11.914062 13.140625 L 36.664062 13.140625 L 36.664062 361.890625 L 11.914062 361.890625 Z M 11.914062 13.140625 " clip-rule="nonzero"/></clipPath><clipPath id="id2"><path d="M 337.5 12.398438 L 362.25 12.398438 L 362.25 361.148438 L 337.5 361.148438 Z M 337.5 12.398438 " clip-rule="nonzero"/></clipPath><clipPath id="id3"><path d="M 13.109375 12.394531 L 361.855469 12.394531 L 361.855469 37.144531 L 13.109375 37.144531 Z M 13.109375 12.394531 " clip-rule="nonzero"/></clipPath><clipPath id="id4"><path d="M 13.847656 336.753906 L 362.597656 336.753906 L 362.597656 361.503906 L 13.847656 361.503906 Z M 13.847656 336.753906 " clip-rule="nonzero"/></clipPath><clipPath id="id5"><path d="M 14 15 L 209 15 L 209 360 L 14 360 Z M 14 15 " clip-rule="nonzero"/></clipPath><clipPath id="id6"><path d="M 186.484375 15.65625 L 208.460938 27.042969 L 36.308594 359.347656 L 14.332031 347.960938 Z M 186.484375 15.65625 " clip-rule="nonzero"/></clipPath><clipPath id="id7"><path d="M 168 17 L 362 17 L 362 361 L 168 361 Z M 168 17 " clip-rule="nonzero"/></clipPath><clipPath id="id8"><path d="M 361.855469 349.582031 L 339.871094 360.945312 L 168.027344 28.480469 L 190.015625 17.117188 Z M 361.855469 349.582031 " clip-rule="nonzero"/></clipPath><clipPath id="id9"><path d="M 111 149 L 205 149 L 205 298 L 111 298 Z M 111 149 " clip-rule="nonzero"/></clipPath><clipPath id="id10"><path d="M 204.914062 286.394531 L 182.925781 297.757812 L 111.984375 160.507812 L 133.972656 149.144531 Z M 204.914062 286.394531 " clip-rule="nonzero"/></clipPath><clipPath id="id11"><path d="M 177 161 L 265 161 L 265 298 L 177 298 Z M 177 161 " clip-rule="nonzero"/></clipPath><clipPath id="id12"><path d="M 242.542969 161.246094 L 264.519531 172.628906 L 199.660156 297.828125 L 177.683594 286.441406 Z M 242.542969 161.246094 " clip-rule="nonzero"/></clipPath><clipPath id="id13"><path d="M 173.6875 279.394531 L 208.9375 279.394531 L 208.9375 314.644531 L 173.6875 314.644531 Z M 173.6875 279.394531 " clip-rule="nonzero"/></clipPath></defs><g clip-path="url(#id1)"><path fill="#ffeed6" d="M 11.914062 13.140625 L 36.664062 13.140625 L 36.664062 361.890625 L 11.914062 361.890625 L 11.914062 13.140625 " fill-opacity="1" fill-rule="nonzero"/></g><g clip-path="url(#id2)"><path fill="#ffeed6" d="M 337.5 12.398438 L 362.25 12.398438 L 362.25 361.148438 L 337.5 361.148438 L 337.5 12.398438 " fill-opacity="1" fill-rule="nonzero"/></g><g clip-path="url(#id3)"><path fill="#ffeed6" d="M 361.855469 12.394531 L 361.855469 37.144531 L 13.105469 37.144531 L 13.105469 12.394531 L 361.855469 12.394531 " fill-opacity="1" fill-rule="nonzero"/></g><g clip-path="url(#id4)"><path fill="#ffeed6" d="M 362.597656 336.757812 L 362.597656 361.503906 L 13.847656 361.503906 L 13.847656 336.757812 L 362.597656 336.757812 " fill-opacity="1" fill-rule="nonzero"/></g><g clip-path="url(#id5)"><g clip-path="url(#id6)"><path fill="#ffeed6" d="M 186.484375 15.65625 L 208.460938 27.042969 L 36.308594 359.347656 L 14.332031 347.960938 L 186.484375 15.65625 " fill-opacity="1" fill-rule="nonzero"/></g></g><g clip-path="url(#id7)"><g clip-path="url(#id8)"><path fill="#ffeed6" d="M 361.855469 349.582031 L 339.871094 360.945312 L 168.027344 28.480469 L 190.015625 17.117188 L 361.855469 349.582031 " fill-opacity="1" fill-rule="nonzero"/></g></g><g clip-path="url(#id9)"><g clip-path="url(#id10)"><path fill="#ffeed6" d="M 204.914062 286.394531 L 182.925781 297.757812 L 111.984375 160.507812 L 133.972656 149.144531 L 204.914062 286.394531 " fill-opacity="1" fill-rule="nonzero"/></g></g><g clip-path="url(#id11)"><g clip-path="url(#id12)"><path fill="#ffeed6" d="M 242.542969 161.246094 L 264.519531 172.628906 L 199.660156 297.828125 L 177.683594 286.441406 L 242.542969 161.246094 " fill-opacity="1" fill-rule="nonzero"/></g></g><g clip-path="url(#id13)"><path fill="#ffeed6" d="M 191.3125 314.644531 L 208.933594 279.394531 L 173.691406 279.394531 L 191.3125 314.644531 " fill-opacity="1" fill-rule="nonzero"/></g></svg>