<svg xmlns="http://www.w3.org/2000/svg" xmlns:xlink="http://www.w3.org/1999/xlink" width="739" zoomAndPan="magnify" viewBox="0 0 554.25 350.999992" height="468" preserveAspectRatio="xMidYMid meet" version="1.0"><defs><clipPath id="756cd01b17"><path d="M 421 232 L 460 232 L 460 350.761719 L 421 350.761719 Z M 421 232 " clip-rule="nonzero"/></clipPath><clipPath id="42068184fe"><path d="M 181 336 L 217 336 L 217 350.761719 L 181 350.761719 Z M 181 336 " clip-rule="nonzero"/></clipPath><clipPath id="51f998351a"><path d="M 66 336 L 101 336 L 101 350.761719 L 66 350.761719 Z M 66 336 " clip-rule="nonzero"/></clipPath><clipPath id="0f56c192b7"><path d="M 99 0.238281 L 155 0.238281 L 155 52 L 99 52 Z M 99 0.238281 " clip-rule="nonzero"/></clipPath><clipPath id="840ad72026"><path d="M 50.609375 349 L 471.539062 349 L 471.539062 350.761719 L 50.609375 350.761719 Z M 50.609375 349 " clip-rule="nonzero"/></clipPath></defs><g clip-path="url(#756cd01b17)"><path fill="#2f2e41" d="M 458.28125 350.261719 L 459.777344 350.234375 C 459.199219 333.554688 457.425781 317.007812 454.460938 300.585938 C 447.984375 265.472656 437.210938 242.410156 422.445312 232.042969 L 421.585938 233.269531 C 456.078125 257.488281 458.261719 349.335938 458.28125 350.261719 Z M 458.28125 350.261719 " fill-opacity="1" fill-rule="nonzero"/></g><path fill="#2f2e41" d="M 439.554688 349.90625 L 441.054688 349.875 C 441.023438 348.214844 440.085938 309.121094 424.695312 298.3125 L 423.832031 299.539062 C 438.605469 309.910156 439.546875 349.503906 439.554688 349.90625 Z M 439.554688 349.90625 " fill-opacity="1" fill-rule="nonzero"/><path fill="#a82130" d="M 420.554688 225.917969 C 420.554688 226.410156 420.507812 226.894531 420.410156 227.378906 C 420.316406 227.859375 420.171875 228.328125 419.984375 228.78125 C 419.796875 229.238281 419.566406 229.667969 419.292969 230.078125 C 419.019531 230.488281 418.707031 230.863281 418.359375 231.210938 C 418.011719 231.558594 417.632812 231.871094 417.226562 232.144531 C 416.816406 232.417969 416.386719 232.648438 415.929688 232.835938 C 415.476562 233.023438 415.007812 233.167969 414.527344 233.261719 C 414.042969 233.359375 413.554688 233.40625 413.066406 233.40625 C 412.574219 233.40625 412.085938 233.359375 411.601562 233.261719 C 411.121094 233.167969 410.652344 233.023438 410.199219 232.835938 C 409.742188 232.648438 409.3125 232.417969 408.902344 232.144531 C 408.496094 231.871094 408.117188 231.558594 407.769531 231.210938 C 407.421875 230.863281 407.109375 230.488281 406.835938 230.078125 C 406.5625 229.667969 406.332031 229.238281 406.144531 228.78125 C 405.957031 228.328125 405.816406 227.859375 405.71875 227.378906 C 405.621094 226.894531 405.574219 226.410156 405.574219 225.917969 C 405.574219 225.425781 405.621094 224.9375 405.71875 224.457031 C 405.816406 223.972656 405.957031 223.503906 406.144531 223.050781 C 406.332031 222.597656 406.5625 222.164062 406.835938 221.753906 C 407.109375 221.347656 407.421875 220.96875 407.769531 220.621094 C 408.117188 220.273438 408.496094 219.960938 408.902344 219.6875 C 409.3125 219.414062 409.742188 219.183594 410.199219 218.996094 C 410.652344 218.808594 411.121094 218.667969 411.601562 218.570312 C 412.085938 218.476562 412.574219 218.425781 413.066406 218.425781 C 413.554688 218.425781 414.042969 218.476562 414.527344 218.570312 C 415.007812 218.667969 415.476562 218.808594 415.929688 218.996094 C 416.386719 219.183594 416.816406 219.414062 417.226562 219.6875 C 417.632812 219.960938 418.011719 220.273438 418.359375 220.621094 C 418.707031 220.96875 419.019531 221.347656 419.292969 221.753906 C 419.566406 222.164062 419.796875 222.597656 419.984375 223.050781 C 420.171875 223.503906 420.316406 223.972656 420.410156 224.457031 C 420.507812 224.9375 420.554688 225.425781 420.554688 225.917969 Z M 420.554688 225.917969 " fill-opacity="1" fill-rule="nonzero"/><path fill="#a82130" d="M 424.261719 290.328125 C 424.261719 290.820312 424.214844 291.308594 424.121094 291.789062 C 424.023438 292.273438 423.882812 292.742188 423.691406 293.195312 C 423.503906 293.648438 423.273438 294.082031 423 294.492188 C 422.726562 294.898438 422.417969 295.277344 422.070312 295.625 C 421.722656 295.972656 421.34375 296.285156 420.933594 296.558594 C 420.527344 296.832031 420.09375 297.0625 419.640625 297.25 C 419.183594 297.4375 418.71875 297.578125 418.234375 297.675781 C 417.753906 297.769531 417.265625 297.820312 416.773438 297.820312 C 416.28125 297.820312 415.792969 297.769531 415.3125 297.675781 C 414.828125 297.578125 414.363281 297.4375 413.90625 297.25 C 413.453125 297.0625 413.019531 296.832031 412.613281 296.558594 C 412.203125 296.285156 411.824219 295.972656 411.476562 295.625 C 411.128906 295.277344 410.820312 294.898438 410.546875 294.492188 C 410.273438 294.082031 410.042969 293.648438 409.855469 293.195312 C 409.664062 292.742188 409.523438 292.273438 409.425781 291.789062 C 409.332031 291.308594 409.285156 290.820312 409.285156 290.328125 C 409.285156 289.835938 409.332031 289.351562 409.425781 288.867188 C 409.523438 288.386719 409.664062 287.917969 409.855469 287.464844 C 410.042969 287.007812 410.273438 286.578125 410.546875 286.167969 C 410.820312 285.757812 411.128906 285.382812 411.476562 285.03125 C 411.824219 284.683594 412.203125 284.375 412.613281 284.101562 C 413.019531 283.828125 413.453125 283.597656 413.90625 283.410156 C 414.363281 283.222656 414.828125 283.078125 415.3125 282.984375 C 415.792969 282.886719 416.28125 282.839844 416.773438 282.839844 C 417.265625 282.839844 417.753906 282.886719 418.234375 282.984375 C 418.71875 283.078125 419.183594 283.222656 419.640625 283.410156 C 420.09375 283.597656 420.527344 283.828125 420.933594 284.101562 C 421.34375 284.375 421.722656 284.683594 422.070312 285.03125 C 422.417969 285.382812 422.726562 285.757812 423 286.167969 C 423.273438 286.578125 423.503906 287.007812 423.691406 287.464844 C 423.882812 287.917969 424.023438 288.386719 424.121094 288.867188 C 424.214844 289.351562 424.261719 289.835938 424.261719 290.328125 Z M 424.261719 290.328125 " fill-opacity="1" fill-rule="nonzero"/><path fill="#2f2e41" d="M 443.046875 237.894531 C 441.640625 246.886719 445.308594 254.929688 445.308594 254.929688 C 445.308594 254.929688 451.257812 248.394531 452.667969 239.402344 C 454.074219 230.410156 450.40625 222.371094 450.40625 222.371094 C 450.40625 222.371094 444.453125 228.90625 443.046875 237.894531 Z M 443.046875 237.894531 " fill-opacity="1" fill-rule="nonzero"/><path fill="#2f2e41" d="M 418.566406 259.730469 C 427.171875 262.683594 435.730469 260.472656 435.730469 260.472656 C 435.730469 260.472656 430.332031 253.472656 421.722656 250.523438 C 413.117188 247.570312 404.558594 249.78125 404.558594 249.78125 C 404.558594 249.78125 409.957031 256.777344 418.566406 259.730469 Z M 418.566406 259.730469 " fill-opacity="1" fill-rule="nonzero"/><path fill="#2f2e41" d="M 418.289062 316.777344 C 422.253906 318.019531 426.261719 318.195312 430.320312 317.296875 C 429.691406 316.492188 429.007812 315.742188 428.269531 315.039062 C 427.53125 314.335938 426.746094 313.6875 425.914062 313.097656 C 425.085938 312.507812 424.214844 311.980469 423.308594 311.515625 C 422.402344 311.046875 421.464844 310.652344 420.503906 310.320312 C 419.539062 309.988281 418.554688 309.730469 417.554688 309.539062 C 416.550781 309.351562 415.542969 309.234375 414.523438 309.191406 C 413.507812 309.144531 412.488281 309.175781 411.476562 309.277344 C 410.460938 309.378906 409.460938 309.554688 408.472656 309.800781 C 411.121094 313 414.394531 315.324219 418.289062 316.777344 Z M 418.289062 316.777344 " fill-opacity="1" fill-rule="nonzero"/><path fill="#9f616a" d="M 243.492188 116.476562 L 195.203125 91.367188 C 195.203125 91.367188 178.988281 73.507812 168.804688 65.441406 C 158.621094 57.375 155.484375 63.300781 155.484375 63.300781 L 151.203125 70.4375 L 161.550781 84.828125 L 189.496094 108.492188 L 239.429688 128.050781 C 239.691406 128.476562 239.988281 128.871094 240.320312 129.242188 C 240.65625 129.609375 241.019531 129.941406 241.417969 130.242188 C 241.816406 130.542969 242.238281 130.804688 242.683594 131.023438 C 243.128906 131.242188 243.59375 131.421875 244.070312 131.554688 C 244.550781 131.6875 245.039062 131.773438 245.535156 131.8125 C 246.03125 131.855469 246.527344 131.851562 247.019531 131.796875 C 247.515625 131.746094 248 131.648438 248.476562 131.503906 C 248.953125 131.359375 249.414062 131.171875 249.855469 130.941406 C 250.292969 130.710938 250.710938 130.441406 251.101562 130.132812 C 251.492188 129.824219 251.847656 129.480469 252.175781 129.105469 C 252.5 128.730469 252.789062 128.328125 253.039062 127.894531 C 253.289062 127.464844 253.496094 127.015625 253.660156 126.546875 C 253.824219 126.078125 253.945312 125.59375 254.019531 125.101562 C 254.09375 124.613281 254.121094 124.117188 254.101562 123.621094 C 254.082031 123.121094 254.015625 122.632812 253.90625 122.144531 C 253.792969 121.660156 253.636719 121.191406 253.4375 120.734375 C 253.234375 120.28125 252.996094 119.847656 252.714844 119.4375 C 252.429688 119.027344 252.113281 118.648438 251.761719 118.296875 C 251.40625 117.945312 251.023438 117.632812 250.609375 117.355469 C 250.199219 117.078125 249.761719 116.839844 249.304688 116.644531 C 248.847656 116.449219 248.375 116.296875 247.890625 116.191406 C 247.402344 116.082031 246.914062 116.023438 246.414062 116.007812 C 245.917969 115.992188 245.421875 116.027344 244.933594 116.105469 C 244.441406 116.183594 243.960938 116.308594 243.492188 116.476562 Z M 243.492188 116.476562 " fill-opacity="1" fill-rule="nonzero"/><path fill="#9f616a" d="M 117.886719 94.761719 L 115.03125 77.269531 L 106.957031 75.25 C 106.957031 75.25 100.550781 73.277344 99.054688 86.183594 C 97.554688 99.089844 98.714844 123.183594 98.714844 123.183594 L 82.328125 175.082031 C 81.875 175.292969 81.445312 175.546875 81.039062 175.835938 C 80.632812 176.128906 80.257812 176.457031 79.914062 176.816406 C 79.570312 177.179688 79.265625 177.570312 78.996094 177.992188 C 78.726562 178.410156 78.496094 178.851562 78.3125 179.316406 C 78.125 179.78125 77.984375 180.257812 77.886719 180.746094 C 77.789062 181.238281 77.742188 181.730469 77.738281 182.230469 C 77.734375 182.730469 77.777344 183.226562 77.867188 183.714844 C 77.957031 184.207031 78.09375 184.683594 78.273438 185.152344 C 78.457031 185.617188 78.679688 186.0625 78.941406 186.484375 C 79.207031 186.90625 79.507812 187.304688 79.847656 187.667969 C 80.1875 188.035156 80.558594 188.367188 80.960938 188.664062 C 81.359375 188.960938 81.789062 189.21875 82.238281 189.433594 C 82.6875 189.648438 83.152344 189.820312 83.636719 189.949219 C 84.117188 190.078125 84.609375 190.160156 85.105469 190.195312 C 85.605469 190.230469 86.101562 190.21875 86.597656 190.160156 C 87.09375 190.101562 87.582031 190 88.058594 189.847656 C 88.53125 189.699219 88.992188 189.507812 89.429688 189.269531 C 89.871094 189.035156 90.285156 188.757812 90.671875 188.441406 C 91.058594 188.128906 91.414062 187.78125 91.738281 187.398438 C 92.058594 187.019531 92.34375 186.609375 92.589844 186.175781 C 92.832031 185.738281 93.035156 185.285156 93.195312 184.8125 C 93.355469 184.339844 93.46875 183.855469 93.535156 183.359375 C 93.605469 182.863281 93.625 182.367188 93.597656 181.871094 C 93.574219 181.371094 93.5 180.878906 93.382812 180.394531 L 114.863281 131.253906 Z M 117.886719 94.761719 " fill-opacity="1" fill-rule="nonzero"/><path fill="#9f616a" d="M 184.660156 340.214844 L 195.222656 340.210938 L 200.246094 299.46875 L 184.65625 299.46875 Z M 184.660156 340.214844 " fill-opacity="1" fill-rule="nonzero"/><g clip-path="url(#42068184fe)"><path fill="#2f2e41" d="M 181.964844 336.765625 L 202.769531 336.761719 C 203.640625 336.761719 204.5 336.847656 205.355469 337.019531 C 206.207031 337.1875 207.039062 337.441406 207.839844 337.773438 C 208.644531 338.105469 209.410156 338.515625 210.132812 338.996094 C 210.855469 339.480469 211.527344 340.03125 212.140625 340.648438 C 212.757812 341.261719 213.308594 341.933594 213.792969 342.65625 C 214.273438 343.378906 214.683594 344.144531 215.015625 344.949219 C 215.351562 345.75 215.601562 346.582031 215.769531 347.433594 C 215.941406 348.289062 216.027344 349.148438 216.027344 350.019531 L 216.027344 350.453125 L 181.964844 350.453125 Z M 181.964844 336.765625 " fill-opacity="1" fill-rule="nonzero"/></g><path fill="#9f616a" d="M 69.441406 340.214844 L 80.007812 340.210938 L 85.03125 299.46875 L 69.441406 299.46875 Z M 69.441406 340.214844 " fill-opacity="1" fill-rule="nonzero"/><g clip-path="url(#51f998351a)"><path fill="#2f2e41" d="M 66.75 336.765625 L 87.550781 336.761719 L 87.554688 336.761719 C 88.421875 336.761719 89.285156 336.847656 90.140625 337.019531 C 90.992188 337.1875 91.820312 337.441406 92.625 337.773438 C 93.429688 338.105469 94.195312 338.515625 94.917969 338.996094 C 95.640625 339.480469 96.3125 340.03125 96.925781 340.648438 C 97.542969 341.261719 98.09375 341.933594 98.574219 342.65625 C 99.058594 343.378906 99.46875 344.144531 99.800781 344.949219 C 100.132812 345.75 100.386719 346.582031 100.554688 347.433594 C 100.726562 348.289062 100.808594 349.148438 100.808594 350.019531 L 100.808594 350.453125 L 66.75 350.453125 Z M 66.75 336.765625 " fill-opacity="1" fill-rule="nonzero"/></g><path fill="#2f2e41" d="M 121.59375 59.820312 L 104.070312 74.777344 L 118.449219 120.28125 L 121.695312 130.441406 C 121.695312 130.441406 101.882812 148.707031 89.625 199.734375 C 77.371094 250.757812 57.316406 318.558594 57.316406 318.558594 L 99.644531 330.671875 L 134.078125 215.25 L 174.582031 305.800781 L 179.261719 332.585938 L 215.304688 321.957031 L 206.804688 254.785156 L 164.289062 138.511719 L 168.707031 107.691406 C 168.707031 107.691406 175.335938 92.308594 163.816406 76.019531 L 160.203125 60.714844 L 147.257812 57.527344 Z M 121.59375 59.820312 " fill-opacity="1" fill-rule="nonzero"/><g clip-path="url(#0f56c192b7)"><path fill="#2f2e41" d="M 150.699219 51.691406 L 103.332031 51.691406 C 102.84375 51.691406 102.375 51.597656 101.925781 51.410156 C 101.472656 51.222656 101.078125 50.957031 100.734375 50.613281 C 100.386719 50.269531 100.121094 49.871094 99.9375 49.421875 C 99.75 48.972656 99.65625 48.503906 99.65625 48.015625 L 99.65625 27.597656 C 99.65625 26.699219 99.699219 25.808594 99.785156 24.914062 C 99.875 24.023438 100.007812 23.136719 100.179688 22.257812 C 100.355469 21.378906 100.574219 20.511719 100.832031 19.65625 C 101.09375 18.796875 101.394531 17.953125 101.738281 17.125 C 102.082031 16.300781 102.464844 15.488281 102.886719 14.699219 C 103.308594 13.910156 103.769531 13.140625 104.265625 12.398438 C 104.765625 11.652344 105.296875 10.933594 105.867188 10.238281 C 106.433594 9.546875 107.035156 8.882812 107.667969 8.25 C 108.300781 7.617188 108.964844 7.015625 109.65625 6.449219 C 110.351562 5.878906 111.070312 5.347656 111.816406 4.847656 C 112.558594 4.351562 113.328125 3.890625 114.117188 3.46875 C 114.90625 3.046875 115.71875 2.664062 116.546875 2.320312 C 117.371094 1.976562 118.214844 1.675781 119.074219 1.414062 C 119.929688 1.15625 120.796875 0.9375 121.675781 0.761719 C 122.554688 0.585938 123.441406 0.457031 124.332031 0.367188 C 125.226562 0.28125 126.121094 0.238281 127.015625 0.238281 C 127.910156 0.238281 128.804688 0.28125 129.695312 0.367188 C 130.589844 0.457031 131.472656 0.585938 132.351562 0.761719 C 133.230469 0.9375 134.101562 1.15625 134.957031 1.414062 C 135.816406 1.675781 136.65625 1.976562 137.484375 2.320312 C 138.3125 2.664062 139.121094 3.046875 139.914062 3.46875 C 140.703125 3.890625 141.472656 4.351562 142.214844 4.847656 C 142.960938 5.347656 143.679688 5.878906 144.371094 6.449219 C 145.066406 7.015625 145.726562 7.617188 146.363281 8.25 C 146.996094 8.882812 147.597656 9.546875 148.164062 10.238281 C 148.734375 10.933594 149.265625 11.652344 149.765625 12.398438 C 150.261719 13.140625 150.722656 13.910156 151.144531 14.699219 C 151.566406 15.488281 151.949219 16.300781 152.292969 17.125 C 152.636719 17.953125 152.9375 18.796875 153.199219 19.65625 C 153.457031 20.511719 153.675781 21.378906 153.851562 22.257812 C 154.023438 23.136719 154.15625 24.023438 154.242188 24.914062 C 154.332031 25.808594 154.375 26.699219 154.375 27.597656 L 154.375 48.015625 C 154.375 48.503906 154.28125 48.972656 154.09375 49.421875 C 153.90625 49.871094 153.640625 50.269531 153.296875 50.613281 C 152.953125 50.957031 152.554688 51.222656 152.105469 51.410156 C 151.65625 51.597656 151.1875 51.691406 150.699219 51.691406 Z M 150.699219 51.691406 " fill-opacity="1" fill-rule="nonzero"/></g><path fill="#9f616a" d="M 142.257812 13.554688 C 142.832031 13.871094 143.394531 14.210938 143.9375 14.582031 C 144.480469 14.953125 145.003906 15.347656 145.507812 15.769531 C 146.011719 16.191406 146.492188 16.636719 146.953125 17.105469 C 147.414062 17.574219 147.847656 18.066406 148.261719 18.578125 C 148.671875 19.089844 149.058594 19.617188 149.417969 20.167969 C 149.777344 20.71875 150.109375 21.285156 150.414062 21.867188 C 150.71875 22.449219 150.992188 23.042969 151.238281 23.652344 C 151.484375 24.261719 151.699219 24.882812 151.886719 25.511719 C 152.070312 26.144531 152.222656 26.78125 152.34375 27.425781 C 152.46875 28.074219 152.558594 28.722656 152.617188 29.378906 C 152.675781 30.03125 152.699219 30.6875 152.695312 31.34375 C 152.6875 32 152.648438 32.65625 152.578125 33.308594 C 152.507812 33.960938 152.40625 34.609375 152.273438 35.253906 C 152.136719 35.898438 151.972656 36.53125 151.777344 37.160156 C 151.578125 37.785156 151.351562 38.402344 151.09375 39.007812 C 150.839844 39.609375 150.550781 40.199219 150.238281 40.777344 C 149.921875 41.355469 149.578125 41.914062 149.210938 42.457031 C 148.839844 43 148.441406 43.523438 148.023438 44.027344 C 147.601562 44.53125 147.15625 45.011719 146.6875 45.472656 C 146.21875 45.933594 145.726562 46.367188 145.214844 46.78125 C 144.703125 47.191406 144.171875 47.578125 143.625 47.9375 C 143.074219 48.296875 142.507812 48.628906 141.925781 48.933594 C 141.34375 49.238281 140.746094 49.515625 140.136719 49.757812 C 139.527344 50.003906 138.910156 50.21875 138.277344 50.40625 C 137.648438 50.589844 137.011719 50.742188 136.363281 50.867188 C 135.71875 50.988281 135.070312 51.078125 134.414062 51.136719 C 133.761719 51.195312 133.105469 51.21875 132.449219 51.214844 C 131.789062 51.207031 131.136719 51.167969 130.480469 51.097656 C 129.828125 51.027344 129.179688 50.925781 128.539062 50.792969 C 127.894531 50.65625 127.261719 50.492188 126.632812 50.296875 C 126.007812 50.097656 125.390625 49.871094 124.785156 49.617188 C 124.179688 49.359375 123.589844 49.070312 123.015625 48.757812 C 122.4375 48.441406 121.878906 48.097656 121.335938 47.730469 C 120.792969 47.359375 120.269531 46.964844 119.765625 46.542969 C 119.261719 46.121094 118.78125 45.675781 118.320312 45.207031 C 117.859375 44.738281 117.421875 44.246094 117.011719 43.734375 C 116.597656 43.222656 116.214844 42.691406 115.851562 42.144531 C 115.492188 41.59375 115.160156 41.027344 114.855469 40.445312 C 114.554688 39.863281 114.277344 39.265625 114.03125 38.65625 C 113.785156 38.046875 113.570312 37.429688 113.386719 36.796875 C 113.203125 36.167969 113.046875 35.53125 112.925781 34.882812 C 112.804688 34.238281 112.714844 33.589844 112.65625 32.933594 C 112.597656 32.28125 112.570312 31.625 112.578125 30.96875 C 112.582031 30.3125 112.621094 29.65625 112.691406 29.003906 C 112.761719 28.347656 112.867188 27.699219 113 27.058594 C 113.132812 26.414062 113.300781 25.78125 113.496094 25.152344 C 113.691406 24.527344 113.917969 23.910156 114.175781 23.304688 C 114.433594 22.703125 114.71875 22.109375 115.035156 21.535156 C 115.351562 20.957031 115.691406 20.398438 116.0625 19.855469 C 116.433594 19.3125 116.828125 18.789062 117.25 18.285156 C 117.671875 17.78125 118.117188 17.300781 118.585938 16.839844 C 119.054688 16.378906 119.542969 15.941406 120.054688 15.53125 C 120.566406 15.117188 121.097656 14.734375 121.648438 14.375 C 122.199219 14.011719 122.765625 13.679688 123.347656 13.378906 C 123.929688 13.074219 124.523438 12.796875 125.132812 12.550781 C 125.742188 12.304688 126.363281 12.089844 126.992188 11.90625 C 127.625 11.722656 128.261719 11.566406 128.90625 11.445312 C 129.554688 11.324219 130.203125 11.234375 130.855469 11.175781 C 131.511719 11.117188 132.167969 11.089844 132.824219 11.097656 C 133.480469 11.105469 134.136719 11.140625 134.789062 11.210938 C 135.441406 11.28125 136.089844 11.386719 136.734375 11.519531 C 137.375 11.652344 138.011719 11.820312 138.640625 12.015625 C 139.265625 12.210938 139.882812 12.4375 140.484375 12.695312 C 141.089844 12.953125 141.679688 13.238281 142.257812 13.554688 Z M 142.257812 13.554688 " fill-opacity="1" fill-rule="nonzero"/><path fill="#2f2e41" d="M 160.847656 29.640625 L 131.882812 29.640625 L 131.585938 25.480469 L 130.101562 29.640625 L 125.640625 29.640625 L 125.050781 21.398438 L 122.109375 29.640625 L 113.476562 29.640625 L 113.476562 29.230469 C 113.480469 28.523438 113.515625 27.816406 113.585938 27.109375 C 113.65625 26.40625 113.757812 25.703125 113.898438 25.011719 C 114.039062 24.316406 114.210938 23.628906 114.414062 22.949219 C 114.621094 22.273438 114.859375 21.605469 115.132812 20.953125 C 115.402344 20.296875 115.707031 19.65625 116.042969 19.03125 C 116.375 18.40625 116.738281 17.800781 117.132812 17.210938 C 117.527344 16.621094 117.949219 16.054688 118.398438 15.507812 C 118.847656 14.960938 119.324219 14.433594 119.824219 13.933594 C 120.324219 13.433594 120.851562 12.957031 121.398438 12.507812 C 121.945312 12.058594 122.515625 11.636719 123.101562 11.242188 C 123.691406 10.847656 124.300781 10.484375 124.921875 10.148438 C 125.546875 9.816406 126.1875 9.511719 126.84375 9.242188 C 127.496094 8.96875 128.164062 8.730469 128.839844 8.523438 C 129.519531 8.320312 130.207031 8.144531 130.902344 8.007812 C 131.59375 7.867188 132.296875 7.765625 133 7.695312 C 133.707031 7.625 134.414062 7.589844 135.121094 7.585938 L 139.207031 7.585938 C 139.914062 7.589844 140.621094 7.625 141.324219 7.695312 C 142.03125 7.765625 142.730469 7.867188 143.425781 8.007812 C 144.121094 8.144531 144.808594 8.320312 145.484375 8.523438 C 146.164062 8.730469 146.828125 8.96875 147.484375 9.242188 C 148.136719 9.511719 148.777344 9.816406 149.402344 10.148438 C 150.027344 10.484375 150.632812 10.847656 151.222656 11.242188 C 151.8125 11.636719 152.382812 12.058594 152.929688 12.507812 C 153.476562 12.957031 154 13.433594 154.503906 13.933594 C 155.003906 14.433594 155.476562 14.960938 155.929688 15.507812 C 156.378906 16.054688 156.800781 16.621094 157.191406 17.210938 C 157.585938 17.800781 157.953125 18.40625 158.285156 19.03125 C 158.621094 19.65625 158.921875 20.296875 159.195312 20.953125 C 159.464844 21.605469 159.703125 22.273438 159.910156 22.949219 C 160.117188 23.628906 160.289062 24.316406 160.429688 25.011719 C 160.566406 25.703125 160.671875 26.40625 160.742188 27.109375 C 160.8125 27.816406 160.847656 28.523438 160.847656 29.230469 Z M 160.847656 29.640625 " fill-opacity="1" fill-rule="nonzero"/><path fill="#2f2e41" d="M 131.644531 55.503906 C 131.425781 55.5 131.210938 55.484375 130.996094 55.445312 L 109.785156 51.703125 L 109.785156 16.648438 L 133.132812 16.648438 L 132.554688 17.324219 C 124.511719 26.703125 130.570312 41.910156 134.898438 50.140625 C 135.226562 50.757812 135.363281 51.410156 135.308594 52.105469 C 135.257812 52.800781 135.023438 53.425781 134.613281 53.988281 C 134.269531 54.460938 133.835938 54.835938 133.3125 55.101562 C 132.789062 55.367188 132.234375 55.503906 131.644531 55.503906 Z M 131.644531 55.503906 " fill-opacity="1" fill-rule="nonzero"/><path fill="#ffffff" d="M 307.050781 239.273438 L 121.164062 304.992188 C 120.597656 305.195312 120.023438 305.367188 119.4375 305.507812 C 118.851562 305.652344 118.261719 305.765625 117.667969 305.851562 C 117.070312 305.9375 116.472656 305.992188 115.871094 306.019531 C 115.269531 306.046875 114.671875 306.046875 114.070312 306.011719 C 113.46875 305.980469 112.871094 305.917969 112.277344 305.828125 C 111.679688 305.738281 111.09375 305.617188 110.507812 305.46875 C 109.925781 305.320312 109.351562 305.144531 108.785156 304.9375 C 108.21875 304.734375 107.664062 304.503906 107.121094 304.242188 C 106.578125 303.984375 106.050781 303.699219 105.535156 303.386719 C 105.019531 303.074219 104.523438 302.738281 104.039062 302.378906 C 103.558594 302.019531 103.09375 301.636719 102.648438 301.230469 C 102.203125 300.824219 101.78125 300.398438 101.378906 299.953125 C 100.976562 299.503906 100.597656 299.039062 100.238281 298.554688 C 99.882812 298.070312 99.550781 297.570312 99.242188 297.050781 C 98.933594 296.535156 98.652344 296.003906 98.398438 295.460938 C 98.140625 294.914062 97.914062 294.359375 97.710938 293.792969 L 65.777344 203.476562 C 65.578125 202.90625 65.40625 202.332031 65.265625 201.746094 C 65.121094 201.164062 65.003906 200.574219 64.921875 199.976562 C 64.835938 199.382812 64.777344 198.785156 64.75 198.183594 C 64.726562 197.582031 64.726562 196.980469 64.757812 196.378906 C 64.792969 195.777344 64.851562 195.179688 64.945312 194.585938 C 65.035156 193.992188 65.15625 193.402344 65.304688 192.820312 C 65.453125 192.234375 65.628906 191.660156 65.832031 191.09375 C 66.039062 190.53125 66.269531 189.976562 66.53125 189.433594 C 66.789062 188.890625 67.074219 188.359375 67.386719 187.84375 C 67.695312 187.328125 68.03125 186.832031 68.394531 186.347656 C 68.753906 185.867188 69.136719 185.402344 69.542969 184.960938 C 69.945312 184.515625 70.375 184.089844 70.820312 183.6875 C 71.269531 183.285156 71.734375 182.90625 72.21875 182.550781 C 72.703125 182.191406 73.203125 181.859375 73.71875 181.550781 C 74.238281 181.242188 74.769531 180.960938 75.3125 180.707031 C 75.855469 180.449219 76.414062 180.222656 76.980469 180.019531 L 262.863281 114.300781 C 263.433594 114.101562 264.007812 113.929688 264.59375 113.785156 C 265.175781 113.640625 265.765625 113.527344 266.363281 113.441406 C 266.957031 113.355469 267.558594 113.300781 268.15625 113.273438 C 268.757812 113.246094 269.359375 113.25 269.960938 113.28125 C 270.5625 113.3125 271.160156 113.375 271.753906 113.464844 C 272.347656 113.554688 272.9375 113.675781 273.523438 113.824219 C 274.105469 113.972656 274.679688 114.148438 275.246094 114.355469 C 275.8125 114.558594 276.367188 114.792969 276.910156 115.050781 C 277.453125 115.308594 277.980469 115.59375 278.496094 115.90625 C 279.011719 116.21875 279.507812 116.554688 279.992188 116.914062 C 280.472656 117.273438 280.9375 117.65625 281.382812 118.0625 C 281.824219 118.46875 282.25 118.894531 282.652344 119.339844 C 283.054688 119.789062 283.433594 120.253906 283.792969 120.738281 C 284.148438 121.222656 284.480469 121.722656 284.789062 122.242188 C 285.097656 122.757812 285.378906 123.289062 285.632812 123.832031 C 285.890625 124.378906 286.117188 124.933594 286.320312 125.5 L 318.25 215.816406 C 318.453125 216.386719 318.625 216.960938 318.765625 217.546875 C 318.910156 218.128906 319.023438 218.71875 319.109375 219.316406 C 319.195312 219.910156 319.253906 220.511719 319.277344 221.109375 C 319.304688 221.710938 319.304688 222.3125 319.269531 222.914062 C 319.238281 223.515625 319.175781 224.113281 319.085938 224.707031 C 318.996094 225.304688 318.875 225.890625 318.726562 226.476562 C 318.578125 227.058594 318.402344 227.632812 318.195312 228.199219 C 317.992188 228.765625 317.761719 229.320312 317.5 229.863281 C 317.242188 230.40625 316.957031 230.933594 316.644531 231.449219 C 316.332031 231.964844 315.996094 232.460938 315.636719 232.945312 C 315.277344 233.425781 314.894531 233.890625 314.488281 234.335938 C 314.082031 234.777344 313.65625 235.203125 313.210938 235.605469 C 312.761719 236.007812 312.296875 236.386719 311.8125 236.746094 C 311.328125 237.101562 310.828125 237.433594 310.308594 237.742188 C 309.792969 238.050781 309.261719 238.332031 308.71875 238.585938 C 308.171875 238.84375 307.617188 239.070312 307.050781 239.273438 Z M 307.050781 239.273438 " fill-opacity="1" fill-rule="nonzero"/><path fill="#f2f2f2" d="M 318.25 215.816406 L 318.421875 216.296875 C 318.613281 216.835938 318.777344 217.386719 318.914062 217.945312 C 319.050781 218.503906 319.160156 219.066406 319.242188 219.636719 C 319.324219 220.207031 319.378906 220.777344 319.40625 221.351562 C 319.433594 221.925781 319.429688 222.5 319.398438 223.074219 C 319.367188 223.648438 319.308594 224.21875 319.222656 224.789062 C 319.136719 225.355469 319.023438 225.917969 318.878906 226.476562 C 318.738281 227.03125 318.570312 227.582031 318.375 228.121094 C 318.179688 228.664062 317.957031 229.191406 317.707031 229.710938 C 317.460938 230.230469 317.1875 230.734375 316.890625 231.226562 C 316.59375 231.71875 316.273438 232.195312 315.929688 232.65625 C 315.585938 233.117188 315.21875 233.558594 314.832031 233.984375 C 314.441406 234.40625 314.035156 234.8125 313.609375 235.195312 C 313.179688 235.578125 312.734375 235.941406 312.273438 236.28125 C 311.808594 236.625 311.328125 236.941406 310.835938 237.234375 C 310.339844 237.527344 309.835938 237.796875 309.3125 238.039062 C 308.792969 238.285156 308.261719 238.5 307.71875 238.695312 L 120.90625 304.742188 C 120.363281 304.933594 119.8125 305.097656 119.257812 305.238281 C 118.699219 305.375 118.132812 305.484375 117.566406 305.566406 C 116.996094 305.648438 116.425781 305.703125 115.851562 305.726562 C 115.277344 305.753906 114.703125 305.753906 114.128906 305.722656 C 113.554688 305.691406 112.984375 305.632812 112.414062 305.546875 C 111.847656 305.460938 111.285156 305.347656 110.726562 305.203125 C 110.171875 305.0625 109.621094 304.894531 109.082031 304.699219 C 108.542969 304.503906 108.011719 304.28125 107.492188 304.03125 C 106.972656 303.785156 106.46875 303.511719 105.976562 303.214844 C 105.484375 302.917969 105.007812 302.597656 104.550781 302.253906 C 104.089844 301.910156 103.644531 301.542969 103.222656 301.15625 C 102.796875 300.769531 102.394531 300.359375 102.007812 299.933594 C 101.625 299.507812 101.261719 299.0625 100.921875 298.597656 C 100.582031 298.136719 100.261719 297.65625 99.96875 297.164062 C 99.675781 296.667969 99.40625 296.160156 99.164062 295.640625 C 98.917969 295.121094 98.703125 294.589844 98.511719 294.046875 L 98.339844 293.570312 Z M 318.25 215.816406 " fill-opacity="1" fill-rule="nonzero"/><path fill="#a82130" d="M 109.566406 200.992188 C 97.246094 209.097656 81.453125 202.996094 75.929688 194.109375 L 76.8125 193.609375 C 87.300781 187.070312 102.878906 190.714844 109.566406 200.992188 Z M 109.566406 200.992188 " fill-opacity="1" fill-rule="nonzero"/><path fill="#3f3d56" d="M 263.96875 223.992188 C 260.953125 225.058594 258.238281 225.011719 255.898438 223.847656 C 250.609375 221.21875 248.125 213.425781 246.132812 207.164062 C 245.550781 205.339844 245.003906 203.621094 244.445312 202.214844 L 244.4375 202.191406 C 244.195312 201.503906 244.023438 200.792969 243.921875 200.070312 C 243.820312 199.347656 243.789062 198.617188 243.832031 197.886719 C 243.871094 197.15625 243.980469 196.4375 244.164062 195.730469 C 244.34375 195.019531 244.59375 194.335938 244.90625 193.675781 C 245.222656 193.015625 245.597656 192.390625 246.035156 191.804688 C 246.472656 191.21875 246.960938 190.679688 247.503906 190.191406 C 248.046875 189.699219 248.632812 189.265625 249.257812 188.890625 C 249.886719 188.511719 250.542969 188.199219 251.234375 187.953125 L 276.234375 179.113281 C 279.246094 178.046875 281.960938 178.097656 284.296875 179.257812 C 289.585938 181.882812 292.070312 189.671875 294.066406 195.933594 C 294.648438 197.757812 295.199219 199.484375 295.761719 200.890625 C 296 201.582031 296.175781 202.292969 296.277344 203.015625 C 296.378906 203.742188 296.410156 204.46875 296.371094 205.203125 C 296.332031 205.933594 296.222656 206.65625 296.042969 207.363281 C 295.859375 208.074219 295.613281 208.761719 295.296875 209.421875 C 294.984375 210.082031 294.605469 210.707031 294.171875 211.292969 C 293.734375 211.882812 293.242188 212.421875 292.699219 212.914062 C 292.15625 213.40625 291.570312 213.839844 290.941406 214.21875 C 290.316406 214.59375 289.65625 214.90625 288.964844 215.15625 Z M 245.484375 201.8125 C 246.054688 203.253906 246.609375 204.988281 247.191406 206.824219 C 249.125 212.886719 251.527344 220.429688 256.394531 222.851562 C 258.484375 223.886719 260.839844 223.917969 263.597656 222.941406 L 288.59375 214.105469 C 289.214844 213.882812 289.804688 213.601562 290.371094 213.261719 C 290.9375 212.925781 291.464844 212.535156 291.953125 212.089844 C 292.441406 211.648438 292.882812 211.164062 293.273438 210.636719 C 293.667969 210.109375 294.007812 209.546875 294.292969 208.953125 C 294.574219 208.359375 294.800781 207.742188 294.960938 207.101562 C 295.125 206.464844 295.226562 205.816406 295.261719 205.160156 C 295.296875 204.5 295.269531 203.847656 295.179688 203.195312 C 295.085938 202.542969 294.933594 201.902344 294.714844 201.28125 C 294.148438 199.859375 293.59375 198.117188 293.007812 196.273438 C 291.074219 190.210938 288.667969 182.671875 283.804688 180.253906 C 281.714844 179.21875 279.363281 179.191406 276.605469 180.164062 L 251.605469 189.003906 C 250.984375 189.226562 250.394531 189.507812 249.828125 189.84375 C 249.265625 190.183594 248.738281 190.574219 248.25 191.015625 C 247.761719 191.457031 247.324219 191.941406 246.929688 192.46875 C 246.535156 192.996094 246.195312 193.558594 245.914062 194.152344 C 245.628906 194.746094 245.40625 195.359375 245.242188 196 C 245.078125 196.636719 244.980469 197.285156 244.941406 197.941406 C 244.90625 198.597656 244.933594 199.253906 245.023438 199.902344 C 245.113281 200.554688 245.269531 201.191406 245.484375 201.8125 Z M 245.484375 201.8125 " fill-opacity="1" fill-rule="nonzero"/><path fill="#3f3d56" d="M 104.382812 203.910156 C 102.1875 204.671875 99.925781 205.117188 97.605469 205.242188 C 95.285156 205.371094 92.988281 205.175781 90.722656 204.660156 C 84.101562 203.207031 78.09375 199.253906 75.039062 194.34375 L 74.734375 193.851562 L 76.109375 193.070312 C 86.757812 186.4375 102.722656 190.035156 109.613281 200.621094 L 109.917969 201.085938 L 109.453125 201.390625 C 107.867188 202.4375 106.175781 203.277344 104.382812 203.910156 Z M 76.300781 194.242188 C 79.289062 198.679688 84.84375 202.230469 90.960938 203.574219 C 92.433594 203.917969 93.925781 204.113281 95.4375 204.167969 C 96.949219 204.21875 98.449219 204.125 99.941406 203.882812 C 101.433594 203.644531 102.890625 203.261719 104.308594 202.734375 C 105.726562 202.210938 107.078125 201.554688 108.367188 200.765625 C 101.625 191.011719 86.691406 187.777344 76.6875 194.023438 Z M 76.300781 194.242188 " fill-opacity="1" fill-rule="nonzero"/><path fill="#3f3d56" d="M 110.914062 268.734375 C 110.132812 269.042969 109.324219 269.242188 108.492188 269.332031 C 107.65625 269.417969 106.824219 269.394531 105.996094 269.257812 C 105.167969 269.121094 104.375 268.875 103.613281 268.519531 C 102.851562 268.167969 102.152344 267.71875 101.511719 267.171875 C 100.765625 266.519531 100.113281 265.78125 99.554688 264.960938 C 98.996094 264.136719 98.554688 263.257812 98.222656 262.324219 C 97.890625 261.386719 97.683594 260.425781 97.601562 259.433594 C 97.515625 258.445312 97.5625 257.460938 97.730469 256.484375 C 97.890625 255.640625 98.160156 254.835938 98.539062 254.070312 C 98.921875 253.304688 99.398438 252.601562 99.972656 251.96875 C 100.546875 251.332031 101.199219 250.789062 101.925781 250.332031 C 102.648438 249.878906 103.425781 249.53125 104.246094 249.292969 L 137.558594 237.511719 C 138.351562 237.183594 139.171875 236.972656 140.019531 236.871094 C 140.871094 236.769531 141.71875 236.785156 142.5625 236.917969 C 143.410156 237.050781 144.21875 237.296875 144.996094 237.652344 C 145.773438 238.011719 146.488281 238.464844 147.140625 239.019531 C 147.890625 239.675781 148.539062 240.410156 149.097656 241.234375 C 149.65625 242.054688 150.097656 242.933594 150.429688 243.871094 C 150.761719 244.804688 150.96875 245.769531 151.050781 246.757812 C 151.132812 247.746094 151.089844 248.730469 150.917969 249.710938 C 150.261719 253.148438 147.941406 255.679688 144.402344 256.890625 L 111.089844 268.671875 C 111.03125 268.691406 110.972656 268.710938 110.914062 268.734375 Z M 104.453125 250.398438 C 103.742188 250.617188 103.074219 250.929688 102.449219 251.328125 C 101.820312 251.730469 101.261719 252.210938 100.765625 252.765625 C 100.269531 253.316406 99.855469 253.929688 99.527344 254.597656 C 99.199219 255.261719 98.964844 255.960938 98.824219 256.691406 C 98.671875 257.574219 98.632812 258.460938 98.707031 259.351562 C 98.78125 260.242188 98.96875 261.109375 99.269531 261.953125 C 99.566406 262.796875 99.964844 263.589844 100.46875 264.328125 C 100.972656 265.070312 101.558594 265.734375 102.234375 266.320312 C 102.808594 266.8125 103.445312 267.210938 104.132812 267.527344 C 104.820312 267.839844 105.539062 268.054688 106.289062 268.167969 C 107.035156 268.285156 107.785156 268.296875 108.535156 268.203125 C 109.285156 268.109375 110.011719 267.917969 110.707031 267.621094 L 144.039062 255.839844 C 144.765625 255.628906 145.453125 255.324219 146.097656 254.925781 C 146.738281 254.523438 147.316406 254.046875 147.828125 253.484375 C 148.335938 252.925781 148.761719 252.308594 149.101562 251.632812 C 149.441406 250.953125 149.683594 250.242188 149.824219 249.5 C 149.980469 248.617188 150.019531 247.730469 149.945312 246.839844 C 149.867188 245.949219 149.683594 245.082031 149.382812 244.238281 C 149.085938 243.394531 148.6875 242.605469 148.183594 241.863281 C 147.683594 241.125 147.09375 240.460938 146.421875 239.871094 C 145.84375 239.382812 145.210938 238.980469 144.519531 238.667969 C 143.832031 238.351562 143.113281 238.136719 142.363281 238.023438 C 141.617188 237.90625 140.867188 237.894531 140.113281 237.984375 C 139.363281 238.078125 138.636719 238.269531 137.9375 238.558594 L 104.605469 250.34375 C 104.554688 250.363281 104.503906 250.378906 104.453125 250.398438 Z M 104.453125 250.398438 " fill-opacity="1" fill-rule="nonzero"/><path fill="#a82130" d="M 264.191406 197.417969 L 253.691406 201.132812 C 253.34375 201.253906 252.984375 201.308594 252.613281 201.289062 C 252.246094 201.269531 251.894531 201.179688 251.5625 201.019531 C 251.230469 200.859375 250.9375 200.644531 250.691406 200.371094 C 250.445312 200.09375 250.261719 199.785156 250.136719 199.433594 C 250.015625 199.085938 249.960938 198.730469 249.980469 198.359375 C 250 197.992188 250.089844 197.640625 250.25 197.308594 C 250.410156 196.972656 250.625 196.683594 250.898438 196.4375 C 251.175781 196.191406 251.484375 196.003906 251.835938 195.882812 L 262.335938 192.167969 C 262.683594 192.046875 263.042969 191.992188 263.410156 192.011719 C 263.78125 192.03125 264.132812 192.121094 264.464844 192.28125 C 264.796875 192.441406 265.085938 192.65625 265.335938 192.929688 C 265.582031 193.207031 265.765625 193.515625 265.890625 193.867188 C 266.011719 194.214844 266.066406 194.570312 266.046875 194.941406 C 266.027344 195.308594 265.9375 195.660156 265.777344 195.992188 C 265.617188 196.328125 265.402344 196.617188 265.125 196.863281 C 264.851562 197.109375 264.539062 197.296875 264.191406 197.417969 Z M 264.191406 197.417969 " fill-opacity="1" fill-rule="nonzero"/><path fill="#a82130" d="M 267.164062 205.820312 L 256.660156 209.535156 C 256.3125 209.65625 255.953125 209.707031 255.585938 209.6875 C 255.21875 209.667969 254.867188 209.582031 254.53125 209.421875 C 254.199219 209.261719 253.910156 209.046875 253.664062 208.769531 C 253.414062 208.496094 253.230469 208.183594 253.105469 207.835938 C 252.984375 207.488281 252.933594 207.128906 252.953125 206.761719 C 252.972656 206.394531 253.0625 206.042969 253.21875 205.707031 C 253.378906 205.375 253.597656 205.085938 253.871094 204.839844 C 254.144531 204.589844 254.457031 204.40625 254.804688 204.28125 L 265.304688 200.570312 C 265.652344 200.449219 266.011719 200.398438 266.378906 200.417969 C 266.746094 200.4375 267.097656 200.527344 267.429688 200.6875 C 267.761719 200.847656 268.050781 201.066406 268.296875 201.339844 C 268.542969 201.613281 268.726562 201.921875 268.851562 202.269531 C 268.972656 202.617188 269.023438 202.976562 269.003906 203.34375 C 268.984375 203.710938 268.898438 204.0625 268.738281 204.394531 C 268.582031 204.726562 268.367188 205.015625 268.09375 205.265625 C 267.820312 205.511719 267.507812 205.695312 267.164062 205.820312 Z M 267.164062 205.820312 " fill-opacity="1" fill-rule="nonzero"/><path fill="#a82130" d="M 270.132812 214.222656 L 259.632812 217.9375 C 259.285156 218.058594 258.925781 218.109375 258.558594 218.085938 C 258.191406 218.066406 257.839844 217.976562 257.507812 217.816406 C 257.175781 217.660156 256.886719 217.441406 256.640625 217.167969 C 256.394531 216.894531 256.210938 216.582031 256.085938 216.234375 C 255.964844 215.886719 255.910156 215.53125 255.929688 215.164062 C 255.949219 214.792969 256.039062 214.445312 256.195312 214.109375 C 256.355469 213.777344 256.570312 213.488281 256.84375 213.242188 C 257.117188 212.992188 257.429688 212.808594 257.773438 212.683594 L 268.277344 208.972656 C 268.625 208.847656 268.984375 208.796875 269.351562 208.816406 C 269.722656 208.835938 270.070312 208.925781 270.40625 209.085938 C 270.738281 209.242188 271.027344 209.460938 271.277344 209.734375 C 271.523438 210.007812 271.707031 210.320312 271.832031 210.667969 C 271.953125 211.015625 272.003906 211.375 271.984375 211.742188 C 271.964844 212.113281 271.878906 212.464844 271.71875 212.796875 C 271.558594 213.128906 271.34375 213.421875 271.066406 213.667969 C 270.792969 213.914062 270.480469 214.097656 270.132812 214.222656 Z M 270.132812 214.222656 " fill-opacity="1" fill-rule="nonzero"/><path fill="#a82130" d="M 282.570312 190.921875 L 272.070312 194.632812 C 271.71875 194.757812 271.363281 194.808594 270.992188 194.789062 C 270.625 194.769531 270.273438 194.679688 269.941406 194.523438 C 269.605469 194.363281 269.316406 194.144531 269.070312 193.871094 C 268.824219 193.597656 268.636719 193.285156 268.515625 192.9375 C 268.390625 192.589844 268.339844 192.230469 268.359375 191.863281 C 268.378906 191.492188 268.46875 191.140625 268.628906 190.808594 C 268.785156 190.476562 269.003906 190.1875 269.277344 189.9375 C 269.554688 189.691406 269.863281 189.507812 270.210938 189.382812 L 280.714844 185.671875 C 281.0625 185.546875 281.421875 185.492188 281.792969 185.511719 C 282.160156 185.53125 282.511719 185.621094 282.847656 185.777344 C 283.179688 185.9375 283.472656 186.152344 283.71875 186.429688 C 283.96875 186.703125 284.152344 187.015625 284.277344 187.363281 C 284.398438 187.714844 284.453125 188.074219 284.433594 188.441406 C 284.410156 188.8125 284.320312 189.164062 284.160156 189.496094 C 284.003906 189.832031 283.785156 190.121094 283.507812 190.367188 C 283.234375 190.613281 282.921875 190.800781 282.570312 190.921875 Z M 282.570312 190.921875 " fill-opacity="1" fill-rule="nonzero"/><path fill="#a82130" d="M 285.542969 199.324219 L 275.039062 203.035156 C 274.691406 203.160156 274.332031 203.214844 273.960938 203.195312 C 273.59375 203.175781 273.242188 203.085938 272.90625 202.929688 C 272.574219 202.769531 272.28125 202.550781 272.035156 202.277344 C 271.785156 202.003906 271.601562 201.691406 271.476562 201.34375 C 271.355469 200.992188 271.300781 200.632812 271.320312 200.265625 C 271.339844 199.894531 271.429688 199.542969 271.589844 199.210938 C 271.75 198.875 271.96875 198.585938 272.246094 198.339844 C 272.519531 198.09375 272.832031 197.90625 273.183594 197.785156 L 283.683594 194.070312 C 284.03125 193.949219 284.390625 193.898438 284.761719 193.917969 C 285.128906 193.9375 285.480469 194.027344 285.8125 194.183594 C 286.144531 194.34375 286.4375 194.5625 286.683594 194.835938 C 286.929688 195.109375 287.117188 195.421875 287.238281 195.769531 C 287.363281 196.117188 287.414062 196.476562 287.394531 196.84375 C 287.375 197.214844 287.285156 197.566406 287.125 197.898438 C 286.964844 198.230469 286.75 198.519531 286.476562 198.769531 C 286.199219 199.015625 285.890625 199.199219 285.542969 199.324219 Z M 285.542969 199.324219 " fill-opacity="1" fill-rule="nonzero"/><path fill="#a82130" d="M 288.511719 207.726562 L 278.011719 211.4375 C 277.660156 211.5625 277.304688 211.613281 276.933594 211.59375 C 276.566406 211.574219 276.214844 211.484375 275.882812 211.324219 C 275.546875 211.164062 275.257812 210.949219 275.011719 210.675781 C 274.765625 210.398438 274.578125 210.089844 274.457031 209.742188 C 274.332031 209.390625 274.28125 209.035156 274.300781 208.664062 C 274.320312 208.296875 274.410156 207.945312 274.570312 207.613281 C 274.726562 207.277344 274.945312 206.988281 275.21875 206.742188 C 275.492188 206.496094 275.804688 206.308594 276.152344 206.1875 L 286.65625 202.472656 C 287.003906 202.351562 287.363281 202.300781 287.730469 202.316406 C 288.097656 202.335938 288.449219 202.425781 288.785156 202.585938 C 289.117188 202.746094 289.40625 202.960938 289.652344 203.238281 C 289.902344 203.511719 290.085938 203.824219 290.210938 204.171875 C 290.332031 204.519531 290.382812 204.878906 290.363281 205.246094 C 290.34375 205.613281 290.253906 205.964844 290.097656 206.300781 C 289.9375 206.632812 289.71875 206.921875 289.445312 207.167969 C 289.171875 207.417969 288.859375 207.601562 288.511719 207.726562 Z M 288.511719 207.726562 " fill-opacity="1" fill-rule="nonzero"/><path fill="#3f3d56" d="M 73.355469 222.910156 L 293.265625 145.15625 L 293.636719 146.207031 L 73.726562 223.960938 Z M 73.355469 222.910156 " fill-opacity="1" fill-rule="nonzero"/><path fill="#3f3d56" d="M 307.050781 239.273438 L 121.164062 304.992188 C 120.597656 305.195312 120.023438 305.367188 119.4375 305.507812 C 118.851562 305.652344 118.261719 305.765625 117.667969 305.851562 C 117.070312 305.9375 116.472656 305.992188 115.871094 306.019531 C 115.269531 306.046875 114.671875 306.046875 114.070312 306.011719 C 113.46875 305.980469 112.871094 305.917969 112.277344 305.828125 C 111.679688 305.738281 111.09375 305.617188 110.507812 305.46875 C 109.925781 305.320312 109.351562 305.144531 108.785156 304.9375 C 108.21875 304.734375 107.664062 304.503906 107.121094 304.242188 C 106.578125 303.984375 106.050781 303.699219 105.535156 303.386719 C 105.019531 303.074219 104.523438 302.738281 104.039062 302.378906 C 103.558594 302.019531 103.09375 301.636719 102.648438 301.230469 C 102.203125 300.824219 101.78125 300.398438 101.378906 299.953125 C 100.976562 299.503906 100.597656 299.039062 100.238281 298.554688 C 99.882812 298.070312 99.550781 297.570312 99.242188 297.050781 C 98.933594 296.535156 98.652344 296.003906 98.398438 295.460938 C 98.140625 294.914062 97.914062 294.359375 97.710938 293.792969 L 65.777344 203.476562 C 65.578125 202.90625 65.40625 202.332031 65.265625 201.746094 C 65.121094 201.164062 65.003906 200.574219 64.921875 199.976562 C 64.835938 199.382812 64.777344 198.785156 64.75 198.183594 C 64.726562 197.582031 64.726562 196.980469 64.757812 196.378906 C 64.792969 195.777344 64.851562 195.179688 64.945312 194.585938 C 65.035156 193.992188 65.15625 193.402344 65.304688 192.820312 C 65.453125 192.234375 65.628906 191.660156 65.832031 191.09375 C 66.039062 190.53125 66.269531 189.976562 66.53125 189.433594 C 66.789062 188.890625 67.074219 188.359375 67.386719 187.84375 C 67.695312 187.328125 68.03125 186.832031 68.394531 186.347656 C 68.753906 185.867188 69.136719 185.402344 69.542969 184.960938 C 69.945312 184.515625 70.375 184.089844 70.820312 183.6875 C 71.269531 183.285156 71.734375 182.90625 72.21875 182.550781 C 72.703125 182.191406 73.203125 181.859375 73.71875 181.550781 C 74.238281 181.242188 74.769531 180.960938 75.3125 180.707031 C 75.855469 180.449219 76.414062 180.222656 76.980469 180.019531 L 262.863281 114.300781 C 263.433594 114.101562 264.007812 113.929688 264.59375 113.785156 C 265.175781 113.640625 265.765625 113.527344 266.363281 113.441406 C 266.957031 113.355469 267.558594 113.300781 268.15625 113.273438 C 268.757812 113.246094 269.359375 113.25 269.960938 113.28125 C 270.5625 113.3125 271.160156 113.375 271.753906 113.464844 C 272.347656 113.554688 272.9375 113.675781 273.523438 113.824219 C 274.105469 113.972656 274.679688 114.148438 275.246094 114.355469 C 275.8125 114.558594 276.367188 114.792969 276.910156 115.050781 C 277.453125 115.308594 277.980469 115.59375 278.496094 115.90625 C 279.011719 116.21875 279.507812 116.554688 279.992188 116.914062 C 280.472656 117.273438 280.9375 117.65625 281.382812 118.0625 C 281.824219 118.46875 282.25 118.894531 282.652344 119.339844 C 283.054688 119.789062 283.433594 120.253906 283.792969 120.738281 C 284.148438 121.222656 284.480469 121.722656 284.789062 122.242188 C 285.097656 122.757812 285.378906 123.289062 285.632812 123.832031 C 285.890625 124.378906 286.117188 124.933594 286.320312 125.5 L 318.25 215.816406 C 318.453125 216.386719 318.625 216.960938 318.765625 217.546875 C 318.910156 218.128906 319.023438 218.71875 319.109375 219.316406 C 319.195312 219.910156 319.253906 220.511719 319.277344 221.109375 C 319.304688 221.710938 319.304688 222.3125 319.269531 222.914062 C 319.238281 223.515625 319.175781 224.113281 319.085938 224.707031 C 318.996094 225.304688 318.875 225.890625 318.726562 226.476562 C 318.578125 227.058594 318.402344 227.632812 318.195312 228.199219 C 317.992188 228.765625 317.761719 229.320312 317.5 229.863281 C 317.242188 230.40625 316.957031 230.933594 316.644531 231.449219 C 316.332031 231.964844 315.996094 232.460938 315.636719 232.945312 C 315.277344 233.425781 314.894531 233.890625 314.488281 234.335938 C 314.082031 234.777344 313.65625 235.203125 313.210938 235.605469 C 312.761719 236.007812 312.296875 236.386719 311.8125 236.746094 C 311.328125 237.101562 310.828125 237.433594 310.308594 237.742188 C 309.792969 238.050781 309.261719 238.332031 308.71875 238.585938 C 308.171875 238.84375 307.617188 239.070312 307.050781 239.273438 Z M 77.351562 181.070312 C 76.820312 181.261719 76.296875 181.472656 75.785156 181.714844 C 75.273438 181.957031 74.773438 182.21875 74.289062 182.507812 C 73.804688 182.796875 73.332031 183.109375 72.878906 183.445312 C 72.421875 183.78125 71.984375 184.136719 71.566406 184.515625 C 71.144531 184.894531 70.746094 185.292969 70.363281 185.710938 C 69.984375 186.128906 69.621094 186.5625 69.285156 187.015625 C 68.945312 187.46875 68.628906 187.9375 68.339844 188.421875 C 68.046875 188.90625 67.777344 189.402344 67.535156 189.910156 C 67.289062 190.421875 67.074219 190.941406 66.878906 191.472656 C 66.6875 192.003906 66.523438 192.546875 66.382812 193.09375 C 66.242188 193.640625 66.128906 194.195312 66.042969 194.753906 C 65.960938 195.3125 65.902344 195.875 65.871094 196.4375 C 65.839844 197.003906 65.839844 197.566406 65.863281 198.132812 C 65.890625 198.695312 65.941406 199.257812 66.023438 199.816406 C 66.101562 200.378906 66.210938 200.933594 66.34375 201.480469 C 66.480469 202.03125 66.640625 202.570312 66.828125 203.105469 L 98.761719 293.421875 C 98.949219 293.953125 99.164062 294.476562 99.40625 294.988281 C 99.644531 295.5 99.910156 295.996094 100.199219 296.484375 C 100.488281 296.96875 100.800781 297.441406 101.136719 297.894531 C 101.472656 298.351562 101.828125 298.789062 102.207031 299.207031 C 102.585938 299.628906 102.984375 300.027344 103.402344 300.410156 C 103.816406 300.789062 104.253906 301.148438 104.707031 301.488281 C 105.160156 301.828125 105.628906 302.140625 106.109375 302.433594 C 106.59375 302.726562 107.09375 302.996094 107.601562 303.238281 C 108.113281 303.480469 108.632812 303.699219 109.164062 303.890625 C 109.695312 304.085938 110.234375 304.25 110.785156 304.390625 C 111.332031 304.53125 111.882812 304.640625 112.441406 304.726562 C 113.003906 304.8125 113.5625 304.871094 114.128906 304.902344 C 114.691406 304.929688 115.257812 304.933594 115.820312 304.910156 C 116.386719 304.882812 116.949219 304.832031 117.507812 304.75 C 118.066406 304.667969 118.621094 304.5625 119.171875 304.425781 C 119.71875 304.292969 120.261719 304.132812 120.792969 303.945312 L 306.679688 238.222656 C 307.210938 238.035156 307.734375 237.820312 308.246094 237.578125 C 308.757812 237.339844 309.253906 237.074219 309.742188 236.785156 C 310.226562 236.496094 310.699219 236.183594 311.152344 235.847656 C 311.609375 235.511719 312.046875 235.15625 312.464844 234.777344 C 312.886719 234.398438 313.285156 234 313.667969 233.582031 C 314.046875 233.164062 314.40625 232.730469 314.746094 232.277344 C 315.085938 231.824219 315.398438 231.355469 315.691406 230.871094 C 315.984375 230.390625 316.253906 229.890625 316.496094 229.382812 C 316.738281 228.871094 316.957031 228.351562 317.148438 227.820312 C 317.34375 227.289062 317.507812 226.75 317.648438 226.199219 C 317.789062 225.652344 317.902344 225.097656 317.984375 224.539062 C 318.070312 223.980469 318.128906 223.421875 318.160156 222.855469 C 318.1875 222.292969 318.191406 221.726562 318.167969 221.160156 C 318.140625 220.597656 318.089844 220.035156 318.007812 219.476562 C 317.925781 218.914062 317.820312 218.363281 317.683594 217.8125 C 317.550781 217.261719 317.390625 216.722656 317.203125 216.1875 L 285.269531 125.871094 C 285.082031 125.339844 284.867188 124.816406 284.625 124.304688 C 284.386719 123.792969 284.121094 123.296875 283.832031 122.808594 C 283.542969 122.324219 283.230469 121.855469 282.894531 121.398438 C 282.558594 120.945312 282.203125 120.507812 281.824219 120.085938 C 281.445312 119.664062 281.046875 119.265625 280.628906 118.882812 C 280.210938 118.503906 279.777344 118.144531 279.324219 117.804688 C 278.871094 117.46875 278.402344 117.152344 277.917969 116.859375 C 277.433594 116.566406 276.9375 116.300781 276.429688 116.054688 C 275.917969 115.8125 275.398438 115.59375 274.867188 115.402344 C 274.335938 115.207031 273.792969 115.042969 273.246094 114.902344 C 272.699219 114.761719 272.144531 114.652344 271.585938 114.566406 C 271.027344 114.480469 270.464844 114.421875 269.902344 114.390625 C 269.335938 114.363281 268.773438 114.359375 268.207031 114.386719 C 267.644531 114.410156 267.082031 114.464844 266.523438 114.542969 C 265.960938 114.625 265.40625 114.730469 264.859375 114.867188 C 264.308594 115 263.769531 115.160156 263.234375 115.351562 Z M 77.351562 181.070312 " fill-opacity="1" fill-rule="nonzero"/><g clip-path="url(#840ad72026)"><path fill="#cbcbcb" d="M 552.753906 350.761719 L 0.75 350.761719 C 0.542969 350.761719 0.367188 350.6875 0.21875 350.542969 C 0.0742188 350.398438 0 350.21875 0 350.011719 C 0 349.808594 0.0742188 349.628906 0.21875 349.484375 C 0.367188 349.335938 0.542969 349.265625 0.75 349.265625 L 552.753906 349.265625 C 552.957031 349.265625 553.136719 349.335938 553.28125 349.484375 C 553.429688 349.628906 553.5 349.808594 553.5 350.011719 C 553.5 350.21875 553.429688 350.398438 553.28125 350.542969 C 553.136719 350.6875 552.957031 350.761719 552.753906 350.761719 Z M 552.753906 350.761719 " fill-opacity="1" fill-rule="nonzero"/></g></svg>