<svg xmlns="http://www.w3.org/2000/svg" xmlns:xlink="http://www.w3.org/1999/xlink" width="500" zoomAndPan="magnify" viewBox="0 0 375 187.499995" height="250" preserveAspectRatio="xMidYMid meet" version="1.0"><defs><g/><clipPath id="029a1ac4a9"><path d="M 340 18 L 365 18 L 365 129 L 340 129 Z M 340 18 " clip-rule="nonzero"/></clipPath><clipPath id="1a3086006e"><path d="M 364.652344 18.585938 L 361.046875 129.234375 L 339.363281 128.527344 L 342.972656 17.878906 Z M 364.652344 18.585938 " clip-rule="nonzero"/></clipPath><clipPath id="e78b886fd4"><path d="M 342.960938 17.878906 L 339.351562 128.527344 L 361.035156 129.234375 L 364.640625 18.585938 Z M 342.960938 17.878906 " clip-rule="nonzero"/></clipPath><clipPath id="9e1eaa8da6"><path d="M 339.359375 86.367188 L 368.492188 86.367188 L 368.492188 123.632812 L 339.359375 123.632812 Z M 339.359375 86.367188 " clip-rule="nonzero"/></clipPath><clipPath id="68f02e6156"><path d="M 353.925781 86.367188 C 345.882812 86.367188 339.359375 94.710938 339.359375 105 C 339.359375 115.289062 345.882812 123.632812 353.925781 123.632812 C 361.96875 123.632812 368.492188 115.289062 368.492188 105 C 368.492188 94.710938 361.96875 86.367188 353.925781 86.367188 Z M 353.925781 86.367188 " clip-rule="nonzero"/></clipPath><clipPath id="bdb77285df"><path d="M 317.785156 86.367188 L 346.917969 86.367188 L 346.917969 123.632812 L 317.785156 123.632812 Z M 317.785156 86.367188 " clip-rule="nonzero"/></clipPath><clipPath id="5437a46444"><path d="M 332.351562 86.367188 C 324.308594 86.367188 317.785156 94.710938 317.785156 105 C 317.785156 115.289062 324.308594 123.632812 332.351562 123.632812 C 340.394531 123.632812 346.917969 115.289062 346.917969 105 C 346.917969 94.710938 340.394531 86.367188 332.351562 86.367188 Z M 332.351562 86.367188 " clip-rule="nonzero"/></clipPath><clipPath id="2394c3cc4e"><path d="M 319 105 L 367 105 L 367 129.90625 L 319 129.90625 Z M 319 105 " clip-rule="nonzero"/></clipPath><clipPath id="6b3101acf7"><path d="M 359.761719 105 C 360.65625 105 361.550781 105.1875 362.445312 105.558594 C 365.949219 107.050781 367.589844 111.078125 366.097656 114.582031 C 362.183594 123.902344 353.125 129.90625 343.019531 129.90625 C 332.914062 129.90625 323.855469 123.902344 319.902344 114.582031 C 318.410156 111.078125 320.050781 107.011719 323.554688 105.558594 C 327.0625 104.066406 331.125 105.707031 332.578125 109.210938 C 334.367188 113.386719 338.46875 116.109375 343.019531 116.109375 C 347.566406 116.109375 351.632812 113.386719 353.421875 109.210938 C 354.503906 106.601562 357.074219 105 359.761719 105 Z M 359.761719 105 " clip-rule="nonzero"/></clipPath></defs><g clip-path="url(#029a1ac4a9)"><g clip-path="url(#1a3086006e)"><g clip-path="url(#e78b886fd4)"><path fill="#297741" d="M 340.914062 128.578125 C 341.886719 127.550781 342.09375 126.621094 342.242188 125.625 C 342.390625 124.632812 342.425781 123.578125 342.460938 122.523438 C 342.65625 114.664062 343.148438 106.753906 343.992188 98.917969 C 344.683594 92.074219 345.316406 85.226562 346.242188 78.386719 C 346.941406 73.128906 347.875 67.933594 348.863281 62.742188 C 349.773438 58.191406 350.742188 53.644531 351.941406 49.164062 C 353.9375 41.953125 356.28125 34.808594 359.664062 28.109375 C 360.917969 25.566406 362.519531 23.15625 364.003906 20.738281 C 364.5 19.933594 364.242188 18.808594 363.253906 18.660156 C 362.730469 18.523438 361.964844 18.617188 361.542969 18.957031 C 360.578125 19.746094 359.671875 20.597656 358.820312 21.566406 C 356.261719 24.59375 354.386719 28.113281 352.863281 31.703125 C 350.074219 38.1875 347.808594 44.746094 346.238281 51.5625 C 344.945312 57.039062 344.003906 62.582031 343.527344 68.203125 C 342.960938 74.816406 342.160156 81.367188 341.652344 87.921875 C 340.777344 98.636719 340.078125 109.355469 340.019531 120.09375 C 340.015625 122.03125 340.183594 124.035156 340.355469 125.976562 C 340.328125 126.796875 340.65625 127.511719 340.914062 128.578125 Z M 340.914062 128.578125 " fill-opacity="1" fill-rule="nonzero"/></g></g></g><g clip-path="url(#9e1eaa8da6)"><g clip-path="url(#68f02e6156)"><path fill="#ae1326" d="M 339.359375 86.367188 L 368.492188 86.367188 L 368.492188 123.632812 L 339.359375 123.632812 Z M 339.359375 86.367188 " fill-opacity="1" fill-rule="nonzero"/></g></g><g clip-path="url(#bdb77285df)"><g clip-path="url(#5437a46444)"><path fill="#ae1326" d="M 317.785156 86.367188 L 346.917969 86.367188 L 346.917969 123.632812 L 317.785156 123.632812 Z M 317.785156 86.367188 " fill-opacity="1" fill-rule="nonzero"/></g></g><g clip-path="url(#2394c3cc4e)"><g clip-path="url(#6b3101acf7)"><path fill="#ae1326" d="M 366.65625 129.90625 L 319.378906 129.90625 L 319.378906 105 L 366.65625 105 Z M 366.65625 129.90625 " fill-opacity="1" fill-rule="nonzero"/></g></g><g fill="#1e0206" fill-opacity="1"><g transform="translate(-0.081245, 124.621642)"><g><path d="M 55.546875 0.609375 C 45.816406 0.609375 37.351562 -1.164062 30.15625 -4.71875 C 22.96875 -8.28125 17.453125 -13.328125 13.609375 -19.859375 C 9.765625 -26.398438 7.84375 -34.003906 7.84375 -42.671875 C 7.84375 -54.691406 10.109375 -65.359375 14.640625 -74.671875 C 19.179688 -83.992188 25.335938 -91.207031 33.109375 -96.3125 C 40.878906 -101.425781 49.503906 -103.984375 58.984375 -103.984375 C 67.804688 -103.984375 74.503906 -101.710938 79.078125 -97.171875 C 83.660156 -92.640625 85.953125 -86.65625 85.953125 -79.21875 C 85.953125 -74.226562 85.070312 -70.21875 83.3125 -67.1875 C 81.5625 -64.164062 79.050781 -62.65625 75.78125 -62.65625 C 73.488281 -62.65625 71.6875 -63.1875 70.375 -64.25 C 69.070312 -65.3125 68.421875 -66.867188 68.421875 -68.921875 C 68.421875 -69.648438 68.585938 -71 68.921875 -72.96875 C 69.410156 -75.414062 69.65625 -77.375 69.65625 -78.84375 C 69.65625 -86.28125 65.6875 -90 57.75 -90 C 52.351562 -90 47.203125 -88.242188 42.296875 -84.734375 C 37.398438 -81.222656 33.4375 -76.050781 30.40625 -69.21875 C 27.382812 -62.394531 25.875 -54.28125 25.875 -44.875 C 25.875 -35.070312 28.613281 -27.492188 34.09375 -22.140625 C 39.570312 -16.785156 47.664062 -14.109375 58.375 -14.109375 C 63.6875 -14.109375 69.0625 -14.78125 74.5 -16.125 C 79.9375 -17.476562 85.960938 -19.539062 92.578125 -22.3125 C 93.804688 -22.800781 94.828125 -23.046875 95.640625 -23.046875 C 96.953125 -23.046875 97.9375 -22.554688 98.59375 -21.578125 C 99.25 -20.597656 99.578125 -19.332031 99.578125 -17.78125 C 99.578125 -12.789062 96.878906 -9.113281 91.484375 -6.75 C 85.671875 -4.207031 79.640625 -2.34375 73.390625 -1.15625 C 67.140625 0.0195312 61.191406 0.609375 55.546875 0.609375 Z M 55.546875 0.609375 "/></g></g></g><g fill="#1e0206" fill-opacity="1"><g transform="translate(84.040299, 124.621642)"><g><path d="M 73.9375 -27.34375 C 75 -27.34375 75.835938 -26.851562 76.453125 -25.875 C 77.066406 -24.894531 77.375 -23.546875 77.375 -21.828125 C 77.375 -18.554688 76.597656 -16.019531 75.046875 -14.21875 C 71.285156 -9.882812 67.421875 -6.328125 63.453125 -3.546875 C 59.492188 -0.773438 54.976562 0.609375 49.90625 0.609375 C 45.738281 0.609375 42.59375 -0.59375 40.46875 -3 C 38.34375 -5.414062 37.28125 -8.910156 37.28125 -13.484375 C 37.28125 -15.773438 37.851562 -19.863281 39 -25.75 C 40.0625 -30.90625 40.59375 -34.460938 40.59375 -36.421875 C 40.59375 -37.722656 40.140625 -38.375 39.234375 -38.375 C 38.171875 -38.375 36.660156 -37.003906 34.703125 -34.265625 C 32.742188 -31.535156 30.78125 -27.921875 28.8125 -23.421875 C 26.851562 -18.921875 25.257812 -14.179688 24.03125 -9.203125 C 22.476562 -2.660156 18.632812 0.609375 12.5 0.609375 C 10.050781 0.609375 8.4375 -0.265625 7.65625 -2.015625 C 6.882812 -3.773438 6.5 -6.945312 6.5 -11.53125 C 6.5 -14.144531 6.539062 -16.226562 6.625 -17.78125 L 6.75 -27.59375 C 6.75 -40.175781 8.035156 -53.296875 10.609375 -66.953125 C 13.179688 -80.609375 16.976562 -92.070312 22 -101.34375 C 27.03125 -110.625 33.0625 -115.265625 40.09375 -115.265625 C 43.851562 -115.265625 46.898438 -113.648438 49.234375 -110.421875 C 51.566406 -107.191406 52.734375 -103.003906 52.734375 -97.859375 C 52.734375 -89.597656 50.320312 -81.03125 45.5 -72.15625 C 40.675781 -63.289062 32.828125 -52.929688 21.953125 -41.078125 C 21.703125 -36.828125 21.578125 -32.453125 21.578125 -27.953125 C 24.273438 -34.898438 27.28125 -40.5625 30.59375 -44.9375 C 33.90625 -49.3125 37.175781 -52.4375 40.40625 -54.3125 C 43.632812 -56.195312 46.597656 -57.140625 49.296875 -57.140625 C 54.609375 -57.140625 57.265625 -54.484375 57.265625 -49.171875 C 57.265625 -45.984375 56.363281 -40.21875 54.5625 -31.875 C 53.007812 -24.769531 52.234375 -20.070312 52.234375 -17.78125 C 52.234375 -14.507812 53.421875 -12.875 55.796875 -12.875 C 57.429688 -12.875 59.367188 -13.875 61.609375 -15.875 C 63.859375 -17.882812 66.863281 -21.132812 70.625 -25.625 C 71.613281 -26.769531 72.71875 -27.34375 73.9375 -27.34375 Z M 37.515625 -103.125 C 36.046875 -103.125 34.410156 -101.019531 32.609375 -96.8125 C 30.816406 -92.601562 29.082031 -86.921875 27.40625 -79.765625 C 25.726562 -72.609375 24.359375 -64.820312 23.296875 -56.40625 C 28.367188 -62.375 32.554688 -68.875 35.859375 -75.90625 C 39.171875 -82.9375 40.828125 -89.3125 40.828125 -95.03125 C 40.828125 -97.644531 40.539062 -99.644531 39.96875 -101.03125 C 39.40625 -102.425781 38.585938 -103.125 37.515625 -103.125 Z M 37.515625 -103.125 "/></g></g></g><g fill="#1e0206" fill-opacity="1"><g transform="translate(145.598635, 124.621642)"><g><path d="M 20.96875 0.609375 C 15.894531 0.609375 11.847656 -1.226562 8.828125 -4.90625 C 5.804688 -8.582031 4.296875 -13.40625 4.296875 -19.375 C 4.296875 -25.914062 5.804688 -32.109375 8.828125 -37.953125 C 11.847656 -43.796875 15.875 -48.492188 20.90625 -52.046875 C 25.9375 -55.609375 31.269531 -57.390625 36.90625 -57.390625 C 38.707031 -57.390625 39.914062 -57.039062 40.53125 -56.34375 C 41.144531 -55.644531 41.65625 -54.398438 42.0625 -52.609375 C 43.78125 -52.929688 45.578125 -53.09375 47.453125 -53.09375 C 51.460938 -53.09375 53.46875 -51.664062 53.46875 -48.8125 C 53.46875 -47.09375 52.851562 -43.003906 51.625 -36.546875 C 49.75 -27.140625 48.8125 -20.597656 48.8125 -16.921875 C 48.8125 -15.691406 49.113281 -14.707031 49.71875 -13.96875 C 50.332031 -13.238281 51.128906 -12.875 52.109375 -12.875 C 53.671875 -12.875 55.550781 -13.875 57.75 -15.875 C 59.957031 -17.882812 62.941406 -21.132812 66.703125 -25.625 C 67.679688 -26.769531 68.785156 -27.34375 70.015625 -27.34375 C 71.078125 -27.34375 71.914062 -26.851562 72.53125 -25.875 C 73.144531 -24.894531 73.453125 -23.546875 73.453125 -21.828125 C 73.453125 -18.554688 72.675781 -16.019531 71.125 -14.21875 C 67.769531 -10.050781 64.210938 -6.535156 60.453125 -3.671875 C 56.691406 -0.816406 53.054688 0.609375 49.546875 0.609375 C 46.847656 0.609375 44.375 -0.304688 42.125 -2.140625 C 39.875 -3.984375 38.175781 -6.5 37.03125 -9.6875 C 32.78125 -2.820312 27.425781 0.609375 20.96875 0.609375 Z M 25.390625 -11.765625 C 27.179688 -11.765625 28.894531 -12.828125 30.53125 -14.953125 C 32.164062 -17.085938 33.351562 -19.910156 34.09375 -23.421875 L 38.625 -45.984375 C 35.195312 -45.898438 32.03125 -44.609375 29.125 -42.109375 C 26.21875 -39.617188 23.90625 -36.332031 22.1875 -32.25 C 20.476562 -28.164062 19.625 -23.832031 19.625 -19.25 C 19.625 -16.71875 20.132812 -14.835938 21.15625 -13.609375 C 22.175781 -12.378906 23.585938 -11.765625 25.390625 -11.765625 Z M 25.390625 -11.765625 "/></g></g></g><g fill="#1e0206" fill-opacity="1"><g transform="translate(203.232923, 124.621642)"><g><path d="M 14.59375 0.609375 C 11.488281 0.609375 9.300781 -1.023438 8.03125 -4.296875 C 6.757812 -7.566406 6.125 -12.796875 6.125 -19.984375 C 6.125 -30.609375 7.640625 -40.707031 10.671875 -50.28125 C 11.398438 -52.644531 12.601562 -54.378906 14.28125 -55.484375 C 15.957031 -56.585938 18.3125 -57.140625 21.34375 -57.140625 C 22.976562 -57.140625 24.117188 -56.9375 24.765625 -56.53125 C 25.421875 -56.125 25.75 -55.347656 25.75 -54.203125 C 25.75 -52.890625 25.132812 -49.945312 23.90625 -45.375 C 23.09375 -42.101562 22.441406 -39.238281 21.953125 -36.78125 C 21.460938 -34.332031 21.050781 -31.3125 20.71875 -27.71875 C 23.414062 -34.75 26.441406 -40.46875 29.796875 -44.875 C 33.148438 -49.289062 36.441406 -52.4375 39.671875 -54.3125 C 42.898438 -56.195312 45.863281 -57.140625 48.5625 -57.140625 C 53.875 -57.140625 56.53125 -54.484375 56.53125 -49.171875 C 56.53125 -48.109375 56.160156 -45.535156 55.421875 -41.453125 C 54.773438 -38.179688 54.453125 -36.132812 54.453125 -35.3125 C 54.453125 -32.457031 55.472656 -31.03125 57.515625 -31.03125 C 59.796875 -31.03125 62.738281 -32.828125 66.34375 -36.421875 C 67.40625 -37.484375 68.507812 -38.015625 69.65625 -38.015625 C 70.71875 -38.015625 71.550781 -37.539062 72.15625 -36.59375 C 72.769531 -35.65625 73.078125 -34.410156 73.078125 -32.859375 C 73.078125 -29.835938 72.257812 -27.46875 70.625 -25.75 C 68.34375 -23.375 65.664062 -21.347656 62.59375 -19.671875 C 59.53125 -18.003906 56.28125 -17.171875 52.84375 -17.171875 C 48.519531 -17.171875 45.234375 -18.273438 42.984375 -20.484375 C 40.734375 -22.691406 39.609375 -25.675781 39.609375 -29.4375 C 39.609375 -30.65625 39.726562 -31.878906 39.96875 -33.109375 C 40.132812 -34.742188 40.21875 -35.847656 40.21875 -36.421875 C 40.21875 -37.722656 39.769531 -38.375 38.875 -38.375 C 37.644531 -38.375 36.03125 -37.003906 34.03125 -34.265625 C 32.03125 -31.535156 30.046875 -27.921875 28.078125 -23.421875 C 26.117188 -18.921875 24.523438 -14.179688 23.296875 -9.203125 C 22.398438 -5.359375 21.359375 -2.757812 20.171875 -1.40625 C 18.984375 -0.0625 17.125 0.609375 14.59375 0.609375 Z M 14.59375 0.609375 "/></g></g></g><g fill="#1e0206" fill-opacity="1"><g transform="translate(259.027843, 124.621642)"><g><path d="M 68.671875 -27.09375 C 69.734375 -27.09375 70.570312 -26.582031 71.1875 -25.5625 C 71.800781 -24.539062 72.109375 -23.253906 72.109375 -21.703125 C 72.109375 -19.828125 71.820312 -18.359375 71.25 -17.296875 C 70.675781 -16.234375 69.773438 -15.289062 68.546875 -14.46875 L 45 1.34375 C 41.894531 18.269531 37.828125 31.578125 32.796875 41.265625 C 27.773438 50.953125 21.378906 55.796875 13.609375 55.796875 C 9.441406 55.796875 6.050781 54.503906 3.4375 51.921875 C 0.820312 49.347656 -0.484375 45.976562 -0.484375 41.8125 C -0.484375 37.96875 0.390625 34.039062 2.140625 30.03125 C 3.898438 26.03125 7.171875 21.4375 11.953125 16.25 C 16.734375 11.0625 23.5 5.113281 32.25 -1.59375 L 32.625 -4.421875 C 33.195312 -7.441406 33.847656 -11.769531 34.578125 -17.40625 C 32.941406 -11.519531 30.648438 -7.046875 27.703125 -3.984375 C 24.765625 -0.921875 21.660156 0.609375 18.390625 0.609375 C 14.710938 0.609375 11.707031 -1.082031 9.375 -4.46875 C 7.050781 -7.863281 5.890625 -12.097656 5.890625 -17.171875 C 5.890625 -23.296875 6.296875 -28.910156 7.109375 -34.015625 C 7.929688 -39.128906 9.28125 -44.550781 11.15625 -50.28125 C 11.976562 -52.726562 13.125 -54.484375 14.59375 -55.546875 C 16.0625 -56.609375 18.390625 -57.140625 21.578125 -57.140625 C 23.378906 -57.140625 24.625 -56.851562 25.3125 -56.28125 C 26.007812 -55.707031 26.359375 -54.847656 26.359375 -53.703125 C 26.359375 -53.054688 25.910156 -50.851562 25.015625 -47.09375 C 24.203125 -44.0625 23.546875 -41.320312 23.046875 -38.875 C 22.398438 -35.519531 21.828125 -32.304688 21.328125 -29.234375 C 20.835938 -26.171875 20.59375 -23.660156 20.59375 -21.703125 C 20.59375 -18.597656 21.453125 -17.046875 23.171875 -17.046875 C 24.398438 -17.046875 25.929688 -18.269531 27.765625 -20.71875 C 29.609375 -23.175781 31.570312 -26.894531 33.65625 -31.875 C 35.738281 -36.863281 37.765625 -43 39.734375 -50.28125 C 40.390625 -52.726562 41.390625 -54.484375 42.734375 -55.546875 C 44.085938 -56.609375 46.113281 -57.140625 48.8125 -57.140625 C 50.6875 -57.140625 51.988281 -56.894531 52.71875 -56.40625 C 53.457031 -55.914062 53.828125 -55.097656 53.828125 -53.953125 C 53.828125 -51.910156 52.765625 -44.878906 50.640625 -32.859375 L 47.453125 -13.125 C 53.742188 -17.863281 59.875 -22.195312 65.84375 -26.125 C 66.90625 -26.769531 67.847656 -27.09375 68.671875 -27.09375 Z M 14.953125 43.90625 C 17.003906 43.90625 19.296875 41.53125 21.828125 36.78125 C 24.359375 32.039062 26.894531 24.15625 29.4375 13.125 C 23.132812 18.4375 18.570312 23.28125 15.75 27.65625 C 12.9375 32.03125 11.53125 35.851562 11.53125 39.125 C 11.53125 40.507812 11.796875 41.648438 12.328125 42.546875 C 12.859375 43.453125 13.734375 43.90625 14.953125 43.90625 Z M 14.953125 43.90625 "/></g></g></g></svg>