<svg xmlns="http://www.w3.org/2000/svg" xmlns:xlink="http://www.w3.org/1999/xlink" width="500" zoomAndPan="magnify" viewBox="0 0 375 374.999991" height="500" preserveAspectRatio="xMidYMid meet" version="1.0"><defs><g/><clipPath id="id1"><path d="M 239 51 L 363 51 L 363 332 L 239 332 Z M 239 51 " clip-rule="nonzero"/></clipPath><clipPath id="id2"><path d="M 364.433594 52.945312 L 292.699219 344.242188 L 235.894531 330.253906 L 307.628906 38.957031 Z M 364.433594 52.945312 " clip-rule="nonzero"/></clipPath><clipPath id="id3"><path d="M 307.324219 38.882812 L 235.589844 330.179688 L 292.390625 344.167969 L 364.125 52.871094 Z M 307.324219 38.882812 " clip-rule="nonzero"/></clipPath><clipPath id="id4"><path d="M 247 225 L 328 225 L 328 327 L 247 327 Z M 247 225 " clip-rule="nonzero"/></clipPath><clipPath id="id5"><path d="M 259.273438 218.453125 L 336.3125 234.78125 L 315.320312 333.832031 L 238.28125 317.503906 Z M 259.273438 218.453125 " clip-rule="nonzero"/></clipPath><clipPath id="id6"><path d="M 190 213 L 271 213 L 271 315 L 190 315 Z M 190 213 " clip-rule="nonzero"/></clipPath><clipPath id="id7"><path d="M 202.070312 206.328125 L 279.109375 222.65625 L 258.117188 321.707031 L 181.078125 305.378906 Z M 202.070312 206.328125 " clip-rule="nonzero"/></clipPath><clipPath id="id8"><path d="M 191 259 L 318 259 L 318 338 L 191 338 Z M 191 259 " clip-rule="nonzero"/></clipPath><clipPath id="id9"><path d="M 307.183594 349.230469 L 181.632812 322.621094 L 195.671875 256.382812 L 321.222656 282.996094 Z M 307.183594 349.230469 " clip-rule="nonzero"/></clipPath></defs><g clip-path="url(#id1)"><g clip-path="url(#id2)"><g clip-path="url(#id3)"><path fill="#30a821" d="M 239.675781 331.1875 C 242.8125 329.011719 243.882812 326.65625 244.835938 324.105469 C 245.789062 321.558594 246.472656 318.777344 247.15625 316 C 252.097656 295.277344 257.84375 274.589844 264.472656 254.28125 C 270.144531 236.519531 275.667969 218.722656 281.957031 201.117188 C 286.757812 187.5625 292.136719 174.316406 297.667969 161.105469 C 302.625 149.554688 307.738281 138.042969 313.429688 126.835938 C 322.746094 108.828125 332.941406 91.199219 345.636719 75.332031 C 350.378906 69.296875 355.964844 63.796875 361.242188 58.21875 C 363 56.359375 362.957031 53.238281 360.425781 52.285156 C 359.121094 51.636719 357.050781 51.457031 355.746094 52.117188 C 352.761719 53.675781 349.890625 55.421875 347.09375 57.519531 C 338.636719 64.113281 331.714844 72.398438 325.675781 81.0625 C 314.667969 96.6875 305.003906 112.808594 297.027344 130.003906 C 290.539062 143.796875 284.933594 157.96875 280.519531 172.601562 C 275.300781 189.816406 269.511719 206.730469 264.484375 223.828125 C 256.148438 251.738281 248.269531 279.761719 242.082031 308.203125 C 240.980469 313.332031 240.300781 318.734375 239.660156 323.976562 C 239.128906 326.140625 239.59375 328.21875 239.675781 331.1875 Z M 239.675781 331.1875 " fill-opacity="1" fill-rule="nonzero"/></g></g></g><g clip-path="url(#id4)"><g clip-path="url(#id5)"><path fill="#a82130" d="M 297.792969 226.617188 C 276.519531 222.109375 254.574219 240.628906 248.777344 267.980469 C 242.980469 295.332031 255.527344 321.160156 276.800781 325.667969 C 298.074219 330.175781 320.015625 311.660156 325.8125 284.304688 C 331.609375 256.953125 319.066406 231.125 297.792969 226.617188 " fill-opacity="1" fill-rule="nonzero"/></g></g><g clip-path="url(#id6)"><g clip-path="url(#id7)"><path fill="#a82130" d="M 240.589844 214.492188 C 219.316406 209.984375 197.375 228.503906 191.578125 255.855469 C 185.78125 283.207031 198.324219 309.035156 219.597656 313.542969 C 240.871094 318.050781 262.816406 299.535156 268.613281 272.183594 C 274.410156 244.832031 261.863281 219.003906 240.589844 214.492188 " fill-opacity="1" fill-rule="nonzero"/></g></g><g clip-path="url(#id8)"><g clip-path="url(#id9)"><path fill="#a82130" d="M 302.90625 279.113281 C 305.28125 279.617188 307.550781 280.613281 309.71875 282.109375 C 318.183594 288.050781 320.273438 299.679688 314.335938 308.164062 C 298.6875 330.746094 271.242188 341.613281 244.410156 335.925781 C 217.578125 330.238281 196.902344 309.175781 191.660156 282.160156 C 189.675781 272 196.320312 262.117188 206.449219 260.222656 C 216.597656 258.230469 226.464844 264.878906 228.351562 275.019531 C 230.75 287.128906 240.105469 296.675781 252.1875 299.238281 C 264.265625 301.796875 276.589844 296.847656 283.699219 286.75 C 288.039062 280.417969 295.777344 277.601562 302.90625 279.113281 Z M 302.90625 279.113281 " fill-opacity="1" fill-rule="nonzero"/></g></g><g fill="#000000" fill-opacity="1"><g transform="translate(1.851012, 338.909381)"><g><path d="M 165.046875 1.828125 C 136.140625 1.828125 111 -3.453125 89.625 -14.015625 C 68.25 -24.585938 51.851562 -39.585938 40.4375 -59.015625 C 29.019531 -78.453125 23.3125 -101.046875 23.3125 -126.796875 C 23.3125 -162.492188 30.050781 -194.1875 43.53125 -221.875 C 57.019531 -249.570312 75.300781 -271.007812 98.375 -286.1875 C 121.445312 -301.375 147.070312 -308.96875 175.25 -308.96875 C 201.476562 -308.96875 221.394531 -302.222656 235 -288.734375 C 248.601562 -275.253906 255.40625 -257.460938 255.40625 -235.359375 C 255.40625 -220.546875 252.789062 -208.644531 247.5625 -199.65625 C 242.34375 -190.664062 234.878906 -186.171875 225.171875 -186.171875 C 218.367188 -186.171875 213.019531 -187.75 209.125 -190.90625 C 205.238281 -194.070312 203.296875 -198.691406 203.296875 -204.765625 C 203.296875 -206.953125 203.785156 -210.957031 204.765625 -216.78125 C 206.222656 -224.070312 206.953125 -229.898438 206.953125 -234.265625 C 206.953125 -256.367188 195.171875 -267.421875 171.609375 -267.421875 C 155.578125 -267.421875 140.273438 -262.195312 125.703125 -251.75 C 111.128906 -241.3125 99.347656 -225.953125 90.359375 -205.671875 C 81.367188 -185.390625 76.875 -161.28125 76.875 -133.34375 C 76.875 -104.195312 85.007812 -81.671875 101.28125 -65.765625 C 117.5625 -49.859375 141.609375 -41.90625 173.421875 -41.90625 C 189.210938 -41.90625 205.179688 -43.90625 221.328125 -47.90625 C 237.484375 -51.914062 255.398438 -58.050781 275.078125 -66.3125 C 278.722656 -67.769531 281.757812 -68.5 284.1875 -68.5 C 288.070312 -68.5 290.984375 -67.039062 292.921875 -64.125 C 294.867188 -61.207031 295.84375 -57.441406 295.84375 -52.828125 C 295.84375 -38.015625 287.828125 -27.082031 271.796875 -20.03125 C 254.554688 -12.507812 236.644531 -6.984375 218.0625 -3.453125 C 199.476562 0.0664062 181.804688 1.828125 165.046875 1.828125 Z M 165.046875 1.828125 "/></g></g></g></svg>