<svg xmlns="http://www.w3.org/2000/svg" xmlns:xlink="http://www.w3.org/1999/xlink" width="500" zoomAndPan="magnify" viewBox="0 0 375 374.999991" height="500" preserveAspectRatio="xMidYMid meet" version="1.0"><defs><g/><clipPath id="679c5e2ab7"><path d="M 281 17 L 348 17 L 348 316 L 281 316 Z M 281 17 " clip-rule="nonzero"/></clipPath><clipPath id="95f37e7cf2"><path d="M 348.578125 17.285156 L 338.800781 317.125 L 280.332031 315.21875 L 290.109375 15.375 Z M 348.578125 17.285156 " clip-rule="nonzero"/></clipPath><clipPath id="ac0247c8e1"><path d="M 289.792969 15.367188 L 280.015625 315.207031 L 338.484375 317.113281 L 348.261719 17.273438 Z M 289.792969 15.367188 " clip-rule="nonzero"/></clipPath><clipPath id="854164d8d4"><path d="M 280.019531 200.996094 L 358.972656 200.996094 L 358.972656 302 L 280.019531 302 Z M 280.019531 200.996094 " clip-rule="nonzero"/></clipPath><clipPath id="5c083a5e61"><path d="M 319.496094 200.996094 C 297.695312 200.996094 280.019531 223.609375 280.019531 251.496094 C 280.019531 279.386719 297.695312 302 319.496094 302 C 341.300781 302 358.972656 279.386719 358.972656 251.496094 C 358.972656 223.609375 341.300781 200.996094 319.496094 200.996094 Z M 319.496094 200.996094 " clip-rule="nonzero"/></clipPath><clipPath id="361403d7ca"><path d="M 221.546875 200.996094 L 300.5 200.996094 L 300.5 302 L 221.546875 302 Z M 221.546875 200.996094 " clip-rule="nonzero"/></clipPath><clipPath id="ebb6f13e63"><path d="M 261.023438 200.996094 C 239.222656 200.996094 221.546875 223.609375 221.546875 251.496094 C 221.546875 279.386719 239.222656 302 261.023438 302 C 282.824219 302 300.5 279.386719 300.5 251.496094 C 300.5 223.609375 282.824219 200.996094 261.023438 200.996094 Z M 261.023438 200.996094 " clip-rule="nonzero"/></clipPath><clipPath id="1dea89b7f5"><path d="M 225 251 L 354 251 L 354 318.996094 L 225 318.996094 Z M 225 251 " clip-rule="nonzero"/></clipPath><clipPath id="245f2eec4b"><path d="M 335.3125 251.492188 C 337.738281 251.492188 340.160156 252 342.585938 253.007812 C 352.085938 257.050781 356.53125 267.964844 352.492188 277.464844 C 341.878906 302.726562 317.324219 318.996094 289.9375 318.996094 C 262.550781 318.996094 237.996094 302.726562 227.28125 277.464844 C 223.242188 267.964844 227.6875 256.949219 237.1875 253.007812 C 246.6875 248.964844 257.699219 253.414062 261.640625 262.914062 C 266.492188 274.230469 277.609375 281.609375 289.9375 281.609375 C 302.265625 281.609375 313.28125 274.230469 318.132812 262.914062 C 321.0625 255.839844 328.035156 251.492188 335.3125 251.492188 Z M 335.3125 251.492188 " clip-rule="nonzero"/></clipPath></defs><g clip-path="url(#679c5e2ab7)"><g clip-path="url(#95f37e7cf2)"><g clip-path="url(#ac0247c8e1)"><path fill="#297741" d="M 284.222656 315.34375 C 286.84375 312.566406 287.398438 310.039062 287.800781 307.347656 C 288.207031 304.65625 288.300781 301.796875 288.394531 298.9375 C 288.929688 277.640625 290.261719 256.210938 292.535156 234.96875 C 294.402344 216.417969 296.113281 197.863281 298.617188 179.335938 C 300.503906 165.078125 303.015625 151.003906 305.6875 136.933594 C 308.144531 124.609375 310.761719 112.285156 314.003906 100.144531 C 319.382812 80.59375 325.703125 61.234375 334.832031 43.082031 C 338.21875 36.191406 342.542969 29.652344 346.546875 23.101562 C 347.882812 20.917969 347.195312 17.875 344.519531 17.46875 C 343.109375 17.105469 341.046875 17.355469 339.910156 18.273438 C 337.308594 20.414062 334.863281 22.722656 332.566406 25.351562 C 325.65625 33.554688 320.605469 43.09375 316.492188 52.824219 C 308.964844 70.390625 302.851562 88.167969 298.613281 106.640625 C 295.128906 121.480469 292.582031 136.507812 291.296875 151.734375 C 289.761719 169.660156 287.605469 187.40625 286.234375 205.175781 C 283.863281 234.207031 281.96875 263.253906 281.808594 292.359375 C 281.796875 297.609375 282.253906 303.03125 282.714844 308.296875 C 282.640625 310.519531 283.527344 312.457031 284.222656 315.34375 Z M 284.222656 315.34375 " fill-opacity="1" fill-rule="nonzero"/></g></g></g><g clip-path="url(#854164d8d4)"><g clip-path="url(#5c083a5e61)"><path fill="#ae1326" d="M 280.019531 200.996094 L 358.972656 200.996094 L 358.972656 302 L 280.019531 302 Z M 280.019531 200.996094 " fill-opacity="1" fill-rule="nonzero"/></g></g><g clip-path="url(#361403d7ca)"><g clip-path="url(#ebb6f13e63)"><path fill="#ae1326" d="M 221.546875 200.996094 L 300.5 200.996094 L 300.5 302 L 221.546875 302 Z M 221.546875 200.996094 " fill-opacity="1" fill-rule="nonzero"/></g></g><g clip-path="url(#1dea89b7f5)"><g clip-path="url(#245f2eec4b)"><path fill="#ae1326" d="M 354.007812 318.996094 L 225.867188 318.996094 L 225.867188 251.492188 L 354.007812 251.492188 Z M 354.007812 318.996094 " fill-opacity="1" fill-rule="nonzero"/></g></g><g fill="#1e0206" fill-opacity="1"><g transform="translate(1.821841, 341.439023)"><g><path d="M 165.0625 1.828125 C 136.15625 1.828125 111.007812 -3.453125 89.625 -14.015625 C 68.25 -24.585938 51.851562 -39.585938 40.4375 -59.015625 C 29.019531 -78.453125 23.3125 -101.046875 23.3125 -126.796875 C 23.3125 -162.503906 30.050781 -194.203125 43.53125 -221.890625 C 57.019531 -249.585938 75.300781 -271.023438 98.375 -286.203125 C 121.445312 -301.390625 147.070312 -308.984375 175.25 -308.984375 C 201.488281 -308.984375 221.410156 -302.238281 235.015625 -288.75 C 248.617188 -275.269531 255.421875 -257.476562 255.421875 -235.375 C 255.421875 -220.5625 252.804688 -208.660156 247.578125 -199.671875 C 242.359375 -190.679688 234.890625 -186.1875 225.171875 -186.1875 C 218.367188 -186.1875 213.023438 -187.765625 209.140625 -190.921875 C 205.253906 -194.078125 203.3125 -198.691406 203.3125 -204.765625 C 203.3125 -206.953125 203.796875 -210.960938 204.765625 -216.796875 C 206.222656 -224.078125 206.953125 -229.90625 206.953125 -234.28125 C 206.953125 -256.382812 195.171875 -267.4375 171.609375 -267.4375 C 155.578125 -267.4375 140.273438 -262.210938 125.703125 -251.765625 C 111.128906 -241.328125 99.347656 -225.960938 90.359375 -205.671875 C 81.367188 -185.390625 76.875 -161.285156 76.875 -133.359375 C 76.875 -104.203125 85.007812 -81.671875 101.28125 -65.765625 C 117.5625 -49.859375 141.613281 -41.90625 173.4375 -41.90625 C 189.226562 -41.90625 205.195312 -43.90625 221.34375 -47.90625 C 237.5 -51.914062 255.414062 -58.050781 275.09375 -66.3125 C 278.738281 -67.769531 281.773438 -68.5 284.203125 -68.5 C 288.085938 -68.5 291 -67.039062 292.9375 -64.125 C 294.882812 -61.207031 295.859375 -57.441406 295.859375 -52.828125 C 295.859375 -38.015625 287.84375 -27.085938 271.8125 -20.046875 C 254.5625 -12.515625 236.644531 -6.984375 218.0625 -3.453125 C 199.488281 0.0664062 181.820312 1.828125 165.0625 1.828125 Z M 165.0625 1.828125 "/></g></g></g></svg>