<svg xmlns="http://www.w3.org/2000/svg" xmlns:xlink="http://www.w3.org/1999/xlink" width="500" zoomAndPan="magnify" viewBox="0 0 375 374.999991" height="500" preserveAspectRatio="xMidYMid meet" version="1.0"><defs><g/><clipPath id="id1"><path d="M 281 17 L 348 17 L 348 316 L 281 316 Z M 281 17 " clip-rule="nonzero"/></clipPath><clipPath id="id2"><path d="M 348.578125 17.285156 L 338.800781 317.125 L 280.332031 315.21875 L 290.109375 15.375 Z M 348.578125 17.285156 " clip-rule="nonzero"/></clipPath><clipPath id="id3"><path d="M 289.792969 15.367188 L 280.015625 315.207031 L 338.484375 317.113281 L 348.261719 17.273438 Z M 289.792969 15.367188 " clip-rule="nonzero"/></clipPath><clipPath id="id4"><path d="M 280.019531 200.996094 L 358.769531 200.996094 L 358.769531 302.246094 L 280.019531 302.246094 Z M 280.019531 200.996094 " clip-rule="nonzero"/></clipPath><clipPath id="id5"><path d="M 221.546875 200.996094 L 300.296875 200.996094 L 300.296875 302.246094 L 221.546875 302.246094 Z M 221.546875 200.996094 " clip-rule="nonzero"/></clipPath><clipPath id="id6"><path d="M 225.667969 251.289062 L 354 251.289062 L 354 318.996094 L 225.667969 318.996094 Z M 225.667969 251.289062 " clip-rule="nonzero"/></clipPath></defs><g clip-path="url(#id1)"><g clip-path="url(#id2)"><g clip-path="url(#id3)"><path fill="#30a821" d="M 284.222656 315.34375 C 286.84375 312.566406 287.398438 310.039062 287.800781 307.347656 C 288.207031 304.65625 288.300781 301.796875 288.394531 298.9375 C 288.929688 277.640625 290.261719 256.210938 292.535156 234.96875 C 294.402344 216.417969 296.113281 197.863281 298.617188 179.335938 C 300.503906 165.078125 303.015625 151.003906 305.6875 136.933594 C 308.144531 124.609375 310.761719 112.285156 314.003906 100.144531 C 319.382812 80.59375 325.703125 61.234375 334.832031 43.082031 C 338.21875 36.191406 342.542969 29.652344 346.546875 23.101562 C 347.882812 20.917969 347.195312 17.875 344.519531 17.46875 C 343.109375 17.105469 341.046875 17.355469 339.910156 18.273438 C 337.308594 20.414062 334.863281 22.722656 332.566406 25.351562 C 325.65625 33.554688 320.605469 43.09375 316.492188 52.824219 C 308.964844 70.390625 302.851562 88.167969 298.613281 106.640625 C 295.128906 121.480469 292.582031 136.507812 291.296875 151.734375 C 289.761719 169.660156 287.605469 187.40625 286.234375 205.175781 C 283.863281 234.207031 281.96875 263.253906 281.808594 292.359375 C 281.796875 297.609375 282.253906 303.03125 282.714844 308.296875 C 282.640625 310.519531 283.527344 312.457031 284.222656 315.34375 Z M 284.222656 315.34375 " fill-opacity="1" fill-rule="nonzero"/></g></g></g><g clip-path="url(#id4)"><path fill="#a82130" d="M 319.394531 200.996094 C 297.652344 200.996094 280.023438 223.664062 280.023438 251.621094 C 280.023438 279.582031 297.652344 302.246094 319.394531 302.246094 C 341.140625 302.246094 358.769531 279.582031 358.769531 251.621094 C 358.769531 223.664062 341.140625 200.996094 319.394531 200.996094 " fill-opacity="1" fill-rule="nonzero"/></g><g clip-path="url(#id5)"><path fill="#a82130" d="M 260.921875 200.996094 C 239.175781 200.996094 221.550781 223.664062 221.550781 251.621094 C 221.550781 279.582031 239.175781 302.246094 260.921875 302.246094 C 282.667969 302.246094 300.296875 279.582031 300.296875 251.621094 C 300.296875 223.664062 282.667969 200.996094 260.921875 200.996094 " fill-opacity="1" fill-rule="nonzero"/></g><g clip-path="url(#id6)"><path fill="#a82130" d="M 335.28125 251.289062 C 337.710938 251.289062 340.140625 251.796875 342.566406 252.8125 C 352.082031 256.867188 356.535156 267.8125 352.488281 277.339844 C 341.859375 302.679688 317.265625 318.996094 289.835938 318.996094 C 262.40625 318.996094 237.8125 302.679688 227.085938 277.339844 C 223.035156 267.8125 227.488281 256.765625 237.003906 252.8125 C 246.515625 248.757812 257.550781 253.214844 261.496094 262.746094 C 266.355469 274.097656 277.488281 281.496094 289.835938 281.496094 C 302.183594 281.496094 313.214844 274.097656 318.074219 262.746094 C 321.011719 255.648438 327.992188 251.289062 335.28125 251.289062 Z M 335.28125 251.289062 " fill-opacity="1" fill-rule="nonzero"/></g><g fill="#000000" fill-opacity="1"><g transform="translate(1.851012, 338.909381)"><g><path d="M 165.046875 1.828125 C 136.140625 1.828125 111 -3.453125 89.625 -14.015625 C 68.25 -24.585938 51.851562 -39.585938 40.4375 -59.015625 C 29.019531 -78.453125 23.3125 -101.046875 23.3125 -126.796875 C 23.3125 -162.492188 30.050781 -194.1875 43.53125 -221.875 C 57.019531 -249.570312 75.300781 -271.007812 98.375 -286.1875 C 121.445312 -301.375 147.070312 -308.96875 175.25 -308.96875 C 201.476562 -308.96875 221.394531 -302.222656 235 -288.734375 C 248.601562 -275.253906 255.40625 -257.460938 255.40625 -235.359375 C 255.40625 -220.546875 252.789062 -208.644531 247.5625 -199.65625 C 242.34375 -190.664062 234.878906 -186.171875 225.171875 -186.171875 C 218.367188 -186.171875 213.019531 -187.75 209.125 -190.90625 C 205.238281 -194.070312 203.296875 -198.691406 203.296875 -204.765625 C 203.296875 -206.953125 203.785156 -210.957031 204.765625 -216.78125 C 206.222656 -224.070312 206.953125 -229.898438 206.953125 -234.265625 C 206.953125 -256.367188 195.171875 -267.421875 171.609375 -267.421875 C 155.578125 -267.421875 140.273438 -262.195312 125.703125 -251.75 C 111.128906 -241.3125 99.347656 -225.953125 90.359375 -205.671875 C 81.367188 -185.390625 76.875 -161.28125 76.875 -133.34375 C 76.875 -104.195312 85.007812 -81.671875 101.28125 -65.765625 C 117.5625 -49.859375 141.609375 -41.90625 173.421875 -41.90625 C 189.210938 -41.90625 205.179688 -43.90625 221.328125 -47.90625 C 237.484375 -51.914062 255.398438 -58.050781 275.078125 -66.3125 C 278.722656 -67.769531 281.757812 -68.5 284.1875 -68.5 C 288.070312 -68.5 290.984375 -67.039062 292.921875 -64.125 C 294.867188 -61.207031 295.84375 -57.441406 295.84375 -52.828125 C 295.84375 -38.015625 287.828125 -27.082031 271.796875 -20.03125 C 254.554688 -12.507812 236.644531 -6.984375 218.0625 -3.453125 C 199.476562 0.0664062 181.804688 1.828125 165.046875 1.828125 Z M 165.046875 1.828125 "/></g></g></g></svg>