<svg xmlns="http://www.w3.org/2000/svg" xmlns:xlink="http://www.w3.org/1999/xlink" width="100" zoomAndPan="magnify" viewBox="0 0 75 74.999997" height="100" preserveAspectRatio="xMidYMid meet" version="1.0"><defs><clipPath id="a822343e4b"><path d="M 0 0 L 47.402344 0 L 47.402344 46.351562 L 0 46.351562 Z M 0 0 " clip-rule="nonzero"/></clipPath><clipPath id="7f8b4134d3"><path d="M 10.050781 -28.351562 C -10.574219 -28.351562 -27.296875 -11.628906 -27.296875 9 C -27.296875 29.628906 -10.574219 46.351562 10.050781 46.351562 C 30.679688 46.351562 47.402344 29.628906 47.402344 9 C 47.402344 -11.628906 30.679688 -28.351562 10.050781 -28.351562 Z M 10.050781 -28.351562 " clip-rule="nonzero"/></clipPath></defs><g clip-path="url(#a822343e4b)"><g clip-path="url(#7f8b4134d3)"><path fill="#2c2440" d="M -27.296875 -28.351562 L 47.402344 -28.351562 L 47.402344 46.351562 L -27.296875 46.351562 Z M -27.296875 -28.351562 " fill-opacity="1" fill-rule="nonzero"/></g></g><path stroke-linecap="round" transform="matrix(0.54444, 0.508838, -0.512112, 0.547943, 14.979612, 21.997069)" fill="none" stroke-linejoin="miter" d="M 3.002009 2.999151 L 14.109416 3.000014 " stroke="#f6d4d2" stroke-width="6" stroke-opacity="1" stroke-miterlimit="4"/><path stroke-linecap="round" transform="matrix(0.44579, -0.60899, 0.605184, 0.443004, 18.162642, 31.332766)" fill="none" stroke-linejoin="miter" d="M 2.999453 3.001795 L 26.823095 3.003019 " stroke="#f6d4d2" stroke-width="6" stroke-opacity="1" stroke-miterlimit="4"/></svg>