<svg xmlns="http://www.w3.org/2000/svg" xmlns:xlink="http://www.w3.org/1999/xlink" width="220" zoomAndPan="magnify" viewBox="0 0 165 119.999999" height="160" preserveAspectRatio="xMidYMid meet" version="1.0"><defs><g/></defs><g fill="#000000" fill-opacity="1"><g transform="translate(34.564452, 54.224977)"><g><path d="M 8.175781 0.253906 C 11.398438 0.253906 14.03125 -1.640625 14.871094 -4.585938 L 13.621094 -4.585938 C 12.859375 -2.324219 10.753906 -0.9375 8.195312 -0.9375 C 4.859375 -0.9375 2.457031 -3.335938 2.457031 -6.832031 C 2.457031 -10.324219 4.859375 -12.722656 8.195312 -12.722656 C 10.695312 -12.722656 12.722656 -11.398438 13.503906 -9.230469 L 14.753906 -9.230469 C 13.855469 -12.097656 11.300781 -13.914062 8.175781 -13.914062 C 4.15625 -13.914062 1.25 -10.988281 1.25 -6.832031 C 1.25 -2.671875 4.15625 0.253906 8.175781 0.253906 Z M 8.175781 0.253906 "/></g></g></g><g fill="#000000" fill-opacity="1"><g transform="translate(50.603014, 54.224977)"><g><path d="M 5.992188 0.253906 C 7.570312 0.253906 8.976562 -0.507812 9.757812 -1.972656 L 9.875 0 L 10.8125 0 L 10.8125 -10.089844 L 9.679688 -10.089844 L 9.679688 -4.878906 C 9.679688 -2.476562 8.234375 -0.839844 6.148438 -0.839844 C 4.15625 -0.839844 2.925781 -2.304688 2.925781 -4.605469 L 2.925781 -10.089844 L 1.796875 -10.089844 L 1.796875 -4.507812 C 1.796875 -1.601562 3.394531 0.253906 5.992188 0.253906 Z M 5.992188 0.253906 "/></g></g></g><g fill="#000000" fill-opacity="1"><g transform="translate(63.422159, 54.224977)"><g><path d="M 2.011719 0 L 3.140625 0 L 3.140625 -4.644531 C 3.140625 -7.707031 4.585938 -9.035156 6.753906 -9.035156 L 7.628906 -9.035156 L 7.628906 -10.089844 L 6.792969 -10.089844 C 4.917969 -10.089844 3.765625 -9.347656 3.082031 -7.824219 L 2.964844 -10.089844 L 2.011719 -10.089844 Z M 2.011719 0 "/></g></g></g><g fill="#000000" fill-opacity="1"><g transform="translate(71.890214, 54.224977)"><g><path d="M 2.011719 0 L 3.140625 0 L 3.140625 -4.644531 C 3.140625 -7.707031 4.585938 -9.035156 6.753906 -9.035156 L 7.628906 -9.035156 L 7.628906 -10.089844 L 6.792969 -10.089844 C 4.917969 -10.089844 3.765625 -9.347656 3.082031 -7.824219 L 2.964844 -10.089844 L 2.011719 -10.089844 Z M 2.011719 0 "/></g></g></g><g fill="#000000" fill-opacity="1"><g transform="translate(80.358269, 54.224977)"><g><path d="M 6.285156 0.253906 C 8.546875 0.253906 10.382812 -0.9375 11.164062 -2.867188 L 9.894531 -2.886719 C 9.230469 -1.582031 7.921875 -0.820312 6.285156 -0.820312 C 4.039062 -0.820312 2.476562 -2.304688 2.285156 -4.585938 L 11.457031 -4.585938 C 11.535156 -8 9.484375 -10.34375 6.304688 -10.34375 C 3.238281 -10.34375 1.132812 -8.175781 1.132812 -5.054688 C 1.132812 -1.914062 3.21875 0.253906 6.285156 0.253906 Z M 2.285156 -5.582031 C 2.476562 -7.804688 4.058594 -9.269531 6.304688 -9.269531 C 8.507812 -9.269531 10.070312 -7.863281 10.34375 -5.582031 Z M 2.285156 -5.582031 "/></g></g></g><g fill="#000000" fill-opacity="1"><g transform="translate(92.904255, 54.224977)"><g><path d="M 2.011719 0 L 3.140625 0 L 3.140625 -5.230469 C 3.140625 -7.628906 4.625 -9.25 6.753906 -9.25 C 8.761719 -9.25 10.011719 -7.804688 10.011719 -5.484375 L 10.011719 0 L 11.144531 0 L 11.144531 -5.582031 C 11.144531 -8.488281 9.523438 -10.34375 6.890625 -10.34375 C 5.269531 -10.34375 3.863281 -9.582031 3.0625 -8.136719 L 2.964844 -10.089844 L 2.011719 -10.089844 Z M 2.011719 0 "/></g></g></g><g fill="#000000" fill-opacity="1"><g transform="translate(105.840472, 54.224977)"><g><path d="M 6.109375 0 L 7.570312 0 L 7.570312 -1.09375 L 6.148438 -1.09375 C 4.625 -1.09375 3.941406 -1.875 3.941406 -3.53125 L 3.941406 -9.054688 L 7.433594 -9.054688 L 7.433594 -10.089844 L 3.941406 -10.089844 L 3.941406 -12.566406 L 3.042969 -12.566406 L 2.945312 -11.027344 C 2.867188 -10.285156 2.652344 -10.089844 1.894531 -10.089844 L 0.605469 -10.089844 L 0.605469 -9.054688 L 2.808594 -9.054688 L 2.808594 -3.492188 C 2.808594 -1.210938 3.960938 0 6.109375 0 Z M 6.109375 0 "/></g></g></g><g fill="#000000" fill-opacity="1"><g transform="translate(114.425589, 54.224977)"><g><path d="M 2.011719 0 L 3.140625 0 L 3.140625 -14.441406 L 2.011719 -14.441406 Z M 2.011719 0 "/></g></g></g><g fill="#000000" fill-opacity="1"><g transform="translate(119.576666, 54.224977)"><g><path d="M 1.386719 3.902344 L 2.34375 3.902344 C 4.15625 3.902344 4.9375 3.453125 5.640625 1.699219 L 10.460938 -10.089844 L 9.269531 -10.089844 L 7.21875 -5.113281 L 5.777344 -1.523438 L 4.039062 -5.113281 L 1.660156 -10.089844 L 0.390625 -10.089844 L 5.191406 -0.15625 L 4.625 1.269531 C 4.097656 2.535156 3.648438 2.828125 2.226562 2.828125 L 1.386719 2.828125 Z M 1.386719 3.902344 "/></g></g></g><g fill="#000000" fill-opacity="1"><g transform="translate(24.27539, 81.224976)"><g><path d="M 7.179688 0.234375 C 10.382812 0.234375 12.332031 -1.875 12.332031 -5.386719 L 12.332031 -13.660156 L 11.164062 -13.660156 L 11.164062 -5.445312 C 11.164062 -2.535156 9.71875 -0.917969 7.179688 -0.917969 C 4.644531 -0.917969 3.199219 -2.535156 3.199219 -5.445312 L 3.199219 -13.660156 L 2.03125 -13.660156 L 2.03125 -5.386719 C 2.03125 -1.875 3.980469 0.234375 7.179688 0.234375 Z M 7.179688 0.234375 "/></g></g></g><g fill="#000000" fill-opacity="1"><g transform="translate(38.635962, 81.224976)"><g><path d="M 2.011719 0 L 3.140625 0 L 3.140625 -5.230469 C 3.140625 -7.628906 4.625 -9.25 6.753906 -9.25 C 8.761719 -9.25 10.011719 -7.804688 10.011719 -5.484375 L 10.011719 0 L 11.144531 0 L 11.144531 -5.582031 C 11.144531 -8.488281 9.523438 -10.34375 6.890625 -10.34375 C 5.269531 -10.34375 3.863281 -9.582031 3.0625 -8.136719 L 2.964844 -10.089844 L 2.011719 -10.089844 Z M 2.011719 0 "/></g></g></g><g fill="#000000" fill-opacity="1"><g transform="translate(51.57218, 81.224976)"><g><path d="M 5.171875 0.15625 C 6.96875 0.15625 8.449219 -0.527344 9.328125 -1.738281 L 9.445312 0 L 10.382812 0 L 10.382812 -6.558594 C 10.382812 -8.800781 8.644531 -10.34375 6.128906 -10.34375 C 3.980469 -10.34375 2.359375 -9.171875 1.875 -7.296875 L 3.023438 -7.296875 C 3.433594 -8.507812 4.625 -9.289062 6.148438 -9.289062 C 8.019531 -9.289062 9.25 -8.175781 9.25 -6.5 L 9.25 -5.777344 L 4.800781 -5.777344 C 2.730469 -5.777344 1.367188 -4.644531 1.367188 -2.847656 C 1.367188 -0.996094 2.828125 0.15625 5.171875 0.15625 Z M 2.496094 -2.867188 C 2.496094 -4.019531 3.453125 -4.78125 4.839844 -4.78125 L 9.269531 -4.78125 L 9.269531 -4.351562 C 9.269531 -2.324219 7.550781 -0.859375 5.210938 -0.859375 C 3.53125 -0.859375 2.496094 -1.640625 2.496094 -2.867188 Z M 2.496094 -2.867188 "/></g></g></g><g fill="#000000" fill-opacity="1"><g transform="translate(63.747445, 81.224976)"><g><path d="M 4.898438 0 L 6.011719 0 L 10.519531 -10.089844 L 9.308594 -10.089844 L 7.53125 -6.1875 L 5.464844 -1.484375 L 3.375 -6.1875 L 1.621094 -10.089844 L 0.390625 -10.089844 Z M 4.898438 0 "/></g></g></g><g fill="#000000" fill-opacity="1"><g transform="translate(74.673966, 81.224976)"><g><path d="M 5.171875 0.15625 C 6.96875 0.15625 8.449219 -0.527344 9.328125 -1.738281 L 9.445312 0 L 10.382812 0 L 10.382812 -6.558594 C 10.382812 -8.800781 8.644531 -10.34375 6.128906 -10.34375 C 3.980469 -10.34375 2.359375 -9.171875 1.875 -7.296875 L 3.023438 -7.296875 C 3.433594 -8.507812 4.625 -9.289062 6.148438 -9.289062 C 8.019531 -9.289062 9.25 -8.175781 9.25 -6.5 L 9.25 -5.777344 L 4.800781 -5.777344 C 2.730469 -5.777344 1.367188 -4.644531 1.367188 -2.847656 C 1.367188 -0.996094 2.828125 0.15625 5.171875 0.15625 Z M 2.496094 -2.867188 C 2.496094 -4.019531 3.453125 -4.78125 4.839844 -4.78125 L 9.269531 -4.78125 L 9.269531 -4.351562 C 9.269531 -2.324219 7.550781 -0.859375 5.210938 -0.859375 C 3.53125 -0.859375 2.496094 -1.640625 2.496094 -2.867188 Z M 2.496094 -2.867188 "/></g></g></g><g fill="#000000" fill-opacity="1"><g transform="translate(86.849232, 81.224976)"><g><path d="M 2.011719 0 L 3.140625 0 L 3.140625 -10.089844 L 2.011719 -10.089844 Z M 1.542969 -12.957031 C 1.542969 -12.371094 1.953125 -11.921875 2.574219 -11.921875 C 3.199219 -11.921875 3.609375 -12.371094 3.609375 -12.957031 C 3.609375 -13.523438 3.199219 -13.972656 2.574219 -13.972656 C 1.953125 -13.972656 1.542969 -13.523438 1.542969 -12.957031 Z M 1.542969 -12.957031 "/></g></g></g><g fill="#000000" fill-opacity="1"><g transform="translate(92.000309, 81.224976)"><g><path d="M 2.011719 0 L 3.140625 0 L 3.140625 -14.441406 L 2.011719 -14.441406 Z M 2.011719 0 "/></g></g></g><g fill="#000000" fill-opacity="1"><g transform="translate(97.151386, 81.224976)"><g><path d="M 5.171875 0.15625 C 6.96875 0.15625 8.449219 -0.527344 9.328125 -1.738281 L 9.445312 0 L 10.382812 0 L 10.382812 -6.558594 C 10.382812 -8.800781 8.644531 -10.34375 6.128906 -10.34375 C 3.980469 -10.34375 2.359375 -9.171875 1.875 -7.296875 L 3.023438 -7.296875 C 3.433594 -8.507812 4.625 -9.289062 6.148438 -9.289062 C 8.019531 -9.289062 9.25 -8.175781 9.25 -6.5 L 9.25 -5.777344 L 4.800781 -5.777344 C 2.730469 -5.777344 1.367188 -4.644531 1.367188 -2.847656 C 1.367188 -0.996094 2.828125 0.15625 5.171875 0.15625 Z M 2.496094 -2.867188 C 2.496094 -4.019531 3.453125 -4.78125 4.839844 -4.78125 L 9.269531 -4.78125 L 9.269531 -4.351562 C 9.269531 -2.324219 7.550781 -0.859375 5.210938 -0.859375 C 3.53125 -0.859375 2.496094 -1.640625 2.496094 -2.867188 Z M 2.496094 -2.867188 "/></g></g></g><g fill="#000000" fill-opacity="1"><g transform="translate(109.326651, 81.224976)"><g><path d="M 7.394531 0.253906 C 10.460938 0.253906 12.566406 -1.992188 12.566406 -5.054688 C 12.566406 -8.117188 10.460938 -10.34375 7.394531 -10.34375 C 5.542969 -10.34375 4.039062 -9.523438 3.140625 -8.175781 L 3.140625 -14.441406 L 2.011719 -14.441406 L 2.011719 0 L 2.964844 0 L 3.082031 -2.011719 C 3.960938 -0.625 5.503906 0.253906 7.394531 0.253906 Z M 3.101562 -5.054688 C 3.101562 -7.511719 4.800781 -9.25 7.277344 -9.25 C 9.757812 -9.25 11.4375 -7.511719 11.4375 -5.054688 C 11.4375 -2.574219 9.757812 -0.839844 7.277344 -0.839844 C 4.800781 -0.839844 3.101562 -2.574219 3.101562 -5.054688 Z M 3.101562 -5.054688 "/></g></g></g><g fill="#000000" fill-opacity="1"><g transform="translate(123.023821, 81.224976)"><g><path d="M 2.011719 0 L 3.140625 0 L 3.140625 -14.441406 L 2.011719 -14.441406 Z M 2.011719 0 "/></g></g></g><g fill="#000000" fill-opacity="1"><g transform="translate(128.174898, 81.224976)"><g><path d="M 6.285156 0.253906 C 8.546875 0.253906 10.382812 -0.9375 11.164062 -2.867188 L 9.894531 -2.886719 C 9.230469 -1.582031 7.921875 -0.820312 6.285156 -0.820312 C 4.039062 -0.820312 2.476562 -2.304688 2.285156 -4.585938 L 11.457031 -4.585938 C 11.535156 -8 9.484375 -10.34375 6.304688 -10.34375 C 3.238281 -10.34375 1.132812 -8.175781 1.132812 -5.054688 C 1.132812 -1.914062 3.21875 0.253906 6.285156 0.253906 Z M 2.285156 -5.582031 C 2.476562 -7.804688 4.058594 -9.269531 6.304688 -9.269531 C 8.507812 -9.269531 10.070312 -7.863281 10.34375 -5.582031 Z M 2.285156 -5.582031 "/></g></g></g></svg>