<svg xmlns="http://www.w3.org/2000/svg" xmlns:xlink="http://www.w3.org/1999/xlink" width="500" zoomAndPan="magnify" viewBox="0 0 375 374.999991" height="500" preserveAspectRatio="xMidYMid meet" version="1.0"><defs><clipPath id="id1"><path d="M 169 141 L 367 141 L 367 272 L 169 272 Z M 169 141 " clip-rule="nonzero"/></clipPath><clipPath id="id2"><path d="M 374.988281 170.113281 L 182.46875 280.660156 L 160.433594 242.285156 L 352.953125 131.742188 Z M 374.988281 170.113281 " clip-rule="nonzero"/></clipPath><clipPath id="id3"><path d="M 8 141 L 205 141 L 205 272 L 8 272 Z M 8 141 " clip-rule="nonzero"/></clipPath><clipPath id="id4"><path d="M 22.273438 131.648438 L 212.953125 242.378906 L 190.734375 280.644531 L 0.0546875 169.914062 Z M 22.273438 131.648438 " clip-rule="nonzero"/></clipPath></defs><g clip-path="url(#id1)"><g clip-path="url(#id2)"><path fill="#f6d4d2" d="M 206.820312 266.679688 C 193.371094 274.402344 177.535156 272.070312 171.453125 261.472656 C 165.367188 250.875 171.335938 236.027344 184.785156 228.304688 L 328.605469 145.722656 C 342.054688 138 357.886719 140.332031 363.972656 150.929688 C 370.054688 161.523438 364.085938 176.375 350.640625 184.097656 L 206.820312 266.679688 " fill-opacity="1" fill-rule="nonzero"/></g></g><g clip-path="url(#id3)"><g clip-path="url(#id4)"><path fill="#f6d4d2" d="M 188.65625 228.269531 C 202.074219 236.0625 207.980469 250.945312 201.84375 261.511719 C 195.707031 272.078125 179.851562 274.328125 166.433594 266.535156 L 24.351562 184.023438 C 10.933594 176.230469 5.03125 161.347656 11.164062 150.78125 C 17.300781 140.214844 33.15625 137.964844 46.574219 145.757812 L 188.65625 228.269531 " fill-opacity="1" fill-rule="nonzero"/></g></g></svg>