<svg xmlns="http://www.w3.org/2000/svg" xmlns:xlink="http://www.w3.org/1999/xlink" width="100" zoomAndPan="magnify" viewBox="0 0 75 74.999997" height="100" preserveAspectRatio="xMidYMid meet" version="1.0"><defs><clipPath id="e9a191f478"><path d="M 5.609375 11.878906 L 56.609375 11.878906 L 56.609375 73.378906 L 5.609375 73.378906 Z M 5.609375 11.878906 " clip-rule="nonzero"/></clipPath><clipPath id="43eec48017"><path d="M 14.609375 11.878906 L 47.878906 11.878906 C 52.851562 11.878906 56.878906 15.90625 56.878906 20.875 L 56.878906 64.671875 C 56.878906 69.640625 52.851562 73.671875 47.878906 73.671875 L 14.609375 73.671875 C 9.640625 73.671875 5.609375 69.640625 5.609375 64.671875 L 5.609375 20.875 C 5.609375 15.90625 9.640625 11.878906 14.609375 11.878906 Z M 14.609375 11.878906 " clip-rule="nonzero"/></clipPath></defs><g clip-path="url(#e9a191f478)"><g clip-path="url(#43eec48017)"><path stroke-linecap="butt" transform="matrix(0.75, 0, 0, 0.75, 5.611311, 11.877035)" fill="none" stroke-linejoin="miter" d="M 11.99742 0.00249565 L 56.356799 0.00249565 C 62.987008 0.00249565 68.3568 5.372288 68.3568 11.997288 L 68.3568 70.393126 C 68.3568 77.018127 62.987008 82.393127 56.356799 82.393127 L 11.99742 82.393127 C 5.372419 82.393127 -0.00258096 77.018127 -0.00258096 70.393126 L -0.00258096 11.997288 C -0.00258096 5.372288 5.372419 0.00249565 11.99742 0.00249565 Z M 11.99742 0.00249565 " stroke="#f6d4d2" stroke-width="12" stroke-opacity="1" stroke-miterlimit="4"/></g></g><path stroke-linecap="round" transform="matrix(0.75, 0, 0, 0.75, 16.99221, 1.325922)" fill="none" stroke-linejoin="miter" d="M 2.999971 14.174813 L 2.999971 8.586271 C 2.999971 7.107105 3.588512 5.685229 4.635388 4.638354 C 5.682263 3.586271 7.104138 2.997729 8.588513 2.997729 L 57.864559 2.997729 C 62.833309 2.997729 66.864559 7.02898 66.864559 11.99773 L 66.864559 77.148777 C 66.864559 78.976902 66.135393 80.726902 64.843726 82.018569 C 63.552059 83.315444 61.796851 84.039403 59.968725 84.039403 L 53.0781 84.039403 " stroke="#f6d4d2" stroke-width="6" stroke-opacity="1" stroke-miterlimit="4"/></svg>