<svg xmlns="http://www.w3.org/2000/svg" xmlns:xlink="http://www.w3.org/1999/xlink" width="200" zoomAndPan="magnify" viewBox="0 0 150 74.999997" height="100" preserveAspectRatio="xMidYMid meet" version="1.0"><defs><g/><clipPath id="c408da488e"><path d="M 106 44 L 118 44 L 118 57 L 106 57 Z M 106 44 " clip-rule="nonzero"/></clipPath><clipPath id="61fad573b2"><path d="M 110.476562 60.890625 L 101.546875 52.878906 L 109.058594 44.503906 L 117.988281 52.515625 Z M 110.476562 60.890625 " clip-rule="nonzero"/></clipPath><clipPath id="5e9c1cef37"><path d="M 110.472656 60.886719 L 101.511719 52.847656 L 109.023438 44.472656 L 117.988281 52.515625 Z M 110.472656 60.886719 " clip-rule="nonzero"/></clipPath><clipPath id="f480777d06"><path d="M 106.011719 56.886719 L 109.0625 44.507812 L 117.988281 52.515625 L 106.011719 56.886719 " clip-rule="nonzero"/></clipPath></defs><g fill="#f6d4d2" fill-opacity="1"><g transform="translate(0.000003, 53.346827)"><g><path d="M 5.816406 0 L 27.582031 0 L 27.582031 -2.933594 L 8.953125 -2.933594 L 8.953125 -16.929688 L 25.675781 -16.929688 L 25.675781 -19.8125 L 8.953125 -19.8125 L 8.953125 -33.085938 L 27.015625 -33.085938 L 27.015625 -36.019531 L 5.816406 -36.019531 Z M 5.816406 0 "/></g></g></g><g fill="#f6d4d2" fill-opacity="1"><g transform="translate(31.335274, 53.346827)"><g><path d="M 16.621094 0.667969 C 21.613281 0.667969 25.675781 -1.59375 27.992188 -5.25 L 28.351562 0 L 30.824219 0 L 30.824219 -38.078125 L 27.839844 -38.078125 L 27.839844 -21.664062 C 25.472656 -25.113281 21.507812 -27.273438 16.621094 -27.273438 C 8.59375 -27.273438 2.984375 -21.40625 2.984375 -13.328125 C 2.984375 -5.25 8.59375 0.667969 16.621094 0.667969 Z M 5.96875 -13.328125 C 5.96875 -19.8125 10.445312 -24.390625 16.980469 -24.390625 C 23.464844 -24.390625 27.941406 -19.8125 27.941406 -13.328125 C 27.941406 -6.792969 23.464844 -2.210938 16.980469 -2.210938 C 10.445312 -2.210938 5.96875 -6.792969 5.96875 -13.328125 Z M 5.96875 -13.328125 "/></g></g></g><g fill="#f6d4d2" fill-opacity="1"><g transform="translate(67.455729, 53.346827)"><g><path d="M 5.300781 0 L 8.285156 0 L 8.285156 -26.605469 L 5.300781 -26.605469 Z M 4.066406 -34.167969 C 4.066406 -32.625 5.144531 -31.441406 6.792969 -31.441406 C 8.4375 -31.441406 9.519531 -32.625 9.519531 -34.167969 C 9.519531 -35.660156 8.4375 -36.84375 6.792969 -36.84375 C 5.144531 -36.84375 4.066406 -35.660156 4.066406 -34.167969 Z M 4.066406 -34.167969 "/></g></g></g><g fill="#f6d4d2" fill-opacity="1"><g transform="translate(81.039491, 53.346827)"><g><path d="M 16.105469 0 L 19.964844 0 L 19.964844 -2.882812 L 16.210938 -2.882812 C 12.195312 -2.882812 10.394531 -4.941406 10.394531 -9.3125 L 10.394531 -23.875 L 19.605469 -23.875 L 19.605469 -26.605469 L 10.394531 -26.605469 L 10.394531 -33.140625 L 8.027344 -33.140625 L 7.769531 -29.074219 C 7.5625 -27.117188 7 -26.605469 4.992188 -26.605469 L 1.59375 -26.605469 L 1.59375 -23.875 L 7.410156 -23.875 L 7.410156 -9.210938 C 7.410156 -3.191406 10.445312 0 16.105469 0 Z M 16.105469 0 "/></g></g></g><g fill="#f6d4d2" fill-opacity="1"><g transform="translate(103.660812, 53.346827)"><g/></g></g><path stroke-linecap="butt" transform="matrix(0.520929, -0.538986, 0.539286, 0.52122, 115.804316, 51.315211)" fill="none" stroke-linejoin="miter" d="M -0.000557755 1.500605 L 56.029156 1.500599 " stroke="#f6d4d2" stroke-width="3" stroke-opacity="1" stroke-miterlimit="4"/><path stroke-linecap="butt" transform="matrix(0.519451, -0.539251, 0.540154, 0.520321, 108.66285, 45.083518)" fill="none" stroke-linejoin="miter" d="M 0.000296918 1.498928 L 56.105223 1.500332 " stroke="#f6d4d2" stroke-width="3" stroke-opacity="1" stroke-miterlimit="4"/><g clip-path="url(#c408da488e)"><g clip-path="url(#61fad573b2)"><g clip-path="url(#5e9c1cef37)"><g clip-path="url(#f480777d06)"><path stroke-linecap="butt" transform="matrix(-0.558298, -0.500802, 0.501325, -0.55888, 110.474401, 60.888524)" fill="none" stroke-linejoin="miter" d="M 7.992217 -0.00127992 L 15.985355 14.98569 L -0.00323312 14.984455 L 7.992217 -0.00127992 " stroke="#f6d4d2" stroke-width="6" stroke-opacity="1" stroke-miterlimit="4"/></g></g></g></g><path stroke-linecap="butt" transform="matrix(0.545308, 0.503588, -0.508834, 0.550988, 133.558953, 20.40914)" fill="none" stroke-linejoin="miter" d="M 0.0000215224 1.497717 L 12.125643 1.503259 " stroke="#f6d4d2" stroke-width="3" stroke-opacity="1" stroke-miterlimit="4"/><path stroke-linecap="butt" transform="matrix(0.567578, 0.503114, -0.497499, 0.561244, 137.644972, 14.768397)" fill="none" stroke-linejoin="miter" d="M -0.00105812 1.499367 L 13.855188 1.501829 " stroke="#f6d4d2" stroke-width="3" stroke-opacity="1" stroke-miterlimit="4"/></svg>