<svg xmlns="http://www.w3.org/2000/svg" xmlns:xlink="http://www.w3.org/1999/xlink" width="100" zoomAndPan="magnify" viewBox="0 0 75 74.999997" height="100" preserveAspectRatio="xMidYMid meet" version="1.0"><defs><clipPath id="cdc6d52c9b"><path d="M 1 49 L 26 49 L 26 75 L 1 75 Z M 1 49 " clip-rule="nonzero"/></clipPath><clipPath id="904be6ca1f"><path d="M 10.90625 85.859375 L -10.308594 66.828125 L 7.71875 46.726562 L 28.933594 65.757812 Z M 10.90625 85.859375 " clip-rule="nonzero"/></clipPath><clipPath id="9de4f6a7eb"><path d="M 11.382812 81.75 L -6.367188 65.828125 L 9.40625 48.242188 L 27.15625 64.164062 Z M 11.382812 81.75 " clip-rule="nonzero"/></clipPath><clipPath id="9d334ed6dd"><path d="M 1.769531 70.472656 L 6.25 52.597656 C 6.5625 51.363281 7.496094 50.371094 8.710938 49.992188 C 9.925781 49.609375 11.246094 49.890625 12.1875 50.734375 L 24.46875 61.75 C 25.410156 62.59375 25.832031 63.875 25.585938 65.125 C 25.335938 66.378906 24.453125 67.414062 23.257812 67.855469 L 5.972656 74.246094 C 4.855469 74.65625 3.609375 74.421875 2.726562 73.632812 C 1.847656 72.84375 1.480469 71.628906 1.769531 70.472656 Z M 1.769531 70.472656 " clip-rule="nonzero"/></clipPath></defs><path stroke-linecap="round" transform="matrix(0.522145, -0.540244, 0.539286, 0.52122, 18.855046, 64.598629)" fill="none" stroke-linejoin="miter" d="M 3.999866 4.001596 L 92.825378 3.999954 " stroke="#f6d4d2" stroke-width="8" stroke-opacity="1" stroke-miterlimit="4"/><path stroke-linecap="round" transform="matrix(0.520572, -0.540415, 0.540154, 0.520321, 5.671475, 52.370272)" fill="none" stroke-linejoin="miter" d="M 4.000506 3.998924 L 92.954292 4.002084 " stroke="#f6d4d2" stroke-width="8" stroke-opacity="1" stroke-miterlimit="4"/><g clip-path="url(#cdc6d52c9b)"><g clip-path="url(#904be6ca1f)"><g clip-path="url(#9de4f6a7eb)"><g clip-path="url(#9d334ed6dd)"><path stroke-linecap="butt" transform="matrix(-0.558298, -0.500802, 0.506296, -0.564423, 10.904141, 85.85548)" fill="none" stroke-linejoin="miter" d="M 22.761942 7.057813 L 34.229328 28.552532 C 35.018145 30.039597 34.974885 31.835862 34.106462 33.277715 C 33.241516 34.723403 31.680665 35.610023 29.995087 35.610716 L 7.998193 35.611551 C 6.312615 35.612244 4.753175 34.725889 3.884536 33.281965 C 3.016296 31.830765 2.970899 30.037037 3.764292 28.551024 L 15.230663 7.054703 C 15.974338 5.668171 17.419791 4.800893 18.998524 4.79811 C 20.573379 4.798768 22.019418 5.668088 22.761942 7.057813 Z M 22.761942 7.057813 " stroke="#f6d4d2" stroke-width="16" stroke-opacity="1" stroke-miterlimit="4"/></g></g></g></g><path stroke-linecap="butt" transform="matrix(0.552221, 0.509972, -0.508834, 0.550988, 50.169765, 12.321246)" fill="none" stroke-linejoin="miter" d="M -0.00316926 3.999737 L 20.95514 3.998541 " stroke="#f6d4d2" stroke-width="8" stroke-opacity="1" stroke-miterlimit="4"/><path stroke-linecap="butt" transform="matrix(0.553163, 0.506469, -0.506469, 0.553163, 57.771959, 1.527488)" fill="none" stroke-linejoin="miter" d="M -0.00166283 3.998163 L 24.999513 4.001312 " stroke="#f6d4d2" stroke-width="8" stroke-opacity="1" stroke-miterlimit="4"/></svg>