<svg xmlns="http://www.w3.org/2000/svg" xmlns:xlink="http://www.w3.org/1999/xlink" width="100" zoomAndPan="magnify" viewBox="0 0 75 74.999997" height="100" preserveAspectRatio="xMidYMid meet" version="1.0"><defs><clipPath id="d68cca59b4"><path d="M 2 52 L 24 52 L 24 74 L 2 74 Z M 2 52 " clip-rule="nonzero"/></clipPath><clipPath id="a847576a87"><path d="M 10.433594 80.835938 L -5.199219 66.8125 L 7.820312 52.296875 L 23.453125 66.320312 Z M 10.433594 80.835938 " clip-rule="nonzero"/></clipPath><clipPath id="d984419f67"><path d="M 10.429688 80.835938 L -5.265625 66.753906 L 7.753906 52.238281 L 23.453125 66.320312 Z M 10.429688 80.835938 " clip-rule="nonzero"/></clipPath><clipPath id="7f547d7643"><path d="M 2.617188 73.824219 L 7.820312 52.296875 L 23.453125 66.320312 L 2.617188 73.824219 " clip-rule="nonzero"/></clipPath></defs><path stroke-linecap="butt" transform="matrix(0.522145, -0.540244, 0.539286, 0.52122, 20.807298, 64.600431)" fill="none" stroke-linejoin="miter" d="M -0.00080474 2.002352 L 96.829217 2.001031 " stroke="#f6d4d2" stroke-width="4" stroke-opacity="1" stroke-miterlimit="4"/><path stroke-linecap="butt" transform="matrix(0.520572, -0.540415, 0.540154, 0.520321, 7.625463, 52.370272)" fill="none" stroke-linejoin="miter" d="M 0.00189253 2.000509 L 96.956063 2.002342 " stroke="#f6d4d2" stroke-width="4" stroke-opacity="1" stroke-miterlimit="4"/><g clip-path="url(#d68cca59b4)"><g clip-path="url(#a847576a87)"><g clip-path="url(#d984419f67)"><g clip-path="url(#7f547d7643)"><path stroke-linecap="butt" transform="matrix(-0.565557, -0.507314, 0.502615, -0.560319, 10.431347, 80.834371)" fill="none" stroke-linejoin="miter" d="M 13.817387 0.000718744 L 27.639539 25.905933 L -0.00239068 25.905383 L 13.817387 0.000718744 " stroke="#f6d4d2" stroke-width="8" stroke-opacity="1" stroke-miterlimit="4"/></g></g></g></g><path stroke-linecap="butt" transform="matrix(0.552221, 0.509972, -0.508834, 0.550988, 50.025773, 12.382581)" fill="none" stroke-linejoin="miter" d="M -0.000449831 2.000086 L 20.954042 2.002423 " stroke="#f6d4d2" stroke-width="4" stroke-opacity="1" stroke-miterlimit="4"/><path stroke-linecap="butt" transform="matrix(0.562709, 0.498798, -0.497499, 0.561244, 59.437936, 1.490286)" fill="none" stroke-linejoin="miter" d="M -0.00107669 2.001861 L 23.940477 2.000806 " stroke="#f6d4d2" stroke-width="4" stroke-opacity="1" stroke-miterlimit="4"/></svg>