<svg xmlns="http://www.w3.org/2000/svg" xmlns:xlink="http://www.w3.org/1999/xlink" width="100" zoomAndPan="magnify" viewBox="0 0 75 74.999997" height="100" preserveAspectRatio="xMidYMid meet" version="1.0"><defs><clipPath id="fb6e979daf"><path d="M 1 49 L 26 49 L 26 74 L 1 74 Z M 1 49 " clip-rule="nonzero"/></clipPath><clipPath id="ed5b97270d"><path d="M 10.90625 85.109375 L -10.308594 66.078125 L 7.71875 45.976562 L 28.933594 65.007812 Z M 10.90625 85.109375 " clip-rule="nonzero"/></clipPath><clipPath id="f82fc73ae5"><path d="M 11.382812 81 L -6.367188 65.078125 L 9.40625 47.492188 L 27.15625 63.414062 Z M 11.382812 81 " clip-rule="nonzero"/></clipPath><clipPath id="76607660c1"><path d="M 1.769531 69.722656 L 6.25 51.847656 C 6.5625 50.613281 7.496094 49.621094 8.710938 49.242188 C 9.925781 48.859375 11.246094 49.140625 12.1875 49.984375 L 24.46875 61 C 25.410156 61.84375 25.832031 63.125 25.585938 64.375 C 25.335938 65.628906 24.453125 66.664062 23.257812 67.105469 L 5.972656 73.496094 C 4.855469 73.90625 3.609375 73.671875 2.726562 72.882812 C 1.847656 72.09375 1.480469 70.878906 1.769531 69.722656 Z M 1.769531 69.722656 " clip-rule="nonzero"/></clipPath></defs><path stroke-linecap="round" transform="matrix(0.524941, -0.539604, 0.537584, 0.522976, 20.762078, 64.361391)" fill="none" stroke-linejoin="miter" d="M 2.998653 3.000509 L 92.642296 3.00234 " stroke="#f6d4d2" stroke-width="6" stroke-opacity="1" stroke-miterlimit="4"/><path stroke-linecap="round" transform="matrix(0.520572, -0.540415, 0.540154, 0.520321, 5.461629, 51.849948)" fill="none" stroke-linejoin="miter" d="M 3.001247 3.000137 L 93.954261 3.000187 " stroke="#f6d4d2" stroke-width="6" stroke-opacity="1" stroke-miterlimit="4"/><g clip-path="url(#fb6e979daf)"><g clip-path="url(#ed5b97270d)"><g clip-path="url(#f82fc73ae5)"><g clip-path="url(#76607660c1)"><path stroke-linecap="butt" transform="matrix(-0.558298, -0.500802, 0.506296, -0.564423, 10.904141, 85.10548)" fill="none" stroke-linejoin="miter" d="M 22.761942 7.057813 L 34.229328 28.552532 C 35.018145 30.039597 34.974885 31.835862 34.106462 33.277715 C 33.241516 34.723403 31.680665 35.610023 29.995087 35.610716 L 7.998193 35.611551 C 6.312615 35.612244 4.753175 34.725889 3.884536 33.281965 C 3.016297 31.830765 2.970899 30.037037 3.764292 28.551024 L 15.230663 7.054703 C 15.974338 5.668171 17.419791 4.800893 18.998524 4.79811 C 20.573379 4.798768 22.019418 5.668088 22.761942 7.057813 Z M 22.761942 7.057813 " stroke="#f6d4d2" stroke-width="12" stroke-opacity="1" stroke-miterlimit="4"/></g></g></g></g><path stroke-linecap="butt" transform="matrix(0.561372, 0.503045, -0.500518, 0.558553, 57.201952, 0.71188)" fill="none" stroke-linejoin="miter" d="M -0.00188932 3.000235 L 27.8596 3.000316 " stroke="#f6d4d2" stroke-width="6" stroke-opacity="1" stroke-miterlimit="4"/><path stroke-linecap="butt" transform="matrix(0.561372, 0.503045, -0.500518, 0.558553, 47.919098, 9.929926)" fill="none" stroke-linejoin="miter" d="M 0.00031813 2.999506 L 27.861808 2.999588 " stroke="#f6d4d2" stroke-width="6" stroke-opacity="1" stroke-miterlimit="4"/></svg>