<svg xmlns="http://www.w3.org/2000/svg" xmlns:xlink="http://www.w3.org/1999/xlink" width="100" zoomAndPan="magnify" viewBox="0 0 75 74.999997" height="100" preserveAspectRatio="xMidYMid meet" version="1.0"><defs><clipPath id="dc711fdaae"><path d="M 14.601562 2.410156 L 37.101562 2.410156 L 37.101562 24.910156 L 14.601562 24.910156 Z M 14.601562 2.410156 " clip-rule="nonzero"/></clipPath><clipPath id="4ea422db95"><path d="M 25.851562 2.410156 C 19.640625 2.410156 14.601562 7.449219 14.601562 13.660156 C 14.601562 19.875 19.640625 24.910156 25.851562 24.910156 C 32.066406 24.910156 37.101562 19.875 37.101562 13.660156 C 37.101562 7.449219 32.066406 2.410156 25.851562 2.410156 " clip-rule="nonzero"/></clipPath><clipPath id="ec6ddf102c"><path d="M 3.351562 50.25 L 25.851562 50.25 L 25.851562 72.75 L 3.351562 72.75 Z M 3.351562 50.25 " clip-rule="nonzero"/></clipPath><clipPath id="e855665fc8"><path d="M 14.601562 50.25 C 8.390625 50.25 3.351562 55.285156 3.351562 61.5 C 3.351562 67.714844 8.390625 72.75 14.601562 72.75 C 20.816406 72.75 25.851562 67.714844 25.851562 61.5 C 25.851562 55.285156 20.816406 50.25 14.601562 50.25 " clip-rule="nonzero"/></clipPath><clipPath id="1b6b6f5978"><path d="M 37.898438 26.25 L 60.398438 26.25 L 60.398438 48.75 L 37.898438 48.75 Z M 37.898438 26.25 " clip-rule="nonzero"/></clipPath><clipPath id="5795096ec6"><path d="M 49.148438 48.75 C 55.359375 48.75 60.398438 43.714844 60.398438 37.5 C 60.398438 31.285156 55.359375 26.25 49.148438 26.25 C 42.933594 26.25 37.898438 31.285156 37.898438 37.5 C 37.898438 43.714844 42.933594 48.75 49.148438 48.75 " clip-rule="nonzero"/></clipPath></defs><path stroke-linecap="round" transform="matrix(0.74368, 0, 0, 0.75, 30.419007, 9.911574)" fill="none" stroke-linejoin="miter" d="M 4.999073 4.99811 L 52.498273 4.99811 " stroke="#f6d4d2" stroke-width="10" stroke-opacity="1" stroke-miterlimit="4"/><g clip-path="url(#dc711fdaae)"><g clip-path="url(#4ea422db95)"><path stroke-linecap="butt" transform="matrix(0.75, 0, 0, 0.75, 14.602091, 2.411574)" fill="none" stroke-linejoin="miter" d="M 14.999295 -0.00189069 C 6.718045 -0.00189069 -0.00070481 6.716859 -0.00070481 14.99811 C -0.00070481 23.284568 6.718045 29.99811 14.999295 29.99811 C 23.285754 29.99811 29.999296 23.284568 29.999296 14.99811 C 29.999296 6.716859 23.285754 -0.00189069 14.999295 -0.00189069 " stroke="#f6d4d2" stroke-width="20" stroke-opacity="1" stroke-miterlimit="4"/></g></g><path stroke-linecap="round" transform="matrix(-0.735766, 0.000000000000000417, -0.000000000000000425, -0.75, 17.51369, 17.411572)" fill="none" stroke-linejoin="miter" d="M 4.998533 5.001888 L 16.407768 5.001888 " stroke="#f6d4d2" stroke-width="10" stroke-opacity="1" stroke-miterlimit="4"/><path stroke-linecap="round" transform="matrix(0.748305, 0, 0, 0.75, 21.663407, 57.749994)" fill="none" stroke-linejoin="miter" d="M 5.001758 5.000008 L 64.171908 5.000008 " stroke="#f6d4d2" stroke-width="10" stroke-opacity="1" stroke-miterlimit="4"/><g clip-path="url(#ec6ddf102c)"><g clip-path="url(#e855665fc8)"><path stroke-linecap="butt" transform="matrix(0.75, 0, 0, 0.75, 3.352091, 50.249995)" fill="none" stroke-linejoin="miter" d="M 14.999295 0.000006805 C 6.718045 0.000006805 -0.000705075 6.713549 -0.000705075 15.000007 C -0.000705075 23.286466 6.718045 30.000007 14.999295 30.000007 C 23.285754 30.000007 29.999295 23.286466 29.999295 15.000007 C 29.999295 6.713549 23.285754 0.000006805 14.999295 0.000006805 " stroke="#f6d4d2" stroke-width="20" stroke-opacity="1" stroke-miterlimit="4"/></g></g><path stroke-linecap="round" transform="matrix(-0.74368, 0, 0, -0.75, 44.572282, 41.249996)" fill="none" stroke-linejoin="miter" d="M 4.997864 4.999995 L 52.497065 4.999995 " stroke="#f6d4d2" stroke-width="10" stroke-opacity="1" stroke-miterlimit="4"/><g clip-path="url(#1b6b6f5978)"><g clip-path="url(#5795096ec6)"><path stroke-linecap="butt" transform="matrix(-0.75, 0, 0, -0.75, 60.397907, 48.749995)" fill="none" stroke-linejoin="miter" d="M 14.999293 -0.00000664167 C 6.718043 -0.00000664167 -0.000707377 6.713535 -0.000707377 14.999994 C -0.000707377 23.286452 6.718043 29.999994 14.999293 29.999994 C 23.285751 29.999994 29.999293 23.286452 29.999293 14.999994 C 29.999293 6.713535 23.285751 -0.00000664167 14.999293 -0.00000664167 " stroke="#f6d4d2" stroke-width="20" stroke-opacity="1" stroke-miterlimit="4"/></g></g><path stroke-linecap="round" transform="matrix(0.735766, -0.000000000000000488, 0.000000000000000498, 0.75, 57.486251, 33.749996)" fill="none" stroke-linejoin="miter" d="M 4.998613 5.000005 L 16.407848 5.000005 " stroke="#f6d4d2" stroke-width="10" stroke-opacity="1" stroke-miterlimit="4"/></svg>