<svg xmlns="http://www.w3.org/2000/svg" xmlns:xlink="http://www.w3.org/1999/xlink" width="100" zoomAndPan="magnify" viewBox="0 0 75 74.999997" height="100" preserveAspectRatio="xMidYMid meet" version="1.0"><defs><clipPath id="4bedb282ee"><path d="M 42.394531 28.421875 L 60.394531 28.421875 L 60.394531 46.421875 L 42.394531 46.421875 Z M 42.394531 28.421875 " clip-rule="nonzero"/></clipPath><clipPath id="652f72d893"><path d="M 51.394531 46.421875 C 56.367188 46.421875 60.394531 42.394531 60.394531 37.421875 C 60.394531 32.453125 56.367188 28.421875 51.394531 28.421875 C 46.425781 28.421875 42.394531 32.453125 42.394531 37.421875 C 42.394531 42.394531 46.425781 46.421875 51.394531 46.421875 Z M 51.394531 46.421875 " clip-rule="nonzero"/></clipPath><clipPath id="1978698196"><path d="M 14.449219 4.585938 L 32.449219 4.585938 L 32.449219 22.585938 L 14.449219 22.585938 Z M 14.449219 4.585938 " clip-rule="nonzero"/></clipPath><clipPath id="95f6788b1e"><path d="M 23.449219 22.585938 C 28.421875 22.585938 32.449219 18.554688 32.449219 13.585938 C 32.449219 8.613281 28.421875 4.585938 23.449219 4.585938 C 18.480469 4.585938 14.449219 8.613281 14.449219 13.585938 C 14.449219 18.554688 18.480469 22.585938 23.449219 22.585938 Z M 23.449219 22.585938 " clip-rule="nonzero"/></clipPath><clipPath id="e512092a67"><path d="M 1.308594 52.421875 L 19.308594 52.421875 L 19.308594 70.421875 L 1.308594 70.421875 Z M 1.308594 52.421875 " clip-rule="nonzero"/></clipPath><clipPath id="f2a41147ea"><path d="M 10.308594 70.421875 C 15.277344 70.421875 19.308594 66.394531 19.308594 61.421875 C 19.308594 56.453125 15.277344 52.421875 10.308594 52.421875 C 5.335938 52.421875 1.308594 56.453125 1.308594 61.421875 C 1.308594 66.394531 5.335938 70.421875 10.308594 70.421875 Z M 10.308594 70.421875 " clip-rule="nonzero"/></clipPath></defs><path stroke-linecap="round" transform="matrix(0.74368, 0, 0, 0.75, 30.419007, 11.411574)" fill="none" stroke-linejoin="miter" d="M 2.997835 2.99811 L 54.494259 2.99811 " stroke="#f6d4d2" stroke-width="6" stroke-opacity="1" stroke-miterlimit="4"/><path stroke-linecap="round" transform="matrix(-0.735766, 0.000000000000000417, -0.000000000000000425, -0.75, 17.51369, 15.911572)" fill="none" stroke-linejoin="miter" d="M 3.002315 3.001888 L 18.403986 3.001888 " stroke="#f6d4d2" stroke-width="6" stroke-opacity="1" stroke-miterlimit="4"/><path stroke-linecap="round" transform="matrix(0.75232, -0.000000000000000282, 0.000000000000000281, 0.75, 16.713408, 59.249994)" fill="none" stroke-linejoin="miter" d="M 2.99785 3.000008 L 72.771605 3.000008 " stroke="#f6d4d2" stroke-width="6" stroke-opacity="1" stroke-miterlimit="4"/><path stroke-linecap="round" transform="matrix(-0.745182, 0, 0, -0.75, 45.24025, 39.749996)" fill="none" stroke-linejoin="miter" d="M 3.001071 2.999995 L 55.384462 2.999995 " stroke="#f6d4d2" stroke-width="6" stroke-opacity="1" stroke-miterlimit="4"/><g clip-path="url(#4bedb282ee)"><g clip-path="url(#652f72d893)"><path stroke-linecap="butt" transform="matrix(-0.756402, 0, 0, -0.756402, 60.395562, 46.42265)" fill="none" stroke-linejoin="miter" d="M 11.899803 0.00102513 C 5.325708 0.00102513 0.00136292 5.32537 0.00136292 11.899465 C 0.00136292 18.468395 5.325708 23.797905 11.899803 23.797905 C 18.468733 23.797905 23.798242 18.468395 23.798242 11.899465 C 23.798242 5.32537 18.468733 0.00102513 11.899803 0.00102513 Z M 11.899803 0.00102513 " stroke="#f6d4d2" stroke-width="12" stroke-opacity="1" stroke-miterlimit="4"/></g></g><path stroke-linecap="round" transform="matrix(0.735766, -0.000000000000000488, 0.000000000000000498, 0.75, 57.486251, 35.249996)" fill="none" stroke-linejoin="miter" d="M 3.002395 3.000005 L 18.404066 3.000005 " stroke="#f6d4d2" stroke-width="6" stroke-opacity="1" stroke-miterlimit="4"/><g clip-path="url(#1978698196)"><g clip-path="url(#95f6788b1e)"><path stroke-linecap="butt" transform="matrix(-0.756402, 0, 0, -0.756402, 32.449745, 22.584229)" fill="none" stroke-linejoin="miter" d="M 11.899135 -0.00225841 C 5.325041 -0.00225841 0.00069553 5.327251 0.00069553 11.896181 C 0.00069553 18.470276 5.325041 23.794621 11.899135 23.794621 C 18.468065 23.794621 23.797575 18.470276 23.797575 11.896181 C 23.797575 5.327251 18.468065 -0.00225841 11.899135 -0.00225841 Z M 11.899135 -0.00225841 " stroke="#f6d4d2" stroke-width="12" stroke-opacity="1" stroke-miterlimit="4"/></g></g><g clip-path="url(#e512092a67)"><g clip-path="url(#f2a41147ea)"><path stroke-linecap="butt" transform="matrix(-0.756402, 0, 0, -0.756402, 19.306659, 70.422648)" fill="none" stroke-linejoin="miter" d="M 11.895882 0.00102254 C 5.326951 0.00102254 -0.00255809 5.325368 -0.00255809 11.899462 C -0.00255809 18.468392 5.326951 23.797902 11.895882 23.797902 C 18.469976 23.797902 23.794321 18.468392 23.794321 11.899462 C 23.794321 5.325368 18.469976 0.00102254 11.895882 0.00102254 Z M 11.895882 0.00102254 " stroke="#f6d4d2" stroke-width="12" stroke-opacity="1" stroke-miterlimit="4"/></g></g></svg>