<svg xmlns="http://www.w3.org/2000/svg" xmlns:xlink="http://www.w3.org/1999/xlink" width="500" zoomAndPan="magnify" viewBox="0 0 375 374.999991" height="500" preserveAspectRatio="xMidYMid meet" version="1.0"><defs><clipPath id="998b269431"><path d="M 22 22 L 353 22 L 353 353 L 22 353 Z M 22 22 " clip-rule="nonzero"/></clipPath><clipPath id="5e41c70af4"><path d="M 51.4375 10.628906 L 364.371094 323.566406 L 323.558594 364.378906 L 10.625 51.441406 Z M 51.4375 10.628906 " clip-rule="nonzero"/></clipPath><clipPath id="6c65a0b754"><path d="M 344.484375 303.679688 C 355.46875 314.660156 355.234375 332.703125 343.964844 343.972656 C 332.695312 355.242188 314.65625 355.472656 303.671875 344.488281 L 30.511719 71.328125 C 19.527344 60.34375 19.761719 42.304688 31.03125 31.035156 C 42.300781 19.765625 60.339844 19.535156 71.324219 30.515625 Z M 344.484375 303.679688 " clip-rule="nonzero"/></clipPath><clipPath id="e260a0e3cc"><path d="M 22 22 L 353 22 L 353 353 L 22 353 Z M 22 22 " clip-rule="nonzero"/></clipPath><clipPath id="a4acddfce9"><path d="M 10.625 323.558594 L 323.5625 10.621094 L 364.371094 51.433594 L 51.4375 364.371094 Z M 10.625 323.558594 " clip-rule="nonzero"/></clipPath><clipPath id="4850c9468c"><path d="M 303.671875 30.511719 C 314.65625 19.527344 332.695312 19.757812 343.964844 31.027344 C 355.238281 42.296875 355.46875 60.339844 344.484375 71.320312 L 71.324219 344.480469 C 60.339844 355.464844 42.300781 355.234375 31.03125 343.964844 C 19.761719 332.695312 19.53125 314.652344 30.511719 303.671875 Z M 303.671875 30.511719 " clip-rule="nonzero"/></clipPath></defs><g clip-path="url(#998b269431)"><g clip-path="url(#5e41c70af4)"><g clip-path="url(#6c65a0b754)"><path fill="#8e7c89" d="M 51.4375 10.628906 L 364.371094 323.566406 L 323.558594 364.378906 L 10.625 51.441406 Z M 51.4375 10.628906 " fill-opacity="1" fill-rule="nonzero"/></g></g></g><g clip-path="url(#e260a0e3cc)"><g clip-path="url(#a4acddfce9)"><g clip-path="url(#4850c9468c)"><path fill="#8e7c89" d="M 10.625 323.558594 L 323.5625 10.621094 L 364.371094 51.433594 L 51.4375 364.371094 Z M 10.625 323.558594 " fill-opacity="1" fill-rule="nonzero"/></g></g></g></svg>