<svg xmlns="http://www.w3.org/2000/svg" xmlns:xlink="http://www.w3.org/1999/xlink" width="500" zoomAndPan="magnify" viewBox="0 0 375 374.999991" height="500" preserveAspectRatio="xMidYMid meet" version="1.0"><defs><clipPath id="id1"><path d="M 0 47.996094 L 375 47.996094 L 375 92.246094 L 0 92.246094 Z M 0 47.996094 " clip-rule="nonzero"/></clipPath><clipPath id="id2"><path d="M 0 282.429688 L 375 282.429688 L 375 326.679688 L 0 326.679688 Z M 0 282.429688 " clip-rule="nonzero"/></clipPath><clipPath id="id3"><path d="M 0 165.320312 L 375 165.320312 L 375 209.570312 L 0 209.570312 Z M 0 165.320312 " clip-rule="nonzero"/></clipPath></defs><g clip-path="url(#id1)"><path fill="#000000" d="M 346.867188 47.996094 C 362.398438 47.996094 374.992188 57.902344 374.992188 70.121094 C 374.992188 82.339844 362.398438 92.246094 346.867188 92.246094 L 28.132812 92.246094 C 12.601562 92.246094 0.0078125 82.339844 0.0078125 70.121094 C 0.0078125 57.902344 12.601562 47.996094 28.132812 47.996094 L 346.867188 47.996094 " fill-opacity="1" fill-rule="nonzero"/></g><g clip-path="url(#id2)"><path fill="#000000" d="M 346.867188 282.429688 C 362.398438 282.429688 374.992188 292.335938 374.992188 304.554688 C 374.992188 316.773438 362.398438 326.679688 346.867188 326.679688 L 28.132812 326.679688 C 12.601562 326.679688 0.0078125 316.773438 0.0078125 304.554688 C 0.0078125 292.335938 12.601562 282.429688 28.132812 282.429688 L 346.867188 282.429688 " fill-opacity="1" fill-rule="nonzero"/></g><g clip-path="url(#id3)"><path fill="#000000" d="M 346.867188 165.320312 C 362.398438 165.320312 374.992188 175.226562 374.992188 187.445312 C 374.992188 199.664062 362.398438 209.570312 346.867188 209.570312 L 28.132812 209.570312 C 12.601562 209.570312 0.0078125 199.664062 0.0078125 187.445312 C 0.0078125 175.226562 12.601562 165.320312 28.132812 165.320312 L 346.867188 165.320312 " fill-opacity="1" fill-rule="nonzero"/></g></svg>