<svg xmlns="http://www.w3.org/2000/svg" xmlns:xlink="http://www.w3.org/1999/xlink" width="100" zoomAndPan="magnify" viewBox="0 0 75 74.999997" height="100" preserveAspectRatio="xMidYMid meet" version="1.0"><defs><g/><clipPath id="0bb7655a98"><path d="M 37.5 0 C 16.789062 0 0 16.789062 0 37.5 C 0 58.210938 16.789062 75 37.5 75 C 58.210938 75 75 58.210938 75 37.5 C 75 16.789062 58.210938 0 37.5 0 Z M 37.5 0 " clip-rule="nonzero"/></clipPath></defs><g clip-path="url(#0bb7655a98)"><path stroke-linecap="butt" transform="matrix(0.75, 0, 0, 0.75, 0.0000015, -0.000001)" fill="none" stroke-linejoin="miter" d="M 50.000002 0.00000133333 C 22.385416 0.00000133333 -0.000002 22.38542 -0.000002 50.000005 C -0.000002 77.614591 22.385416 100.00001 50.000002 100.00001 C 77.614588 100.00001 100.000006 77.614591 100.000006 50.000005 C 100.000006 22.38542 77.614588 0.00000133333 50.000002 0.00000133333 Z M 50.000002 0.00000133333 " stroke="#8e7c89" stroke-width="20" stroke-opacity="1" stroke-miterlimit="4"/></g><g fill="#8e7c89" fill-opacity="1"><g transform="translate(23.326172, 64.461112)"><g><path d="M 11.375 -13.9375 C 10.65625 -13.9375 10.078125 -14.144531 9.640625 -14.5625 C 9.203125 -14.976562 9.003906 -15.660156 9.046875 -16.609375 C 9.210938 -19.109375 9.8125 -21.332031 10.84375 -23.28125 C 11.875 -25.226562 13.597656 -27.410156 16.015625 -29.828125 C 18.273438 -32.054688 19.898438 -33.941406 20.890625 -35.484375 C 21.890625 -37.035156 22.390625 -38.644531 22.390625 -40.3125 C 22.390625 -43.050781 20.859375 -44.421875 17.796875 -44.421875 C 15.972656 -44.421875 14.582031 -44.015625 13.625 -43.203125 C 12.675781 -42.390625 12.203125 -41.367188 12.203125 -40.140625 L 12.265625 -37.6875 C 12.265625 -37.019531 12.015625 -36.4375 11.515625 -35.9375 C 11.023438 -35.4375 10.242188 -35.1875 9.171875 -35.1875 C 7.941406 -35.1875 7 -35.550781 6.34375 -36.28125 C 5.6875 -37.019531 5.359375 -38.066406 5.359375 -39.421875 C 5.359375 -41.398438 5.84375 -43.210938 6.8125 -44.859375 C 7.789062 -46.515625 9.269531 -47.835938 11.25 -48.828125 C 13.238281 -49.816406 15.679688 -50.3125 18.578125 -50.3125 C 22.503906 -50.3125 25.550781 -49.46875 27.71875 -47.78125 C 29.882812 -46.09375 30.96875 -43.660156 30.96875 -40.484375 C 30.96875 -37.984375 30.332031 -35.722656 29.0625 -33.703125 C 27.789062 -31.679688 25.882812 -29.578125 23.34375 -27.390625 C 21.195312 -25.566406 19.566406 -24.078125 18.453125 -22.921875 C 17.347656 -21.773438 16.546875 -20.773438 16.046875 -19.921875 C 15.546875 -19.066406 15.140625 -18.082031 14.828125 -16.96875 C 14.546875 -15.9375 14.097656 -15.171875 13.484375 -14.671875 C 12.867188 -14.179688 12.164062 -13.9375 11.375 -13.9375 Z M 9.109375 0.296875 C 7.359375 0.296875 6.035156 -0.175781 5.140625 -1.125 C 4.253906 -2.082031 3.8125 -3.335938 3.8125 -4.890625 C 3.8125 -6.671875 4.316406 -8.097656 5.328125 -9.171875 C 6.335938 -10.242188 7.757812 -10.78125 9.59375 -10.78125 C 11.332031 -10.78125 12.648438 -10.351562 13.546875 -9.5 C 14.441406 -8.644531 14.890625 -7.382812 14.890625 -5.71875 C 14.890625 -3.894531 14.375 -2.4375 13.34375 -1.34375 C 12.3125 -0.25 10.898438 0.296875 9.109375 0.296875 Z M 9.109375 0.296875 "/></g></g></g></svg>