<svg xmlns="http://www.w3.org/2000/svg" xmlns:xlink="http://www.w3.org/1999/xlink" width="400" zoomAndPan="magnify" viewBox="0 0 300 350.999992" height="468" preserveAspectRatio="xMidYMid meet" version="1.0"><defs><clipPath id="f021fa6c7a"><path d="M 1.820312 350 L 300 350 L 300 351 L 1.820312 351 Z M 1.820312 350 " clip-rule="nonzero"/></clipPath></defs><path fill="#9f616a" d="M 203.914062 116.894531 L 155.296875 91.644531 C 155.296875 91.644531 138.972656 73.683594 128.71875 65.574219 C 118.464844 57.460938 115.308594 63.421875 115.308594 63.421875 L 111 70.59375 L 121.414062 85.066406 L 149.550781 108.863281 L 199.824219 128.53125 C 200.085938 128.960938 200.382812 129.359375 200.71875 129.730469 C 201.054688 130.101562 201.425781 130.4375 201.824219 130.738281 C 202.222656 131.039062 202.648438 131.300781 203.097656 131.523438 C 203.546875 131.746094 204.011719 131.921875 204.496094 132.054688 C 204.976562 132.1875 205.46875 132.277344 205.96875 132.316406 C 206.46875 132.359375 206.964844 132.355469 207.464844 132.300781 C 207.960938 132.25 208.453125 132.148438 208.929688 132.003906 C 209.410156 131.859375 209.871094 131.671875 210.316406 131.441406 C 210.761719 131.210938 211.179688 130.9375 211.570312 130.628906 C 211.964844 130.316406 212.324219 129.972656 212.652344 129.59375 C 212.980469 129.214844 213.269531 128.808594 213.523438 128.378906 C 213.773438 127.945312 213.980469 127.492188 214.148438 127.019531 C 214.3125 126.546875 214.433594 126.0625 214.507812 125.570312 C 214.582031 125.074219 214.613281 124.578125 214.59375 124.078125 C 214.574219 123.578125 214.507812 123.082031 214.394531 122.597656 C 214.28125 122.109375 214.125 121.636719 213.921875 121.175781 C 213.722656 120.71875 213.480469 120.285156 213.195312 119.871094 C 212.910156 119.460938 212.59375 119.078125 212.234375 118.726562 C 211.878906 118.371094 211.496094 118.058594 211.078125 117.777344 C 210.664062 117.496094 210.226562 117.257812 209.765625 117.0625 C 209.304688 116.867188 208.828125 116.714844 208.339844 116.605469 C 207.851562 116.5 207.355469 116.4375 206.855469 116.421875 C 206.355469 116.410156 205.855469 116.441406 205.363281 116.519531 C 204.867188 116.601562 204.382812 116.726562 203.914062 116.894531 Z M 203.914062 116.894531 " fill-opacity="1" fill-rule="nonzero"/><path fill="#9f616a" d="M 77.457031 95.054688 L 74.578125 77.464844 L 66.453125 75.4375 C 66.453125 75.4375 60.003906 73.453125 58.496094 86.429688 C 56.988281 99.40625 58.15625 123.636719 58.15625 123.636719 L 41.65625 175.832031 C 41.199219 176.042969 40.765625 176.296875 40.359375 176.589844 C 39.949219 176.882812 39.574219 177.210938 39.226562 177.574219 C 38.882812 177.941406 38.574219 178.332031 38.300781 178.753906 C 38.03125 179.179688 37.800781 179.621094 37.613281 180.089844 C 37.425781 180.554688 37.28125 181.035156 37.183594 181.527344 C 37.089844 182.019531 37.039062 182.515625 37.035156 183.019531 C 37.03125 183.519531 37.074219 184.019531 37.167969 184.511719 C 37.257812 185.007812 37.394531 185.488281 37.574219 185.957031 C 37.757812 186.421875 37.980469 186.871094 38.25 187.296875 C 38.515625 187.722656 38.820312 188.121094 39.160156 188.488281 C 39.5 188.855469 39.875 189.191406 40.277344 189.488281 C 40.683594 189.785156 41.113281 190.042969 41.566406 190.261719 C 42.019531 190.480469 42.488281 190.652344 42.972656 190.78125 C 43.460938 190.910156 43.953125 190.992188 44.453125 191.027344 C 44.957031 191.0625 45.457031 191.054688 45.957031 190.996094 C 46.457031 190.9375 46.945312 190.832031 47.425781 190.679688 C 47.902344 190.53125 48.363281 190.335938 48.808594 190.097656 C 49.25 189.859375 49.667969 189.582031 50.058594 189.265625 C 50.449219 188.949219 50.804688 188.601562 51.128906 188.214844 C 51.453125 187.832031 51.738281 187.421875 51.984375 186.984375 C 52.234375 186.546875 52.4375 186.089844 52.597656 185.613281 C 52.757812 185.136719 52.871094 184.652344 52.941406 184.152344 C 53.007812 183.65625 53.03125 183.15625 53.003906 182.65625 C 52.976562 182.152344 52.90625 181.660156 52.785156 181.171875 L 74.410156 131.753906 Z M 77.457031 95.054688 " fill-opacity="1" fill-rule="nonzero"/><path fill="#9f616a" d="M 144.679688 341.890625 L 155.316406 341.890625 L 160.375 300.917969 L 144.679688 300.917969 Z M 144.679688 341.890625 " fill-opacity="1" fill-rule="nonzero"/><path fill="#2f2e41" d="M 141.96875 338.421875 L 162.914062 338.421875 C 163.789062 338.421875 164.65625 338.507812 165.515625 338.679688 C 166.375 338.847656 167.210938 339.101562 168.019531 339.4375 C 168.828125 339.773438 169.597656 340.183594 170.328125 340.667969 C 171.054688 341.15625 171.730469 341.707031 172.351562 342.328125 C 172.96875 342.945312 173.523438 343.617188 174.011719 344.347656 C 174.496094 345.074219 174.90625 345.84375 175.242188 346.652344 C 175.578125 347.460938 175.832031 348.292969 176.003906 349.152344 C 176.175781 350.011719 176.261719 350.878906 176.261719 351.753906 L 176.261719 352.1875 L 141.96875 352.1875 Z M 141.96875 338.421875 " fill-opacity="1" fill-rule="nonzero"/><path fill="#9f616a" d="M 28.683594 341.890625 L 39.320312 341.890625 L 44.378906 300.917969 L 28.683594 300.917969 Z M 28.683594 341.890625 " fill-opacity="1" fill-rule="nonzero"/><path fill="#2f2e41" d="M 25.972656 338.421875 L 46.917969 338.421875 C 47.792969 338.421875 48.660156 338.507812 49.519531 338.679688 C 50.378906 338.847656 51.214844 339.101562 52.023438 339.4375 C 52.835938 339.773438 53.601562 340.183594 54.332031 340.667969 C 55.0625 341.15625 55.734375 341.707031 56.355469 342.328125 C 56.972656 342.945312 57.527344 343.617188 58.015625 344.347656 C 58.5 345.074219 58.914062 345.84375 59.246094 346.652344 C 59.582031 347.460938 59.835938 348.292969 60.007812 349.152344 C 60.179688 350.011719 60.265625 350.878906 60.265625 351.753906 L 60.265625 352.1875 L 25.972656 352.1875 Z M 25.972656 338.421875 " fill-opacity="1" fill-rule="nonzero"/><path fill="#2f2e41" d="M 81.1875 59.921875 L 63.546875 74.960938 L 78.023438 120.71875 L 81.289062 130.9375 C 81.289062 130.9375 61.34375 149.308594 49.003906 200.617188 C 36.664062 251.929688 16.476562 320.113281 16.476562 320.113281 L 59.089844 332.296875 L 93.757812 216.222656 L 134.539062 307.285156 L 139.246094 334.222656 L 175.535156 323.53125 L 166.976562 255.984375 L 124.171875 139.054688 L 128.621094 108.058594 C 128.621094 108.058594 135.296875 92.589844 123.699219 76.207031 L 120.058594 60.816406 L 107.027344 57.613281 Z M 81.1875 59.921875 " fill-opacity="1" fill-rule="nonzero"/><path fill="#2f2e41" d="M 110.492188 51.742188 L 62.800781 51.742188 C 62.3125 51.742188 61.839844 51.648438 61.386719 51.460938 C 60.933594 51.273438 60.53125 51.007812 60.1875 50.660156 C 59.839844 50.3125 59.570312 49.914062 59.382812 49.460938 C 59.195312 49.007812 59.101562 48.539062 59.101562 48.046875 L 59.101562 27.515625 C 59.101562 26.613281 59.144531 25.714844 59.234375 24.816406 C 59.320312 23.921875 59.453125 23.03125 59.628906 22.144531 C 59.804688 21.261719 60.023438 20.390625 60.285156 19.527344 C 60.550781 18.664062 60.851562 17.816406 61.199219 16.984375 C 61.542969 16.152344 61.929688 15.339844 62.351562 14.542969 C 62.777344 13.75 63.242188 12.976562 63.742188 12.226562 C 64.246094 11.480469 64.78125 10.753906 65.351562 10.058594 C 65.925781 9.363281 66.53125 8.695312 67.167969 8.058594 C 67.808594 7.421875 68.472656 6.816406 69.171875 6.246094 C 69.867188 5.671875 70.59375 5.136719 71.34375 4.636719 C 72.09375 4.136719 72.867188 3.671875 73.660156 3.25 C 74.457031 2.824219 75.273438 2.4375 76.105469 2.09375 C 76.9375 1.75 77.785156 1.445312 78.648438 1.183594 C 79.515625 0.921875 80.386719 0.703125 81.273438 0.527344 C 82.15625 0.351562 83.046875 0.21875 83.945312 0.132812 C 84.84375 0.0429688 85.746094 0 86.644531 0 C 87.546875 0 88.449219 0.0429688 89.347656 0.132812 C 90.246094 0.21875 91.136719 0.351562 92.019531 0.527344 C 92.90625 0.703125 93.777344 0.921875 94.640625 1.183594 C 95.503906 1.445312 96.355469 1.75 97.1875 2.09375 C 98.019531 2.4375 98.835938 2.824219 99.632812 3.25 C 100.425781 3.671875 101.199219 4.136719 101.949219 4.636719 C 102.699219 5.136719 103.421875 5.671875 104.121094 6.246094 C 104.820312 6.816406 105.484375 7.421875 106.125 8.058594 C 106.761719 8.695312 107.367188 9.363281 107.941406 10.058594 C 108.511719 10.753906 109.046875 11.480469 109.550781 12.226562 C 110.050781 12.976562 110.515625 13.75 110.941406 14.542969 C 111.363281 15.339844 111.75 16.152344 112.09375 16.984375 C 112.441406 17.816406 112.742188 18.664062 113.007812 19.527344 C 113.269531 20.390625 113.488281 21.261719 113.664062 22.144531 C 113.839844 23.03125 113.972656 23.921875 114.058594 24.816406 C 114.148438 25.714844 114.191406 26.613281 114.191406 27.515625 L 114.191406 48.046875 C 114.191406 48.539062 114.097656 49.007812 113.910156 49.460938 C 113.722656 49.914062 113.453125 50.3125 113.105469 50.660156 C 112.761719 51.007812 112.359375 51.273438 111.90625 51.460938 C 111.453125 51.648438 110.980469 51.742188 110.492188 51.742188 Z M 110.492188 51.742188 " fill-opacity="1" fill-rule="nonzero"/><path fill="#9f616a" d="M 101.992188 13.390625 C 102.570312 13.710938 103.136719 14.054688 103.683594 14.425781 C 104.230469 14.796875 104.753906 15.195312 105.261719 15.621094 C 105.769531 16.042969 106.253906 16.492188 106.71875 16.964844 C 107.183594 17.433594 107.621094 17.929688 108.035156 18.441406 C 108.449219 18.957031 108.839844 19.492188 109.203125 20.042969 C 109.5625 20.597656 109.898438 21.164062 110.203125 21.75 C 110.511719 22.335938 110.789062 22.9375 111.035156 23.546875 C 111.28125 24.160156 111.5 24.785156 111.683594 25.417969 C 111.871094 26.050781 112.027344 26.695312 112.148438 27.34375 C 112.269531 27.992188 112.363281 28.644531 112.421875 29.304688 C 112.480469 29.960938 112.503906 30.621094 112.5 31.28125 C 112.492188 31.941406 112.453125 32.601562 112.382812 33.257812 C 112.3125 33.914062 112.210938 34.566406 112.074219 35.214844 C 111.9375 35.859375 111.773438 36.5 111.574219 37.128906 C 111.375 37.761719 111.148438 38.378906 110.890625 38.988281 C 110.628906 39.59375 110.34375 40.1875 110.027344 40.769531 C 109.707031 41.347656 109.363281 41.910156 108.992188 42.457031 C 108.617188 43.003906 108.21875 43.527344 107.796875 44.035156 C 107.371094 44.542969 106.921875 45.027344 106.449219 45.492188 C 105.976562 45.953125 105.484375 46.390625 104.96875 46.804688 C 104.453125 47.21875 103.921875 47.609375 103.367188 47.96875 C 102.8125 48.332031 102.242188 48.664062 101.65625 48.972656 C 101.070312 49.277344 100.472656 49.554688 99.859375 49.800781 C 99.246094 50.046875 98.621094 50.265625 97.984375 50.449219 C 97.351562 50.636719 96.707031 50.789062 96.058594 50.914062 C 95.410156 51.035156 94.753906 51.128906 94.09375 51.1875 C 93.4375 51.246094 92.777344 51.269531 92.117188 51.265625 C 91.453125 51.257812 90.792969 51.21875 90.136719 51.148438 C 89.480469 51.078125 88.828125 50.976562 88.179688 50.839844 C 87.53125 50.703125 86.894531 50.539062 86.261719 50.339844 C 85.628906 50.144531 85.011719 49.914062 84.402344 49.65625 C 83.792969 49.398438 83.199219 49.109375 82.617188 48.792969 C 82.039062 48.476562 81.472656 48.132812 80.929688 47.757812 C 80.382812 47.386719 79.855469 46.988281 79.347656 46.566406 C 78.839844 46.140625 78.355469 45.695312 77.890625 45.222656 C 77.429688 44.75 76.988281 44.257812 76.574219 43.742188 C 76.160156 43.226562 75.769531 42.695312 75.410156 42.140625 C 75.046875 41.589844 74.710938 41.019531 74.40625 40.433594 C 74.097656 39.847656 73.824219 39.25 73.574219 38.636719 C 73.328125 38.023438 73.109375 37.402344 72.925781 36.765625 C 72.738281 36.132812 72.585938 35.492188 72.460938 34.84375 C 72.339844 34.191406 72.246094 33.539062 72.1875 32.882812 C 72.128906 32.222656 72.105469 31.5625 72.109375 30.902344 C 72.117188 30.242188 72.15625 29.585938 72.226562 28.925781 C 72.296875 28.269531 72.402344 27.617188 72.535156 26.972656 C 72.671875 26.324219 72.835938 25.6875 73.035156 25.054688 C 73.234375 24.425781 73.460938 23.804688 73.71875 23.199219 C 73.980469 22.589844 74.265625 21.996094 74.585938 21.417969 C 74.902344 20.835938 75.246094 20.273438 75.621094 19.730469 C 75.992188 19.183594 76.390625 18.65625 76.816406 18.148438 C 77.238281 17.644531 77.6875 17.160156 78.160156 16.695312 C 78.632812 16.234375 79.125 15.792969 79.640625 15.378906 C 80.15625 14.964844 80.691406 14.578125 81.242188 14.214844 C 81.796875 13.855469 82.367188 13.519531 82.953125 13.214844 C 83.539062 12.90625 84.140625 12.632812 84.753906 12.382812 C 85.367188 12.136719 85.988281 11.921875 86.625 11.734375 C 87.257812 11.550781 87.902344 11.394531 88.550781 11.273438 C 89.203125 11.148438 89.855469 11.058594 90.515625 11 C 91.171875 10.941406 91.832031 10.914062 92.496094 10.921875 C 93.15625 10.925781 93.816406 10.964844 94.472656 11.039062 C 95.128906 11.109375 95.785156 11.210938 96.429688 11.347656 C 97.078125 11.480469 97.71875 11.648438 98.347656 11.84375 C 98.980469 12.042969 99.601562 12.269531 100.207031 12.53125 C 100.816406 12.789062 101.410156 13.074219 101.992188 13.390625 Z M 101.992188 13.390625 " fill-opacity="1" fill-rule="nonzero"/><path fill="#2f2e41" d="M 120.707031 29.566406 L 91.546875 29.566406 L 91.246094 25.386719 L 89.753906 29.566406 L 85.261719 29.566406 L 84.667969 21.277344 L 81.707031 29.566406 L 73.019531 29.566406 L 73.019531 29.15625 C 73.019531 28.445312 73.054688 27.734375 73.125 27.023438 C 73.195312 26.316406 73.300781 25.609375 73.441406 24.914062 C 73.582031 24.214844 73.753906 23.523438 73.960938 22.839844 C 74.167969 22.160156 74.410156 21.488281 74.683594 20.832031 C 74.957031 20.171875 75.261719 19.53125 75.597656 18.902344 C 75.933594 18.273438 76.300781 17.664062 76.699219 17.070312 C 77.09375 16.476562 77.519531 15.90625 77.972656 15.355469 C 78.425781 14.804688 78.902344 14.277344 79.40625 13.773438 C 79.910156 13.269531 80.4375 12.792969 80.992188 12.339844 C 81.542969 11.886719 82.113281 11.464844 82.707031 11.066406 C 83.300781 10.671875 83.910156 10.304688 84.539062 9.96875 C 85.167969 9.632812 85.8125 9.328125 86.472656 9.054688 C 87.132812 8.78125 87.800781 8.542969 88.484375 8.335938 C 89.167969 8.128906 89.859375 7.953125 90.558594 7.8125 C 91.257812 7.675781 91.960938 7.570312 92.671875 7.5 C 93.382812 7.429688 94.09375 7.390625 94.808594 7.390625 L 98.917969 7.390625 C 99.632812 7.390625 100.34375 7.429688 101.054688 7.5 C 101.765625 7.570312 102.46875 7.675781 103.167969 7.8125 C 103.867188 7.953125 104.558594 8.128906 105.242188 8.335938 C 105.925781 8.542969 106.59375 8.78125 107.253906 9.054688 C 107.914062 9.328125 108.554688 9.632812 109.1875 9.96875 C 109.816406 10.304688 110.425781 10.671875 111.019531 11.066406 C 111.613281 11.464844 112.183594 11.886719 112.734375 12.339844 C 113.285156 12.792969 113.816406 13.269531 114.320312 13.773438 C 114.824219 14.277344 115.300781 14.804688 115.753906 15.355469 C 116.207031 15.90625 116.632812 16.476562 117.027344 17.070312 C 117.425781 17.664062 117.792969 18.273438 118.128906 18.902344 C 118.464844 19.53125 118.769531 20.171875 119.042969 20.832031 C 119.316406 21.488281 119.558594 22.160156 119.765625 22.839844 C 119.972656 23.523438 120.144531 24.214844 120.285156 24.914062 C 120.425781 25.609375 120.53125 26.316406 120.601562 27.023438 C 120.671875 27.734375 120.707031 28.445312 120.707031 29.15625 Z M 120.707031 29.566406 " fill-opacity="1" fill-rule="nonzero"/><path fill="#2f2e41" d="M 91.308594 55.574219 C 91.089844 55.574219 90.871094 55.558594 90.652344 55.519531 L 69.300781 51.753906 L 69.300781 16.503906 L 92.804688 16.503906 L 92.222656 17.179688 C 84.128906 26.613281 90.226562 41.910156 94.585938 50.1875 C 94.910156 50.804688 95.050781 51.464844 94.996094 52.160156 C 94.945312 52.859375 94.710938 53.488281 94.292969 54.050781 C 93.949219 54.53125 93.511719 54.90625 92.984375 55.171875 C 92.457031 55.441406 91.898438 55.574219 91.308594 55.574219 Z M 91.308594 55.574219 " fill-opacity="1" fill-rule="nonzero"/><path fill="#ffffff" d="M 267.902344 240.382812 L 80.757812 306.472656 C 80.1875 306.675781 79.605469 306.847656 79.019531 306.992188 C 78.429688 307.136719 77.835938 307.25 77.234375 307.335938 C 76.636719 307.421875 76.035156 307.480469 75.429688 307.507812 C 74.824219 307.53125 74.21875 307.53125 73.613281 307.5 C 73.007812 307.464844 72.40625 307.402344 71.808594 307.3125 C 71.207031 307.222656 70.613281 307.101562 70.027344 306.953125 C 69.441406 306.800781 68.863281 306.625 68.292969 306.417969 C 67.722656 306.210938 67.164062 305.980469 66.617188 305.71875 C 66.070312 305.457031 65.539062 305.171875 65.019531 304.855469 C 64.503906 304.542969 64 304.207031 63.515625 303.84375 C 63.03125 303.480469 62.5625 303.097656 62.117188 302.6875 C 61.667969 302.28125 61.242188 301.851562 60.835938 301.402344 C 60.429688 300.953125 60.046875 300.484375 59.6875 299.996094 C 59.328125 299.511719 58.996094 299.007812 58.683594 298.488281 C 58.375 297.96875 58.089844 297.433594 57.832031 296.886719 C 57.578125 296.335938 57.347656 295.777344 57.144531 295.207031 L 24.996094 204.382812 C 24.792969 203.8125 24.621094 203.234375 24.476562 202.644531 C 24.332031 202.058594 24.21875 201.464844 24.128906 200.867188 C 24.042969 200.265625 23.988281 199.664062 23.960938 199.058594 C 23.933594 198.457031 23.9375 197.851562 23.96875 197.246094 C 24 196.640625 24.0625 196.042969 24.15625 195.441406 C 24.246094 194.84375 24.367188 194.253906 24.515625 193.667969 C 24.664062 193.078125 24.84375 192.5 25.050781 191.933594 C 25.257812 191.363281 25.488281 190.804688 25.75 190.261719 C 26.011719 189.714844 26.300781 189.183594 26.613281 188.664062 C 26.925781 188.148438 27.265625 187.644531 27.625 187.160156 C 27.988281 186.675781 28.375 186.210938 28.78125 185.761719 C 29.191406 185.316406 29.621094 184.890625 30.070312 184.484375 C 30.519531 184.078125 30.988281 183.699219 31.476562 183.339844 C 31.964844 182.980469 32.46875 182.644531 32.992188 182.335938 C 33.511719 182.027344 34.046875 181.742188 34.59375 181.484375 C 35.140625 181.226562 35.703125 181 36.273438 180.796875 L 223.414062 114.703125 C 223.988281 114.503906 224.566406 114.332031 225.15625 114.1875 C 225.742188 114.042969 226.339844 113.925781 226.9375 113.839844 C 227.539062 113.753906 228.140625 113.699219 228.746094 113.671875 C 229.351562 113.644531 229.957031 113.648438 230.558594 113.679688 C 231.164062 113.710938 231.765625 113.773438 232.367188 113.867188 C 232.964844 113.957031 233.558594 114.078125 234.144531 114.226562 C 234.730469 114.375 235.308594 114.554688 235.878906 114.761719 C 236.449219 114.964844 237.007812 115.199219 237.554688 115.460938 C 238.101562 115.722656 238.632812 116.007812 239.152344 116.320312 C 239.671875 116.632812 240.171875 116.972656 240.65625 117.332031 C 241.144531 117.695312 241.609375 118.082031 242.058594 118.488281 C 242.503906 118.898438 242.929688 119.324219 243.335938 119.773438 C 243.742188 120.226562 244.125 120.691406 244.484375 121.179688 C 244.84375 121.667969 245.179688 122.171875 245.488281 122.691406 C 245.796875 123.210938 246.082031 123.746094 246.339844 124.292969 C 246.597656 124.839844 246.828125 125.398438 247.03125 125.96875 L 279.179688 216.796875 C 279.378906 217.367188 279.550781 217.945312 279.695312 218.53125 C 279.839844 219.121094 279.957031 219.714844 280.042969 220.3125 C 280.128906 220.910156 280.183594 221.511719 280.210938 222.117188 C 280.238281 222.722656 280.238281 223.328125 280.203125 223.929688 C 280.171875 224.535156 280.109375 225.136719 280.019531 225.734375 C 279.925781 226.332031 279.804688 226.925781 279.65625 227.511719 C 279.507812 228.097656 279.328125 228.675781 279.125 229.246094 C 278.917969 229.8125 278.683594 230.371094 278.421875 230.917969 C 278.160156 231.464844 277.875 231.996094 277.558594 232.515625 C 277.246094 233.03125 276.910156 233.53125 276.546875 234.019531 C 276.183594 234.503906 275.796875 234.96875 275.390625 235.414062 C 274.980469 235.863281 274.550781 236.289062 274.101562 236.695312 C 273.652344 237.097656 273.183594 237.480469 272.695312 237.839844 C 272.207031 238.199219 271.703125 238.53125 271.183594 238.84375 C 270.664062 239.152344 270.128906 239.433594 269.578125 239.691406 C 269.03125 239.949219 268.472656 240.179688 267.902344 240.382812 Z M 267.902344 240.382812 " fill-opacity="1" fill-rule="nonzero"/><path fill="#f2f2f2" d="M 279.179688 216.796875 L 279.347656 217.277344 C 279.539062 217.820312 279.707031 218.375 279.84375 218.933594 C 279.984375 219.496094 280.09375 220.0625 280.175781 220.636719 C 280.257812 221.207031 280.3125 221.78125 280.339844 222.359375 C 280.367188 222.9375 280.363281 223.515625 280.332031 224.09375 C 280.300781 224.667969 280.242188 225.242188 280.15625 225.816406 C 280.070312 226.386719 279.953125 226.953125 279.8125 227.511719 C 279.667969 228.074219 279.5 228.625 279.300781 229.167969 C 279.105469 229.710938 278.878906 230.246094 278.632812 230.765625 C 278.382812 231.289062 278.105469 231.796875 277.808594 232.289062 C 277.507812 232.785156 277.183594 233.265625 276.839844 233.726562 C 276.492188 234.191406 276.125 234.636719 275.734375 235.0625 C 275.34375 235.488281 274.933594 235.894531 274.503906 236.28125 C 274.070312 236.667969 273.625 237.03125 273.15625 237.375 C 272.691406 237.71875 272.210938 238.035156 271.710938 238.332031 C 271.214844 238.628906 270.703125 238.898438 270.179688 239.144531 C 269.65625 239.386719 269.121094 239.605469 268.574219 239.800781 L 80.496094 306.222656 C 79.949219 306.414062 79.394531 306.578125 78.835938 306.71875 C 78.273438 306.855469 77.707031 306.964844 77.132812 307.046875 C 76.558594 307.132812 75.984375 307.1875 75.40625 307.210938 C 74.828125 307.238281 74.25 307.234375 73.671875 307.207031 C 73.09375 307.175781 72.519531 307.117188 71.949219 307.027344 C 71.375 306.941406 70.808594 306.828125 70.25 306.683594 C 69.6875 306.542969 69.136719 306.371094 68.589844 306.175781 C 68.046875 305.980469 67.515625 305.753906 66.992188 305.507812 C 66.46875 305.257812 65.960938 304.984375 65.464844 304.683594 C 64.972656 304.386719 64.492188 304.0625 64.027344 303.71875 C 63.566406 303.371094 63.121094 303.003906 62.691406 302.613281 C 62.265625 302.222656 61.859375 301.8125 61.46875 301.382812 C 61.082031 300.953125 60.71875 300.507812 60.375 300.042969 C 60.03125 299.574219 59.714844 299.09375 59.417969 298.597656 C 59.121094 298.101562 58.851562 297.589844 58.605469 297.066406 C 58.359375 296.542969 58.140625 296.011719 57.949219 295.464844 L 57.777344 294.984375 Z M 279.179688 216.796875 " fill-opacity="1" fill-rule="nonzero"/><path fill="#a82130" d="M 69.078125 201.882812 C 56.671875 210.039062 40.777344 203.902344 35.214844 194.964844 L 36.101562 194.460938 C 46.664062 187.886719 62.34375 191.550781 69.078125 201.882812 Z M 69.078125 201.882812 " fill-opacity="1" fill-rule="nonzero"/><path fill="#3f3d56" d="M 224.527344 225.015625 C 221.492188 226.089844 218.757812 226.039062 216.402344 224.871094 C 211.078125 222.226562 208.578125 214.390625 206.570312 208.089844 C 205.984375 206.261719 205.433594 204.527344 204.871094 203.113281 L 204.863281 203.09375 C 204.621094 202.398438 204.449219 201.6875 204.347656 200.957031 C 204.242188 200.230469 204.210938 199.5 204.253906 198.765625 C 204.292969 198.03125 204.40625 197.304688 204.585938 196.59375 C 204.769531 195.878906 205.019531 195.191406 205.335938 194.527344 C 205.652344 193.863281 206.03125 193.238281 206.472656 192.648438 C 206.914062 192.058594 207.40625 191.515625 207.953125 191.023438 C 208.5 190.527344 209.085938 190.09375 209.71875 189.714844 C 210.351562 189.335938 211.011719 189.023438 211.707031 188.773438 L 236.878906 179.882812 C 239.910156 178.8125 242.640625 178.863281 244.996094 180.027344 C 250.320312 182.667969 252.820312 190.503906 254.832031 196.796875 C 255.417969 198.632812 255.96875 200.367188 256.535156 201.785156 C 256.777344 202.480469 256.949219 203.191406 257.054688 203.921875 C 257.160156 204.652344 257.191406 205.382812 257.152344 206.121094 C 257.109375 206.855469 257 207.578125 256.816406 208.292969 C 256.636719 209.007812 256.386719 209.695312 256.070312 210.363281 C 255.753906 211.027344 255.375 211.65625 254.933594 212.246094 C 254.492188 212.835938 254 213.378906 253.453125 213.875 C 252.90625 214.371094 252.316406 214.804688 251.683594 215.183594 C 251.050781 215.5625 250.386719 215.878906 249.695312 216.128906 Z M 205.917969 202.710938 C 206.492188 204.160156 207.046875 205.90625 207.636719 207.75 C 209.582031 213.847656 212 221.433594 216.902344 223.867188 C 219.003906 224.910156 221.375 224.941406 224.15625 223.960938 L 249.320312 215.074219 C 249.941406 214.847656 250.539062 214.566406 251.109375 214.226562 C 251.675781 213.882812 252.207031 213.492188 252.699219 213.046875 C 253.191406 212.601562 253.636719 212.117188 254.03125 211.585938 C 254.429688 211.054688 254.769531 210.488281 255.054688 209.890625 C 255.339844 209.292969 255.566406 208.671875 255.730469 208.03125 C 255.894531 207.390625 255.996094 206.738281 256.03125 206.074219 C 256.070312 205.414062 256.042969 204.753906 255.949219 204.101562 C 255.855469 203.445312 255.703125 202.804688 255.484375 202.175781 C 254.914062 200.746094 254.355469 198.992188 253.761719 197.140625 C 251.816406 191.046875 249.394531 183.460938 244.496094 181.03125 C 242.394531 179.992188 240.023438 179.960938 237.25 180.941406 L 212.082031 189.828125 C 211.457031 190.054688 210.859375 190.335938 210.292969 190.675781 C 209.726562 191.015625 209.195312 191.410156 208.703125 191.851562 C 208.210938 192.296875 207.769531 192.785156 207.371094 193.316406 C 206.976562 193.84375 206.636719 194.410156 206.351562 195.007812 C 206.0625 195.605469 205.839844 196.222656 205.675781 196.863281 C 205.511719 197.503906 205.410156 198.15625 205.371094 198.816406 C 205.335938 199.476562 205.363281 200.136719 205.453125 200.792969 C 205.546875 201.445312 205.699219 202.085938 205.917969 202.710938 Z M 205.917969 202.710938 " fill-opacity="1" fill-rule="nonzero"/><path fill="#3f3d56" d="M 63.859375 204.820312 C 61.648438 205.585938 59.375 206.03125 57.039062 206.160156 C 54.699219 206.289062 52.390625 206.09375 50.109375 205.574219 C 43.441406 204.113281 37.390625 200.136719 34.320312 195.199219 L 34.011719 194.703125 L 35.394531 193.917969 C 46.113281 187.25 62.1875 190.867188 69.128906 201.511719 L 69.429688 201.980469 L 68.964844 202.285156 C 67.367188 203.339844 65.664062 204.183594 63.859375 204.820312 Z M 35.589844 195.097656 C 38.597656 199.558594 44.191406 203.128906 50.347656 204.480469 C 51.832031 204.828125 53.332031 205.027344 54.855469 205.078125 C 56.375 205.132812 57.886719 205.035156 59.390625 204.792969 C 60.890625 204.550781 62.355469 204.167969 63.785156 203.640625 C 65.210938 203.109375 66.574219 202.449219 67.871094 201.65625 C 61.085938 191.851562 46.050781 188.597656 35.980469 194.875 Z M 35.589844 195.097656 " fill-opacity="1" fill-rule="nonzero"/><path fill="#3f3d56" d="M 70.4375 270.007812 C 69.648438 270.320312 68.835938 270.519531 67.996094 270.609375 C 67.15625 270.699219 66.320312 270.671875 65.484375 270.535156 C 64.652344 270.398438 63.851562 270.148438 63.085938 269.792969 C 62.320312 269.4375 61.613281 268.988281 60.972656 268.4375 C 60.21875 267.78125 59.5625 267.039062 59 266.214844 C 58.4375 265.386719 57.992188 264.503906 57.660156 263.5625 C 57.324219 262.621094 57.117188 261.652344 57.03125 260.65625 C 56.949219 259.664062 56.992188 258.671875 57.164062 257.691406 C 57.324219 256.84375 57.59375 256.035156 57.976562 255.261719 C 58.359375 254.492188 58.84375 253.785156 59.421875 253.148438 C 60 252.511719 60.65625 251.960938 61.386719 251.503906 C 62.117188 251.046875 62.894531 250.699219 63.722656 250.457031 L 97.261719 238.613281 C 98.058594 238.28125 98.882812 238.066406 99.738281 237.964844 C 100.59375 237.863281 101.449219 237.878906 102.300781 238.011719 C 103.152344 238.148438 103.96875 238.394531 104.75 238.753906 C 105.535156 239.113281 106.253906 239.570312 106.910156 240.128906 C 107.660156 240.785156 108.316406 241.527344 108.878906 242.355469 C 109.441406 243.179688 109.886719 244.0625 110.21875 245.003906 C 110.554688 245.945312 110.761719 246.914062 110.84375 247.910156 C 110.929688 248.902344 110.882812 249.894531 110.710938 250.878906 C 110.050781 254.335938 107.714844 256.882812 104.152344 258.101562 L 70.613281 269.945312 C 70.554688 269.964844 70.496094 269.988281 70.4375 270.007812 Z M 63.929688 251.570312 C 63.214844 251.789062 62.542969 252.101562 61.914062 252.507812 C 61.28125 252.910156 60.71875 253.390625 60.21875 253.949219 C 59.71875 254.507812 59.304688 255.121094 58.972656 255.792969 C 58.640625 256.460938 58.40625 257.164062 58.265625 257.898438 C 58.109375 258.785156 58.070312 259.675781 58.148438 260.574219 C 58.222656 261.46875 58.410156 262.34375 58.710938 263.191406 C 59.011719 264.039062 59.414062 264.835938 59.921875 265.578125 C 60.425781 266.324219 61.019531 266.992188 61.695312 267.582031 C 62.277344 268.074219 62.914062 268.480469 63.609375 268.792969 C 64.300781 269.109375 65.023438 269.324219 65.777344 269.441406 C 66.53125 269.558594 67.285156 269.566406 68.042969 269.476562 C 68.796875 269.382812 69.527344 269.1875 70.230469 268.890625 L 103.785156 257.042969 C 104.519531 256.832031 105.207031 256.523438 105.855469 256.121094 C 106.503906 255.71875 107.085938 255.238281 107.597656 254.675781 C 108.113281 254.113281 108.539062 253.492188 108.882812 252.808594 C 109.222656 252.128906 109.46875 251.414062 109.609375 250.667969 C 109.765625 249.78125 109.804688 248.890625 109.730469 247.992188 C 109.65625 247.097656 109.46875 246.222656 109.167969 245.375 C 108.867188 244.527344 108.464844 243.730469 107.957031 242.988281 C 107.453125 242.242188 106.863281 241.574219 106.183594 240.984375 C 105.601562 240.492188 104.964844 240.085938 104.269531 239.773438 C 103.578125 239.457031 102.851562 239.242188 102.097656 239.125 C 101.347656 239.007812 100.589844 238.996094 99.835938 239.085938 C 99.078125 239.179688 98.347656 239.371094 97.644531 239.664062 L 64.085938 251.515625 C 64.035156 251.535156 63.984375 251.550781 63.929688 251.570312 Z M 63.929688 251.570312 " fill-opacity="1" fill-rule="nonzero"/><path fill="#a82130" d="M 224.753906 198.292969 L 214.179688 202.027344 C 213.828125 202.152344 213.46875 202.203125 213.097656 202.183594 C 212.726562 202.164062 212.371094 202.074219 212.035156 201.914062 C 211.703125 201.753906 211.410156 201.535156 211.160156 201.257812 C 210.910156 200.984375 210.726562 200.671875 210.601562 200.320312 C 210.476562 199.96875 210.425781 199.609375 210.445312 199.238281 C 210.464844 198.867188 210.554688 198.515625 210.714844 198.179688 C 210.875 197.84375 211.09375 197.554688 211.371094 197.304688 C 211.644531 197.054688 211.960938 196.871094 212.308594 196.746094 L 222.882812 193.011719 C 223.234375 192.886719 223.59375 192.835938 223.964844 192.855469 C 224.335938 192.875 224.691406 192.964844 225.027344 193.125 C 225.363281 193.285156 225.652344 193.503906 225.902344 193.78125 C 226.152344 194.054688 226.335938 194.367188 226.460938 194.71875 C 226.585938 195.070312 226.636719 195.429688 226.617188 195.800781 C 226.597656 196.171875 226.507812 196.523438 226.347656 196.859375 C 226.1875 197.195312 225.96875 197.484375 225.691406 197.734375 C 225.417969 197.984375 225.101562 198.167969 224.753906 198.292969 Z M 224.753906 198.292969 " fill-opacity="1" fill-rule="nonzero"/><path fill="#a82130" d="M 227.742188 206.742188 L 217.171875 210.476562 C 216.820312 210.597656 216.457031 210.652344 216.085938 210.632812 C 215.714844 210.613281 215.363281 210.523438 215.027344 210.363281 C 214.691406 210.203125 214.398438 209.984375 214.152344 209.707031 C 213.902344 209.433594 213.714844 209.117188 213.59375 208.769531 C 213.46875 208.417969 213.417969 208.058594 213.4375 207.6875 C 213.457031 207.316406 213.546875 206.964844 213.707031 206.628906 C 213.867188 206.292969 214.085938 206 214.359375 205.753906 C 214.636719 205.503906 214.949219 205.320312 215.300781 205.195312 L 225.875 201.460938 C 226.222656 201.339844 226.585938 201.289062 226.953125 201.308594 C 227.324219 201.328125 227.675781 201.421875 228.011719 201.582031 C 228.347656 201.742188 228.636719 201.957031 228.882812 202.234375 C 229.132812 202.511719 229.316406 202.824219 229.441406 203.171875 C 229.566406 203.519531 229.617188 203.878906 229.597656 204.25 C 229.578125 204.621094 229.488281 204.972656 229.332031 205.308594 C 229.171875 205.640625 228.953125 205.933594 228.679688 206.183594 C 228.40625 206.429688 228.09375 206.617188 227.742188 206.742188 Z M 227.742188 206.742188 " fill-opacity="1" fill-rule="nonzero"/><path fill="#a82130" d="M 230.734375 215.191406 L 220.160156 218.925781 C 219.808594 219.046875 219.449219 219.097656 219.078125 219.078125 C 218.710938 219.058594 218.355469 218.964844 218.023438 218.804688 C 217.6875 218.644531 217.398438 218.429688 217.148438 218.152344 C 216.902344 217.875 216.714844 217.5625 216.589844 217.214844 C 216.46875 216.867188 216.414062 216.503906 216.433594 216.136719 C 216.453125 215.765625 216.542969 215.414062 216.703125 215.078125 C 216.863281 214.742188 217.078125 214.453125 217.355469 214.203125 C 217.628906 213.957031 217.941406 213.769531 218.292969 213.644531 L 228.863281 209.910156 C 229.214844 209.785156 229.574219 209.734375 229.949219 209.753906 C 230.320312 209.773438 230.671875 209.863281 231.007812 210.023438 C 231.34375 210.183594 231.636719 210.402344 231.882812 210.675781 C 232.132812 210.953125 232.320312 211.265625 232.441406 211.617188 C 232.566406 211.96875 232.617188 212.328125 232.597656 212.699219 C 232.578125 213.070312 232.488281 213.421875 232.328125 213.757812 C 232.167969 214.09375 231.949219 214.382812 231.675781 214.632812 C 231.398438 214.878906 231.085938 215.066406 230.734375 215.191406 Z M 230.734375 215.191406 " fill-opacity="1" fill-rule="nonzero"/><path fill="#a82130" d="M 243.253906 191.757812 L 232.683594 195.492188 C 232.332031 195.617188 231.972656 195.667969 231.601562 195.648438 C 231.226562 195.628906 230.875 195.539062 230.539062 195.378906 C 230.203125 195.21875 229.910156 195 229.664062 194.726562 C 229.414062 194.449219 229.226562 194.136719 229.105469 193.785156 C 228.980469 193.433594 228.929688 193.074219 228.949219 192.703125 C 228.96875 192.332031 229.058594 191.980469 229.21875 191.644531 C 229.378906 191.308594 229.597656 191.019531 229.871094 190.769531 C 230.148438 190.523438 230.460938 190.335938 230.8125 190.210938 L 241.386719 186.476562 C 241.738281 186.351562 242.097656 186.300781 242.472656 186.316406 C 242.84375 186.335938 243.195312 186.425781 243.535156 186.585938 C 243.871094 186.746094 244.164062 186.964844 244.414062 187.242188 C 244.660156 187.515625 244.847656 187.832031 244.972656 188.179688 C 245.097656 188.53125 245.148438 188.894531 245.128906 189.265625 C 245.109375 189.636719 245.019531 189.992188 244.859375 190.324219 C 244.695312 190.660156 244.476562 190.953125 244.199219 191.203125 C 243.921875 191.449219 243.605469 191.636719 243.253906 191.757812 Z M 243.253906 191.757812 " fill-opacity="1" fill-rule="nonzero"/><path fill="#a82130" d="M 246.246094 200.207031 L 235.671875 203.941406 C 235.320312 204.066406 234.960938 204.121094 234.589844 204.101562 C 234.214844 204.082031 233.863281 203.992188 233.527344 203.832031 C 233.1875 203.671875 232.894531 203.457031 232.648438 203.179688 C 232.398438 202.902344 232.210938 202.589844 232.085938 202.238281 C 231.960938 201.886719 231.910156 201.527344 231.929688 201.152344 C 231.949219 200.78125 232.039062 200.429688 232.203125 200.09375 C 232.363281 199.757812 232.582031 199.464844 232.859375 199.21875 C 233.136719 198.96875 233.453125 198.785156 233.804688 198.660156 L 244.378906 194.925781 C 244.726562 194.804688 245.089844 194.75 245.460938 194.769531 C 245.832031 194.789062 246.183594 194.878906 246.519531 195.039062 C 246.855469 195.199219 247.148438 195.417969 247.394531 195.695312 C 247.644531 195.96875 247.832031 196.285156 247.953125 196.632812 C 248.078125 196.984375 248.128906 197.34375 248.109375 197.714844 C 248.089844 198.085938 248 198.4375 247.839844 198.773438 C 247.679688 199.109375 247.464844 199.402344 247.1875 199.648438 C 246.910156 199.898438 246.597656 200.082031 246.246094 200.207031 Z M 246.246094 200.207031 " fill-opacity="1" fill-rule="nonzero"/><path fill="#a82130" d="M 249.238281 208.65625 L 238.664062 212.390625 C 238.3125 212.515625 237.953125 212.566406 237.582031 212.546875 C 237.210938 212.527344 236.855469 212.4375 236.519531 212.277344 C 236.183594 212.117188 235.894531 211.898438 235.644531 211.621094 C 235.394531 211.347656 235.210938 211.035156 235.085938 210.683594 C 234.960938 210.332031 234.910156 209.972656 234.929688 209.601562 C 234.949219 209.230469 235.039062 208.878906 235.199219 208.542969 C 235.359375 208.207031 235.578125 207.917969 235.855469 207.667969 C 236.128906 207.417969 236.445312 207.234375 236.792969 207.109375 L 247.367188 203.375 C 247.71875 203.25 248.078125 203.199219 248.449219 203.21875 C 248.820312 203.238281 249.175781 203.328125 249.511719 203.488281 C 249.847656 203.648438 250.136719 203.867188 250.386719 204.144531 C 250.636719 204.417969 250.820312 204.730469 250.945312 205.082031 C 251.070312 205.433594 251.121094 205.792969 251.101562 206.164062 C 251.082031 206.535156 250.992188 206.886719 250.832031 207.222656 C 250.671875 207.558594 250.453125 207.847656 250.175781 208.097656 C 249.902344 208.347656 249.585938 208.53125 249.238281 208.65625 Z M 249.238281 208.65625 " fill-opacity="1" fill-rule="nonzero"/><path fill="#3f3d56" d="M 32.625 223.929688 L 254.023438 145.738281 L 254.398438 146.792969 L 33 224.984375 Z M 32.625 223.929688 " fill-opacity="1" fill-rule="nonzero"/><path fill="#3f3d56" d="M 267.902344 240.382812 L 80.757812 306.472656 C 80.1875 306.675781 79.605469 306.847656 79.019531 306.992188 C 78.429688 307.136719 77.835938 307.25 77.234375 307.335938 C 76.636719 307.421875 76.035156 307.480469 75.429688 307.507812 C 74.824219 307.53125 74.21875 307.53125 73.613281 307.5 C 73.007812 307.464844 72.40625 307.402344 71.808594 307.3125 C 71.207031 307.222656 70.613281 307.101562 70.027344 306.953125 C 69.441406 306.800781 68.863281 306.625 68.292969 306.417969 C 67.722656 306.210938 67.164062 305.980469 66.617188 305.71875 C 66.070312 305.457031 65.539062 305.171875 65.019531 304.855469 C 64.503906 304.542969 64 304.207031 63.515625 303.84375 C 63.03125 303.480469 62.5625 303.097656 62.117188 302.6875 C 61.667969 302.28125 61.242188 301.851562 60.835938 301.402344 C 60.429688 300.953125 60.046875 300.484375 59.6875 299.996094 C 59.328125 299.511719 58.996094 299.007812 58.683594 298.488281 C 58.375 297.96875 58.089844 297.433594 57.832031 296.886719 C 57.578125 296.335938 57.347656 295.777344 57.144531 295.207031 L 24.996094 204.382812 C 24.792969 203.8125 24.621094 203.234375 24.476562 202.644531 C 24.332031 202.058594 24.21875 201.464844 24.128906 200.867188 C 24.042969 200.265625 23.988281 199.664062 23.960938 199.058594 C 23.933594 198.457031 23.9375 197.851562 23.96875 197.246094 C 24 196.640625 24.0625 196.042969 24.15625 195.441406 C 24.246094 194.84375 24.367188 194.253906 24.515625 193.667969 C 24.664062 193.078125 24.84375 192.5 25.050781 191.933594 C 25.257812 191.363281 25.488281 190.804688 25.75 190.261719 C 26.011719 189.714844 26.300781 189.183594 26.613281 188.664062 C 26.925781 188.148438 27.265625 187.644531 27.625 187.160156 C 27.988281 186.675781 28.375 186.210938 28.78125 185.761719 C 29.191406 185.316406 29.621094 184.890625 30.070312 184.484375 C 30.519531 184.078125 30.988281 183.699219 31.476562 183.339844 C 31.964844 182.980469 32.46875 182.644531 32.992188 182.335938 C 33.511719 182.027344 34.046875 181.742188 34.59375 181.484375 C 35.140625 181.226562 35.703125 181 36.273438 180.796875 L 223.414062 114.703125 C 223.988281 114.503906 224.566406 114.332031 225.15625 114.1875 C 225.742188 114.042969 226.339844 113.925781 226.9375 113.839844 C 227.539062 113.753906 228.140625 113.699219 228.746094 113.671875 C 229.351562 113.644531 229.957031 113.648438 230.558594 113.679688 C 231.164062 113.710938 231.765625 113.773438 232.367188 113.867188 C 232.964844 113.957031 233.558594 114.078125 234.144531 114.226562 C 234.730469 114.375 235.308594 114.554688 235.878906 114.761719 C 236.449219 114.964844 237.007812 115.199219 237.554688 115.460938 C 238.101562 115.722656 238.632812 116.007812 239.152344 116.320312 C 239.671875 116.632812 240.171875 116.972656 240.65625 117.332031 C 241.144531 117.695312 241.609375 118.082031 242.058594 118.488281 C 242.503906 118.898438 242.929688 119.324219 243.335938 119.773438 C 243.742188 120.226562 244.125 120.691406 244.484375 121.179688 C 244.84375 121.667969 245.179688 122.171875 245.488281 122.691406 C 245.796875 123.210938 246.082031 123.746094 246.339844 124.292969 C 246.597656 124.839844 246.828125 125.398438 247.03125 125.96875 L 279.179688 216.796875 C 279.378906 217.367188 279.550781 217.945312 279.695312 218.53125 C 279.839844 219.121094 279.957031 219.714844 280.042969 220.3125 C 280.128906 220.910156 280.183594 221.511719 280.210938 222.117188 C 280.238281 222.722656 280.238281 223.328125 280.203125 223.929688 C 280.171875 224.535156 280.109375 225.136719 280.019531 225.734375 C 279.925781 226.332031 279.804688 226.925781 279.65625 227.511719 C 279.507812 228.097656 279.328125 228.675781 279.125 229.246094 C 278.917969 229.8125 278.683594 230.371094 278.421875 230.917969 C 278.160156 231.464844 277.875 231.996094 277.558594 232.515625 C 277.246094 233.03125 276.910156 233.53125 276.546875 234.019531 C 276.183594 234.503906 275.796875 234.96875 275.390625 235.414062 C 274.980469 235.863281 274.550781 236.289062 274.101562 236.695312 C 273.652344 237.097656 273.183594 237.480469 272.695312 237.839844 C 272.207031 238.199219 271.703125 238.53125 271.183594 238.84375 C 270.664062 239.152344 270.128906 239.433594 269.578125 239.691406 C 269.03125 239.949219 268.472656 240.179688 267.902344 240.382812 Z M 36.648438 181.851562 C 36.109375 182.042969 35.585938 182.257812 35.070312 182.5 C 34.554688 182.742188 34.050781 183.007812 33.5625 183.296875 C 33.074219 183.589844 32.601562 183.902344 32.140625 184.242188 C 31.683594 184.578125 31.242188 184.9375 30.820312 185.316406 C 30.398438 185.699219 29.996094 186.097656 29.609375 186.519531 C 29.226562 186.9375 28.867188 187.375 28.523438 187.832031 C 28.183594 188.285156 27.867188 188.757812 27.570312 189.242188 C 27.277344 189.730469 27.007812 190.230469 26.761719 190.742188 C 26.515625 191.257812 26.296875 191.78125 26.105469 192.3125 C 25.910156 192.847656 25.742188 193.390625 25.601562 193.941406 C 25.460938 194.492188 25.347656 195.050781 25.261719 195.613281 C 25.175781 196.171875 25.117188 196.738281 25.089844 197.304688 C 25.058594 197.875 25.054688 198.441406 25.082031 199.007812 C 25.105469 199.578125 25.160156 200.140625 25.242188 200.703125 C 25.320312 201.269531 25.429688 201.824219 25.566406 202.378906 C 25.699219 202.929688 25.863281 203.472656 26.050781 204.007812 L 58.199219 294.835938 C 58.390625 295.371094 58.609375 295.894531 58.847656 296.410156 C 59.089844 296.925781 59.359375 297.425781 59.648438 297.914062 C 59.941406 298.402344 60.253906 298.875 60.59375 299.335938 C 60.929688 299.792969 61.289062 300.230469 61.667969 300.652344 C 62.050781 301.078125 62.453125 301.480469 62.871094 301.863281 C 63.292969 302.246094 63.730469 302.609375 64.1875 302.949219 C 64.640625 303.289062 65.113281 303.605469 65.601562 303.898438 C 66.085938 304.191406 66.589844 304.460938 67.101562 304.707031 C 67.613281 304.953125 68.140625 305.171875 68.675781 305.367188 C 69.210938 305.558594 69.753906 305.726562 70.304688 305.867188 C 70.855469 306.007812 71.414062 306.121094 71.976562 306.207031 C 72.539062 306.292969 73.105469 306.347656 73.671875 306.378906 C 74.242188 306.410156 74.808594 306.414062 75.378906 306.386719 C 75.945312 306.363281 76.511719 306.308594 77.074219 306.226562 C 77.636719 306.148438 78.195312 306.039062 78.75 305.902344 C 79.300781 305.769531 79.847656 305.605469 80.382812 305.417969 L 267.527344 239.324219 C 268.0625 239.136719 268.589844 238.917969 269.105469 238.679688 C 269.617188 238.4375 270.121094 238.171875 270.609375 237.878906 C 271.097656 237.589844 271.574219 237.273438 272.03125 236.9375 C 272.488281 236.601562 272.929688 236.242188 273.351562 235.859375 C 273.773438 235.480469 274.179688 235.082031 274.5625 234.660156 C 274.945312 234.242188 275.308594 233.804688 275.648438 233.347656 C 275.988281 232.890625 276.308594 232.421875 276.601562 231.933594 C 276.894531 231.449219 277.164062 230.949219 277.410156 230.433594 C 277.65625 229.921875 277.875 229.398438 278.070312 228.863281 C 278.261719 228.328125 278.429688 227.785156 278.570312 227.234375 C 278.710938 226.683594 278.824219 226.128906 278.910156 225.566406 C 278.996094 225.003906 279.054688 224.441406 279.085938 223.871094 C 279.113281 223.304688 279.117188 222.738281 279.09375 222.167969 C 279.066406 221.601562 279.011719 221.035156 278.933594 220.472656 C 278.851562 219.910156 278.742188 219.351562 278.609375 218.800781 C 278.472656 218.25 278.308594 217.703125 278.121094 217.167969 L 245.972656 126.34375 C 245.78125 125.808594 245.566406 125.28125 245.324219 124.765625 C 245.082031 124.253906 244.816406 123.75 244.523438 123.261719 C 244.234375 122.773438 243.917969 122.300781 243.582031 121.84375 C 243.242188 121.386719 242.882812 120.945312 242.503906 120.523438 C 242.121094 120.101562 241.722656 119.699219 241.300781 119.316406 C 240.882812 118.933594 240.441406 118.570312 239.988281 118.230469 C 239.53125 117.890625 239.058594 117.574219 238.574219 117.277344 C 238.085938 116.984375 237.585938 116.714844 237.070312 116.46875 C 236.558594 116.226562 236.035156 116.007812 235.5 115.8125 C 234.964844 115.617188 234.421875 115.453125 233.867188 115.3125 C 233.316406 115.171875 232.761719 115.058594 232.199219 114.972656 C 231.636719 114.886719 231.070312 114.828125 230.5 114.796875 C 229.933594 114.769531 229.363281 114.765625 228.796875 114.789062 C 228.226562 114.816406 227.660156 114.871094 227.097656 114.949219 C 226.535156 115.03125 225.976562 115.140625 225.425781 115.273438 C 224.871094 115.410156 224.328125 115.570312 223.789062 115.761719 Z M 36.648438 181.851562 " fill-opacity="1" fill-rule="nonzero"/><g clip-path="url(#f021fa6c7a)"><path fill="#cbcbcb" d="M 515.265625 352.5 L -40.476562 352.5 C -40.683594 352.5 -40.859375 352.425781 -41.007812 352.277344 C -41.15625 352.132812 -41.230469 351.953125 -41.230469 351.746094 C -41.230469 351.539062 -41.15625 351.359375 -41.007812 351.214844 C -40.859375 351.066406 -40.683594 350.992188 -40.476562 350.992188 L 515.265625 350.992188 C 515.476562 350.992188 515.652344 351.066406 515.800781 351.214844 C 515.945312 351.359375 516.019531 351.539062 516.019531 351.746094 C 516.019531 351.953125 515.945312 352.132812 515.800781 352.277344 C 515.652344 352.425781 515.476562 352.5 515.265625 352.5 Z M 515.265625 352.5 " fill-opacity="1" fill-rule="nonzero"/></g></svg>