<svg xmlns="http://www.w3.org/2000/svg" xmlns:xlink="http://www.w3.org/1999/xlink" width="100" zoomAndPan="magnify" viewBox="0 0 75 74.999997" height="100" preserveAspectRatio="xMidYMid meet" version="1.0"><defs><clipPath id="7330fd471b"><path d="M 1.488281 1.488281 L 73.488281 1.488281 L 73.488281 73.488281 L 1.488281 73.488281 Z M 1.488281 1.488281 " clip-rule="nonzero"/></clipPath><clipPath id="52e5bece36"><path d="M 37.488281 1.488281 C 17.605469 1.488281 1.488281 17.605469 1.488281 37.488281 C 1.488281 57.371094 17.605469 73.488281 37.488281 73.488281 C 57.371094 73.488281 73.488281 57.371094 73.488281 37.488281 C 73.488281 17.605469 57.371094 1.488281 37.488281 1.488281 " clip-rule="nonzero"/></clipPath></defs><g clip-path="url(#7330fd471b)"><g clip-path="url(#52e5bece36)"><path stroke-linecap="butt" transform="matrix(0.74684, 0, 0, 0.74684, 1.489446, 1.489444)" fill="none" stroke-linejoin="miter" d="M 48.201565 -0.00155643 C 21.578963 -0.00155643 -0.00155978 21.578966 -0.00155978 48.201569 C -0.00155978 74.824171 21.578963 96.404693 48.201565 96.404693 C 74.824168 96.404693 96.40469 74.824171 96.40469 48.201569 C 96.40469 21.578966 74.824168 -0.00155643 48.201565 -0.00155643 " stroke="#f6d4d2" stroke-width="8" stroke-opacity="1" stroke-miterlimit="4"/></g></g><path stroke-linecap="round" transform="matrix(0.38, 0.658179, -0.649519, 0.375, 41.027261, 13.228854)" fill="none" stroke-linejoin="miter" d="M 2.001933 2.001042 L 35.511288 1.999776 " stroke="#f6d4d2" stroke-width="4" stroke-opacity="1" stroke-miterlimit="4"/><path stroke-linecap="round" transform="matrix(0.38, -0.658179, 0.649519, 0.375, 38.429185, 60.415859)" fill="none" stroke-linejoin="miter" d="M 2.002139 1.998838 L 35.511494 2.000103 " stroke="#f6d4d2" stroke-width="4" stroke-opacity="1" stroke-miterlimit="4"/><path stroke-linecap="round" transform="matrix(0.38, 0.658179, -0.649519, 0.375, 22.790319, 13.373575)" fill="none" stroke-linejoin="miter" d="M 2.000836 2.002461 L 35.510191 2.001195 " stroke="#f6d4d2" stroke-width="4" stroke-opacity="1" stroke-miterlimit="4"/><path stroke-linecap="round" transform="matrix(0.38, -0.658179, 0.649519, 0.375, 20.192245, 60.560581)" fill="none" stroke-linejoin="miter" d="M 1.997024 1.999766 L 35.51083 1.998428 " stroke="#f6d4d2" stroke-width="4" stroke-opacity="1" stroke-miterlimit="4"/></svg>