<svg xmlns="http://www.w3.org/2000/svg" xmlns:xlink="http://www.w3.org/1999/xlink" width="100" zoomAndPan="magnify" viewBox="0 0 75 74.999997" height="100" preserveAspectRatio="xMidYMid meet" version="1.0"><defs><clipPath id="8b5b4d81fb"><path d="M 1.488281 1.488281 L 73.488281 1.488281 L 73.488281 73.488281 L 1.488281 73.488281 Z M 1.488281 1.488281 " clip-rule="nonzero"/></clipPath><clipPath id="82e0b063e6"><path d="M 37.488281 1.488281 C 17.605469 1.488281 1.488281 17.605469 1.488281 37.488281 C 1.488281 57.371094 17.605469 73.488281 37.488281 73.488281 C 57.371094 73.488281 73.488281 57.371094 73.488281 37.488281 C 73.488281 17.605469 57.371094 1.488281 37.488281 1.488281 Z M 37.488281 1.488281 " clip-rule="nonzero"/></clipPath></defs><g clip-path="url(#8b5b4d81fb)"><g clip-path="url(#82e0b063e6)"><path stroke-linecap="butt" transform="matrix(0.74684, 0, 0, 0.74684, 1.489446, 1.489444)" fill="none" stroke-linejoin="miter" d="M 48.201565 -0.00155643 C 21.578963 -0.00155643 -0.00155978 21.578966 -0.00155978 48.201569 C -0.00155978 74.824171 21.578963 96.404693 48.201565 96.404693 C 74.824168 96.404693 96.40469 74.824171 96.40469 48.201569 C 96.40469 21.578966 74.824168 -0.00155643 48.201565 -0.00155643 Z M 48.201565 -0.00155643 " stroke="#f6d4d2" stroke-width="16" stroke-opacity="1" stroke-miterlimit="4"/></g></g><path stroke-linecap="round" transform="matrix(0.376518, 0.652149, -0.649519, 0.375, 44.809366, 18.281165)" fill="none" stroke-linejoin="miter" d="M 4.001916 3.998975 L 26.888858 3.999226 " stroke="#f6d4d2" stroke-width="8" stroke-opacity="1" stroke-miterlimit="4"/><path stroke-linecap="round" transform="matrix(0.376518, -0.652149, 0.649519, 0.375, 39.613215, 54.008275)" fill="none" stroke-linejoin="miter" d="M 4.00235 4.000773 L 26.889291 4.000522 " stroke="#f6d4d2" stroke-width="8" stroke-opacity="1" stroke-miterlimit="4"/><path stroke-linecap="round" transform="matrix(0.376518, 0.652149, -0.649519, 0.375, 26.572428, 18.281165)" fill="none" stroke-linejoin="miter" d="M 4.001025 4.000526 L 26.887966 4.000777 " stroke="#f6d4d2" stroke-width="8" stroke-opacity="1" stroke-miterlimit="4"/><path stroke-linecap="round" transform="matrix(0.376518, -0.652149, 0.649519, 0.375, 21.376276, 54.008275)" fill="none" stroke-linejoin="miter" d="M 4.001458 3.999222 L 26.8884 3.998972 " stroke="#f6d4d2" stroke-width="8" stroke-opacity="1" stroke-miterlimit="4"/></svg>