<svg xmlns="http://www.w3.org/2000/svg" xmlns:xlink="http://www.w3.org/1999/xlink" width="100" zoomAndPan="magnify" viewBox="0 0 75 74.999997" height="100" preserveAspectRatio="xMidYMid meet" version="1.0"><defs><clipPath id="e303a06342"><path d="M 1.488281 1.488281 L 73.488281 1.488281 L 73.488281 73.488281 L 1.488281 73.488281 Z M 1.488281 1.488281 " clip-rule="nonzero"/></clipPath><clipPath id="5114b222d5"><path d="M 37.488281 1.488281 C 17.605469 1.488281 1.488281 17.605469 1.488281 37.488281 C 1.488281 57.371094 17.605469 73.488281 37.488281 73.488281 C 57.371094 73.488281 73.488281 57.371094 73.488281 37.488281 C 73.488281 17.605469 57.371094 1.488281 37.488281 1.488281 Z M 37.488281 1.488281 " clip-rule="nonzero"/></clipPath></defs><g clip-path="url(#e303a06342)"><g clip-path="url(#5114b222d5)"><path stroke-linecap="butt" transform="matrix(0.74684, 0, 0, 0.74684, 1.489446, 1.489444)" fill="none" stroke-linejoin="miter" d="M 48.201565 -0.00155643 C 21.578963 -0.00155643 -0.00155978 21.578966 -0.00155978 48.201569 C -0.00155978 74.824171 21.578963 96.404693 48.201565 96.404693 C 74.824168 96.404693 96.40469 74.824171 96.40469 48.201569 C 96.40469 21.578966 74.824168 -0.00155643 48.201565 -0.00155643 Z M 48.201565 -0.00155643 " stroke="#f6d4d2" stroke-width="12" stroke-opacity="1" stroke-miterlimit="4"/></g></g><path stroke-linecap="round" transform="matrix(0.376518, 0.652149, -0.649519, 0.375, 44.159847, 17.906165)" fill="none" stroke-linejoin="miter" d="M 3.000106 3.001602 L 27.888075 3.001108 " stroke="#f6d4d2" stroke-width="6" stroke-opacity="1" stroke-miterlimit="4"/><path stroke-linecap="round" transform="matrix(0.376518, -0.652149, 0.649519, 0.375, 40.262734, 55.133274)" fill="none" stroke-linejoin="miter" d="M 3.000539 2.998145 L 27.888508 2.998639 " stroke="#f6d4d2" stroke-width="6" stroke-opacity="1" stroke-miterlimit="4"/><path stroke-linecap="round" transform="matrix(0.376518, 0.652149, -0.649519, 0.375, 25.922911, 17.906165)" fill="none" stroke-linejoin="miter" d="M 3.001807 2.998645 L 27.887181 3.002662 " stroke="#f6d4d2" stroke-width="6" stroke-opacity="1" stroke-miterlimit="4"/><path stroke-linecap="round" transform="matrix(0.376518, -0.652149, 0.649519, 0.375, 22.025795, 55.133274)" fill="none" stroke-linejoin="miter" d="M 3.002242 3.001106 L 27.887616 2.997089 " stroke="#f6d4d2" stroke-width="6" stroke-opacity="1" stroke-miterlimit="4"/></svg>