<svg xmlns="http://www.w3.org/2000/svg" xmlns:xlink="http://www.w3.org/1999/xlink" width="100" zoomAndPan="magnify" viewBox="0 0 75 74.999997" height="100" preserveAspectRatio="xMidYMid meet" version="1.0"><defs><clipPath id="3c78e0626f"><path d="M 1.488281 1.488281 L 73.488281 1.488281 L 73.488281 73.488281 L 1.488281 73.488281 Z M 1.488281 1.488281 " clip-rule="nonzero"/></clipPath><clipPath id="679233874a"><path d="M 37.488281 1.488281 C 17.605469 1.488281 1.488281 17.605469 1.488281 37.488281 C 1.488281 57.371094 17.605469 73.488281 37.488281 73.488281 C 57.371094 73.488281 73.488281 57.371094 73.488281 37.488281 C 73.488281 17.605469 57.371094 1.488281 37.488281 1.488281 " clip-rule="nonzero"/></clipPath></defs><g clip-path="url(#3c78e0626f)"><g clip-path="url(#679233874a)"><path stroke-linecap="butt" transform="matrix(0.74684, 0, 0, 0.74684, 1.489446, 1.489444)" fill="none" stroke-linejoin="miter" d="M 48.201565 -0.00155643 C 21.578963 -0.00155643 -0.00155978 21.578966 -0.00155978 48.201569 C -0.00155978 74.824171 21.578963 96.404693 48.201565 96.404693 C 74.824168 96.404693 96.40469 74.824171 96.40469 48.201569 C 96.40469 21.578966 74.824168 -0.00155643 48.201565 -0.00155643 " stroke="#f6d4d2" stroke-width="8" stroke-opacity="1" stroke-miterlimit="4"/></g></g><path stroke-linecap="round" transform="matrix(0.376518, 0.652149, -0.649519, 0.375, 43.51033, 17.531165)" fill="none" stroke-linejoin="miter" d="M 2.000889 1.999722 L 28.88729 2.002994 " stroke="#f6d4d2" stroke-width="4" stroke-opacity="1" stroke-miterlimit="4"/><path stroke-linecap="round" transform="matrix(0.376518, -0.652149, 0.649519, 0.375, 40.912253, 56.258274)" fill="none" stroke-linejoin="miter" d="M 2.001323 2.000028 L 28.887724 1.996755 " stroke="#f6d4d2" stroke-width="4" stroke-opacity="1" stroke-miterlimit="4"/><path stroke-linecap="round" transform="matrix(0.376518, 0.652149, -0.649519, 0.375, 25.27339, 17.531165)" fill="none" stroke-linejoin="miter" d="M 1.999998 2.00127 L 28.888993 2.000032 " stroke="#f6d4d2" stroke-width="4" stroke-opacity="1" stroke-miterlimit="4"/><path stroke-linecap="round" transform="matrix(0.376518, -0.652149, 0.649519, 0.375, 22.675314, 56.258274)" fill="none" stroke-linejoin="miter" d="M 2.000432 1.998478 L 28.889426 1.999716 " stroke="#f6d4d2" stroke-width="4" stroke-opacity="1" stroke-miterlimit="4"/></svg>