<svg xmlns="http://www.w3.org/2000/svg" xmlns:xlink="http://www.w3.org/1999/xlink" width="100" zoomAndPan="magnify" viewBox="0 0 75 30.000001" height="40" preserveAspectRatio="xMidYMid meet" version="1.0"><defs><clipPath id="5a948dcc30"><path d="M 28.046875 5.074219 L 46.929688 5.074219 L 46.929688 23.957031 L 28.046875 23.957031 Z M 28.046875 5.074219 " clip-rule="nonzero"/></clipPath><clipPath id="eddcafce5f"><path d="M 46.929688 14.515625 C 46.929688 9.300781 42.703125 5.074219 37.488281 5.074219 C 32.273438 5.074219 28.046875 9.300781 28.046875 14.515625 C 28.046875 19.730469 32.273438 23.957031 37.488281 23.957031 C 42.703125 23.957031 46.929688 19.730469 46.929688 14.515625 " clip-rule="nonzero"/></clipPath><clipPath id="49a6e479b7"><path d="M 54.898438 5.074219 L 73.777344 5.074219 L 73.777344 23.957031 L 54.898438 23.957031 Z M 54.898438 5.074219 " clip-rule="nonzero"/></clipPath><clipPath id="21caa0fddc"><path d="M 73.777344 14.515625 C 73.777344 9.300781 69.550781 5.074219 64.339844 5.074219 C 59.125 5.074219 54.898438 9.300781 54.898438 14.515625 C 54.898438 19.730469 59.125 23.957031 64.339844 23.957031 C 69.550781 23.957031 73.777344 19.730469 73.777344 14.515625 " clip-rule="nonzero"/></clipPath><clipPath id="db501d973b"><path d="M 1.210938 5.074219 L 20.082031 5.074219 L 20.082031 23.957031 L 1.210938 23.957031 Z M 1.210938 5.074219 " clip-rule="nonzero"/></clipPath><clipPath id="a38142ad10"><path d="M 20.082031 14.515625 C 20.082031 9.300781 15.855469 5.074219 10.640625 5.074219 C 5.425781 5.074219 1.199219 9.300781 1.199219 14.515625 C 1.199219 19.730469 5.425781 23.957031 10.640625 23.957031 C 15.855469 23.957031 20.082031 19.730469 20.082031 14.515625 " clip-rule="nonzero"/></clipPath></defs><g clip-path="url(#5a948dcc30)"><g clip-path="url(#eddcafce5f)"><path fill="#f6d4d2" d="M 46.929688 5.074219 L 46.929688 23.957031 L 28.046875 23.957031 L 28.046875 5.074219 Z M 46.929688 5.074219 " fill-opacity="1" fill-rule="nonzero"/></g></g><g clip-path="url(#49a6e479b7)"><g clip-path="url(#21caa0fddc)"><path fill="#f6d4d2" d="M 73.777344 5.074219 L 73.777344 23.957031 L 54.898438 23.957031 L 54.898438 5.074219 Z M 73.777344 5.074219 " fill-opacity="1" fill-rule="nonzero"/></g></g><g clip-path="url(#db501d973b)"><g clip-path="url(#a38142ad10)"><path fill="#f6d4d2" d="M 20.082031 5.074219 L 20.082031 23.957031 L 1.199219 23.957031 L 1.199219 5.074219 Z M 20.082031 5.074219 " fill-opacity="1" fill-rule="nonzero"/></g></g></svg>