<svg xmlns="http://www.w3.org/2000/svg" xmlns:xlink="http://www.w3.org/1999/xlink" width="100" zoomAndPan="magnify" viewBox="0 0 75 74.999997" height="100" preserveAspectRatio="xMidYMid meet" version="1.0"><defs><clipPath id="1a524ae022"><path d="M 28.601562 28.613281 L 46.378906 28.613281 L 46.378906 46.386719 L 28.601562 46.386719 Z M 28.601562 28.613281 " clip-rule="nonzero"/></clipPath><clipPath id="cbf5e7cd93"><path d="M 46.378906 37.5 C 46.378906 32.589844 42.398438 28.613281 37.492188 28.613281 C 32.582031 28.613281 28.601562 32.589844 28.601562 37.5 C 28.601562 42.410156 32.582031 46.386719 37.492188 46.386719 C 42.398438 46.386719 46.378906 42.410156 46.378906 37.5 " clip-rule="nonzero"/></clipPath><clipPath id="f0a26f99d2"><path d="M 53.878906 28.613281 L 71.652344 28.613281 L 71.652344 46.386719 L 53.878906 46.386719 Z M 53.878906 28.613281 " clip-rule="nonzero"/></clipPath><clipPath id="9646cca3f3"><path d="M 71.652344 37.5 C 71.652344 32.589844 67.675781 28.613281 62.765625 28.613281 C 57.855469 28.613281 53.878906 32.589844 53.878906 37.5 C 53.878906 42.410156 57.855469 46.386719 62.765625 46.386719 C 67.675781 46.386719 71.652344 42.410156 71.652344 37.5 " clip-rule="nonzero"/></clipPath><clipPath id="0b65be114f"><path d="M 3.328125 28.613281 L 21.101562 28.613281 L 21.101562 46.386719 L 3.328125 46.386719 Z M 3.328125 28.613281 " clip-rule="nonzero"/></clipPath><clipPath id="60f5abffcc"><path d="M 21.101562 37.5 C 21.101562 32.589844 17.125 28.613281 12.214844 28.613281 C 7.308594 28.613281 3.328125 32.589844 3.328125 37.5 C 3.328125 42.410156 7.308594 46.386719 12.214844 46.386719 C 17.125 46.386719 21.101562 42.410156 21.101562 37.5 " clip-rule="nonzero"/></clipPath></defs><g clip-path="url(#1a524ae022)"><g clip-path="url(#cbf5e7cd93)"><path fill="#f6d4d2" d="M 46.378906 28.613281 L 46.378906 46.386719 L 28.601562 46.386719 L 28.601562 28.613281 Z M 46.378906 28.613281 " fill-opacity="1" fill-rule="nonzero"/></g></g><g clip-path="url(#f0a26f99d2)"><g clip-path="url(#9646cca3f3)"><path fill="#f6d4d2" d="M 71.652344 28.613281 L 71.652344 46.386719 L 53.878906 46.386719 L 53.878906 28.613281 Z M 71.652344 28.613281 " fill-opacity="1" fill-rule="nonzero"/></g></g><g clip-path="url(#0b65be114f)"><g clip-path="url(#60f5abffcc)"><path fill="#f6d4d2" d="M 21.101562 28.613281 L 21.101562 46.386719 L 3.328125 46.386719 L 3.328125 28.613281 Z M 21.101562 28.613281 " fill-opacity="1" fill-rule="nonzero"/></g></g></svg>