<svg xmlns="http://www.w3.org/2000/svg" xmlns:xlink="http://www.w3.org/1999/xlink" width="450" zoomAndPan="magnify" viewBox="0 0 337.5 74.999997" height="100" preserveAspectRatio="xMidYMid meet" version="1.0"><defs><clipPath id="6d39f96030"><path d="M 74.605469 37.554688 L 130.574219 37.554688 L 130.574219 70.425781 L 74.605469 70.425781 Z M 74.605469 37.554688 " clip-rule="nonzero"/></clipPath><clipPath id="decbd147e3"><path d="M 102.589844 37.554688 L 74.605469 70.425781 L 130.574219 70.425781 Z M 102.589844 37.554688 " clip-rule="nonzero"/></clipPath><clipPath id="91ac668c75"><path d="M 99.089844 4.683594 L 288.949219 4.683594 L 288.949219 70.429688 L 99.089844 70.429688 Z M 99.089844 4.683594 " clip-rule="nonzero"/></clipPath><clipPath id="c29ff0017a"><path d="M 287.050781 26.609375 C 288.195312 29.96875 288.949219 33.8125 288.949219 37.574219 C 288.949219 41.335938 288.304688 44.953125 287.15625 48.289062 C 287.121094 48.359375 287.121094 48.429688 287.085938 48.503906 C 282.5 61.027344 270.394531 70.25 253.824219 70.429688 L 99.089844 70.429688 L 99.089844 4.683594 L 253.710938 4.683594 C 270.464844 4.859375 282.574219 13.945312 287.050781 26.609375 Z M 287.050781 26.609375 " clip-rule="nonzero"/></clipPath><clipPath id="8acb571c4f"><path d="M 75.367188 4.683594 L 131.332031 4.683594 L 131.332031 37.554688 L 75.367188 37.554688 Z M 75.367188 4.683594 " clip-rule="nonzero"/></clipPath><clipPath id="5d03b9d07b"><path d="M 103.347656 37.554688 L 131.332031 4.683594 L 75.367188 4.683594 Z M 103.347656 37.554688 " clip-rule="nonzero"/></clipPath><clipPath id="ca22098f3c"><path d="M 230.972656 4.679688 L 334.492188 4.679688 L 334.492188 70.425781 L 230.972656 70.425781 Z M 230.972656 4.679688 " clip-rule="nonzero"/></clipPath><clipPath id="20eaf163b0"><path d="M 332.59375 26.605469 C 333.742188 29.96875 334.492188 33.808594 334.492188 37.570312 C 334.492188 41.332031 333.847656 44.949219 332.703125 48.285156 C 332.667969 48.355469 332.667969 48.425781 332.632812 48.5 C 328.046875 61.023438 315.9375 70.25 301.289062 70.425781 L 230.972656 70.425781 L 230.972656 4.679688 L 301.234375 4.679688 C 316.011719 4.859375 328.117188 13.941406 332.59375 26.605469 Z M 332.59375 26.605469 " clip-rule="nonzero"/></clipPath><clipPath id="11df8448a6"><path d="M 75.363281 50.742188 L 216.871094 50.742188 L 216.871094 70.429688 L 75.363281 70.429688 Z M 75.363281 50.742188 " clip-rule="nonzero"/></clipPath><clipPath id="d9496d2182"><path d="M 146.117188 50.742188 L 75.363281 70.429688 L 216.871094 70.429688 Z M 146.117188 50.742188 " clip-rule="nonzero"/></clipPath><clipPath id="ccacfdbb5f"><path d="M 83 12 L 112 12 L 112 62 L 83 62 Z M 83 12 " clip-rule="nonzero"/></clipPath><clipPath id="818b3bbaaa"><path d="M 102.722656 5.527344 L 120.683594 54.875 L 101.300781 61.929688 L 83.339844 12.582031 Z M 102.722656 5.527344 " clip-rule="nonzero"/></clipPath><clipPath id="931dd416f7"><path d="M 111.703125 30.199219 L 101.300781 61.929688 L 83.339844 12.582031 Z M 111.703125 30.199219 " clip-rule="nonzero"/></clipPath><clipPath id="287d01a239"><path d="M 89.480469 27.550781 L 99.867188 27.550781 L 99.867188 53.992188 L 89.480469 53.992188 Z M 89.480469 27.550781 " clip-rule="nonzero"/></clipPath><clipPath id="8d88f7ae10"><path d="M 99.867188 40.769531 L 89.480469 53.992188 L 89.480469 27.550781 Z M 99.867188 40.769531 " clip-rule="nonzero"/></clipPath><clipPath id="ade7c78943"><path d="M 81 22 L 108 22 L 108 66 L 81 66 Z M 81 22 " clip-rule="nonzero"/></clipPath><clipPath id="aa5ff19395"><path d="M 116.238281 29.296875 L 98.800781 72.214844 L 81.941406 65.363281 L 99.378906 22.445312 Z M 116.238281 29.296875 " clip-rule="nonzero"/></clipPath><clipPath id="905fa71e67"><path d="M 107.519531 50.753906 L 81.941406 65.363281 L 99.378906 22.445312 Z M 107.519531 50.753906 " clip-rule="nonzero"/></clipPath><clipPath id="882b76eb78"><path d="M 76 5.382812 L 91 5.382812 L 91 69.882812 L 76 69.882812 Z M 76 5.382812 " clip-rule="nonzero"/></clipPath><clipPath id="9d08d497f7"><path d="M 87 33 L 100 33 L 100 53 L 87 53 Z M 87 33 " clip-rule="nonzero"/></clipPath><clipPath id="776ec69ede"><path d="M 101.632812 35.847656 L 97.539062 54.886719 L 87.703125 52.773438 L 91.796875 33.730469 Z M 101.632812 35.847656 " clip-rule="nonzero"/></clipPath><clipPath id="d26a8ed98d"><path d="M 99.585938 45.367188 L 87.703125 52.773438 L 91.796875 33.730469 Z M 99.585938 45.367188 " clip-rule="nonzero"/></clipPath></defs><g clip-path="url(#6d39f96030)"><g clip-path="url(#decbd147e3)"><path fill="#2c2440" d="M 130.574219 70.425781 L 74.605469 70.425781 L 74.605469 37.554688 L 130.574219 37.554688 Z M 130.574219 70.425781 " fill-opacity="1" fill-rule="nonzero"/></g></g><g clip-path="url(#91ac668c75)"><g clip-path="url(#c29ff0017a)"><path fill="#2c2440" d="M 288.949219 4.683594 L 288.949219 70.429688 L 99.089844 70.429688 L 99.089844 4.683594 Z M 288.949219 4.683594 " fill-opacity="1" fill-rule="nonzero"/></g></g><g clip-path="url(#8acb571c4f)"><g clip-path="url(#5d03b9d07b)"><path fill="#2c2440" d="M 75.367188 4.683594 L 131.332031 4.683594 L 131.332031 37.554688 L 75.367188 37.554688 Z M 75.367188 4.683594 " fill-opacity="1" fill-rule="nonzero"/></g></g><g clip-path="url(#ca22098f3c)"><g clip-path="url(#20eaf163b0)"><path fill="#2c2440" d="M 334.492188 4.679688 L 334.492188 70.425781 L 230.972656 70.425781 L 230.972656 4.679688 Z M 334.492188 4.679688 " fill-opacity="1" fill-rule="nonzero"/></g></g><g clip-path="url(#11df8448a6)"><g clip-path="url(#d9496d2182)"><path fill="#2c2440" d="M 216.871094 70.429688 L 75.363281 70.429688 L 75.363281 50.742188 L 216.871094 50.742188 Z M 216.871094 70.429688 " fill-opacity="1" fill-rule="nonzero"/></g></g><g clip-path="url(#ccacfdbb5f)"><g clip-path="url(#818b3bbaaa)"><g clip-path="url(#931dd416f7)"><path fill="#2c2440" d="M 102.722656 5.527344 L 120.683594 54.875 L 101.300781 61.929688 L 83.339844 12.582031 Z M 102.722656 5.527344 " fill-opacity="1" fill-rule="nonzero"/></g></g></g><g clip-path="url(#287d01a239)"><g clip-path="url(#8d88f7ae10)"><path fill="#2c2440" d="M 99.867188 27.550781 L 99.867188 53.992188 L 89.480469 53.992188 L 89.480469 27.550781 Z M 99.867188 27.550781 " fill-opacity="1" fill-rule="nonzero"/></g></g><g clip-path="url(#ade7c78943)"><g clip-path="url(#aa5ff19395)"><g clip-path="url(#905fa71e67)"><path fill="#2c2440" d="M 116.238281 29.296875 L 98.800781 72.214844 L 81.941406 65.363281 L 99.378906 22.445312 Z M 116.238281 29.296875 " fill-opacity="1" fill-rule="nonzero"/></g></g></g><g clip-path="url(#882b76eb78)"><path fill="#2c2440" d="M 76.195312 69.171875 C 77.214844 68.136719 78.183594 67.050781 79.097656 65.921875 C 80.011719 64.789062 80.871094 63.617188 81.671875 62.402344 C 82.476562 61.183594 83.214844 59.933594 83.894531 58.644531 C 84.574219 57.355469 85.191406 56.035156 85.742188 54.683594 C 86.296875 53.335938 86.78125 51.960938 87.199219 50.5625 C 87.617188 49.164062 87.96875 47.75 88.25 46.316406 C 88.53125 44.882812 88.742188 43.4375 88.882812 41.984375 C 89.027344 40.53125 89.097656 39.074219 89.097656 37.613281 C 89.097656 36.152344 89.027344 34.695312 88.882812 33.242188 C 88.742188 31.789062 88.53125 30.34375 88.25 28.910156 C 87.96875 27.476562 87.617188 26.0625 87.199219 24.664062 C 86.78125 23.265625 86.296875 21.890625 85.742188 20.542969 C 85.191406 19.191406 84.574219 17.871094 83.894531 16.582031 C 83.214844 15.292969 82.476562 14.039062 81.671875 12.824219 C 80.871094 11.609375 80.011719 10.4375 79.097656 9.304688 C 78.183594 8.171875 77.214844 7.089844 76.195312 6.054688 L 76.890625 5.382812 C 77.933594 6.441406 78.921875 7.546875 79.859375 8.703125 C 80.792969 9.855469 81.671875 11.054688 82.492188 12.296875 C 83.3125 13.539062 84.070312 14.820312 84.765625 16.136719 C 85.460938 17.457031 86.089844 18.804688 86.65625 20.183594 C 87.21875 21.5625 87.714844 22.96875 88.144531 24.398438 C 88.574219 25.828125 88.929688 27.273438 89.21875 28.738281 C 89.507812 30.203125 89.722656 31.675781 89.867188 33.164062 C 90.011719 34.648438 90.085938 36.140625 90.085938 37.632812 C 90.085938 39.125 90.011719 40.613281 89.867188 42.101562 C 89.722656 43.585938 89.507812 45.0625 89.21875 46.527344 C 88.929688 47.992188 88.574219 49.4375 88.144531 50.867188 C 87.714844 52.296875 87.21875 53.699219 86.65625 55.078125 C 86.089844 56.460938 85.460938 57.808594 84.765625 59.125 C 84.070312 60.445312 83.3125 61.722656 82.492188 62.964844 C 81.671875 64.207031 80.792969 65.40625 79.859375 66.5625 C 78.921875 67.71875 77.933594 68.824219 76.890625 69.882812 Z M 76.195312 69.171875 " fill-opacity="1" fill-rule="nonzero"/></g><g clip-path="url(#9d08d497f7)"><g clip-path="url(#776ec69ede)"><g clip-path="url(#d26a8ed98d)"><path fill="#2c2440" d="M 101.632812 35.847656 L 97.539062 54.886719 L 87.703125 52.773438 L 91.796875 33.730469 Z M 101.632812 35.847656 " fill-opacity="1" fill-rule="nonzero"/></g></g></g></svg>