<svg xmlns="http://www.w3.org/2000/svg" xmlns:xlink="http://www.w3.org/1999/xlink" width="100" zoomAndPan="magnify" viewBox="0 0 75 74.999997" height="100" preserveAspectRatio="xMidYMid meet" version="1.0"><defs><clipPath id="a8366b055d"><path d="M 6 7 L 73 7 L 73 68 L 6 68 Z M 6 7 " clip-rule="nonzero"/></clipPath><clipPath id="2609f7f02e"><path d="M 21.855469 -2.34375 L 74.667969 22.820312 L 48.859375 76.984375 L -3.953125 51.824219 Z M 21.855469 -2.34375 " clip-rule="nonzero"/></clipPath><clipPath id="9bfc588772"><path d="M 21.855469 -2.34375 L 74.667969 22.820312 L 48.859375 76.984375 L -3.953125 51.824219 Z M 21.855469 -2.34375 " clip-rule="nonzero"/></clipPath><clipPath id="32bae37f4f"><path d="M 21.828125 -2.285156 L 75.742188 23.402344 L 49.988281 77.453125 L -3.925781 51.765625 Z M 21.828125 -2.285156 " clip-rule="nonzero"/></clipPath><clipPath id="874e17f9ff"><path d="M 21.828125 -2.285156 L 74.648438 22.882812 L 48.898438 76.933594 L -3.925781 51.765625 Z M 21.828125 -2.285156 " clip-rule="nonzero"/></clipPath></defs><g clip-path="url(#a8366b055d)"><g clip-path="url(#2609f7f02e)"><g clip-path="url(#9bfc588772)"><g clip-path="url(#32bae37f4f)"><g clip-path="url(#874e17f9ff)"><path fill="#33eb5b" d="M 70.277344 22.152344 C 68.144531 21.136719 65.597656 22.050781 64.582031 24.179688 L 63.59375 26.257812 C 57.617188 11.566406 41.070312 3.996094 25.96875 9.375 C 18.4375 12.050781 12.394531 17.507812 8.957031 24.730469 C 5.511719 31.957031 5.082031 40.082031 7.746094 47.621094 C 10.492188 55.402344 16.144531 61.328125 23.054688 64.621094 C 29.964844 67.910156 38.125 68.566406 45.898438 65.800781 C 48.125 65.007812 49.289062 62.5625 48.503906 60.335938 C 47.71875 58.113281 45.277344 56.949219 43.054688 57.738281 C 31.953125 61.6875 19.722656 55.859375 15.800781 44.753906 C 13.894531 39.371094 14.203125 33.566406 16.660156 28.402344 C 19.121094 23.242188 23.4375 19.347656 28.820312 17.433594 C 39.570312 13.605469 51.355469 18.96875 55.65625 29.40625 L 53.1875 28.234375 C 51.0625 27.222656 48.511719 28.128906 47.496094 30.261719 C 46.480469 32.394531 47.382812 34.949219 49.507812 35.960938 L 61.070312 41.472656 C 63.203125 42.484375 65.75 41.574219 66.765625 39.445312 L 72.289062 27.851562 C 73.304688 25.722656 72.40625 23.167969 70.277344 22.152344 " fill-opacity="1" fill-rule="nonzero"/></g></g></g></g></g></svg>