<svg xmlns="http://www.w3.org/2000/svg" xmlns:xlink="http://www.w3.org/1999/xlink" width="100" zoomAndPan="magnify" viewBox="0 0 75 74.999997" height="100" preserveAspectRatio="xMidYMid meet" version="1.0"><defs><clipPath id="8a5a22303c"><path d="M 15.691406 26.539062 L 54.679688 26.539062 L 54.679688 64.429688 L 15.691406 64.429688 Z M 15.691406 26.539062 " clip-rule="nonzero"/></clipPath><clipPath id="b8bb262b1d"><path d="M 19.441406 26.539062 L 50.929688 26.539062 C 53 26.539062 54.679688 28.214844 54.679688 30.289062 L 54.679688 60.679688 C 54.679688 62.75 53 64.429688 50.929688 64.429688 L 19.441406 64.429688 C 17.371094 64.429688 15.691406 62.75 15.691406 60.679688 L 15.691406 30.289062 C 15.691406 28.214844 17.371094 26.539062 19.441406 26.539062 Z M 19.441406 26.539062 " clip-rule="nonzero"/></clipPath><clipPath id="db3bbc016e"><path d="M 26 4 L 50 4 L 50 18 L 26 18 Z M 26 4 " clip-rule="nonzero"/></clipPath><clipPath id="4aeb673fc1"><path d="M 27.695312 4.351562 L 49.929688 7.792969 L 48.359375 17.945312 L 26.125 14.503906 Z M 27.695312 4.351562 " clip-rule="nonzero"/></clipPath><clipPath id="099f6eeecf"><path d="M 31.398438 4.925781 L 46.222656 7.21875 C 48.269531 7.535156 49.671875 9.449219 49.355469 11.496094 L 48.933594 14.238281 C 48.617188 16.285156 46.699219 17.6875 44.652344 17.371094 L 29.828125 15.078125 C 27.78125 14.761719 26.378906 12.84375 26.695312 10.796875 L 27.121094 8.058594 C 27.4375 6.011719 29.351562 4.609375 31.398438 4.925781 Z M 31.398438 4.925781 " clip-rule="nonzero"/></clipPath></defs><g clip-path="url(#8a5a22303c)"><g clip-path="url(#b8bb262b1d)"><path fill="#f6d4d2" d="M 15.691406 26.539062 L 54.679688 26.539062 L 54.679688 64.429688 L 15.691406 64.429688 Z M 15.691406 26.539062 " fill-opacity="1" fill-rule="nonzero"/></g></g><path stroke-linecap="round" transform="matrix(0.748679, -0.000000000000000086, 0.000000000000000086, 0.75, 11.893618, 22.78772)" fill="none" stroke-linejoin="miter" d="M 4.999606 5.00179 L 57.112215 5.00179 " stroke="#f6d4d2" stroke-width="10" stroke-opacity="1" stroke-miterlimit="4"/><path stroke-linecap="round" transform="matrix(-0.0580375, 0.746359, -0.747743, -0.0581451, 59.222457, 24.016517)" fill="none" stroke-linejoin="miter" d="M 4.999079 4.997722 L 54.117829 4.998835 " stroke="#f6d4d2" stroke-width="10" stroke-opacity="1" stroke-miterlimit="4"/><path stroke-linecap="round" transform="matrix(0.0453941, 0.747235, -0.74862, 0.0454783, 18.627317, 23.478687)" fill="none" stroke-linejoin="miter" d="M 4.998727 5.002346 L 54.122609 5.001634 " stroke="#f6d4d2" stroke-width="10" stroke-opacity="1" stroke-miterlimit="4"/><path stroke-linecap="round" transform="matrix(0.749775, 0.000372671, -0.000372783, 0.75, 14.751246, 60.668651)" fill="none" stroke-linejoin="miter" d="M 5.002328 5.001814 L 47.025377 5.001767 " stroke="#f6d4d2" stroke-width="10" stroke-opacity="1" stroke-miterlimit="4"/><path stroke-linecap="round" transform="matrix(0.000000000000000553, 0.759777, -0.75, 0.000000000000000546, 37.434538, 32.712894)" fill="none" stroke-linejoin="miter" d="M 2.999952 3.00126 L 30.567681 3.00126 " stroke="#1e0206" stroke-width="6" stroke-opacity="1" stroke-miterlimit="4"/><path stroke-linecap="round" transform="matrix(0.740894, 0.100646, -0.100956, 0.743174, 13.750135, 7.921607)" fill="none" stroke-linejoin="miter" d="M 4.999181 4.999999 L 61.218565 5.00254 " stroke="#f6d4d2" stroke-width="10" stroke-opacity="1" stroke-miterlimit="4"/><g clip-path="url(#db3bbc016e)"><g clip-path="url(#4aeb673fc1)"><g clip-path="url(#099f6eeecf)"><path fill="#f6d4d2" d="M 27.695312 4.351562 L 49.929688 7.792969 L 48.359375 17.945312 L 26.125 14.503906 Z M 27.695312 4.351562 " fill-opacity="1" fill-rule="nonzero"/></g></g></g><path stroke-linecap="round" transform="matrix(-0.0550214, 0.757782, -0.748031, -0.0543134, 50.574175, 33.093083)" fill="none" stroke-linejoin="miter" d="M 2.999614 3.001307 L 30.567632 2.999695 " stroke="#1e0206" stroke-width="6" stroke-opacity="1" stroke-miterlimit="4"/><path stroke-linecap="round" transform="matrix(0.0477391, 0.758275, -0.748518, 0.0471248, 24.286483, 32.799987)" fill="none" stroke-linejoin="miter" d="M 2.998191 3.000623 L 30.569003 3.000355 " stroke="#1e0206" stroke-width="6" stroke-opacity="1" stroke-miterlimit="4"/></svg>