<svg xmlns="http://www.w3.org/2000/svg" xmlns:xlink="http://www.w3.org/1999/xlink" width="100" zoomAndPan="magnify" viewBox="0 0 75 74.999997" height="100" preserveAspectRatio="xMidYMid meet" version="1.0"><defs><clipPath id="b38d103f3a"><path d="M 30.179688 34.777344 L 72.929688 34.777344 L 72.929688 61.777344 L 30.179688 61.777344 Z M 30.179688 34.777344 " clip-rule="nonzero"/></clipPath><clipPath id="6d41b8a49f"><path d="M 33.9375 34.777344 L 69.171875 34.777344 C 70.167969 34.777344 71.125 35.175781 71.832031 35.890625 C 72.535156 36.601562 72.929688 37.570312 72.929688 38.574219 L 72.929688 57.976562 C 72.929688 58.984375 72.535156 59.949219 71.832031 60.664062 C 71.125 61.375 70.167969 61.773438 69.171875 61.773438 L 33.9375 61.773438 C 32.941406 61.773438 31.988281 61.375 31.28125 60.664062 C 30.578125 59.949219 30.179688 58.984375 30.179688 57.976562 L 30.179688 38.574219 C 30.179688 37.570312 30.578125 36.601562 31.28125 35.890625 C 31.988281 35.175781 32.941406 34.777344 33.9375 34.777344 Z M 33.9375 34.777344 " clip-rule="nonzero"/></clipPath><clipPath id="e2cb204bc2"><path d="M 38.324219 44.417969 L 45.691406 44.417969 L 45.691406 51.785156 L 38.324219 51.785156 Z M 38.324219 44.417969 " clip-rule="nonzero"/></clipPath><clipPath id="46ddd86fcc"><path d="M 42.007812 44.417969 C 39.972656 44.417969 38.324219 46.066406 38.324219 48.101562 C 38.324219 50.136719 39.972656 51.785156 42.007812 51.785156 C 44.042969 51.785156 45.691406 50.136719 45.691406 48.101562 C 45.691406 46.066406 44.042969 44.417969 42.007812 44.417969 Z M 42.007812 44.417969 " clip-rule="nonzero"/></clipPath></defs><path stroke-linecap="round" transform="matrix(0.749997, 0.00211293, -0.00211293, 0.749997, 2.57341, 22.228069)" fill="none" stroke-linejoin="miter" d="M 4.001953 4.002358 L 87.007484 3.997678 " stroke="#f6d4d2" stroke-width="8" stroke-opacity="1" stroke-miterlimit="4"/><path stroke-linecap="round" transform="matrix(0.749997, 0.00211293, -0.00211293, 0.749997, 2.581862, 67.780606)" fill="none" stroke-linejoin="miter" d="M 4.001094 4.000019 L 87.00664 4.000548 " stroke="#f6d4d2" stroke-width="8" stroke-opacity="1" stroke-miterlimit="4"/><path stroke-linecap="butt" transform="matrix(0.000000000000000213, 0.753086, -0.75, 0.000000000000000212, 8.562633, 25.319215)" fill="none" stroke-linejoin="miter" d="M 0.00145732 4.000178 L 60.756649 4.000178 " stroke="#f6d4d2" stroke-width="8" stroke-opacity="1" stroke-miterlimit="4"/><path stroke-linecap="butt" transform="matrix(0, 0.769231, -0.75, 0, 70.836272, 56.250866)" fill="none" stroke-linejoin="miter" d="M -0.00112529 4.000446 L 19.503953 4.000446 " stroke="#f6d4d2" stroke-width="8" stroke-opacity="1" stroke-miterlimit="4"/><path stroke-linecap="butt" transform="matrix(0.000000000000000559, 0.768615, -0.75, 0.000000000000000546, 70.83187, 25.858003)" fill="none" stroke-linejoin="miter" d="M 0.00178507 3.999785 L 19.527576 3.999785 " stroke="#f6d4d2" stroke-width="8" stroke-opacity="1" stroke-miterlimit="4"/><g clip-path="url(#b38d103f3a)"><g clip-path="url(#6d41b8a49f)"><path stroke-linecap="butt" transform="matrix(0.751648, 0, 0, 0.759894, 30.18111, 34.776837)" fill="none" stroke-linejoin="miter" d="M 4.997536 0.000667027 L 51.873678 0.000667027 C 53.19889 0.000667027 54.472134 0.525 55.412774 1.465714 C 56.348219 2.401288 56.873107 3.676136 56.873107 4.997249 L 56.873107 30.530195 C 56.873107 31.856448 56.348219 33.126156 55.412774 34.066871 C 54.472134 35.002445 53.19889 35.526777 51.873678 35.526777 L 4.997536 35.526777 C 3.672323 35.526777 2.404277 35.002445 1.463636 34.066871 C 0.528192 33.126156 -0.00189314 31.856448 -0.00189314 30.530195 L -0.00189314 4.997249 C -0.00189314 3.676136 0.528192 2.401288 1.463636 1.465714 C 2.404277 0.525 3.672323 0.000667027 4.997536 0.000667027 Z M 4.997536 0.000667027 " stroke="#f6d4d2" stroke-width="16" stroke-opacity="1" stroke-miterlimit="4"/></g></g><g clip-path="url(#e2cb204bc2)"><g clip-path="url(#46ddd86fcc)"><path fill="#f6d4d2" d="M 38.324219 44.417969 L 45.691406 44.417969 L 45.691406 51.785156 L 38.324219 51.785156 Z M 38.324219 44.417969 " fill-opacity="1" fill-rule="nonzero"/></g></g><path stroke-linecap="round" transform="matrix(0.578341, -0.468331, 0.47199, 0.582859, 12.309479, 23.757082)" fill="none" stroke-linejoin="miter" d="M 4.001251 4.000404 L 48.409234 4.001738 " stroke="#f6d4d2" stroke-width="8" stroke-opacity="1" stroke-miterlimit="4"/><path stroke-linecap="round" transform="matrix(0.581487, -0.461702, 0.46637, 0.587366, 26.854522, 23.50106)" fill="none" stroke-linejoin="miter" d="M 4.000817 4.000963 L 30.354737 4.000429 " stroke="#f6d4d2" stroke-width="8" stroke-opacity="1" stroke-miterlimit="4"/><path stroke-linecap="butt" transform="matrix(0.490274, 0.570424, -0.568782, 0.488863, 44.96485, 2.344752)" fill="none" stroke-linejoin="miter" d="M 0.00204327 3.998799 L 37.893384 3.997062 " stroke="#f6d4d2" stroke-width="8" stroke-opacity="1" stroke-miterlimit="4"/><path stroke-linecap="round" transform="matrix(0.603485, -0.476661, 0.464868, 0.588555, 40.147469, 23.497188)" fill="none" stroke-linejoin="miter" d="M 4.000573 4.00139 L 7.710813 3.999681 " stroke="#f6d4d2" stroke-width="8" stroke-opacity="1" stroke-miterlimit="4"/></svg>