<svg xmlns="http://www.w3.org/2000/svg" xmlns:xlink="http://www.w3.org/1999/xlink" width="100" zoomAndPan="magnify" viewBox="0 0 75 74.999997" height="100" preserveAspectRatio="xMidYMid meet" version="1.0"><defs><clipPath id="821b8d4bcb"><path d="M 40.113281 39.089844 L 73.855469 39.089844 L 73.855469 56.339844 L 40.113281 56.339844 Z M 40.113281 39.089844 " clip-rule="nonzero"/></clipPath><clipPath id="81da08bf22"><path d="M 43.898438 39.089844 L 70.066406 39.089844 C 71.070312 39.089844 72.03125 39.484375 72.742188 40.179688 C 73.449219 40.878906 73.847656 41.824219 73.847656 42.808594 L 73.847656 52.625 C 73.847656 53.609375 73.449219 54.554688 72.742188 55.253906 C 72.03125 55.949219 71.070312 56.339844 70.066406 56.339844 L 43.898438 56.339844 C 42.894531 56.339844 41.933594 55.949219 41.222656 55.253906 C 40.511719 54.554688 40.113281 53.609375 40.113281 52.625 L 40.113281 42.808594 C 40.113281 41.824219 40.511719 40.878906 41.222656 40.179688 C 41.933594 39.484375 42.894531 39.089844 43.898438 39.089844 " clip-rule="nonzero"/></clipPath><clipPath id="4b7e8a7cb3"><path d="M 44.648438 44.109375 L 52.015625 44.109375 L 52.015625 51.476562 L 44.648438 51.476562 Z M 44.648438 44.109375 " clip-rule="nonzero"/></clipPath><clipPath id="202ea0828e"><path d="M 48.332031 44.109375 C 46.296875 44.109375 44.648438 45.757812 44.648438 47.792969 C 44.648438 49.828125 46.296875 51.476562 48.332031 51.476562 C 50.367188 51.476562 52.015625 49.828125 52.015625 47.792969 C 52.015625 45.757812 50.367188 44.109375 48.332031 44.109375 " clip-rule="nonzero"/></clipPath></defs><path stroke-linecap="round" transform="matrix(0.749997, 0.00211293, -0.00211293, 0.749997, 1.54558, 23.419804)" fill="none" stroke-linejoin="miter" d="M 2.002168 2.002338 L 89.007727 2.002014 " stroke="#f6d4d2" stroke-width="4" stroke-opacity="1" stroke-miterlimit="4"/><path stroke-linecap="round" transform="matrix(0.749997, 0.00211293, -0.00211293, 0.749997, 1.554032, 68.972338)" fill="none" stroke-linejoin="miter" d="M 2.001309 2.000002 L 89.006868 1.999679 " stroke="#f6d4d2" stroke-width="4" stroke-opacity="1" stroke-miterlimit="4"/><path stroke-linecap="butt" transform="matrix(0.000000000000000213, 0.753086, -0.75, 0.000000000000000212, 4.534804, 25.010957)" fill="none" stroke-linejoin="miter" d="M 0.00101135 1.99953 L 60.756203 1.99953 " stroke="#f6d4d2" stroke-width="4" stroke-opacity="1" stroke-miterlimit="4"/><path stroke-linecap="butt" transform="matrix(0.000000000000000046, 0.74722, -0.75, 0.000000000000000046, 69.79592, 54.754939)" fill="none" stroke-linejoin="miter" d="M -0.00138149 1.998727 L 21.092428 1.998727 " stroke="#f6d4d2" stroke-width="4" stroke-opacity="1" stroke-miterlimit="4"/><path stroke-linecap="butt" transform="matrix(0.000000000000000046, 0.74722, -0.75, 0.000000000000000046, 69.79592, 25.020879)" fill="none" stroke-linejoin="miter" d="M -0.00180427 1.998727 L 21.092005 1.998727 " stroke="#f6d4d2" stroke-width="4" stroke-opacity="1" stroke-miterlimit="4"/><g clip-path="url(#821b8d4bcb)"><g clip-path="url(#81da08bf22)"><path stroke-linecap="butt" transform="matrix(0.756832, 0, 0, 0.743935, 40.114796, 39.091614)" fill="none" stroke-linejoin="miter" d="M 4.999312 -0.00238007 L 39.574956 -0.00238007 C 40.901413 -0.00238007 42.171097 0.52795 43.110456 1.462591 C 44.044654 2.402483 44.571108 3.673175 44.571108 4.996375 L 44.571108 18.191617 C 44.571108 19.514817 44.044654 20.785509 43.110456 21.725401 C 42.171097 22.660042 40.901413 23.185122 39.574956 23.185122 L 4.999312 23.185122 C 3.672855 23.185122 2.403171 22.660042 1.463812 21.725401 C 0.524453 20.785509 -0.00200088 19.514817 -0.00200088 18.191617 L -0.00200088 4.996375 C -0.00200088 3.673175 0.524453 2.402483 1.463812 1.462591 C 2.403171 0.52795 3.672855 -0.00238007 4.999312 -0.00238007 " stroke="#f6d4d2" stroke-width="8" stroke-opacity="1" stroke-miterlimit="4"/></g></g><g clip-path="url(#4b7e8a7cb3)"><g clip-path="url(#202ea0828e)"><path fill="#f6d4d2" d="M 44.648438 44.109375 L 52.015625 44.109375 L 52.015625 51.476562 L 44.648438 51.476562 Z M 44.648438 44.109375 " fill-opacity="1" fill-rule="nonzero"/></g></g><path stroke-linecap="round" transform="matrix(0.578341, -0.468331, 0.47199, 0.582859, 18.082843, 24.619056)" fill="none" stroke-linejoin="miter" d="M 2.000478 1.999602 L 50.408974 1.998475 " stroke="#f6d4d2" stroke-width="4" stroke-opacity="1" stroke-miterlimit="4"/><path stroke-linecap="round" transform="matrix(0.581229, -0.47067, 0.47199, 0.582859, 29.664453, 24.614382)" fill="none" stroke-linejoin="miter" d="M 1.997674 1.999981 L 37.112769 2.000473 " stroke="#f6d4d2" stroke-width="4" stroke-opacity="1" stroke-miterlimit="4"/><path stroke-linecap="butt" transform="matrix(0.482273, 0.578216, -0.575957, 0.480389, 49.163136, 0.982236)" fill="none" stroke-linejoin="miter" d="M -0.00121648 1.998119 L 39.846713 2.002849 " stroke="#f6d4d2" stroke-width="4" stroke-opacity="1" stroke-miterlimit="4"/><path stroke-linecap="round" transform="matrix(0.58181, -0.471141, 0.47199, 0.582859, 8.56884, 24.545307)" fill="none" stroke-linejoin="miter" d="M 1.998653 2.000262 L 50.096473 2.001448 " stroke="#f6d4d2" stroke-width="4" stroke-opacity="1" stroke-miterlimit="4"/><path stroke-linecap="butt" transform="matrix(0.476361, 0.571746, -0.576213, 0.480082, 39.80308, 0.985372)" fill="none" stroke-linejoin="miter" d="M 0.00122143 1.998079 L 10.090316 2.00044 " stroke="#f6d4d2" stroke-width="4" stroke-opacity="1" stroke-miterlimit="4"/><path stroke-linecap="round" transform="matrix(0.582253, -0.471499, 0.47199, 0.582859, 46.189234, 24.544699)" fill="none" stroke-linejoin="miter" d="M 2.000631 1.997431 L 13.02172 1.999354 " stroke="#f6d4d2" stroke-width="4" stroke-opacity="1" stroke-miterlimit="4"/></svg>