<svg xmlns="http://www.w3.org/2000/svg" xmlns:xlink="http://www.w3.org/1999/xlink" width="100" zoomAndPan="magnify" viewBox="0 0 75 74.999997" height="100" preserveAspectRatio="xMidYMid meet" version="1.0"><defs><g/><clipPath id="dc337d3354"><path d="M 37.5 0 C 16.789062 0 0 16.789062 0 37.5 C 0 58.210938 16.789062 75 37.5 75 C 58.210938 75 75 58.210938 75 37.5 C 75 16.789062 58.210938 0 37.5 0 Z M 37.5 0 " clip-rule="nonzero"/></clipPath></defs><g clip-path="url(#dc337d3354)"><path stroke-linecap="butt" transform="matrix(0.75, 0, 0, 0.75, 0.0000015, -0.000001)" fill="none" stroke-linejoin="miter" d="M 50.000002 0.00000133333 C 22.385416 0.00000133333 -0.000002 22.38542 -0.000002 50.000005 C -0.000002 77.614591 22.385416 100.00001 50.000002 100.00001 C 77.614588 100.00001 100.000006 77.614591 100.000006 50.000005 C 100.000006 22.38542 77.614588 0.00000133333 50.000002 0.00000133333 Z M 50.000002 0.00000133333 " stroke="#eb8f34" stroke-width="20" stroke-opacity="1" stroke-miterlimit="4"/></g><g fill="#eb8f34" fill-opacity="1"><g transform="translate(24.796203, 62.624994)"><g><path d="M 9.53125 -13.9375 C 8.738281 -13.9375 8.082031 -14.113281 7.5625 -14.46875 C 7.039062 -14.820312 6.78125 -15.378906 6.78125 -16.140625 L 6.84375 -16.609375 C 7.519531 -21.054688 8.429688 -26.117188 9.578125 -31.796875 C 10.734375 -37.472656 11.804688 -42.375 12.796875 -46.5 C 13.429688 -49.039062 15.160156 -50.3125 17.984375 -50.3125 C 20.523438 -50.3125 21.796875 -49.5 21.796875 -47.875 C 21.796875 -47.519531 21.734375 -47.125 21.609375 -46.6875 C 20.578125 -42.476562 19.207031 -37.382812 17.5 -31.40625 C 15.800781 -25.4375 14.175781 -20.25 12.625 -15.84375 C 12.1875 -14.570312 11.15625 -13.9375 9.53125 -13.9375 Z M 7.265625 0.296875 C 5.515625 0.296875 4.191406 -0.175781 3.296875 -1.125 C 2.410156 -2.082031 1.96875 -3.335938 1.96875 -4.890625 C 1.96875 -6.671875 2.472656 -8.097656 3.484375 -9.171875 C 4.492188 -10.242188 5.910156 -10.78125 7.734375 -10.78125 C 9.484375 -10.78125 10.804688 -10.351562 11.703125 -9.5 C 12.597656 -8.644531 13.046875 -7.382812 13.046875 -5.71875 C 13.046875 -3.894531 12.523438 -2.4375 11.484375 -1.34375 C 10.453125 -0.25 9.046875 0.296875 7.265625 0.296875 Z M 7.265625 0.296875 "/></g></g></g></svg>