<svg xmlns="http://www.w3.org/2000/svg" xmlns:xlink="http://www.w3.org/1999/xlink" width="500" zoomAndPan="magnify" viewBox="0 0 375 374.999991" height="500" preserveAspectRatio="xMidYMid meet" version="1.0"><defs><clipPath id="id1"><path d="M 10 10 L 365 10 L 365 365 L 10 365 Z M 10 10 " clip-rule="nonzero"/></clipPath><clipPath id="id2"><path d="M 31.363281 0.00390625 L 375.019531 343.65625 L 343.726562 374.945312 L 0.0742188 31.292969 Z M 31.363281 0.00390625 " clip-rule="nonzero"/></clipPath><clipPath id="id3"><path d="M 10 10 L 365 10 L 365 365 L 10 365 Z M 10 10 " clip-rule="nonzero"/></clipPath><clipPath id="id4"><path d="M 374.992188 31.367188 L 31.339844 375.019531 L 0.0507812 343.730469 L 343.703125 0.078125 Z M 374.992188 31.367188 " clip-rule="nonzero"/></clipPath></defs><g clip-path="url(#id1)"><g clip-path="url(#id2)"><path fill="#000000" d="M 355.125 323.761719 C 366.109375 334.746094 368.007812 350.65625 359.367188 359.296875 C 350.726562 367.9375 334.816406 366.035156 323.835938 355.050781 L 19.96875 51.183594 C 8.984375 40.203125 7.085938 24.292969 15.726562 15.652344 C 24.363281 7.011719 40.273438 8.914062 51.257812 19.894531 L 355.125 323.761719 " fill-opacity="1" fill-rule="nonzero"/></g></g><g clip-path="url(#id3)"><g clip-path="url(#id4)"><path fill="#000000" d="M 51.234375 355.125 C 40.25 366.109375 24.339844 368.011719 15.699219 359.371094 C 7.058594 350.730469 8.960938 334.820312 19.941406 323.835938 L 323.808594 19.96875 C 334.792969 8.988281 350.703125 7.085938 359.34375 15.726562 C 367.984375 24.367188 366.082031 40.277344 355.097656 51.261719 L 51.234375 355.125 " fill-opacity="1" fill-rule="nonzero"/></g></g></svg>