<?xml version="1.0" encoding="utf-8"?>
<svg viewBox="0 0 500 500" xmlns="http://www.w3.org/2000/svg" xmlns:bx="https://boxy-svg.com">
  <defs>
    <linearGradient id="gradient-2" bx:pinned="true">
      <stop offset="1" style="stop-color: rgb(246, 212, 210);"/>
    </linearGradient>
    <linearGradient id="gradient-3" bx:pinned="true">
      <stop offset="0" style="stop-color: rgb(155, 203, 177);"/>
      <stop offset="1" style="stop-color: rgb(226, 162, 162);"/>
    </linearGradient>
    <linearGradient id="color-0" gradientUnits="userSpaceOnUse" gradientTransform="matrix(1.156229, 0, 0, 1, 0, 0)" bx:pinned="true">
      <stop style="stop-color: rgb(174, 19, 38);"/>
    </linearGradient>
    <linearGradient id="color-1" gradientUnits="userSpaceOnUse" bx:pinned="true">
      <stop style="stop-color: rgb(52, 225, 235);"/>
    </linearGradient>
    <linearGradient id="color-2" gradientUnits="userSpaceOnUse" bx:pinned="true">
      <stop style="stop-color: rgb(232, 235, 52);"/>
    </linearGradient>
    <linearGradient id="color-3" gradientUnits="userSpaceOnUse" bx:pinned="true">
      <stop style="stop-color: rgb(193, 107, 207);"/>
    </linearGradient>
    <linearGradient id="color-6" gradientUnits="userSpaceOnUse" bx:pinned="true">
      <stop style="stop-color: rgb(187, 157, 171);"/>
    </linearGradient>
    <linearGradient id="color-7" gradientUnits="userSpaceOnUse" bx:pinned="true">
      <title>current grey</title>
      <stop style="stop-color: rgb(142, 124, 137);"/>
    </linearGradient>
    <linearGradient id="color-4" gradientUnits="userSpaceOnUse" bx:pinned="true">
      <stop style="stop-color: rgb(235, 143, 52);"/>
    </linearGradient>
    <linearGradient id="color-5" gradientUnits="userSpaceOnUse" gradientTransform="matrix(2.824007, 0, 0, 1, -762.877171, 0)" bx:pinned="true">
      <stop style="stop-color: rgb(51, 235, 124);"/>
    </linearGradient>
  </defs>
  <path style="stroke: rgba(0, 0, 0, 0); fill: url('#color-6');" d="M 101.745 374.497 L 78.221 503.989 L 0.143 503.772 L -8.942 -12.289 L 304.348 -4.024 L 235.509 301.759 L 162.344 283.854 L 151.702 318.408 L 133.899 330.054 L 124.224 339.057 L 112.877 352.627 L 101.745 374.497 Z"/>
  <path style="stroke: rgba(0, 0, 0, 0); fill: url('#color-6');" d="M 448.299 505.977 L 408.127 358.67 L 404.173 345.781 C 404.173 345.781 398.227 329.848 396.68 326.925 L 387.301 311.631 L 373.172 309.437 L 362.525 299.606 L 336.428 177.862 L 265.369 98.069 L 275.06 -2.46 L 505.27 -10.351 L 511.823 488.677 L 504.89 504.133 L 448.299 505.977 Z"/>
  <polygon points="341.787 298.699 229.658 298.699 229.658 146.945 326.611 200.059 341.787 298.699" fill="#2f2e41" style=""/>
  <circle cx="250.372" cy="199.116" r="72.799" fill="#ffb6b6" style=""/>
  <polygon points="208.581 282.68 205.291 249.434 270.968 237.154 309.75 331.579 242.304 409.141 194.248 314.717 208.581 282.68" fill="#ffb6b6" style=""/>
  <path d="M 407.42 359.434 C 406.602 360.285 405.768 361.128 404.933 361.963 C 402.286 364.61 399.588 367.182 396.831 369.677 C 355.52 407.143 302.516 427.647 246.359 427.647 C 194.586 427.647 145.493 410.221 105.776 378.142 C 105.751 378.125 105.734 378.108 105.709 378.083 C 104.503 377.113 103.314 376.127 102.126 375.123 C 102.336 374.516 102.564 373.918 102.792 373.328 C 115.564 340.051 140.789 323.772 156.099 316.648 C 163.687 313.115 168.838 311.825 168.838 311.825 L 186.812 279.451 L 199.467 303.057 L 208.791 320.458 L 247.05 391.842 L 280.057 309.659 L 290.283 284.181 L 292.905 277.655 L 305.374 287.359 L 317.177 296.54 L 340.944 301.784 L 360.225 306.042 L 386.411 311.825 C 397 320.45 403.441 336.856 407.041 357.242 C 407.176 357.967 407.302 358.7 407.42 359.434 Z" style="fill: rgba(168, 33, 48, 0);"/>
  <path d="M 212.079 116.386 C 220.946 101.491 237.233 91.271 254.502 89.764 C 271.772 88.258 289.582 95.504 300.894 108.64 C 307.635 116.467 312.055 126.053 318.626 134.023 C 332.767 151.176 356.879 161.206 363.056 182.56 C 365.751 191.878 364.408 201.827 363.044 211.431 C 361.875 219.663 360.706 227.895 359.537 236.126 C 358.627 242.533 357.754 249.287 360.156 255.295 C 362.975 262.343 369.719 266.96 374.08 273.174 C 381.5 283.747 380.957 299.228 372.815 309.256 C 369.284 313.605 364.604 316.885 360.902 321.09 C 357.2 325.294 354.455 331.042 356.005 336.425 C 358.974 346.738 375.146 349.211 376.92 359.794 C 377.827 365.205 374.09 370.609 369.192 373.083 C 364.296 375.558 358.532 375.629 353.085 374.967 C 332.385 372.451 313.218 359.516 303.14 341.261 C 293.061 323.006 292.328 299.895 301.227 281.037 C 308.537 265.549 322.124 251.862 321.975 234.736 C 321.894 225.406 317.615 216.692 313.431 208.352 C 304.865 191.283 296.3 174.214 287.735 157.146 C 283.147 148.003 277.822 138.15 268.378 134.222 C 261.077 131.186 252.795 132.364 244.986 133.606 C 237.179 134.847 228.908 136.056 221.586 133.073 C 214.265 130.09 208.732 121.228 212.221 114.133" fill="#2f2e41" style=""/>
  <path d="M 224.836 117.164 C 210.771 112.534 194.994 119.967 185.472 131.306 C 175.949 142.645 171.331 157.193 166.931 171.332 C 164.41 179.43 161.89 187.529 159.37 195.628 C 156.999 203.246 154.628 210.864 152.256 218.482 C 149.468 227.443 146.657 236.963 148.945 246.064 C 150.6 252.644 154.857 258.618 154.949 265.402 C 155.045 272.489 150.607 278.71 146.717 284.635 C 142.828 290.56 139.178 297.599 141.03 304.44 C 143.849 314.845 158.315 320.565 157.522 331.315 C 157.258 334.903 155.183 338.221 155.221 341.819 C 155.268 346.396 158.852 350.351 163.05 352.175 C 167.249 353.998 171.972 354.097 176.548 354.017 C 190.587 353.77 204.6 352.103 218.304 349.049 C 223.576 347.874 228.938 346.434 233.327 343.284 C 237.717 340.135 240.99 334.917 240.419 329.545 C 239.529 321.175 230.529 316.426 225.988 309.338 C 221.526 302.377 221.63 293.557 219.706 285.515 C 217.063 274.464 210.533 264.815 205.632 254.564 C 187.205 216.022 193.656 166.895 221.408 134.416 C 223.861 131.545 226.542 128.655 227.566 125.02 C 228.59 121.384 227.27 116.751 223.714 115.48" fill="#2f2e41" style=""/>
</svg>