<?xml version="1.0" encoding="utf-8"?>
<svg viewBox="0 0 500 500" xmlns="http://www.w3.org/2000/svg">
  <path style="fill: rgb(246, 212, 210); stroke: rgba(0, 0, 0, 0);" d="M 94.521 377.838 L 87.138 501.545 L -7.081 507.113 L -6.56 167.566 L -5.186 -8.51 L 247.31 0.997 L 297.124 -0.683 L 228.285 305.1 L 155.12 287.195 L 144.478 321.749 L 126.675 333.395 L 117 342.398 L 105.653 355.968 L 94.521 377.838 Z"/>
  <path style="fill: rgb(246, 212, 210); stroke: rgba(0, 0, 0, 0);" d="M 411.67 504.056 L 400.903 362.011 L 396.949 349.122 C 396.949 349.122 391.003 333.189 389.456 330.266 L 380.077 314.972 L 365.948 312.778 L 355.301 302.947 L 329.204 181.203 L 258.145 101.41 L 267.836 0.881 L 456.606 1.69 L 498.046 -7.01 L 504.599 492.018 L 497.666 507.474 L 411.67 504.056 Z"/>
  <g style="" transform="matrix(1.082648, 0, 0, 1.041658, -20.537813, -14.897157)">
    <path d="M 204.855 119.727 C 213.722 104.832 230.009 94.612 247.278 93.105 C 264.548 91.599 282.358 98.845 293.67 111.981 C 300.411 119.808 304.831 129.394 311.402 137.364 C 325.543 154.517 349.655 164.547 355.832 185.901 C 358.527 195.219 357.184 205.168 355.82 214.772 C 354.651 223.004 353.482 231.236 352.313 239.467 C 351.403 245.874 350.53 252.628 352.932 258.636 C 355.751 265.684 362.495 270.301 366.856 276.515 C 374.276 287.088 373.733 302.569 365.591 312.597 C 362.06 316.946 357.38 320.226 353.678 324.431 C 349.976 328.635 347.231 334.383 348.781 339.766 C 351.75 350.079 367.922 352.552 369.696 363.135 C 370.603 368.546 366.866 373.95 361.968 376.424 C 357.072 378.899 351.308 378.97 345.861 378.308 C 325.161 375.792 305.994 362.857 295.916 344.602 C 285.837 326.347 285.104 303.236 294.003 284.378 C 301.313 268.89 314.9 255.203 314.751 238.077 C 314.67 228.747 310.391 220.033 306.207 211.693 C 297.641 194.624 289.076 177.555 280.511 160.487 C 275.923 151.344 270.598 141.491 261.154 137.563 C 253.853 134.527 245.571 135.705 237.762 136.947 C 229.955 138.188 221.684 139.397 214.362 136.414 C 207.041 133.431 201.508 124.569 204.997 117.474" style="fill: rgb(202, 175, 105);"/>
    <path d="M 217.612 120.505 C 203.547 115.875 187.77 123.308 178.248 134.647 C 168.725 145.986 164.107 160.534 159.707 174.673 C 157.186 182.771 154.666 190.87 152.146 198.969 C 149.775 206.587 147.404 214.205 145.032 221.823 C 142.244 230.784 139.433 240.304 141.721 249.405 C 143.376 255.985 147.633 261.959 147.725 268.743 C 147.821 275.83 143.383 282.051 139.493 287.976 C 135.604 293.901 131.954 300.94 133.806 307.781 C 136.625 318.186 151.091 323.906 150.298 334.656 C 150.034 338.244 147.959 341.562 147.997 345.16 C 148.044 349.737 151.628 353.692 155.826 355.516 C 160.025 357.339 164.748 357.438 169.324 357.358 C 183.363 357.111 197.376 355.444 211.08 352.39 C 216.352 351.215 221.714 349.775 226.103 346.625 C 230.493 343.476 233.766 338.258 233.195 332.886 C 232.305 324.516 223.305 319.767 218.764 312.679 C 214.302 305.718 214.406 296.898 212.482 288.856 C 209.839 277.805 203.309 268.156 198.408 257.905 C 179.981 219.363 186.432 170.236 214.184 137.757 C 216.637 134.886 219.318 131.996 220.342 128.361 C 221.366 124.725 220.046 120.092 216.49 118.821" style="fill: rgb(202, 175, 105);"/>
  </g>
  <polygon points="334.563 302.04 222.434 302.04 222.434 150.286 319.387 203.4 334.563 302.04" style="fill: rgb(255, 235, 181);"/>
  <circle cx="243.148" cy="202.457" r="72.799" style="" fill="#ffb6b6"/>
  <polygon points="201.357 286.021 198.067 252.775 263.744 240.495 302.526 334.92 235.08 412.482 187.024 318.058 201.357 286.021" style="" fill="#ffb6b6"/>
  <path d="M 400.196 362.775 C 399.378 363.626 398.544 364.469 397.709 365.304 C 395.062 367.951 392.364 370.523 389.607 373.018 C 348.296 410.484 295.292 430.988 239.135 430.988 C 187.362 430.988 138.269 413.562 98.552 381.483 C 98.527 381.466 98.51 381.449 98.485 381.424 C 97.279 380.454 96.09 379.468 94.902 378.464 C 95.112 377.857 95.34 377.259 95.568 376.669 C 108.34 343.392 133.565 327.113 148.875 319.989 C 156.463 316.456 161.614 315.166 161.614 315.166 L 179.588 282.792 L 192.243 306.398 L 201.567 323.799 L 239.826 395.183 L 272.833 313 L 283.059 287.522 L 285.681 280.996 L 298.15 290.7 L 309.953 299.881 L 333.72 305.125 L 353.001 309.383 L 379.187 315.166 C 389.776 323.791 396.217 340.197 399.817 360.583 C 399.952 361.308 400.078 362.041 400.196 362.775 Z" style="fill: rgba(168, 33, 48, 0);"/>
  <g>
    <path d="M 204.855 119.727 C 213.722 104.832 230.009 94.612 247.278 93.105 C 264.548 91.599 282.358 98.845 293.67 111.981 C 300.411 119.808 304.831 129.394 311.402 137.364 C 325.543 154.517 349.655 164.547 355.832 185.901 C 358.527 195.219 357.184 205.168 355.82 214.772 C 354.651 223.004 353.482 231.236 352.313 239.467 C 351.403 245.874 350.53 252.628 352.932 258.636 C 355.751 265.684 362.495 270.301 366.856 276.515 C 374.276 287.088 373.733 302.569 365.591 312.597 C 362.06 316.946 357.38 320.226 353.678 324.431 C 349.976 328.635 347.231 334.383 348.781 339.766 C 351.75 350.079 367.922 352.552 369.696 363.135 C 370.603 368.546 366.866 373.95 361.968 376.424 C 357.072 378.899 351.308 378.97 345.861 378.308 C 325.161 375.792 305.994 362.857 295.916 344.602 C 285.837 326.347 285.104 303.236 294.003 284.378 C 301.313 268.89 314.9 255.203 314.751 238.077 C 314.67 228.747 310.391 220.033 306.207 211.693 C 297.641 194.624 289.076 177.555 280.511 160.487 C 275.923 151.344 270.598 141.491 261.154 137.563 C 253.853 134.527 245.571 135.705 237.762 136.947 C 229.955 138.188 221.684 139.397 214.362 136.414 C 207.041 133.431 201.508 124.569 204.997 117.474" style="fill: rgb(255, 235, 181);"/>
    <path d="M 217.612 120.505 C 203.547 115.875 187.77 123.308 178.248 134.647 C 168.725 145.986 164.107 160.534 159.707 174.673 C 157.186 182.771 154.666 190.87 152.146 198.969 C 149.775 206.587 147.404 214.205 145.032 221.823 C 142.244 230.784 139.433 240.304 141.721 249.405 C 143.376 255.985 147.633 261.959 147.725 268.743 C 147.821 275.83 143.383 282.051 139.493 287.976 C 135.604 293.901 131.954 300.94 133.806 307.781 C 136.625 318.186 151.091 323.906 150.298 334.656 C 150.034 338.244 147.959 341.562 147.997 345.16 C 148.044 349.737 151.628 353.692 155.826 355.516 C 160.025 357.339 164.748 357.438 169.324 357.358 C 183.363 357.111 197.376 355.444 211.08 352.39 C 216.352 351.215 221.714 349.775 226.103 346.625 C 230.493 343.476 233.766 338.258 233.195 332.886 C 232.305 324.516 223.305 319.767 218.764 312.679 C 214.302 305.718 214.406 296.898 212.482 288.856 C 209.839 277.805 203.309 268.156 198.408 257.905 C 179.981 219.363 186.432 170.236 214.184 137.757 C 216.637 134.886 219.318 131.996 220.342 128.361 C 221.366 124.725 220.046 120.092 216.49 118.821" style="fill: rgb(255, 235, 181);"/>
  </g>
</svg>