<svg xmlns="http://www.w3.org/2000/svg" xmlns:xlink="http://www.w3.org/1999/xlink" width="500" zoomAndPan="magnify" viewBox="0 0 375 374.999991" height="500" preserveAspectRatio="xMidYMid meet" version="1.0"><defs><clipPath id="2b7a909b80"><path d="M 187.5 0 C 83.945312 0 0 83.945312 0 187.5 C 0 291.054688 83.945312 375 187.5 375 C 291.054688 375 375 291.054688 375 187.5 C 375 83.945312 291.054688 0 187.5 0 " clip-rule="nonzero"/></clipPath></defs><g clip-path="url(#2b7a909b80)"><rect x="-37.5" width="450" fill="#545454" y="-37.499999" height="449.999989" fill-opacity="1"/></g><path fill="#2f2e41" d="M 251.722656 183.925781 C 251.722656 185.917969 251.625 187.90625 251.429688 189.890625 C 251.230469 191.875 250.941406 193.84375 250.550781 195.800781 C 250.164062 197.753906 249.679688 199.6875 249.101562 201.59375 C 248.519531 203.5 247.851562 205.375 247.085938 207.21875 C 246.324219 209.058594 245.472656 210.859375 244.535156 212.617188 C 243.59375 214.375 242.570312 216.082031 241.464844 217.742188 C 240.355469 219.398438 239.167969 220.996094 237.90625 222.539062 C 236.640625 224.078125 235.304688 225.554688 233.894531 226.964844 C 232.484375 228.375 231.007812 229.710938 229.46875 230.976562 C 227.925781 232.242188 226.328125 233.425781 224.671875 234.535156 C 223.011719 235.640625 221.304688 236.664062 219.546875 237.605469 C 217.789062 238.542969 215.988281 239.394531 214.148438 240.160156 C 212.304688 240.921875 210.429688 241.59375 208.523438 242.171875 C 206.617188 242.75 204.683594 243.234375 202.730469 243.621094 C 200.773438 244.011719 198.804688 244.304688 196.820312 244.5 C 194.835938 244.695312 192.847656 244.792969 190.855469 244.792969 C 188.859375 244.792969 186.871094 244.695312 184.886719 244.5 C 182.90625 244.304688 180.933594 244.011719 178.980469 243.621094 C 177.023438 243.234375 175.09375 242.75 173.1875 242.171875 C 171.277344 241.59375 169.402344 240.921875 167.5625 240.160156 C 165.71875 239.394531 163.921875 238.542969 162.164062 237.605469 C 160.402344 236.664062 158.695312 235.640625 157.039062 234.535156 C 155.382812 233.425781 153.78125 232.242188 152.242188 230.976562 C 150.699219 229.710938 149.226562 228.375 147.816406 226.964844 C 146.40625 225.554688 145.070312 224.078125 143.804688 222.539062 C 142.539062 220.996094 141.355469 219.398438 140.246094 217.742188 C 139.136719 216.082031 138.113281 214.375 137.175781 212.617188 C 136.234375 210.859375 135.382812 209.058594 134.621094 207.21875 C 133.859375 205.375 133.1875 203.5 132.609375 201.59375 C 132.03125 199.6875 131.546875 197.753906 131.15625 195.800781 C 130.769531 193.84375 130.476562 191.875 130.28125 189.890625 C 130.085938 187.90625 129.988281 185.917969 129.988281 183.925781 C 129.988281 181.933594 130.085938 179.945312 130.28125 177.960938 C 130.476562 175.976562 130.769531 174.007812 131.15625 172.050781 C 131.546875 170.097656 132.03125 168.164062 132.609375 166.257812 C 133.1875 164.347656 133.859375 162.476562 134.621094 160.632812 C 135.382812 158.792969 136.234375 156.992188 137.175781 155.234375 C 138.113281 153.476562 139.136719 151.765625 140.246094 150.109375 C 141.355469 148.453125 142.539062 146.851562 143.804688 145.3125 C 145.070312 143.769531 146.40625 142.296875 147.816406 140.886719 C 149.226562 139.476562 150.699219 138.140625 152.242188 136.875 C 153.78125 135.609375 155.382812 134.425781 157.039062 133.316406 C 158.695312 132.210938 160.402344 131.1875 162.164062 130.246094 C 163.921875 129.304688 165.71875 128.457031 167.5625 127.691406 C 169.402344 126.929688 171.277344 126.257812 173.1875 125.679688 C 175.09375 125.101562 177.023438 124.617188 178.980469 124.230469 C 180.933594 123.839844 182.90625 123.546875 184.886719 123.351562 C 186.871094 123.15625 188.859375 123.058594 190.855469 123.058594 C 192.847656 123.058594 194.835938 123.15625 196.820312 123.351562 C 198.804688 123.546875 200.773438 123.839844 202.730469 124.230469 C 204.683594 124.617188 206.617188 125.101562 208.523438 125.679688 C 210.429688 126.257812 212.304688 126.929688 214.148438 127.691406 C 215.988281 128.457031 217.789062 129.304688 219.546875 130.246094 C 221.304688 131.1875 223.011719 132.210938 224.671875 133.316406 C 226.328125 134.425781 227.925781 135.609375 229.46875 136.875 C 231.007812 138.140625 232.484375 139.476562 233.894531 140.886719 C 235.304688 142.296875 236.640625 143.769531 237.90625 145.3125 C 239.167969 146.851562 240.355469 148.453125 241.464844 150.109375 C 242.570312 151.765625 243.59375 153.476562 244.535156 155.234375 C 245.472656 156.992188 246.324219 158.792969 247.085938 160.632812 C 247.851562 162.476562 248.519531 164.347656 249.101562 166.257812 C 249.679688 168.164062 250.164062 170.097656 250.550781 172.050781 C 250.941406 174.007812 251.230469 175.976562 251.429688 177.960938 C 251.625 179.945312 251.722656 181.933594 251.722656 183.925781 Z M 251.722656 183.925781 " fill-opacity="1" fill-rule="nonzero"/><path fill="#2f2e41" d="M 140.476562 258.421875 L 153.164062 225.996094 L 218.71875 216.128906 L 225.761719 287.90625 L 159.5 289.3125 Z M 140.476562 258.421875 " fill-opacity="1" fill-rule="nonzero"/><path fill="#2f2e41" d="M 252.308594 195.15625 C 251.519531 198.320312 249.921875 205.855469 247.429688 205.894531 C 245.394531 205.921875 243.441406 173.230469 245.476562 167.824219 C 247.816406 161.613281 241.671875 153.753906 237.042969 149.722656 C 228.722656 142.46875 210.253906 158.042969 191.472656 150.988281 C 190.976562 150.800781 191.074219 150.820312 185.144531 148.457031 C 166.894531 141.175781 165.933594 140.964844 164.890625 140.859375 C 156.042969 139.984375 145.246094 147.222656 140.835938 156.050781 C 136.253906 165.226562 140.082031 173.097656 135.773438 195.292969 C 135.273438 197.878906 134.484375 201.566406 133.242188 201.621094 C 130.972656 201.722656 128.757812 189.605469 128.179688 186.433594 C 125.75 173.136719 123.40625 160.316406 128.179688 145.921875 C 128.699219 144.355469 131.910156 138.527344 138.304688 126.933594 C 147.523438 110.238281 152.15625 101.859375 153.496094 100.351562 C 163.101562 89.546875 180.589844 79.695312 195.269531 83.894531 C 202.691406 86.019531 201.359375 89.433594 210.460938 92.757812 C 226.679688 98.679688 240.773438 91.4375 243.375 96.554688 C 244.75 99.265625 240.898438 101.5 240.84375 106.679688 C 240.746094 115.570312 251.988281 118.140625 258.5625 126.933594 C 262.097656 131.664062 268.148438 131.714844 252.308594 195.15625 Z M 252.308594 195.15625 " fill-opacity="1" fill-rule="nonzero"/><path fill="#2f2e41" d="M 327.714844 311.992188 C 325.261719 314.746094 322.71875 317.445312 320.082031 320.082031 C 284.667969 355.496094 237.582031 375 187.5 375 C 144.214844 375 103.167969 360.429688 69.960938 333.609375 C 69.9375 333.59375 69.925781 333.582031 69.902344 333.558594 C 65.5 330.007812 61.234375 326.230469 57.117188 322.238281 C 57.195312 321.621094 57.277344 321.007812 57.371094 320.398438 C 57.949219 316.3125 58.589844 312.414062 59.308594 308.824219 C 65.195312 279.417969 142.640625 248.542969 144.65625 247.738281 C 144.683594 247.734375 144.699219 247.726562 144.699219 247.726562 C 144.699219 247.726562 154.667969 284.464844 197.375 283.992188 C 226.464844 283.675781 220.828125 247.726562 220.828125 247.726562 C 220.828125 247.726562 221.179688 247.796875 221.84375 247.9375 C 230.246094 249.722656 288.582031 262.535156 311.59375 280.023438 C 318.609375 285.351562 323.640625 296.703125 327.257812 310.234375 C 327.414062 310.8125 327.5625 311.40625 327.714844 311.992188 Z M 327.714844 311.992188 " fill-opacity="1" fill-rule="nonzero"/><path fill="#2f2e41" d="M 320.082031 54.917969 C 284.667969 19.503906 237.582031 0 187.5 0 C 137.417969 0 90.332031 19.503906 54.917969 54.917969 C 19.503906 90.332031 0 137.417969 0 187.5 C 0 233.210938 16.246094 276.429688 46.023438 310.550781 C 48.863281 313.816406 51.832031 316.996094 54.917969 320.082031 C 55.644531 320.808594 56.375 321.535156 57.117188 322.238281 C 61.234375 326.230469 65.5 330.007812 69.902344 333.558594 C 69.925781 333.582031 69.9375 333.59375 69.960938 333.609375 C 103.167969 360.429688 144.214844 375 187.5 375 C 237.582031 375 284.667969 355.496094 320.082031 320.082031 C 322.71875 317.445312 325.261719 314.746094 327.714844 311.992188 C 358.289062 277.648438 375 233.859375 375 187.5 C 375 137.417969 355.496094 90.332031 320.082031 54.917969 Z M 327.257812 310.234375 C 321.710938 316.542969 315.746094 322.480469 309.402344 327.984375 C 297.371094 338.453125 283.976562 347.390625 269.535156 354.507812 C 264.464844 357.011719 259.273438 359.289062 253.957031 361.324219 C 233.3125 369.25 210.902344 373.589844 187.5 373.589844 C 164.914062 373.589844 143.261719 369.542969 123.222656 362.144531 C 114.996094 359.113281 107.042969 355.511719 99.410156 351.386719 C 98.289062 350.78125 97.175781 350.167969 96.070312 349.539062 C 90.246094 346.242188 84.613281 342.640625 79.207031 338.746094 C 71.460938 333.195312 64.160156 327.054688 57.371094 320.398438 C 53.5625 316.671875 49.925781 312.785156 46.453125 308.75 C 18.390625 276.152344 1.410156 233.777344 1.410156 187.5 C 1.410156 84.890625 84.890625 1.410156 187.5 1.410156 C 290.109375 1.410156 373.589844 84.890625 373.589844 187.5 C 373.589844 234.488281 356.089844 277.457031 327.257812 310.234375 Z M 327.257812 310.234375 " fill-opacity="1" fill-rule="nonzero"/></svg>