<?xml version="1.0" encoding="utf-8"?>
<svg viewBox="0 0 500 500" xmlns="http://www.w3.org/2000/svg" xmlns:bx="https://boxy-svg.com">
  <defs>
    <linearGradient id="gradient-2" bx:pinned="true">
      <stop offset="1" style="stop-color: rgb(246, 212, 210);"/>
    </linearGradient>
    <linearGradient id="gradient-3" bx:pinned="true">
      <stop offset="0" style="stop-color: rgb(155, 203, 177);"/>
      <stop offset="1" style="stop-color: rgb(226, 162, 162);"/>
    </linearGradient>
    <linearGradient id="color-0" gradientUnits="userSpaceOnUse" gradientTransform="matrix(1.156229, 0, 0, 1, 0, 0)" bx:pinned="true">
      <stop style="stop-color: rgb(174, 19, 38);"/>
    </linearGradient>
    <linearGradient id="color-1" gradientUnits="userSpaceOnUse" bx:pinned="true">
      <stop style="stop-color: rgb(52, 225, 235);"/>
    </linearGradient>
    <linearGradient id="color-2" gradientUnits="userSpaceOnUse" bx:pinned="true">
      <stop style="stop-color: rgb(232, 235, 52);"/>
    </linearGradient>
    <linearGradient id="color-3" gradientUnits="userSpaceOnUse" bx:pinned="true">
      <stop style="stop-color: rgb(193, 107, 207);"/>
    </linearGradient>
    <linearGradient id="color-6" gradientUnits="userSpaceOnUse" bx:pinned="true">
      <stop style="stop-color: rgb(187, 157, 171);"/>
    </linearGradient>
    <linearGradient id="color-7" gradientUnits="userSpaceOnUse" bx:pinned="true">
      <title>current grey</title>
      <stop style="stop-color: rgb(142, 124, 137);"/>
    </linearGradient>
    <linearGradient id="color-4" gradientUnits="userSpaceOnUse" bx:pinned="true">
      <stop style="stop-color: rgb(235, 143, 52);"/>
    </linearGradient>
    <linearGradient id="color-5" gradientUnits="userSpaceOnUse" gradientTransform="matrix(2.824007, 0, 0, 1, -762.877171, 0)" bx:pinned="true">
      <stop style="stop-color: rgb(51, 235, 124);"/>
    </linearGradient>
  </defs>
  <path style="stroke: rgba(0, 0, 0, 0); fill: url('#color-6');" d="M 95.104 373.314 L 87.721 497.021 L -6.498 502.589 L -5.977 163.042 L -4.603 -13.034 L 247.893 -3.527 L 297.707 -5.207 L 228.868 300.576 L 155.703 282.671 L 145.061 317.225 L 127.258 328.871 L 117.583 337.874 L 106.236 351.444 L 95.104 373.314 Z"/>
  <path style="stroke: rgba(0, 0, 0, 0); fill: url('#color-6');" d="M 412.253 499.532 L 401.486 357.487 L 397.532 344.598 C 397.532 344.598 391.586 328.665 390.039 325.742 L 380.66 310.448 L 366.531 308.254 L 355.884 298.423 L 329.787 176.679 L 258.728 96.886 L 268.419 -3.643 L 457.189 -2.834 L 498.629 -11.534 L 505.182 487.494 L 498.249 502.95 L 412.253 499.532 Z"/>
  <polygon points="335.146 297.516 223.017 297.516 223.017 145.762 319.97 198.876 335.146 297.516" style="fill: rgb(255, 235, 181);"/>
  <circle cx="243.731" cy="197.933" r="72.799" style="" fill="#ffb6b6"/>
  <polygon points="201.94 281.497 198.65 248.251 264.327 235.971 303.109 330.396 235.663 407.958 187.607 313.534 201.94 281.497" style="" fill="#ffb6b6"/>
  <path d="M 400.779 358.251 C 399.961 359.102 399.127 359.945 398.292 360.78 C 395.645 363.427 392.947 365.999 390.19 368.494 C 348.879 405.96 295.875 426.464 239.718 426.464 C 187.945 426.464 138.852 409.038 99.135 376.959 C 99.11 376.942 99.093 376.925 99.068 376.9 C 97.862 375.93 96.673 374.944 95.485 373.94 C 95.695 373.333 95.923 372.735 96.151 372.145 C 108.923 338.868 134.148 322.589 149.458 315.465 C 157.046 311.932 162.197 310.642 162.197 310.642 L 180.171 278.268 L 192.826 301.874 L 202.15 319.275 L 240.409 390.659 L 273.416 308.476 L 283.642 282.998 L 286.264 276.472 L 298.733 286.176 L 310.536 295.357 L 334.303 300.601 L 353.584 304.859 L 379.77 310.642 C 390.359 319.267 396.8 335.673 400.4 356.059 C 400.535 356.784 400.661 357.517 400.779 358.251 Z" style="fill: rgba(168, 33, 48, 0);"/>
  <g transform="matrix(1, 0, 0, 1, 0.583837, -4.523372)">
    <path d="M 204.855 119.727 C 213.722 104.832 230.009 94.612 247.278 93.105 C 264.548 91.599 282.358 98.845 293.67 111.981 C 300.411 119.808 304.831 129.394 311.402 137.364 C 325.543 154.517 349.655 164.547 355.832 185.901 C 358.527 195.219 357.184 205.168 355.82 214.772 C 354.651 223.004 353.482 231.236 352.313 239.467 C 351.403 245.874 350.53 252.628 352.932 258.636 C 355.751 265.684 362.495 270.301 366.856 276.515 C 374.276 287.088 373.733 302.569 365.591 312.597 C 362.06 316.946 357.38 320.226 353.678 324.431 C 349.976 328.635 347.231 334.383 348.781 339.766 C 351.75 350.079 367.922 352.552 369.696 363.135 C 370.603 368.546 366.866 373.95 361.968 376.424 C 357.072 378.899 351.308 378.97 345.861 378.308 C 325.161 375.792 305.994 362.857 295.916 344.602 C 285.837 326.347 285.104 303.236 294.003 284.378 C 301.313 268.89 314.9 255.203 314.751 238.077 C 314.67 228.747 310.391 220.033 306.207 211.693 C 297.641 194.624 289.076 177.555 280.511 160.487 C 275.923 151.344 270.598 141.491 261.154 137.563 C 253.853 134.527 245.571 135.705 237.762 136.947 C 229.955 138.188 221.684 139.397 214.362 136.414 C 207.041 133.431 201.508 124.569 204.997 117.474" style="fill: rgb(255, 235, 181);"/>
    <path d="M 217.612 120.505 C 203.547 115.875 187.77 123.308 178.248 134.647 C 168.725 145.986 164.107 160.534 159.707 174.673 C 157.186 182.771 154.666 190.87 152.146 198.969 C 149.775 206.587 147.404 214.205 145.032 221.823 C 142.244 230.784 139.433 240.304 141.721 249.405 C 143.376 255.985 147.633 261.959 147.725 268.743 C 147.821 275.83 143.383 282.051 139.493 287.976 C 135.604 293.901 131.954 300.94 133.806 307.781 C 136.625 318.186 151.091 323.906 150.298 334.656 C 150.034 338.244 147.959 341.562 147.997 345.16 C 148.044 349.737 151.628 353.692 155.826 355.516 C 160.025 357.339 164.748 357.438 169.324 357.358 C 183.363 357.111 197.376 355.444 211.08 352.39 C 216.352 351.215 221.714 349.775 226.103 346.625 C 230.493 343.476 233.766 338.258 233.195 332.886 C 232.305 324.516 223.305 319.767 218.764 312.679 C 214.302 305.718 214.406 296.898 212.482 288.856 C 209.839 277.805 203.309 268.156 198.408 257.905 C 179.981 219.363 186.432 170.236 214.184 137.757 C 216.637 134.886 219.318 131.996 220.342 128.361 C 221.366 124.725 220.046 120.092 216.49 118.821" style="fill: rgb(255, 235, 181);"/>
  </g>
</svg>