<?xml version="1.0" encoding="utf-8"?>
<svg viewBox="0 0 500 500" xmlns="http://www.w3.org/2000/svg" xmlns:bx="https://boxy-svg.com">
  <defs>
    <linearGradient id="gradient-2" bx:pinned="true">
      <stop offset="1" style="stop-color: rgb(246, 212, 210);"/>
    </linearGradient>
    <linearGradient id="gradient-3" bx:pinned="true">
      <stop offset="0" style="stop-color: rgb(155, 203, 177);"/>
      <stop offset="1" style="stop-color: rgb(226, 162, 162);"/>
    </linearGradient>
    <linearGradient id="color-0" gradientUnits="userSpaceOnUse" gradientTransform="matrix(1.156229, 0, 0, 1, 0, 0)" bx:pinned="true">
      <stop style="stop-color: rgb(174, 19, 38);"/>
    </linearGradient>
    <linearGradient id="color-1" gradientUnits="userSpaceOnUse" bx:pinned="true">
      <stop style="stop-color: rgb(52, 225, 235);"/>
    </linearGradient>
    <linearGradient id="color-2" gradientUnits="userSpaceOnUse" bx:pinned="true">
      <stop style="stop-color: rgb(232, 235, 52);"/>
    </linearGradient>
    <linearGradient id="color-3" gradientUnits="userSpaceOnUse" bx:pinned="true">
      <stop style="stop-color: rgb(193, 107, 207);"/>
    </linearGradient>
    <linearGradient id="color-6" gradientUnits="userSpaceOnUse" bx:pinned="true">
      <stop style="stop-color: rgb(187, 157, 171);"/>
    </linearGradient>
    <linearGradient id="color-7" gradientUnits="userSpaceOnUse" bx:pinned="true">
      <title>current grey</title>
      <stop style="stop-color: rgb(142, 124, 137);"/>
    </linearGradient>
    <linearGradient id="color-4" gradientUnits="userSpaceOnUse" bx:pinned="true">
      <stop style="stop-color: rgb(235, 143, 52);"/>
    </linearGradient>
    <linearGradient id="color-5" gradientUnits="userSpaceOnUse" gradientTransform="matrix(2.824007, 0, 0, 1, -762.877171, 0)" bx:pinned="true">
      <stop style="stop-color: rgb(51, 235, 124);"/>
    </linearGradient>
  </defs>
  <path style="stroke: rgba(0, 0, 0, 0); fill: url('#color-6');" d="M 436.072 501.631 L 422.498 391.41 L 420.932 382.181 L 416.06 362.459 L 413.143 353.825 L 411.379 348.264 L 407.777 340.843 L 404.015 334.367 L 401.353 330.981 L 395.998 325.296 L 390.292 319.561 L 382.21 314.002 L 374.387 310.134 L 367.549 307.377 L 356.73 304.789 L 342.692 302.259 L 324.398 297.582 L 314.352 293.597 L 292.556 284.765 L 291.12 282.11 L 224.413 77.181 L 225.14 -48.731 L 506.289 -55.122 L 508.957 508.758 L 436.072 501.631 Z"/>
  <path style="stroke: rgba(0, 0, 0, 0); fill: url('#color-6');" d="M 47.529 506.781 L 65.828 365.014 L 72.629 346.543 L 82.524 332.214 L 94.131 320.889 L 105.224 313.17 L 113.616 309.405 L 130.93 305.817 L 151.536 301.973 L 161.328 300.101 L 221.884 262.094 L 266.111 -48.481 L -7.367 -46.745 L -4.272 513.932 L 47.529 506.781 Z"/>
  <polygon points="293.492 279.321 299.258 240.438 218.027 207.344 211.348 286.244 293.597 286.106" style="fill: rgb(252, 182, 182);"/>
  <path d="M 368.863 426.807 C 361.889 430.207 354.782 433.277 347.569 436 C 333.142 441.459 318.25 445.578 302.973 448.328 C 288.042 451.024 272.712 452.392 257.382 452.392 C 236.672 452.392 216.081 449.908 196.168 444.993 C 188.37 443.08 180.506 440.743 172.775 438.018 C 171.964 437.727 171.141 437.435 170.33 437.141 C 160.739 433.662 151.307 429.583 142.234 424.974 C 141.012 424.363 139.79 423.738 138.568 423.074 C 137.213 422.383 135.871 421.653 134.516 420.895 C 132.789 419.952 131.075 418.969 129.361 417.973 C 123.623 414.652 117.977 411.065 112.584 407.332 L 112.225 407.094 C 111.906 406.868 111.587 406.655 111.282 406.429 C 111.481 405.38 111.667 404.422 111.84 403.573 C 112.504 400.239 112.942 398.406 112.942 398.406 L 149.314 323.269 L 159.45 302.334 L 164.392 300.301 L 201.721 284.958 L 292.957 284.958 L 321.744 296.86 C 321.744 296.86 321.89 297.405 322.182 298.455 C 325.052 308.75 341.79 367.201 367.761 424.389 C 368.119 425.186 368.491 425.996 368.863 426.807 Z" class="color-change" style="fill: rgba(168, 33, 48, 0);"/>
  <circle cx="266.696" cy="181.781" r="82.836" style="fill: rgb(252, 182, 182);"/>
  <path d="M 164.537 299.588 L 164.395 300.3 L 139.14 420.377 L 138.921 421.423 L 138.569 423.077 C 137.21 422.383 135.87 421.651 134.52 420.9 C 132.79 419.949 131.08 418.97 129.359 417.972 C 123.628 414.655 117.982 411.062 112.583 407.336 L 112.222 407.089 C 111.908 406.871 111.585 406.652 111.281 406.433 C 107.155 403.553 103.135 400.55 99.209 397.451 C 99.181 397.432 99.162 397.413 99.133 397.385 C 92.128 391.739 85.38 385.665 78.926 379.211 C 74.762 375.048 70.761 370.761 66.93 366.36 L 67.51 363.927 L 67.567 363.68 L 68.29 360.581 C 74.715 333.444 96.453 312.619 123.837 307.372 L 160.222 300.405 L 164.537 299.588 Z" class="color-change" style="fill: rgba(168, 33, 48, 0);"/>
  <path d="M 422.518 391.696 C 411.798 400.823 400.307 409.086 388.178 416.339 C 386.996 417.057 385.787 417.76 384.578 418.464 C 379.424 421.44 374.177 424.217 368.863 426.807 C 361.889 430.207 354.782 433.277 347.569 436 L 347.011 433.369 L 318.489 297.75 L 322.182 298.455 L 359.193 305.548 C 386.571 310.796 408.318 331.625 414.734 358.764 L 421.814 388.747 L 422.518 391.696 Z" class="color-change" style="fill: rgba(168, 33, 48, 0);"/>
  <path d="M 362.088 203.924 C 359.936 211.948 349.11 247.802 321.385 255.347 C 315.939 256.835 302.947 258.549 306.388 255.347 C 307.171 254.617 307.928 253.899 308.686 253.195 C 338.774 224.9 351.049 207.604 345.443 169.212 C 341.883 144.769 301.34 122.571 278.53 120.365 C 268.912 119.437 256.638 122.69 248.535 131.073 C 235.157 144.888 237.362 187.293 229.95 212.201 C 227.957 218.869 225.287 224.289 221.448 227.57 C 219.057 229.615 217.529 227.012 216.4 222.748 C 213.996 213.687 213.371 197.096 209.957 201.785 C 200.087 215.375 209.492 233.388 212.335 240.336 C 212.92 241.758 213.517 243.125 214.115 244.428 L 214.115 244.441 C 214.46 245.184 214.819 245.929 215.165 246.633 L 215.165 246.646 C 224.649 265.987 231.594 260.086 237.732 274.522 C 250.647 304.897 250.955 311.048 251.256 325.848 C 251.553 340.447 252.442 353.948 219.243 368.078 C 196.313 377.838 207.103 394.913 189.405 408.813 C 183.936 413.109 166.331 423.134 163.159 456.475 C 154.634 446.942 134.405 436.344 146.034 408.933 C 167.756 357.729 105.636 354.708 173.532 283.204 C 185.093 271.028 195.464 266.015 197.098 253.208 C 199.436 234.929 180.4 229.43 173.532 201.785 C 168.843 182.882 163.94 155.636 168.696 137.277 C 173.186 119.928 177.092 104.877 190.124 90.131 C 193.259 86.597 206.679 64.207 252.345 60.557 C 288.272 57.685 274.192 72.853 291.025 73.851 C 310.568 75.01 321.412 84.34 332.092 92.509 C 350.146 106.298 355.233 126.915 359.949 146.071 C 363.643 161.056 368.425 180.438 362.088 203.924 Z" fill="#2f2e41"/>
</svg>