<?xml version="1.0" encoding="utf-8"?>
<svg viewBox="0 0 500 500" xmlns="http://www.w3.org/2000/svg">
  <path style="stroke: rgba(0, 0, 0, 0); fill: rgb(246, 212, 210);" d="M 261.273 494.067 L 278.985 492.836 L 296.12 490.112 L 311.679 486.979 L 323.364 483.435 L 338.092 478.98 L 347.089 475.385 L 360.053 469.94 L 372.46 464.435 L 381.882 458.585 L 393.037 451.469 L 406.844 441.613 L 416.915 433.127 L 415.349 423.898 L 410.477 404.176 L 407.56 395.542 L 405.796 389.981 L 402.194 382.56 L 398.432 376.084 L 395.77 372.698 L 390.415 367.013 L 384.709 361.278 L 376.627 355.719 L 368.804 351.851 L 361.966 349.094 L 351.147 346.506 L 337.109 343.976 L 318.815 339.299 L 308.769 335.314 L 286.973 326.482 L 285.537 323.827 L 218.83 118.898 L 219.557 -7.014 L 500.706 -13.405 L 503.311 519.12 L 251.246 535.188 L 261.273 494.067 Z"/>
  <path style="fill: rgb(246, 212, 210); stroke: rgba(0, 0, 0, 0);" d="M 278.949 491.883 L 257.328 493.482 L 235.66 494.361 L 209.204 490.414 L 177.155 482.496 L 150.484 473.216 L 131.542 463.89 L 113.715 453.485 L 94.89 439.239 L 81.239 428.45 L 70.588 418.539 L 60.245 406.731 L 67.046 388.26 L 76.941 373.931 L 88.548 362.606 L 99.641 354.887 L 108.033 351.122 L 125.347 347.534 L 145.953 343.69 L 155.745 341.818 L 216.301 303.811 L 260.528 -6.764 L -12.95 -5.028 L -9.795 522.295 L 275.974 534.537 L 278.949 491.883 Z"/>
  <polygon points="287.909 321.038 293.675 282.155 212.444 249.061 205.765 327.961 288.014 327.823" style="fill: rgb(252, 182, 182);"/>
  <path d="M 363.28 468.524 C 356.306 471.924 349.199 474.994 341.986 477.717 C 327.559 483.176 312.667 487.295 297.39 490.045 C 282.459 492.741 267.129 494.109 251.799 494.109 C 231.089 494.109 210.498 491.625 190.585 486.71 C 182.787 484.797 174.923 482.46 167.192 479.735 C 166.381 479.444 165.558 479.152 164.747 478.858 C 155.156 475.379 145.724 471.3 136.651 466.691 C 135.429 466.08 134.207 465.455 132.985 464.791 C 131.63 464.1 130.288 463.37 128.933 462.612 C 127.206 461.669 125.492 460.686 123.778 459.69 C 118.04 456.369 112.394 452.782 107.001 449.049 L 106.642 448.811 C 106.323 448.585 106.004 448.372 105.699 448.146 C 105.898 447.097 106.084 446.139 106.257 445.29 C 106.921 441.956 107.359 440.123 107.359 440.123 L 143.731 364.986 L 153.867 344.051 L 158.809 342.018 L 196.138 326.675 L 287.374 326.675 L 316.161 338.577 C 316.161 338.577 316.307 339.122 316.599 340.172 C 319.469 350.467 336.207 408.918 362.178 466.106 C 362.536 466.903 362.908 467.713 363.28 468.524 L 363.28 468.524 L 363.28 468.524 Z" class="color-change" style="fill: rgba(168, 33, 48, 0);"/>
  <circle cx="261.113" cy="223.498" r="82.836" style="fill: rgb(252, 182, 182);"/>
  <path d="M 158.954 341.305 L 158.812 342.017 L 133.557 462.094 L 133.338 463.14 L 132.986 464.794 C 131.627 464.1 130.287 463.368 128.937 462.617 C 127.207 461.666 125.497 460.687 123.776 459.689 C 118.045 456.372 112.399 452.779 107 449.053 L 106.639 448.806 C 106.325 448.588 106.002 448.369 105.698 448.15 C 101.572 445.27 97.552 442.267 93.626 439.168 C 93.598 439.149 93.579 439.13 93.55 439.102 C 86.545 433.456 79.797 427.382 73.343 420.928 C 69.179 416.765 65.178 412.478 61.347 408.077 L 61.927 405.644 L 61.984 405.397 L 62.707 402.298 C 69.132 375.161 90.87 354.336 118.254 349.089 L 154.639 342.122 L 158.954 341.305 L 158.954 341.305 Z" class="color-change" style="fill: rgba(168, 33, 48, 0);"/>
  <path d="M 416.935 433.413 C 406.215 442.54 394.724 450.803 382.595 458.056 C 381.413 458.774 380.204 459.477 378.995 460.181 C 373.841 463.157 368.594 465.934 363.28 468.524 C 356.306 471.924 349.199 474.994 341.986 477.717 L 341.428 475.086 L 312.906 339.467 L 316.599 340.172 L 353.61 347.265 C 380.988 352.513 402.735 373.342 409.151 400.481 L 416.231 430.464 L 416.935 433.413 L 416.935 433.413 L 416.935 433.413 Z" class="color-change" style="fill: rgba(168, 33, 48, 0);"/>
  <path d="M 356.505 245.641 C 354.353 253.665 343.527 289.519 315.802 297.064 C 310.356 298.552 297.364 300.266 300.805 297.064 C 301.588 296.334 302.345 295.616 303.103 294.912 C 333.191 266.617 345.466 249.321 339.86 210.929 C 336.3 186.486 295.757 164.288 272.947 162.082 C 263.329 161.154 251.055 164.407 242.952 172.79 C 229.574 186.605 231.779 229.01 224.367 253.918 C 222.374 260.586 219.704 266.006 215.865 269.287 C 213.474 271.332 211.946 268.729 210.817 264.465 C 208.413 255.404 207.788 238.813 204.374 243.502 C 194.504 257.092 203.909 275.105 206.752 282.053 C 207.337 283.475 207.934 284.842 208.532 286.145 L 208.532 286.158 C 208.877 286.901 209.236 287.646 209.582 288.35 L 209.582 288.363 C 219.066 307.704 230.464 314.625 240.507 326.675 C 244.453 331.39 248.186 336.877 251.52 344.21 C 253.805 349.232 255.452 354.28 256.581 359.234 C 262.333 384.076 255.505 406.646 253.659 412.784 C 249.793 425.563 243.151 447.521 223.663 459.915 C 199.193 475.485 176.863 461.763 166.182 476.548 C 166.049 476.72 165.929 476.893 165.81 477.065 C 165.411 477.664 165.053 478.262 164.747 478.858 C 155.156 475.379 145.724 471.3 136.651 466.691 C 135.429 466.08 134.207 465.455 132.985 464.791 C 131.63 464.1 130.288 463.37 128.933 462.612 C 128.88 461.576 128.827 460.541 128.787 459.491 C 128.003 441.517 129.185 421.763 133.662 402.063 C 136.531 389.483 139.374 377.008 143.731 364.986 C 146.574 357.149 150.055 349.497 154.638 342.124 C 158.305 336.199 162.661 330.447 167.949 324.921 C 179.559 312.792 189.881 307.732 191.515 294.925 C 193.853 276.646 174.817 271.147 167.949 243.502 C 163.26 224.599 158.357 197.353 163.113 178.994 C 167.603 161.645 171.509 146.594 184.541 131.848 C 187.676 128.314 213.408 103.738 243.217 99.7 C 256.953 97.854 269.201 115.442 285.807 119.228 C 304.896 123.572 315.829 126.057 326.509 134.226 C 344.563 148.015 349.65 168.632 354.366 187.788 C 358.06 202.773 362.842 222.155 356.505 245.641 L 356.505 245.641 L 356.505 245.641 Z" style="fill: rgb(254, 235, 181);"/>
</svg>