<?xml version="1.0" encoding="utf-8"?>
<svg viewBox="0 0 500 500" xmlns="http://www.w3.org/2000/svg" xmlns:bx="https://boxy-svg.com">
  <defs>
    <linearGradient id="gradient-2" bx:pinned="true">
      <stop offset="1" style="stop-color: rgb(246, 212, 210);"/>
    </linearGradient>
    <linearGradient id="gradient-3" bx:pinned="true">
      <stop offset="0" style="stop-color: rgb(155, 203, 177);"/>
      <stop offset="1" style="stop-color: rgb(226, 162, 162);"/>
    </linearGradient>
    <linearGradient id="color-0" gradientUnits="userSpaceOnUse" gradientTransform="matrix(1.156229, 0, 0, 1, 0, 0)" bx:pinned="true">
      <stop style="stop-color: rgb(174, 19, 38);"/>
    </linearGradient>
    <linearGradient id="color-1" gradientUnits="userSpaceOnUse" bx:pinned="true">
      <stop style="stop-color: rgb(52, 225, 235);"/>
    </linearGradient>
    <linearGradient id="color-2" gradientUnits="userSpaceOnUse" bx:pinned="true">
      <stop style="stop-color: rgb(232, 235, 52);"/>
    </linearGradient>
    <linearGradient id="color-3" gradientUnits="userSpaceOnUse" bx:pinned="true">
      <stop style="stop-color: rgb(193, 107, 207);"/>
    </linearGradient>
    <linearGradient id="color-6" gradientUnits="userSpaceOnUse" bx:pinned="true">
      <stop style="stop-color: rgb(187, 157, 171);"/>
    </linearGradient>
    <linearGradient id="color-7" gradientUnits="userSpaceOnUse" bx:pinned="true">
      <title>current grey</title>
      <stop style="stop-color: rgb(142, 124, 137);"/>
    </linearGradient>
    <linearGradient id="color-4" gradientUnits="userSpaceOnUse" bx:pinned="true">
      <stop style="stop-color: rgb(235, 143, 52);"/>
    </linearGradient>
    <linearGradient id="color-5" gradientUnits="userSpaceOnUse" gradientTransform="matrix(2.824007, 0, 0, 1, -762.877171, 0)" bx:pinned="true">
      <stop style="stop-color: rgb(51, 235, 124);"/>
    </linearGradient>
  </defs>
  <path style="stroke: rgba(0, 0, 0, 0); fill: url('#color-6');" d="M 287.609 217.711 L 292.766 214.177 L 296.007 210.571 L 298.28 206.496 L 298.258 203.525 L 296.95 200.813 L 294.909 198.296 L 292.821 196.365 L 289.684 193.809 L 286.9 192.308 L 286.347 192 L 283.277 193.929 L 280.453 195.69 L 217.754 110.983 L 206.303 -10.852 L 511.937 -6.381 L 518.324 504.086 L 255.807 510.119 L 274.611 229.844 L 287.609 217.711 Z"/>
  <path style="stroke: rgba(0, 0, 0, 0); fill: url('#color-6');" d="M 194.753 240.298 L 188.361 236.133 L 184.768 231.289 L 182.64 226.702 L 183.411 215.122 L 184.266 202.322 L 185.969 192.191 L 187.937 185.6 L 189.337 183.741 L 190.6 183.247 L 192.084 183.156 L 197.831 184.303 L 223.879 -6.249 L -2.134 -10.161 L 0.13 505.228 L 279.008 504.608 L 194.753 240.298 Z"/>
  <path d="M 197.371 184.222 C 251.702 227.095 286.349 192.402 286.349 192.402 L 268.878 143.066 C 268.878 143.066 276.84 123.369 279.355 105.768 C 281.869 88.168 263.43 71.405 240.8 54.642 C 230.9 47.308 219.556 47.836 209.926 50.749 C 199.123 54.018 189.7 60.739 182.738 69.62 C 176.969 76.979 167.075 87.402 156.199 89.207 C 152.436 89.827 148.723 91.319 145.253 94.035 C 141.666 96.842 140.081 101.528 140.031 107.353 C 139.763 132.798 160.775 163.432 179.197 168.21 C 201.827 174.077 197.371 184.222 197.371 184.222 Z" fill="#3f3d56" style=""/>
  <path d="M 299.052 308.178 L 289.832 423.003 C 289.832 423.003 302.404 454.852 259.659 453.176 C 216.914 451.5 242.058 386.125 242.058 386.125 L 255.469 300.635" fill="#3f3d56" style=""/>
  <path d="M 262.839 454.078 C 261.794 454.078 260.725 454.057 259.626 454.013 C 250.163 453.643 243.196 450.158 238.915 443.656 C 226.676 425.064 240.288 388.417 241.244 385.909 L 254.64 300.505 C 254.712 300.048 255.138 299.74 255.598 299.807 C 256.055 299.879 256.368 300.308 256.297 300.766 L 242.886 386.256 C 242.876 386.314 242.862 386.371 242.84 386.427 C 242.694 386.806 228.381 424.608 240.316 442.735 C 244.283 448.759 250.801 451.99 259.692 452.339 C 273.649 452.884 283.036 449.906 287.599 443.481 C 293.57 435.077 289.098 423.427 289.052 423.311 C 289.005 423.192 288.986 423.064 288.996 422.936 L 298.215 308.111 C 298.252 307.65 298.649 307.314 299.119 307.343 C 299.58 307.381 299.924 307.785 299.887 308.246 L 290.682 422.882 C 291.291 424.526 295.109 435.793 288.973 444.442 C 284.433 450.842 275.648 454.078 262.839 454.078 Z" fill="#2f2e41" style=""/>
  <path d="M 222.781 331.646 C 222.781 331.646 225.296 438.09 172.493 435.575 C 119.69 433.061 167.464 399.535 167.464 399.535 L 172.074 386.544" fill="#3f3d56" style=""/>
  <path d="M 174.305 436.457 C 173.692 436.457 173.076 436.442 172.453 436.413 C 157.376 435.695 148.858 432.317 147.134 426.373 C 144.03 415.663 164.265 400.792 166.763 399.006 L 171.284 386.264 C 171.439 385.828 171.917 385.6 172.354 385.755 C 172.79 385.91 173.018 386.388 172.864 386.824 L 168.254 399.815 C 168.196 399.98 168.088 400.122 167.945 400.222 C 167.724 400.377 145.837 415.882 148.744 425.906 C 150.247 431.087 158.25 434.058 172.532 434.738 C 182.044 435.196 190.382 431.997 197.3 425.243 C 223.242 399.918 221.959 332.345 221.943 331.666 C 221.932 331.204 222.298 330.82 222.761 330.808 C 223.199 330.809 223.608 331.164 223.619 331.627 C 223.686 334.431 224.937 400.604 198.473 426.441 C 191.66 433.092 183.536 436.457 174.305 436.457 Z" fill="#2f2e41" style=""/>
  <path d="M 140.032 107.353 C 146.05 108.073 155.47 108.04 163.274 102.835 C 171.63 97.261 162.955 92.065 156.2 89.207 C 152.436 89.827 148.723 91.319 145.254 94.035 C 141.666 96.842 140.082 101.528 140.032 107.353 Z" fill="#2f2e41" style=""/>
  <path d="M 237.279 92.282 C 237.279 92.282 222.654 54.72 243.601 54.195 C 264.548 53.669 281.093 86.22 281.093 86.22 C 281.093 86.22 333.668 182.054 261.636 176.886 C 189.605 171.718 224.026 133.462 224.026 133.462 C 224.026 133.462 240.455 113.263 237.279 92.282 C 237.279 92.282 237.279 92.282 237.279 92.282 Z" fill="#2f2e41" style=""/>
  <path d="M 317.523 372.98 C 326.799 377.107 336.491 381.318 346.636 380.915 C 356.781 380.512 367.456 373.979 369.038 363.95 C 369.853 358.773 368.235 353.218 370.217 348.366 C 372.884 341.839 381.487 339.321 388.175 341.558 C 394.862 343.795 399.776 349.564 403.298 355.673 C 409.889 367.102 412.53 382.103 405.463 393.245 C 399.337 402.903 387.719 407.268 376.911 411.011 C 362.516 415.997 346.444 420.946 332.495 414.821 C 318.466 408.662 310.825 390.864 316.02 376.45" fill="#3f3d56" style=""/>
  <path d="M 286.575 192.002 C 286.575 192.002 305.014 201.221 295.795 211.279 C 286.575 221.337 229.582 249.833 208.628 245.643 C 187.675 241.452 182.646 228.88 182.646 225.527 C 182.646 222.175 184.227 181.62 190.932 183.296 C 197.637 184.972 239.64 223.013 286.575 192.002 Z" style="fill: rgba(168, 33, 48, 0);"/>
  <path d="M 175.846 416.298 C 180.036 436.413 203.923 411.688 203.923 411.688 L 232.42 408.336 C 232.42 408.336 250.44 408.755 262.174 417.974 C 273.908 427.194 281.87 415.041 281.87 415.041 C 295.089 419.448 311.285 419.43 325.312 418.019 C 345.525 415.985 361.726 400.384 364.504 380.26 C 380.174 266.742 294.904 211.481 294.904 211.481 C 294.904 211.481 247.728 238.16 238.098 241.073 C 227.295 244.342 186.598 234.246 186.598 234.246 C 149.72 286.21 178.778 339.609 178.778 339.609 L 172.073 386.544 C 172.073 386.544 171.654 396.183 175.845 416.298 L 175.846 416.298 Z" fill="#3f3d56" style=""/>
</svg>