<?xml version="1.0" encoding="utf-8"?>
<svg viewBox="0 0 500 500" xmlns="http://www.w3.org/2000/svg">
  <path style="fill: rgb(246, 212, 210); stroke: rgba(0, 0, 0, 0);" d="M 278.543 220.593 L 283.7 217.059 L 286.941 213.453 L 289.214 209.378 L 289.192 206.407 L 287.884 203.695 L 285.843 201.178 L 283.755 199.247 L 280.618 196.691 L 277.834 195.19 L 277.281 194.882 L 274.211 196.811 L 271.387 198.572 L 208.688 113.865 L 197.237 -7.97 L 502.871 -3.499 L 509.258 506.968 L 246.741 513.001 L 265.545 232.726 L 278.543 220.593 Z"/>
  <path style="stroke: rgba(0, 0, 0, 0); fill: rgb(246, 212, 210);" d="M 185.687 243.18 L 179.295 239.015 L 175.702 234.171 L 173.574 229.584 L 174.345 218.004 L 175.2 205.204 L 176.903 195.073 L 178.871 188.482 L 180.271 186.623 L 181.534 186.129 L 183.018 186.038 L 188.765 187.185 L 214.813 -3.367 L -11.2 -7.279 L -8.936 508.11 L 269.942 507.49 L 185.687 243.18 Z"/>
  <path d="M 188.305 187.104 C 242.636 229.977 277.283 195.284 277.283 195.284 L 259.812 145.948 C 259.812 145.948 267.774 126.251 270.289 108.65 C 272.803 91.05 254.364 74.287 231.734 57.524 C 221.834 50.19 210.49 50.718 200.86 53.631 C 190.057 56.9 180.634 63.621 173.672 72.502 C 167.903 79.861 158.009 90.284 147.133 92.089 C 143.37 92.709 139.657 94.201 136.187 96.917 C 132.6 99.724 131.015 104.41 130.965 110.235 C 130.697 135.68 151.709 166.314 170.131 171.092 C 192.761 176.959 188.305 187.104 188.305 187.104 Z" fill="#3f3d56" style=""/>
  <path d="M 289.986 311.06 L 280.766 425.885 C 280.766 425.885 293.338 457.734 250.593 456.058 C 207.848 454.382 232.992 389.007 232.992 389.007 L 246.403 303.517" fill="#3f3d56" style=""/>
  <path d="M 253.773 456.96 C 252.728 456.96 251.659 456.939 250.56 456.895 C 241.097 456.525 234.13 453.04 229.849 446.538 C 217.61 427.946 231.222 391.299 232.178 388.791 L 245.574 303.387 C 245.646 302.93 246.072 302.622 246.532 302.689 C 246.989 302.761 247.302 303.19 247.231 303.648 L 233.82 389.138 C 233.81 389.196 233.796 389.253 233.774 389.309 C 233.628 389.688 219.315 427.49 231.25 445.617 C 235.217 451.641 241.735 454.872 250.626 455.221 C 264.583 455.766 273.97 452.788 278.533 446.363 C 284.504 437.959 280.032 426.309 279.986 426.193 C 279.939 426.074 279.92 425.946 279.93 425.818 L 289.149 310.993 C 289.186 310.532 289.583 310.196 290.053 310.225 C 290.514 310.263 290.858 310.667 290.821 311.128 L 281.616 425.764 C 282.225 427.408 286.043 438.675 279.907 447.324 C 275.367 453.724 266.582 456.96 253.773 456.96 Z" fill="#2f2e41" style=""/>
  <path d="M 213.715 334.528 C 213.715 334.528 216.23 440.972 163.427 438.457 C 110.624 435.943 158.398 402.417 158.398 402.417 L 163.008 389.426" fill="#3f3d56" style=""/>
  <path d="M 165.239 439.339 C 164.626 439.339 164.01 439.324 163.387 439.295 C 148.31 438.577 139.792 435.199 138.068 429.255 C 134.964 418.545 155.199 403.674 157.697 401.888 L 162.218 389.146 C 162.373 388.71 162.851 388.482 163.288 388.637 C 163.724 388.792 163.952 389.27 163.798 389.706 L 159.188 402.697 C 159.13 402.862 159.022 403.004 158.879 403.104 C 158.658 403.259 136.771 418.764 139.678 428.788 C 141.181 433.969 149.184 436.94 163.466 437.62 C 172.978 438.078 181.316 434.879 188.234 428.125 C 214.176 402.8 212.893 335.227 212.877 334.548 C 212.866 334.086 213.232 333.702 213.695 333.69 C 214.133 333.691 214.542 334.046 214.553 334.509 C 214.62 337.313 215.871 403.486 189.407 429.323 C 182.594 435.974 174.47 439.339 165.239 439.339 Z" fill="#2f2e41" style=""/>
  <path d="M 130.966 110.235 C 136.984 110.955 146.404 110.922 154.208 105.717 C 162.564 100.143 153.889 94.947 147.134 92.089 C 143.37 92.709 139.657 94.201 136.188 96.917 C 132.6 99.724 131.016 104.41 130.966 110.235 Z" fill="#2f2e41" style=""/>
  <path d="M 228.213 95.164 C 228.213 95.164 213.588 57.602 234.535 57.077 C 255.482 56.551 272.027 89.102 272.027 89.102 C 272.027 89.102 324.602 184.936 252.57 179.768 C 180.539 174.6 214.96 136.344 214.96 136.344 C 214.96 136.344 231.389 116.145 228.213 95.164 C 228.213 95.164 228.213 95.164 228.213 95.164 Z" fill="#2f2e41" style=""/>
  <path d="M 308.457 375.862 C 317.733 379.989 327.425 384.2 337.57 383.797 C 347.715 383.394 358.39 376.861 359.972 366.832 C 360.787 361.655 359.169 356.1 361.151 351.248 C 363.818 344.721 372.421 342.203 379.109 344.44 C 385.796 346.677 390.71 352.446 394.232 358.555 C 400.823 369.984 403.464 384.985 396.397 396.127 C 390.271 405.785 378.653 410.15 367.845 413.893 C 353.45 418.879 337.378 423.828 323.429 417.703 C 309.4 411.544 301.759 393.746 306.954 379.332" fill="#3f3d56" style=""/>
  <path d="M 277.509 194.884 C 277.509 194.884 295.948 204.103 286.729 214.161 C 277.509 224.219 220.516 252.715 199.562 248.525 C 178.609 244.334 173.58 231.762 173.58 228.409 C 173.58 225.057 175.161 184.502 181.866 186.178 C 188.571 187.854 230.574 225.895 277.509 194.884 Z" style="fill: rgba(168, 33, 48, 0);"/>
  <path d="M 166.78 419.18 C 170.97 439.295 194.857 414.57 194.857 414.57 L 223.354 411.218 C 223.354 411.218 241.374 411.637 253.108 420.856 C 264.842 430.076 272.804 417.923 272.804 417.923 C 286.023 422.33 302.219 422.312 316.246 420.901 C 336.459 418.867 352.66 403.266 355.438 383.142 C 371.108 269.624 285.838 214.363 285.838 214.363 C 285.838 214.363 238.662 241.042 229.032 243.955 C 218.229 247.224 177.532 237.128 177.532 237.128 C 140.654 289.092 169.712 342.491 169.712 342.491 L 163.007 389.426 C 163.007 389.426 162.588 399.065 166.779 419.18 L 166.78 419.18 Z" fill="#3f3d56" style=""/>
</svg>