<?xml version="1.0" encoding="utf-8"?>
<svg viewBox="0 0 500 500" xmlns="http://www.w3.org/2000/svg" xmlns:bx="https://boxy-svg.com">
  <defs>
    <linearGradient id="gradient-2" bx:pinned="true">
      <stop offset="1" style="stop-color: rgb(246, 212, 210);"/>
    </linearGradient>
    <linearGradient id="gradient-3" bx:pinned="true">
      <stop offset="0" style="stop-color: rgb(155, 203, 177);"/>
      <stop offset="1" style="stop-color: rgb(226, 162, 162);"/>
    </linearGradient>
    <linearGradient id="color-0" gradientUnits="userSpaceOnUse" gradientTransform="matrix(1.156229, 0, 0, 1, 0, 0)" bx:pinned="true">
      <stop style="stop-color: rgb(174, 19, 38);"/>
    </linearGradient>
    <linearGradient id="color-1" gradientUnits="userSpaceOnUse" bx:pinned="true">
      <stop style="stop-color: rgb(52, 225, 235);"/>
    </linearGradient>
    <linearGradient id="color-2" gradientUnits="userSpaceOnUse" bx:pinned="true">
      <stop style="stop-color: rgb(232, 235, 52);"/>
    </linearGradient>
    <linearGradient id="color-3" gradientUnits="userSpaceOnUse" bx:pinned="true">
      <stop style="stop-color: rgb(193, 107, 207);"/>
    </linearGradient>
    <linearGradient id="color-6" gradientUnits="userSpaceOnUse" bx:pinned="true">
      <stop style="stop-color: rgb(187, 157, 171);"/>
    </linearGradient>
    <linearGradient id="color-7" gradientUnits="userSpaceOnUse" bx:pinned="true">
      <title>current grey</title>
      <stop style="stop-color: rgb(142, 124, 137);"/>
    </linearGradient>
    <linearGradient id="color-4" gradientUnits="userSpaceOnUse" bx:pinned="true">
      <stop style="stop-color: rgb(235, 143, 52);"/>
    </linearGradient>
    <linearGradient id="color-5" gradientUnits="userSpaceOnUse" gradientTransform="matrix(2.824007, 0, 0, 1, -762.877171, 0)" bx:pinned="true">
      <stop style="stop-color: rgb(51, 235, 124);"/>
    </linearGradient>
  </defs>
  <path style="stroke: rgba(246, 212, 210, 0); fill: url('#color-6');" d="M 473.997 500.908 L 456.039 399.82 L 452.853 388.458 L 450.219 381.314 L 445.748 371.672 L 442.758 366.448 L 439.393 361.856 L 435.755 358.349 L 430.012 354.358 L 424.424 350.783 L 416.83 346.93 L 409.149 343.251 L 397.239 338.392 L 386.622 334.418 L 367.137 328.09 L 347.937 322.593 L 326.664 317.421 L 313.843 314.408 L 273.446 301.584 L 249.913 -7.66 L 522.312 -5.653 L 522.624 501.353 L 473.997 500.908 Z"/>
  <path style="stroke: rgba(0, 0, 0, 0); fill: url('#color-6');" d="M 102.155 500.519 L 96.657 413.496 L 97.99 403.761 L 99.345 395.895 L 101.397 389.626 L 104.53 384.031 L 108.714 378.288 L 113.294 372.991 L 118.756 367.802 L 128.28 360.054 L 137.573 353.509 L 151.179 344.902 L 162.646 338.34 L 174.372 332.206 L 183.844 327.602 L 191.808 323.624 L 215.685 313.795 L 292.729 26.141 L 282.07 -7.33 L -12.096 -7.206 L -0.833 518.392 L 102.155 500.519 Z"/>
  <circle cx="274.228" cy="229.804" r="80.88" style="fill: rgb(252, 182, 182);"/>
  <path d="M 212.62 314.865 L 224.144 285.709 L 311.254 272.595 L 314.18 314.471 C 317.942 335.534 309.239 357.51 294.614 361.183 C 300.085 360.461 243.818 378.847 216.275 323.964 L 212.62 314.865 Z" style="fill: rgb(252, 182, 182);"/>
  <path d="M 355.892 244.727 C 354.842 248.932 352.721 258.945 349.407 258.995 C 346.7 259.034 344.108 215.594 346.812 208.409 C 349.919 200.154 341.756 189.712 335.606 184.353 C 324.55 174.715 300.006 195.409 275.05 186.035 C 274.388 185.787 274.52 185.815 266.639 182.671 C 242.389 172.995 241.114 172.716 239.725 172.578 C 227.969 171.415 213.623 181.034 207.764 192.763 C 201.675 204.956 206.763 215.413 201.036 244.909 C 200.369 248.348 199.321 253.248 197.672 253.32 C 194.657 253.452 191.714 237.351 190.943 233.134 C 187.714 215.467 184.6 198.434 190.943 179.306 C 191.636 177.22 195.899 169.477 204.401 154.074 C 216.647 131.886 222.806 120.75 224.586 118.75 C 237.352 104.394 260.587 91.299 280.096 96.882 C 289.957 99.704 288.188 104.242 300.282 108.657 C 321.832 116.525 340.563 106.903 344.017 113.703 C 345.847 117.305 340.727 120.275 340.653 127.16 C 340.525 138.973 355.465 142.386 364.203 154.074 C 368.899 160.357 376.939 160.425 355.892 244.727 Z" style="fill: rgb(254, 235, 181);"/>
  <path d="M 456.092 399.978 C 452.833 403.642 449.451 407.229 445.948 410.732 C 398.89 457.789 336.321 483.707 269.771 483.707 C 212.25 483.707 157.708 464.346 113.581 428.706 C 113.553 428.688 113.534 428.668 113.506 428.64 C 107.652 423.92 101.985 418.9 96.515 413.597 C 96.618 412.774 96.731 411.958 96.852 411.153 C 97.62 405.72 98.473 400.54 99.428 395.773 C 107.249 356.695 210.161 315.67 212.84 314.601 C 212.877 314.592 212.896 314.582 212.896 314.582 C 212.896 314.582 226.141 363.402 282.893 362.775 C 321.55 362.352 314.056 314.582 314.056 314.582 C 314.056 314.582 314.525 314.676 315.405 314.863 C 326.57 317.234 404.089 334.262 434.671 357.501 C 443.991 364.582 450.678 379.663 455.484 397.646 C 455.69 398.414 455.886 399.201 456.092 399.978 Z" style="fill: rgba(168, 33, 48, 0);"/>
</svg>