<?xml version="1.0" encoding="utf-8"?>
<svg viewBox="0 0 500 500" xmlns="http://www.w3.org/2000/svg" xmlns:bx="https://boxy-svg.com">
  <defs>
    <linearGradient id="gradient-2" bx:pinned="true">
      <stop offset="1" style="stop-color: rgb(246, 212, 210);"/>
    </linearGradient>
    <linearGradient id="gradient-3" bx:pinned="true">
      <stop offset="0" style="stop-color: rgb(155, 203, 177);"/>
      <stop offset="1" style="stop-color: rgb(226, 162, 162);"/>
    </linearGradient>
    <linearGradient id="color-0" gradientUnits="userSpaceOnUse" gradientTransform="matrix(1.156229, 0, 0, 1, 0, 0)" bx:pinned="true">
      <stop style="stop-color: rgb(174, 19, 38);"/>
    </linearGradient>
    <linearGradient id="color-1" gradientUnits="userSpaceOnUse" bx:pinned="true">
      <stop style="stop-color: rgb(52, 225, 235);"/>
    </linearGradient>
    <linearGradient id="color-2" gradientUnits="userSpaceOnUse" bx:pinned="true">
      <stop style="stop-color: rgb(232, 235, 52);"/>
    </linearGradient>
    <linearGradient id="color-3" gradientUnits="userSpaceOnUse" bx:pinned="true">
      <stop style="stop-color: rgb(193, 107, 207);"/>
    </linearGradient>
    <linearGradient id="color-6" gradientUnits="userSpaceOnUse" bx:pinned="true">
      <stop style="stop-color: rgb(187, 157, 171);"/>
    </linearGradient>
    <linearGradient id="color-7" gradientUnits="userSpaceOnUse" bx:pinned="true">
      <title>current grey</title>
      <stop style="stop-color: rgb(142, 124, 137);"/>
    </linearGradient>
    <linearGradient id="color-4" gradientUnits="userSpaceOnUse" bx:pinned="true">
      <stop style="stop-color: rgb(235, 143, 52);"/>
    </linearGradient>
    <linearGradient id="color-5" gradientUnits="userSpaceOnUse" gradientTransform="matrix(2.824007, 0, 0, 1, -762.877171, 0)" bx:pinned="true">
      <stop style="stop-color: rgb(51, 235, 124);"/>
    </linearGradient>
  </defs>
  <path style="stroke: rgba(0, 0, 0, 0); fill: rgb(187, 157, 171);" d="M 181.531 -1.685 L 209.235 138.576 L 301.816 229.625 L 304.406 404.397 L 227.782 408.08 L 243.118 522.627 L 513.595 511.818 L 512.065 -3.258 L 181.531 -1.685 Z"/>
  <path style="stroke: rgba(0, 0, 0, 0); fill: rgb(187, 157, 171);" d="M 145.069 239.096 L 138.356 235.986 L 140.134 226.422 L 142.633 227.832 L 147.324 230.465 L 223.788 130.343 L 213.733 -3.026 L -1.797 -5.154 L -7.433 516.023 L 253.562 523.125 L 223.357 282.553 L 145.069 239.096 Z"/>
  <path d="M 342.54 422.917 L 200.974 418.898 C 200.974 418.898 211.629 355.153 177.443 337.459 C 154.139 325.395 132.497 274.436 138.383 236.09 C 138.459 235.577 139.266 236.885 139.749 237.042 C 152.545 241.179 148.086 239.579 167.803 244.558 C 203.175 253.489 227.998 247.528 227.998 247.528 C 227.998 247.528 241.503 245.744 252.544 238.764 C 252.623 238.713 270.555 224.38 272.375 221.433 C 279.52 209.861 285.423 199.002 285.793 199.08 C 322.305 206.237 384.662 227.907 387.585 318.356 C 391.604 442.624 342.54 422.917 342.54 422.917 Z" fill="#3f3d56" style=""/>
  <path d="M 279.282 195.003 C 279.046 201.487 277.574 207.929 274.887 214.059 C 269.32 226.755 259.179 236.452 246.331 241.367 C 207.852 256.097 162.941 241.484 140.228 225.644 C 140.138 226.145 138.333 235.636 138.257 236.149 C 148.316 243.028 197.531 249.669 206.867 249.669 C 221.042 249.669 234.689 247.316 246.829 242.665 C 260.026 237.612 270.439 227.651 276.159 214.614 C 278.886 208.395 280.393 201.855 280.663 195.275 C 280.199 195.177 279.741 195.087 279.282 195.003 C 279.282 195.003 279.282 195.003 279.282 195.003 Z" style="fill: rgba(168, 33, 48, 0);"/>
  <path d="M 289.751 203.259 L 267.184 146.52 C 267.184 146.52 294.264 100.099 272.987 94.939 C 251.71 89.782 229.789 117.507 229.789 117.507 C 229.789 117.507 189.169 103.322 173.694 114.927 C 173.694 114.927 147.905 78.821 132.43 85.914 C 116.956 93.006 137.928 144.125 137.928 144.125 C 137.928 144.125 105.995 191.009 130.496 218.088 C 154.996 245.169 247.197 267.091 289.751 203.259 Z" style="" fill="#3f3d56"/>
  <path d="M 338.148 388.957 C 345.83 392.375 353.857 395.863 362.26 395.529 C 370.661 395.195 379.504 389.784 380.813 381.478 C 381.489 377.191 380.148 372.59 381.79 368.572 C 383.998 363.165 391.124 361.08 396.662 362.933 C 402.201 364.786 406.271 369.563 409.188 374.624 C 414.646 384.089 416.833 396.513 410.981 405.741 C 405.908 413.74 396.285 417.354 387.334 420.455 C 375.412 424.585 362.101 428.683 350.548 423.61 C 338.929 418.509 332.601 403.769 336.904 391.831" fill="#3f3d56" style=""/>
  <path d="M 211.032 177.747 C 211.032 177.747 197.149 172.194 188.125 179.136 L 198.538 195.102 C 198.538 195.102 211.032 177.747 211.032 177.747 Z" style="fill: rgb(206, 108, 117);"/>
  <path d="M 138.146 250.633 L 163.83 387.383 C 163.83 387.383 124.957 426.949 174.936 426.256 C 224.916 425.562 210.338 399.877 210.338 399.877 L 194.373 281.177" fill="#3f3d56" style=""/>
  <path d="M 173.675 427.265 C 160.14 427.265 151.953 424.162 149.333 418.035 C 144.561 406.874 160.096 389.852 162.76 387.052 L 145.489 284.814 L 147.463 284.48 L 164.902 387.719 L 164.544 388.083 C 164.365 388.267 146.594 406.543 151.173 417.249 C 153.526 422.748 161.501 425.448 174.923 425.256 C 193.58 424.996 205.612 421.086 209.716 413.949 C 213.413 407.522 209.507 400.441 209.468 400.37 L 209.373 400.203 L 209.347 400.011 L 198.239 317.407 L 200.224 317.139 L 211.306 399.563 C 211.963 400.81 215.416 408.025 211.461 414.928 C 206.93 422.834 194.647 426.982 174.95 427.256 C 174.52 427.261 174.095 427.265 173.675 427.265 Z" fill="#2f2e41" style=""/>
  <path d="M 203.396 250.633 L 229.08 387.383 C 229.08 387.383 190.207 426.949 240.187 426.256 C 290.166 425.562 275.59 399.877 275.59 399.877 L 259.623 281.177" fill="#3f3d56" style=""/>
  <path d="M 238.926 427.265 C 225.391 427.265 217.205 424.162 214.584 418.035 C 209.816 406.885 225.316 389.885 228.002 387.06 L 217.685 332.034 L 219.651 331.666 L 230.159 387.711 L 229.794 388.083 C 229.615 388.267 211.845 406.543 216.425 417.249 C 218.776 422.748 226.756 425.458 240.173 425.256 C 258.846 424.995 270.881 421.08 274.977 413.933 C 278.671 407.485 274.759 400.442 274.718 400.371 L 274.623 400.203 L 258.632 281.31 L 260.615 281.044 L 276.556 399.563 C 277.214 400.81 280.668 408.025 276.713 414.928 C 272.182 422.834 259.897 426.982 240.2 427.256 C 239.771 427.261 239.345 427.265 238.926 427.265 Z" fill="#2f2e41" style=""/>
</svg>