<?xml version="1.0" encoding="utf-8"?>
<svg viewBox="0 0 500 500" xmlns="http://www.w3.org/2000/svg">
  <path style="stroke: rgba(246, 212, 210, 0); fill: rgb(246, 212, 210);" d="M 261.847 486.318 L 285.241 484.098 L 308.148 479.802 L 327.082 474.294 L 343.661 468.184 L 353.455 464.146 L 365.015 458.239 L 377.357 451.504 L 392.043 442.088 L 407.121 430.629 L 416.458 422.736 L 419.123 420.072 L 428.682 410.626 L 435.951 402.701 L 432.765 391.339 L 430.131 384.195 L 425.66 374.553 L 422.67 369.329 L 419.305 364.737 L 415.667 361.23 L 409.924 357.239 L 404.336 353.664 L 396.742 349.811 L 389.061 346.132 L 377.151 341.273 L 366.534 337.299 L 347.049 330.971 L 327.849 325.474 L 306.576 320.302 L 293.755 317.289 L 253.358 304.465 L 229.825 -4.779 L 502.224 -2.772 L 502.536 504.234 L 260.001 510.862 L 261.847 486.318 Z"/>
  <path style="fill: rgb(246, 212, 210); stroke: rgba(0, 0, 0, 0);" d="M 290.378 483.021 L 276.726 485.133 L 264.759 485.93 L 249.165 486.406 L 235.418 486.076 L 222.571 485.092 L 211.087 483.815 L 197.241 481.149 L 186.02 478.491 L 175.107 475.375 L 161.701 470.81 L 151.069 466.474 L 137.019 459.88 L 128.166 455.102 L 117.358 448.459 L 105.324 440.549 L 93.037 430.909 L 85.226 424.543 L 76.569 416.377 L 77.902 406.642 L 79.257 398.776 L 81.309 392.507 L 84.442 386.912 L 88.626 381.169 L 93.206 375.872 L 98.668 370.683 L 108.192 362.935 L 117.485 356.39 L 131.091 347.783 L 142.558 341.221 L 154.284 335.087 L 163.756 330.483 L 171.72 326.505 L 195.597 316.676 L 272.641 29.022 L 261.982 -4.449 L -32.184 -4.325 L -20.921 521.273 L 297.083 509.12 L 290.378 483.021 Z"/>
  <circle cx="254.14" cy="232.685" r="80.88" style="fill: rgb(252, 182, 182);"/>
  <path d="M 192.532 317.746 L 204.056 288.59 L 291.166 275.476 L 294.092 317.352 C 297.854 338.415 289.151 360.391 274.526 364.064 C 279.997 363.342 223.73 381.728 196.187 326.845 L 192.532 317.746 Z" style="fill: rgb(252, 182, 182);"/>
  <path d="M 335.804 247.608 C 334.754 251.813 332.633 261.826 329.319 261.876 C 326.612 261.915 324.02 218.475 326.724 211.29 C 329.831 203.035 321.668 192.593 315.518 187.234 C 304.462 177.596 279.918 198.29 254.962 188.916 C 254.3 188.668 254.432 188.696 246.551 185.552 C 222.301 175.876 221.026 175.597 219.637 175.459 C 207.881 174.296 193.535 183.915 187.676 195.644 C 181.587 207.837 186.675 218.294 180.948 247.79 C 180.281 251.229 179.233 256.129 177.584 256.201 C 174.569 256.333 171.626 240.232 170.855 236.015 C 167.626 218.348 164.512 201.315 170.855 182.187 C 171.548 180.101 175.811 172.358 184.313 156.955 C 196.559 134.767 202.718 123.631 204.498 121.631 C 217.264 107.275 240.499 94.18 260.008 99.763 C 269.869 102.585 268.1 107.123 280.194 111.538 C 301.744 119.406 320.475 109.784 323.929 116.584 C 325.759 120.186 320.639 123.156 320.565 130.041 C 320.437 141.854 335.377 145.267 344.115 156.955 C 348.811 163.238 356.851 163.306 335.804 247.608 Z" fill="#2f2e41" style=""/>
  <path d="M 436.004 402.859 C 432.745 406.523 429.363 410.11 425.86 413.613 C 378.802 460.67 316.233 486.588 249.683 486.588 C 192.162 486.588 137.62 467.227 93.493 431.587 C 93.465 431.569 93.446 431.549 93.418 431.521 C 87.564 426.801 81.897 421.781 76.427 416.478 C 76.53 415.655 76.643 414.839 76.764 414.034 C 77.532 408.601 78.385 403.421 79.34 398.654 C 87.161 359.576 190.073 318.551 192.752 317.482 C 192.789 317.473 192.808 317.463 192.808 317.463 C 192.808 317.463 206.053 366.283 262.805 365.656 C 301.462 365.233 293.968 317.463 293.968 317.463 C 293.968 317.463 294.437 317.557 295.317 317.744 C 306.482 320.115 384.001 337.143 414.583 360.382 C 423.903 367.463 430.59 382.544 435.396 400.527 C 435.602 401.295 435.798 402.082 436.004 402.859 Z" style="fill: rgba(168, 33, 48, 0);"/>
</svg>