<?xml version="1.0" encoding="utf-8"?>
<svg viewBox="0 0 500 500" xmlns="http://www.w3.org/2000/svg">
  <path style="stroke: rgba(0, 0, 0, 0); fill: rgb(246, 212, 210);" d="M 401.208 504.682 L 397.625 433.27 L 396.848 420.814 L 395.718 407.746 L 394.048 398.573 L 392.035 391.169 L 389.224 385.512 L 378.125 380.172 L 358.911 371.106 L 344.871 364.487 L 325.617 355.417 L 311.554 348.972 L 301.516 344.016 L 300.293 348.636 L 296.758 339.517 L 258.061 325.535 L 220.271 13.803 L 290.456 -21.76 L 504.44 -11.436 L 503.55 502.645 L 401.208 504.682 Z"/>
  <path style="stroke: rgba(0, 0, 0, 0); fill: rgb(246, 212, 210);" d="M 106.717 508.562 L 110.438 428.44 L 112.046 406.661 L 113.099 400.745 L 115.551 396.065 L 118.469 391.378 L 126.772 382.129 L 136.872 374.518 L 150.99 366.384 L 161.664 360.985 L 170.414 356.756 L 181.46 352.456 L 190.683 349.153 L 199.707 346.22 L 200.788 346.981 L 214.204 357.011 L 225.991 331.882 L 250.426 125.905 L 273.371 -28.724 L -22.168 -10.874 L -5.892 503.316 L 106.717 508.562 Z"/>
  <circle cx="251.921" cy="243.282" r="77.418" fill="#ffb6b6" style=""/>
  <path fill="#ffb6b6" style="" d="M 207.478 332.149 L 203.98 296.794 L 273.824 283.734 L 301.065 348.426 C 296.34 371.726 265.45 376.545 237.095 366.578 C 237.084 368.052 221.503 361.419 215.721 357.955 C 215.448 358.126 199.035 348.438 200.665 347.42 L 207.478 332.149 Z"/>
  <path d="M 202.859 314.491 L 218.128 317.941 C 218.128 317.941 206.124 279.878 210.199 276.244 C 214.273 272.609 224.257 278.336 224.257 278.336 L 234.749 290.099 L 247.529 277.087 C 247.529 277.087 261.403 259.835 266.836 254.99 C 272.268 250.145 263.543 232.16 263.543 232.16 C 263.543 232.16 344.136 210.428 314.147 171.337 C 314.147 171.337 296.565 140.688 290.839 150.672 C 285.113 160.656 278.286 144.799 278.286 144.799 L 257.437 148.764 C 257.437 148.764 216.289 124.502 177.235 176.404 C 138.181 228.307 202.859 314.491 202.859 314.491 Z" fill="#2f2e41" style=""/>
  <path d="M 397.525 433.37 C 355.215 467.673 302.873 486.313 247.653 486.313 C 197.23 486.313 149.201 470.766 109.025 441.951 C 109.097 441.197 109.169 440.453 109.232 439.709 C 110.298 428.054 111.249 416.721 111.876 407.325 C 114.306 370.843 199.418 346.528 199.418 346.528 C 199.418 346.528 199.803 346.914 200.574 347.586 C 205.272 351.71 224.343 366.665 257.785 370.843 C 287.605 374.573 297.422 356.884 300.39 348.411 C 301.286 345.829 301.555 344.099 301.555 344.099 L 389.097 385.44 C 394.808 393.598 397.041 411.171 397.48 430.923 C 397.498 431.739 397.516 432.545 397.525 433.37 Z" style="fill: rgba(168, 33, 48, 0);"/>
</svg>