<?xml version="1.0" encoding="utf-8"?>
<svg viewBox="0 0 500 500" xmlns="http://www.w3.org/2000/svg">
  <path style="stroke: rgba(0, 0, 0, 0); fill: rgb(246, 212, 210);" d="M 265.774 487.32 L 294.577 483.952 L 316.395 478.744 L 337.985 471.073 L 354.896 463.513 L 368.253 456.752 L 381.911 447.788 L 399.662 435.075 L 398.885 422.619 L 397.755 409.551 L 396.085 400.378 L 394.072 392.974 L 391.261 387.317 L 380.162 381.977 L 360.948 372.911 L 346.908 366.292 L 327.654 357.222 L 313.591 350.777 L 303.553 345.821 L 302.33 350.441 L 298.795 341.322 L 260.098 327.34 L 222.308 15.608 L 292.493 -19.955 L 506.477 -9.631 L 505.587 504.45 L 259.71 505.895 L 265.774 487.32 Z"/>
  <path style="stroke: rgba(0, 0, 0, 0); fill: rgb(246, 212, 210);" d="M 285.015 484.977 L 268.331 487.206 L 233.131 487.519 L 210.313 484.9 L 183.42 478.875 L 156.057 469.332 L 131.877 457.173 L 110.793 443.632 L 112.475 430.245 L 114.083 408.466 L 115.136 402.55 L 117.588 397.87 L 120.506 393.183 L 128.809 383.934 L 138.909 376.323 L 153.027 368.189 L 163.701 362.79 L 172.451 358.561 L 183.497 354.261 L 192.72 350.958 L 201.744 348.025 L 202.825 348.786 L 216.241 358.816 L 228.028 333.687 L 252.463 127.71 L 275.408 -26.919 L -20.131 -9.069 L -3.855 505.121 L 285.605 504.37 L 285.015 484.977 Z"/>
  <circle cx="253.958" cy="245.087" r="77.418" fill="#ffb6b6" style=""/>
  <path fill="#ffb6b6" style="" d="M 209.515 333.954 L 206.017 298.599 L 275.861 285.539 L 303.102 350.231 C 298.377 373.531 267.487 378.35 239.132 368.383 C 239.121 369.857 223.54 363.224 217.758 359.76 C 217.485 359.931 201.072 350.243 202.702 349.225 L 209.515 333.954 Z"/>
  <path d="M 193.931 294.662 L 220.165 319.746 C 220.165 319.746 208.161 281.683 212.236 278.049 C 216.31 274.414 226.294 280.141 226.294 280.141 L 236.786 291.904 L 249.566 278.892 C 249.566 278.892 263.44 261.64 268.873 256.795 C 274.305 251.95 265.58 233.965 265.58 233.965 C 265.58 233.965 309.778 245.599 311.591 192.939 C 295.01 160.676 259.474 150.569 259.474 150.569 C 259.474 150.569 215.013 133.346 179.272 178.209 C 143.531 223.072 193.931 294.662 193.931 294.662 Z" style="fill: rgb(255, 182, 182);"/>
  <path d="M 399.562 435.175 C 357.252 469.478 304.91 488.118 249.69 488.118 C 199.267 488.118 151.238 472.571 111.062 443.756 C 111.134 443.002 111.206 442.258 111.269 441.514 C 112.335 429.859 113.286 418.526 113.913 409.13 C 116.343 372.648 201.455 348.333 201.455 348.333 C 201.455 348.333 201.84 348.719 202.611 349.391 C 207.309 353.515 226.38 368.47 259.822 372.648 C 289.642 376.378 299.459 358.689 302.427 350.216 C 303.323 347.634 303.592 345.904 303.592 345.904 L 391.134 387.245 C 396.845 395.403 399.078 412.976 399.517 432.728 C 399.535 433.544 399.553 434.35 399.562 435.175 Z" style="fill: rgba(168, 33, 48, 0);"/>
</svg>