<?xml version="1.0" encoding="utf-8"?>
<svg viewBox="0 0 500 500" xmlns="http://www.w3.org/2000/svg">
  <path style="stroke: rgba(0, 0, 0, 0); fill: rgb(246, 212, 210);" d="M 174.37 -9.438 L 202.074 130.823 L 294.655 221.872 L 297.245 396.644 L 220.621 400.327 L 235.957 514.874 L 506.434 504.065 L 504.904 -11.011 L 174.37 -9.438 Z"/>
  <path style="fill: rgb(246, 212, 210); stroke: rgba(0, 0, 0, 0);" d="M 137.908 231.343 L 131.195 228.233 L 132.973 218.669 L 135.472 220.079 L 140.163 222.712 L 216.627 122.59 L 206.572 -10.779 L -8.958 -12.907 L -14.594 508.27 L 246.401 515.372 L 216.196 274.8 L 137.908 231.343 Z"/>
  <path d="M 335.379 415.164 L 193.813 411.145 C 193.813 411.145 204.468 347.4 170.282 329.706 C 146.978 317.642 125.336 266.683 131.222 228.337 C 131.298 227.824 132.105 229.132 132.588 229.289 C 145.384 233.426 140.925 231.826 160.642 236.805 C 196.014 245.736 220.837 239.775 220.837 239.775 C 220.837 239.775 234.342 237.991 245.383 231.011 C 245.462 230.96 263.394 216.627 265.214 213.68 C 272.359 202.108 278.262 191.249 278.632 191.327 C 315.144 198.484 377.501 220.154 380.424 310.603 C 384.443 434.871 335.379 415.164 335.379 415.164 Z" fill="#3f3d56" style=""/>
  <path d="M 272.121 187.25 C 271.885 193.734 270.413 200.176 267.726 206.306 C 262.159 219.002 252.018 228.699 239.17 233.614 C 200.691 248.344 155.78 233.731 133.067 217.891 C 132.977 218.392 131.172 227.883 131.096 228.396 C 141.155 235.275 190.37 241.916 199.706 241.916 C 213.881 241.916 227.528 239.563 239.668 234.912 C 252.865 229.859 263.278 219.898 268.998 206.861 C 271.725 200.642 273.232 194.102 273.502 187.522 C 273.038 187.424 272.58 187.334 272.121 187.25 C 272.121 187.25 272.121 187.25 272.121 187.25 Z" style="fill: rgba(168, 33, 48, 0);"/>
  <path d="M 282.59 195.506 L 260.023 138.767 C 260.023 138.767 287.103 92.346 265.826 87.186 C 244.549 82.029 222.628 109.754 222.628 109.754 C 222.628 109.754 182.008 95.569 166.533 107.174 C 166.533 107.174 140.744 71.068 125.269 78.161 C 109.795 85.253 130.767 136.372 130.767 136.372 C 130.767 136.372 98.834 183.256 123.335 210.335 C 147.835 237.416 240.036 259.338 282.59 195.506 Z" style="" fill="#3f3d56"/>
  <path d="M 330.987 381.204 C 338.669 384.622 346.696 388.11 355.099 387.776 C 363.5 387.442 372.343 382.031 373.652 373.725 C 374.328 369.438 372.987 364.837 374.629 360.819 C 376.837 355.412 383.963 353.327 389.501 355.18 C 395.04 357.033 399.11 361.81 402.027 366.871 C 407.485 376.336 409.672 388.76 403.82 397.988 C 398.747 405.987 389.124 409.601 380.173 412.702 C 368.251 416.832 354.94 420.93 343.387 415.857 C 331.768 410.756 325.44 396.016 329.743 384.078" fill="#3f3d56" style=""/>
  <path d="M 203.871 169.994 C 203.871 169.994 189.988 164.441 180.964 171.383 L 191.377 187.349 C 191.377 187.349 203.871 169.994 203.871 169.994 Z" fill="#a82130" style=""/>
  <path d="M 130.985 242.88 L 156.669 379.63 C 156.669 379.63 117.796 419.196 167.775 418.503 C 217.755 417.809 203.177 392.124 203.177 392.124 L 187.212 273.424" fill="#3f3d56" style=""/>
  <path d="M 166.514 419.512 C 152.979 419.512 144.792 416.409 142.172 410.282 C 137.4 399.121 152.935 382.099 155.599 379.299 L 138.328 277.061 L 140.302 276.727 L 157.741 379.966 L 157.383 380.33 C 157.204 380.514 139.433 398.79 144.012 409.496 C 146.365 414.995 154.34 417.695 167.762 417.503 C 186.419 417.243 198.451 413.333 202.555 406.196 C 206.252 399.769 202.346 392.688 202.307 392.617 L 202.212 392.45 L 202.186 392.258 L 191.078 309.654 L 193.063 309.386 L 204.145 391.81 C 204.802 393.057 208.255 400.272 204.3 407.175 C 199.769 415.081 187.486 419.229 167.789 419.503 C 167.359 419.508 166.934 419.512 166.514 419.512 Z" fill="#2f2e41" style=""/>
  <path d="M 196.235 242.88 L 221.919 379.63 C 221.919 379.63 183.046 419.196 233.026 418.503 C 283.005 417.809 268.429 392.124 268.429 392.124 L 252.462 273.424" fill="#3f3d56" style=""/>
  <path d="M 231.765 419.512 C 218.23 419.512 210.044 416.409 207.423 410.282 C 202.655 399.132 218.155 382.132 220.841 379.307 L 210.524 324.281 L 212.49 323.913 L 222.998 379.958 L 222.633 380.33 C 222.454 380.514 204.684 398.79 209.264 409.496 C 211.615 414.995 219.595 417.705 233.012 417.503 C 251.685 417.242 263.72 413.327 267.816 406.18 C 271.51 399.732 267.598 392.689 267.557 392.618 L 267.462 392.45 L 251.471 273.557 L 253.454 273.291 L 269.395 391.81 C 270.053 393.057 273.507 400.272 269.552 407.175 C 265.021 415.081 252.736 419.229 233.039 419.503 C 232.61 419.508 232.184 419.512 231.765 419.512 Z" fill="#2f2e41" style=""/>
</svg>