<?xml version="1.0" encoding="utf-8"?>
<svg viewBox="0 0 500 500" xmlns="http://www.w3.org/2000/svg">
  <defs>
    <clipPath id="2b7a909b80">
      <path d="M 187.5 0 C 83.945312 0 0 83.945312 0 187.5 C 0 291.054688 83.945312 375 187.5 375 C 291.054688 375 375 291.054688 375 187.5 C 375 83.945312 291.054688 0 187.5 0 " clip-rule="nonzero"/>
    </clipPath>
  </defs>
  <rect x="-23.817" y="-32.489" width="545.55" height="560.49" style="stroke: rgba(0, 0, 0, 0); fill: rgb(84, 84, 84);"/>
  <g clip-path="url(#2b7a909b80)" transform="matrix(1.908199, 0, 0, 1.89032, -126.251617, -133.621078)" style=""/>
  <path fill="#2f2e41" d="M 298.335 245.496 C 298.335 247.488 298.238 249.476 298.042 251.461 C 297.843 253.445 297.554 255.414 297.163 257.371 C 296.777 259.324 296.292 261.258 295.714 263.164 C 295.132 265.07 294.464 266.945 293.698 268.789 C 292.937 270.629 292.085 272.429 291.148 274.187 C 290.206 275.945 289.183 277.652 288.077 279.312 C 286.968 280.968 285.781 282.566 284.519 284.109 C 283.253 285.648 281.917 287.125 280.507 288.535 C 279.097 289.945 277.62 291.281 276.081 292.547 C 274.538 293.812 272.941 294.996 271.284 296.105 C 269.624 297.211 267.917 298.234 266.159 299.175 C 264.402 300.113 262.601 300.965 260.761 301.73 C 258.917 302.492 257.042 303.164 255.136 303.742 C 253.23 304.32 251.296 304.804 249.343 305.191 C 247.386 305.582 245.417 305.875 243.433 306.07 C 241.448 306.265 239.46 306.363 237.468 306.363 C 235.472 306.363 233.484 306.265 231.499 306.07 C 229.519 305.875 227.546 305.582 225.593 305.191 C 223.636 304.804 221.706 304.32 219.8 303.742 C 217.89 303.164 216.015 302.492 214.175 301.73 C 212.331 300.965 210.534 300.113 208.777 299.175 C 207.015 298.234 205.308 297.211 203.652 296.105 C 201.995 294.996 200.394 293.812 198.855 292.547 C 197.312 291.281 195.839 289.945 194.429 288.535 C 193.019 287.125 191.683 285.648 190.417 284.109 C 189.152 282.566 187.968 280.968 186.859 279.312 C 185.749 277.652 184.726 275.945 183.788 274.187 C 182.847 272.429 181.995 270.629 181.234 268.789 C 180.472 266.945 179.8 265.07 179.222 263.164 C 178.644 261.258 178.159 259.324 177.769 257.371 C 177.382 255.414 177.089 253.445 176.894 251.461 C 176.698 249.476 176.601 247.488 176.601 245.496 C 176.601 243.504 176.698 241.515 176.894 239.531 C 177.089 237.547 177.382 235.578 177.769 233.621 C 178.159 231.668 178.644 229.734 179.222 227.828 C 179.8 225.918 180.472 224.047 181.234 222.203 C 181.995 220.363 182.847 218.562 183.788 216.804 C 184.726 215.047 185.749 213.336 186.859 211.679 C 187.968 210.023 189.152 208.422 190.417 206.883 C 191.683 205.34 193.019 203.867 194.429 202.457 C 195.839 201.047 197.312 199.711 198.855 198.445 C 200.394 197.179 201.995 195.996 203.652 194.886 C 205.308 193.781 207.015 192.758 208.777 191.816 C 210.534 190.875 212.331 190.027 214.175 189.261 C 216.015 188.5 217.89 187.828 219.8 187.25 C 221.706 186.672 223.636 186.187 225.593 185.8 C 227.546 185.41 229.519 185.117 231.499 184.922 C 233.484 184.726 235.472 184.629 237.468 184.629 C 239.46 184.629 241.448 184.726 243.433 184.922 C 245.417 185.117 247.386 185.41 249.343 185.8 C 251.296 186.187 253.23 186.672 255.136 187.25 C 257.042 187.828 258.917 188.5 260.761 189.261 C 262.601 190.027 264.402 190.875 266.159 191.816 C 267.917 192.758 269.624 193.781 271.284 194.886 C 272.941 195.996 274.538 197.179 276.081 198.445 C 277.62 199.711 279.097 201.047 280.507 202.457 C 281.917 203.867 283.253 205.34 284.519 206.883 C 285.781 208.422 286.968 210.023 288.077 211.679 C 289.183 213.336 290.206 215.047 291.148 216.804 C 292.085 218.562 292.937 220.363 293.698 222.203 C 294.464 224.047 295.132 225.918 295.714 227.828 C 296.292 229.734 296.777 231.668 297.163 233.621 C 297.554 235.578 297.843 237.547 298.042 239.531 C 298.238 241.515 298.335 243.504 298.335 245.496 Z M 298.335 245.496" fill-opacity="1" fill-rule="nonzero"/>
  <path fill="#2f2e41" d="M 187.089 319.992 L 199.777 287.566 L 265.331 277.699 L 272.374 349.476 L 206.113 350.883 L 187.089 319.992 Z M 187.089 319.992" fill-opacity="1" fill-rule="nonzero"/>
  <path fill="#2f2e41" d="M 298.921 256.726 C 298.132 259.89 296.534 267.425 294.042 267.465 C 292.007 267.492 290.054 234.8 292.089 229.394 C 294.429 223.183 288.284 215.324 283.656 211.293 C 275.335 204.039 256.866 219.613 238.085 212.558 C 237.589 212.371 237.687 212.39 231.757 210.027 C 213.507 202.746 212.546 202.535 211.503 202.429 C 202.656 201.554 191.859 208.793 187.448 217.621 C 182.866 226.797 186.695 234.668 182.386 256.863 C 181.886 259.449 181.097 263.136 179.855 263.191 C 177.585 263.293 175.37 251.175 174.792 248.004 C 172.363 234.707 170.019 221.886 174.792 207.492 C 175.312 205.925 178.523 200.097 184.917 188.504 C 194.136 171.808 198.769 163.429 200.109 161.922 C 209.714 151.117 227.202 141.265 241.882 145.465 C 249.304 147.59 247.972 151.004 257.073 154.328 C 273.292 160.25 287.386 153.008 289.988 158.125 C 291.363 160.836 287.511 163.07 287.456 168.25 C 287.359 177.14 298.601 179.711 305.175 188.504 C 308.71 193.234 314.761 193.285 298.921 256.726 Z M 298.921 256.726" fill-opacity="1" fill-rule="nonzero"/>
  <path fill="#2f2e41" d="M 373.87 371.804 C 374.027 372.383 417.602 517.303 414.966 519.94 C 379.552 555.354 113.949 555.333 80.741 528.512 C 80.718 528.497 105.202 373.984 105.921 370.394 C 111.808 340.988 189.253 310.113 191.269 309.308 C 191.296 309.304 191.312 309.297 191.312 309.297 C 191.312 309.297 201.281 346.035 243.988 345.562 C 273.077 345.246 267.441 309.297 267.441 309.297 C 267.441 309.297 267.792 309.367 268.456 309.508 C 276.859 311.293 335.195 324.105 358.206 341.593 C 365.222 346.922 370.253 358.273 373.87 371.804 Z" fill-opacity="1" fill-rule="nonzero"/>
</svg>