<?xml version="1.0" encoding="utf-8"?>
<svg viewBox="0 0 500 500" xmlns="http://www.w3.org/2000/svg">
  <path style="fill: rgb(246, 212, 210); stroke: rgba(0, 0, 0, 0);" d="M 99.821 373.507 L 76.297 502.999 L -1.781 502.782 L -1.26 163.235 L 0.114 -12.841 L 252.61 -3.334 L 302.424 -5.014 L 233.585 300.769 L 160.42 282.864 L 149.778 317.418 L 131.975 329.064 L 122.3 338.067 L 110.953 351.637 L 99.821 373.507 Z"/>
  <path style="fill: rgb(246, 212, 210); stroke: rgba(0, 0, 0, 0);" d="M 446.375 504.987 L 406.203 357.68 L 402.249 344.791 C 402.249 344.791 396.303 328.858 394.756 325.935 L 385.377 310.641 L 371.248 308.447 L 360.601 298.616 L 334.504 176.872 L 263.445 97.079 L 273.136 -3.45 L 461.906 -2.641 L 503.346 -11.341 L 509.899 487.687 L 502.966 503.143 L 446.375 504.987 Z"/>
  <polygon points="339.863 297.709 227.734 297.709 227.734 145.955 324.687 199.069 339.863 297.709" fill="#2f2e41" style=""/>
  <circle cx="248.448" cy="198.126" r="72.799" fill="#ffb6b6" style=""/>
  <polygon points="206.657 281.69 203.367 248.444 269.044 236.164 307.826 330.589 240.38 408.151 192.324 313.727 206.657 281.69" fill="#ffb6b6" style=""/>
  <path d="M 405.496 358.444 C 404.678 359.295 403.844 360.138 403.009 360.973 C 400.362 363.62 397.664 366.192 394.907 368.687 C 353.596 406.153 300.592 426.657 244.435 426.657 C 192.662 426.657 143.569 409.231 103.852 377.152 C 103.827 377.135 103.81 377.118 103.785 377.093 C 102.579 376.123 101.39 375.137 100.202 374.133 C 100.412 373.526 100.64 372.928 100.868 372.338 C 113.64 339.061 138.865 322.782 154.175 315.658 C 161.763 312.125 166.914 310.835 166.914 310.835 L 184.888 278.461 L 197.543 302.067 L 206.867 319.468 L 245.126 390.852 L 278.133 308.669 L 288.359 283.191 L 290.981 276.665 L 303.45 286.369 L 315.253 295.55 L 339.02 300.794 L 358.301 305.052 L 384.487 310.835 C 395.076 319.46 401.517 335.866 405.117 356.252 C 405.252 356.977 405.378 357.71 405.496 358.444 Z" style="fill: rgba(168, 33, 48, 0);"/>
  <path d="M 210.155 115.396 C 219.022 100.501 235.309 90.281 252.578 88.774 C 269.848 87.268 287.658 94.514 298.97 107.65 C 305.711 115.477 310.131 125.063 316.702 133.033 C 330.843 150.186 354.955 160.216 361.132 181.57 C 363.827 190.888 362.484 200.837 361.12 210.441 C 359.951 218.673 358.782 226.905 357.613 235.136 C 356.703 241.543 355.83 248.297 358.232 254.305 C 361.051 261.353 367.795 265.97 372.156 272.184 C 379.576 282.757 379.033 298.238 370.891 308.266 C 367.36 312.615 362.68 315.895 358.978 320.1 C 355.276 324.304 352.531 330.052 354.081 335.435 C 357.05 345.748 373.222 348.221 374.996 358.804 C 375.903 364.215 372.166 369.619 367.268 372.093 C 362.372 374.568 356.608 374.639 351.161 373.977 C 330.461 371.461 311.294 358.526 301.216 340.271 C 291.137 322.016 290.404 298.905 299.303 280.047 C 306.613 264.559 320.2 250.872 320.051 233.746 C 319.97 224.416 315.691 215.702 311.507 207.362 C 302.941 190.293 294.376 173.224 285.811 156.156 C 281.223 147.013 275.898 137.16 266.454 133.232 C 259.153 130.196 250.871 131.374 243.062 132.616 C 235.255 133.857 226.984 135.066 219.662 132.083 C 212.341 129.1 206.808 120.238 210.297 113.143" fill="#2f2e41" style=""/>
  <path d="M 222.912 116.174 C 208.847 111.544 193.07 118.977 183.548 130.316 C 174.025 141.655 169.407 156.203 165.007 170.342 C 162.486 178.44 159.966 186.539 157.446 194.638 C 155.075 202.256 152.704 209.874 150.332 217.492 C 147.544 226.453 144.733 235.973 147.021 245.074 C 148.676 251.654 152.933 257.628 153.025 264.412 C 153.121 271.499 148.683 277.72 144.793 283.645 C 140.904 289.57 137.254 296.609 139.106 303.45 C 141.925 313.855 156.391 319.575 155.598 330.325 C 155.334 333.913 153.259 337.231 153.297 340.829 C 153.344 345.406 156.928 349.361 161.126 351.185 C 165.325 353.008 170.048 353.107 174.624 353.027 C 188.663 352.78 202.676 351.113 216.38 348.059 C 221.652 346.884 227.014 345.444 231.403 342.294 C 235.793 339.145 239.066 333.927 238.495 328.555 C 237.605 320.185 228.605 315.436 224.064 308.348 C 219.602 301.387 219.706 292.567 217.782 284.525 C 215.139 273.474 208.609 263.825 203.708 253.574 C 185.281 215.032 191.732 165.905 219.484 133.426 C 221.937 130.555 224.618 127.665 225.642 124.03 C 226.666 120.394 225.346 115.761 221.79 114.49" fill="#2f2e41" style=""/>
</svg>