<?xml version="1.0" encoding="utf-8"?>
<svg viewBox="0 0 500 500" xmlns="http://www.w3.org/2000/svg" xmlns:bx="https://boxy-svg.com">
  <defs>
    <linearGradient id="gradient-2" bx:pinned="true">
      <stop offset="1" style="stop-color: rgb(246, 212, 210);"/>
    </linearGradient>
    <linearGradient id="gradient-3" bx:pinned="true">
      <stop offset="0" style="stop-color: rgb(155, 203, 177);"/>
      <stop offset="1" style="stop-color: rgb(226, 162, 162);"/>
    </linearGradient>
    <linearGradient id="color-0" gradientUnits="userSpaceOnUse" gradientTransform="matrix(1.156229, 0, 0, 1, 0, 0)" bx:pinned="true">
      <stop style="stop-color: rgb(174, 19, 38);"/>
    </linearGradient>
    <linearGradient id="color-1" gradientUnits="userSpaceOnUse" bx:pinned="true">
      <stop style="stop-color: rgb(52, 225, 235);"/>
    </linearGradient>
    <linearGradient id="color-2" gradientUnits="userSpaceOnUse" bx:pinned="true">
      <stop style="stop-color: rgb(232, 235, 52);"/>
    </linearGradient>
    <linearGradient id="color-3" gradientUnits="userSpaceOnUse" bx:pinned="true">
      <stop style="stop-color: rgb(193, 107, 207);"/>
    </linearGradient>
    <linearGradient id="color-6" gradientUnits="userSpaceOnUse" bx:pinned="true">
      <stop style="stop-color: rgb(187, 157, 171);"/>
    </linearGradient>
    <linearGradient id="color-7" gradientUnits="userSpaceOnUse" bx:pinned="true">
      <title>current grey</title>
      <stop style="stop-color: rgb(142, 124, 137);"/>
    </linearGradient>
    <linearGradient id="color-4" gradientUnits="userSpaceOnUse" bx:pinned="true">
      <stop style="stop-color: rgb(235, 143, 52);"/>
    </linearGradient>
    <linearGradient id="color-5" gradientUnits="userSpaceOnUse" gradientTransform="matrix(2.824007, 0, 0, 1, -762.877171, 0)" bx:pinned="true">
      <stop style="stop-color: rgb(51, 235, 124);"/>
    </linearGradient>
  </defs>
  <path style="stroke: rgba(0, 0, 0, 0); fill: url('#color-6');" d="M 95.413 381.21 L 87.539 503.066 L -2.958 501.234 L -2.437 161.687 L -1.063 -14.389 L 251.433 -4.882 L 301.247 -6.562 L 232.408 299.221 L 159.243 281.316 L 148.601 315.87 L 130.798 327.516 L 121.123 336.519 L 109.776 350.089 L 101.611 363.846 L 95.413 381.21 Z"/>
  <path style="stroke: rgba(0, 0, 0, 0); fill: url('#color-6');" d="M 408.686 502.953 L 405.026 356.132 L 401.072 343.243 C 401.072 343.243 395.126 327.31 393.579 324.387 L 384.2 309.093 L 370.071 305.119 L 359.424 297.068 L 333.327 175.324 L 262.268 95.531 L 271.959 -4.998 L 460.729 -4.189 L 502.169 -12.889 L 508.722 486.139 L 501.789 501.595 L 408.686 502.953 Z"/>
  <polygon points="338.686 296.161 226.557 296.161 226.557 144.407 323.51 197.521 338.686 296.161" fill="#2f2e41" style=""/>
  <circle cx="247.271" cy="196.578" r="72.799" style="fill: rgb(160, 97, 106);"/>
  <polygon points="205.48 280.142 202.19 246.896 267.867 234.616 306.649 329.041 239.203 406.603 191.147 312.179 205.48 280.142" style="fill: rgb(160, 97, 106);"/>
  <path d="M 404.319 356.896 C 403.501 357.747 402.667 358.59 401.832 359.425 C 399.185 362.072 396.487 364.644 393.73 367.139 C 352.419 404.605 299.415 425.109 243.258 425.109 C 191.485 425.109 142.392 407.683 102.675 375.604 C 102.65 375.587 102.633 375.57 102.608 375.545 C 101.402 374.575 100.213 373.589 99.025 372.585 C 99.235 371.978 99.463 371.38 99.691 370.79 C 112.463 337.513 137.688 321.234 152.998 314.11 C 160.586 310.577 165.737 309.287 165.737 309.287 L 183.711 276.913 L 196.366 300.519 L 205.69 317.92 L 243.949 389.304 L 276.956 307.121 L 287.182 281.643 L 289.804 275.117 L 302.273 284.821 L 314.076 294.002 L 337.843 299.246 L 357.124 303.504 L 383.31 309.287 C 393.899 317.912 400.34 334.318 403.94 354.704 C 404.075 355.429 404.201 356.162 404.319 356.896 Z" style="fill: rgba(168, 33, 48, 0);"/>
  <path d="M 208.978 113.848 C 217.845 98.953 234.132 88.733 251.401 87.226 C 268.671 85.72 286.481 92.966 297.793 106.102 C 304.534 113.929 308.954 123.515 315.525 131.485 C 329.666 148.638 353.778 158.668 359.955 180.022 C 362.65 189.34 361.307 199.289 359.943 208.893 C 358.774 217.125 357.605 225.357 356.436 233.588 C 355.526 239.995 354.653 246.749 357.055 252.757 C 359.874 259.805 366.618 264.422 370.979 270.636 C 378.399 281.209 377.856 296.69 369.714 306.718 C 366.183 311.067 361.503 314.347 357.801 318.552 C 354.099 322.756 351.354 328.504 352.904 333.887 C 355.873 344.2 372.045 346.673 373.819 357.256 C 374.726 362.667 370.989 368.071 366.091 370.545 C 361.195 373.02 355.431 373.091 349.984 372.429 C 329.284 369.913 310.117 356.978 300.039 338.723 C 289.96 320.468 289.227 297.357 298.126 278.499 C 305.436 263.011 319.023 249.324 318.874 232.198 C 318.793 222.868 314.514 214.154 310.33 205.814 C 301.764 188.745 293.199 171.676 284.634 154.608 C 280.046 145.465 274.721 135.612 265.277 131.684 C 257.976 128.648 249.694 129.826 241.885 131.068 C 234.078 132.309 225.807 133.518 218.485 130.535 C 211.164 127.552 205.631 118.69 209.12 111.595" fill="#2f2e41" style=""/>
  <path d="M 221.735 114.626 C 207.67 109.996 191.893 117.429 182.371 128.768 C 172.848 140.107 168.23 154.655 163.83 168.794 C 161.309 176.892 158.789 184.991 156.269 193.09 C 153.898 200.708 151.527 208.326 149.155 215.944 C 146.367 224.905 143.556 234.425 145.844 243.526 C 147.499 250.106 151.756 256.08 151.848 262.864 C 151.944 269.951 147.506 276.172 143.616 282.097 C 139.727 288.022 136.077 295.061 137.929 301.902 C 140.748 312.307 155.214 318.027 154.421 328.777 C 154.157 332.365 152.082 335.683 152.12 339.281 C 152.167 343.858 155.751 347.813 159.949 349.637 C 164.148 351.46 168.871 351.559 173.447 351.479 C 187.486 351.232 201.499 349.565 215.203 346.511 C 220.475 345.336 225.837 343.896 230.226 340.746 C 234.616 337.597 237.889 332.379 237.318 327.007 C 236.428 318.637 227.428 313.888 222.887 306.8 C 218.425 299.839 218.529 291.019 216.605 282.977 C 213.962 271.926 207.432 262.277 202.531 252.026 C 184.104 213.484 190.555 164.357 218.307 131.878 C 220.76 129.007 223.441 126.117 224.465 122.482 C 225.489 118.846 224.169 114.213 220.613 112.942" fill="#2f2e41" style=""/>
</svg>