<?xml version="1.0" encoding="utf-8"?>
<svg viewBox="0 0 500 500" xmlns="http://www.w3.org/2000/svg">
  <path style="fill: rgb(246, 212, 210); stroke: rgba(0, 0, 0, 0);" d="M 95.354 375.901 L 117.497 392.805 L 151.761 411.743 L 180.346 421.599 L 214.283 427.217 L 238.722 428.859 L 254.026 428.652 L 272.489 426.772 L 272.847 501.088 L -6.248 505.176 L -5.727 165.629 L -4.353 -10.447 L 248.143 -0.94 L 297.957 -2.62 L 229.118 303.163 L 155.953 285.258 L 145.311 319.812 L 127.508 331.458 L 117.833 340.461 L 106.486 354.031 L 95.354 375.901 Z"/>
  <path style="fill: rgb(246, 212, 210); stroke: rgba(0, 0, 0, 0);" d="M 255.875 428.968 L 279.217 425.914 L 299.107 420.684 L 321.548 413.471 L 337.165 405.997 L 359.131 394.635 L 375.076 383.264 L 389.754 371.559 L 401.736 360.074 L 397.782 347.185 C 397.782 347.185 391.836 331.252 390.289 328.329 L 380.91 313.035 L 366.781 310.841 L 356.134 301.01 L 330.037 179.266 L 258.978 99.473 L 268.669 -1.056 L 457.439 -0.247 L 498.879 -8.947 L 505.432 490.081 L 498.499 505.537 L 248.807 504.856 L 255.875 428.968 Z"/>
  <polygon points="335.396 300.103 223.267 300.103 223.267 148.349 320.22 201.463 335.396 300.103" fill="#2f2e41" style=""/>
  <circle cx="243.981" cy="200.52" r="72.799" style="fill: rgb(160, 97, 106);"/>
  <polygon points="202.19 284.084 198.9 250.838 264.577 238.558 303.359 332.983 235.913 410.545 187.857 316.121 202.19 284.084" style="fill: rgb(160, 97, 106);"/>
  <path d="M 401.029 360.838 C 400.211 361.689 399.377 362.532 398.542 363.367 C 395.895 366.014 393.197 368.586 390.44 371.081 C 349.129 408.547 296.125 429.051 239.968 429.051 C 188.195 429.051 139.102 411.625 99.385 379.546 C 99.36 379.529 99.343 379.512 99.318 379.487 C 98.112 378.517 96.923 377.531 95.735 376.527 C 95.945 375.92 96.173 375.322 96.401 374.732 C 109.173 341.455 134.398 325.176 149.708 318.052 C 157.296 314.519 162.447 313.229 162.447 313.229 L 180.421 280.855 L 193.076 304.461 L 202.4 321.862 L 240.659 393.246 L 273.666 311.063 L 283.892 285.585 L 286.514 279.059 L 298.983 288.763 L 310.786 297.944 L 334.553 303.188 L 353.834 307.446 L 380.02 313.229 C 390.609 321.854 397.05 338.26 400.65 358.646 C 400.785 359.371 400.911 360.104 401.029 360.838 Z" style="fill: rgba(168, 33, 48, 0);"/>
  <path d="M 205.688 117.79 C 214.555 102.895 230.842 92.675 248.111 91.168 C 265.381 89.662 283.191 96.908 294.503 110.044 C 301.244 117.871 305.664 127.457 312.235 135.427 C 326.376 152.58 350.488 162.61 356.665 183.964 C 359.36 193.282 358.017 203.231 356.653 212.835 C 355.484 221.067 354.315 229.299 353.146 237.53 C 352.236 243.937 351.363 250.691 353.765 256.699 C 356.584 263.747 363.328 268.364 367.689 274.578 C 375.109 285.151 374.566 300.632 366.424 310.66 C 362.893 315.009 358.213 318.289 354.511 322.494 C 350.809 326.698 348.064 332.446 349.614 337.829 C 352.583 348.142 368.755 350.615 370.529 361.198 C 371.436 366.609 367.699 372.013 362.801 374.487 C 357.905 376.962 352.141 377.033 346.694 376.371 C 325.994 373.855 306.827 360.92 296.749 342.665 C 286.67 324.41 285.937 301.299 294.836 282.441 C 302.146 266.953 315.733 253.266 315.584 236.14 C 315.503 226.81 311.224 218.096 307.04 209.756 C 298.474 192.687 289.909 175.618 281.344 158.55 C 276.756 149.407 271.431 139.554 261.987 135.626 C 254.686 132.59 246.404 133.768 238.595 135.01 C 230.788 136.251 222.517 137.46 215.195 134.477 C 207.874 131.494 202.341 122.632 205.83 115.537" fill="#2f2e41" style=""/>
  <path d="M 218.445 118.568 C 204.38 113.938 188.603 121.371 179.081 132.71 C 169.558 144.049 164.94 158.597 160.54 172.736 C 158.019 180.834 155.499 188.933 152.979 197.032 C 150.608 204.65 148.237 212.268 145.865 219.886 C 143.077 228.847 140.266 238.367 142.554 247.468 C 144.209 254.048 148.466 260.022 148.558 266.806 C 148.654 273.893 144.216 280.114 140.326 286.039 C 136.437 291.964 132.787 299.003 134.639 305.844 C 137.458 316.249 151.924 321.969 151.131 332.719 C 150.867 336.307 148.792 339.625 148.83 343.223 C 148.877 347.8 152.461 351.755 156.659 353.579 C 160.858 355.402 165.581 355.501 170.157 355.421 C 184.196 355.174 198.209 353.507 211.913 350.453 C 217.185 349.278 222.547 347.838 226.936 344.688 C 231.326 341.539 234.599 336.321 234.028 330.949 C 233.138 322.579 224.138 317.83 219.597 310.742 C 215.135 303.781 215.239 294.961 213.315 286.919 C 210.672 275.868 204.142 266.219 199.241 255.968 C 180.814 217.426 187.265 168.299 215.017 135.82 C 217.47 132.949 220.151 130.059 221.175 126.424 C 222.199 122.788 220.879 118.155 217.323 116.884" fill="#2f2e41" style=""/>
</svg>